<svg width="122" height="54" viewBox="0 0 122 54" fill="none" xmlns="http://www.w3.org/2000/svg">
<path d="M120.855 40.5507C85.0773 58.4737 44.165 35.4117 8.37407 53.1516C7.16212 53.7499 5.72475 52.984 5.5498 51.6268C4.01305 39.4172 2.48892 27.2094 0.95217 14.9998C0.845021 14.1826 1.26363 13.3724 1.98348 12.9918C37.539 -5.66057 78.2788 17.1579 114.083 0.545956C115.606 -0.165174 117.25 1.25029 116.798 2.87139C115.044 9.24658 113.275 15.4514 111.479 21.4714C111.003 23.0763 111.221 24.6853 112.073 25.7855C115.23 29.867 118.36 33.7765 121.466 37.4757C122.296 38.4563 121.987 39.9675 120.842 40.549L120.855 40.5507Z" fill="#B3E165"/>
</svg>
