<svg width="180" height="50" viewBox="0 0 180 50" fill="none" xmlns="http://www.w3.org/2000/svg">
<path d="M178.488 36.4151C127.813 52.5732 62.5919 33.1857 11.8501 49.172C10.1334 49.7099 7.89733 49.0233 7.46818 47.8103C3.5945 36.859 1.39059 13.8574 0.958658 10.7435C0.835779 9.85742 1.19582 9.27876 2.22353 8.93546C52.4684 -7.86339 112.307 15.5081 163.196 0.528771C165.364 -0.112057 167.973 1.14671 167.533 2.61146C165.782 8.34458 163.964 13.9061 162.101 19.3188C161.604 20.7606 162.146 22.2025 163.557 23.1866C168.775 26.837 173.925 30.3387 179.018 33.6573C180.374 34.5384 180.114 35.8887 178.488 36.4151Z" fill="#89C3D5"/>
</svg>
