<svg width="108" height="182" viewBox="0 0 108 182" fill="none" xmlns="http://www.w3.org/2000/svg">
<path d="M11.332 108.973L1.52608 110.817C0.831713 110.948 0.715985 111.889 1.35634 112.182L10.1902 116.263L11.332 108.973Z" fill="#F7EB60"/>
<path d="M29.0713 100.503L34.1633 102.671C35.4749 103.227 36.9716 103.034 37.9129 102.131C51.2755 89.2469 74.2512 82.2956 93.3693 90.4273C97.3658 92.1247 101.03 94.2695 104.333 96.7538C105.636 97.7336 105.305 99.4618 103.854 100.056C97.6975 102.556 89.8667 106.876 84.7515 110.926C79.4744 115.108 78.0548 123.726 87.2744 129.435C93.1456 133.077 99.8886 135.6 106.138 135.846C107.241 135.885 107.936 137.089 107.936 138.084C107.936 138.531 107.843 138.986 107.658 139.426C107.287 140.298 106.601 140.985 105.752 141.424C105.351 141.633 105.174 142.049 105.32 142.435C105.629 143.261 105.636 144.171 105.266 145.051C104.896 145.922 104.209 146.609 103.36 147.049C102.959 147.257 102.782 147.674 102.928 148.06C103.237 148.885 103.245 149.803 102.874 150.675C102.504 151.547 101.817 152.233 100.969 152.673C100.568 152.881 100.39 153.298 100.537 153.684C100.845 154.509 100.853 155.42 100.483 156.299C100.321 156.677 100.105 157.017 99.8346 157.318C99.094 158.159 97.8056 158.452 96.6791 158.066C93.7782 157.287 83.4168 152.488 72.4304 150.428C67.0915 149.425 61.6909 156.978 61.7064 160.597C61.7372 167.178 65.5022 176.274 67.1456 179.437C67.6393 180.386 66.8524 181.404 65.7568 181.227C62.9794 180.779 60.2096 179.993 57.4862 178.835C44.2624 173.203 24.0487 151.647 24.4731 132.745C24.5039 131.418 23.5935 130.168 22.2665 129.597C22.2665 129.597 14.7674 127.236 10.7324 121.11C2.97866 109.353 14.0268 95.3265 27.806 100.01C28.2458 100.156 28.6701 100.318 29.0867 100.496L29.0713 100.503Z" fill="#FFC3B7"/>
<path d="M13.0218 113.151C12.5589 114.239 12.7054 115.01 13.7933 115.473C14.8811 115.936 15.5369 115.512 15.9998 114.424C16.4627 113.336 16.3624 112.457 15.29 111.955C14.2793 111.477 13.477 112.063 13.014 113.159L13.0218 113.151Z" fill="#606060"/>
<path d="M59.8696 106.142C63.1177 104.298 67.7468 102.84 70.4316 102.848" stroke="#E8A69B" stroke-width="1.78" stroke-linecap="round" stroke-linejoin="round"/>
<path d="M56.954 102.565C59.0834 100.844 62.1771 99.1933 64.916 98.877" stroke="#E8A69B" stroke-width="1.78" stroke-linecap="round" stroke-linejoin="round"/>
<path d="M40.1262 141.588C39.9873 145.646 40.7357 149.573 42.9268 152.543" stroke="#E8A69B" stroke-width="1.78" stroke-linecap="round" stroke-linejoin="round"/>
<path d="M47.486 143.379C47.702 146.843 48.2883 149.674 49.7002 152.359" stroke="#E8A69B" stroke-width="1.78" stroke-linecap="round" stroke-linejoin="round"/>
<path d="M23.1964 44.5836L18.7825 45.2157C18.4697 45.2603 18.363 45.6734 18.6259 45.8118L22.2591 47.7634L23.1964 44.5836Z" fill="#F7EB60"/>
<path d="M31.6599 42.4277L33.7624 43.4681C34.3035 43.7361 34.9748 43.6753 35.4399 43.296C42.0793 37.8869 52.5806 35.2478 60.4798 39.1618C62.1322 39.9789 63.6126 40.985 64.9111 42.1344C65.4232 42.5887 65.1778 43.3418 64.5011 43.5734C61.6481 44.559 57.9538 46.3123 55.466 47.9994C52.9019 49.7374 51.7616 53.4931 55.4644 56.1628C57.8235 57.8662 60.631 59.0921 63.3563 59.3141C63.847 59.354 64.0787 59.8923 64.0186 60.3288C63.993 60.5248 63.9242 60.7234 63.8163 60.913C63.6013 61.2876 63.2582 61.5777 62.8598 61.756C62.6745 61.8398 62.5707 62.0177 62.6097 62.193C62.6973 62.5605 62.6446 62.9618 62.4269 63.3386C62.2118 63.7132 61.8687 64.0033 61.4704 64.1816C61.285 64.2654 61.1812 64.4434 61.2202 64.6186C61.3078 64.9862 61.2551 65.3875 61.0374 65.7643C60.8223 66.1389 60.4792 66.429 60.0809 66.6072C59.8955 66.691 59.7917 66.869 59.8308 67.0442C59.9183 67.4118 59.8657 67.8131 59.6479 68.1899C59.5535 68.3517 59.4376 68.4982 59.3027 68.6272C58.9293 68.98 58.3463 69.0877 57.8746 68.899C56.6488 68.5036 52.3905 66.2136 47.6893 65.1116C45.4081 64.5735 42.5823 67.7931 42.3717 69.3816C41.9897 72.2684 43.0975 76.3279 43.631 77.7451C43.7886 78.1706 43.3849 78.6027 42.9118 78.5066C41.7216 78.2601 40.5504 77.8649 39.4257 77.3103C33.9592 74.602 26.3772 64.7841 27.7004 56.4957C27.7928 55.9158 27.4701 55.3494 26.9202 55.0763C26.9202 55.0763 23.7705 53.9031 22.3645 51.1476C19.665 45.8463 25.3536 39.8957 31.1208 42.1955C31.3047 42.2707 31.4813 42.348 31.6545 42.4322L31.6599 42.4277Z" fill="#B3E165"/>
<path d="M23.7214 46.6005C23.4531 47.0685 23.4733 47.4081 23.9223 47.6307C24.3713 47.8534 24.6852 47.6789 24.9535 47.2109C25.2217 46.743 25.2271 46.3572 24.7902 46.1162C24.3775 45.8882 23.9896 46.1326 23.7214 46.6005Z" fill="#606060"/>
<path d="M44.5172 45.4825C46.0307 44.748 48.1167 44.1999 49.2787 44.256" stroke="#6FC989" stroke-width="1.81" stroke-linecap="round" stroke-linejoin="round"/>
<path d="M43.3839 43.7608C44.4026 43.0621 45.8258 42.413 47.0217 42.3294" stroke="#6FC989" stroke-width="1.81" stroke-linecap="round" stroke-linejoin="round"/>
<path d="M34.5459 60.1133C34.2383 61.9094 34.3296 63.6714 35.1254 65.0265" stroke="#6FC989" stroke-width="1.81" stroke-linecap="round" stroke-linejoin="round"/>
<path d="M37.6807 61.1914C37.5653 62.7347 37.6526 64.0038 38.1198 65.221" stroke="#6FC989" stroke-width="1.81" stroke-linecap="round" stroke-linejoin="round"/>
</svg>
