<svg width="121" height="122" viewBox="0 0 121 122" fill="none" xmlns="http://www.w3.org/2000/svg">
<path d="M103.993 32.97C104.991 30.938 102.06 28.2016 100.891 26.2648C99.6421 24.1992 97.8157 22.3619 95.6792 20.8026C93.4233 19.4202 91.0361 18.4205 88.6474 18.0574C86.4116 17.7142 82.7647 16.0396 81.2632 17.732C72.4307 27.7243 68.2761 39.8886 73.5655 47.3675C74.3475 48.4689 75.1522 49.3957 75.9842 50.1704C77.0181 50.6458 78.1808 51.0416 79.4961 51.3463C88.4258 53.391 98.0945 44.9366 103.986 32.9691L103.993 32.97Z" fill="#BE9A78"/>
<path d="M97.2568 18.1279L110.396 3.66922C110.534 3.51695 110.498 3.28271 110.327 3.17163L106.793 0.919239C106.642 0.825561 106.436 0.87275 106.343 1.01615L95.9516 17.2914L97.2568 18.1279Z" fill="#C5A587"/>
<path d="M105.202 6.87949C105.162 6.84468 105.114 6.81619 105.074 6.78138C105.026 6.7529 104.985 6.72536 104.937 6.69688C91.7136 -1.0384 80.3394 11.0143 79.7777 18.6193C79.675 19.9757 84.8998 24.1439 90.8272 28.0335C96.6803 32.0392 102.514 35.2871 103.734 34.6761C110.561 31.2639 117.386 16.1675 105.202 6.87949Z" fill="#84623D"/>
<path d="M95.0274 21.7692C95.3931 22.0316 95.7742 22.2885 96.1617 22.5538C100.669 25.5771 106.226 28.3373 109.839 28.0529C110.076 27.5952 110.294 27.12 110.49 26.6348L110.171 26.6968C106.697 27.3326 100.241 23.8628 95.7744 20.6967L95.7598 20.6948L95.7472 20.6783C91.117 17.7426 85.4595 13.0886 84.7244 9.6387L84.655 9.31868C84.2806 9.69193 83.928 10.068 83.5954 10.4615C84.7952 14.2089 90.1985 18.7114 95.0338 21.7774L95.0274 21.7692Z" fill="#BE9A78"/>
<path d="M98.939 15.845C93.8529 12.3169 90.2217 8.53402 89.343 5.90209C88.9467 6.10219 88.5631 6.31875 88.1858 6.54354C89.4675 9.9462 94.0225 14.0271 98.2129 16.9277C102.521 19.7178 108.095 22.4061 111.729 22.243C111.793 21.8071 111.844 21.362 111.879 20.9224C109.137 21.1721 104.197 19.2475 98.9462 15.846L98.939 15.845Z" fill="#BE9A78"/>
<path d="M111.567 16.4391C111.465 15.9741 111.341 15.5063 111.194 15.0429C108.446 14.4848 104.673 12.416 102.429 10.7687L102.389 10.7339C100.016 9.28444 96.6734 6.58317 95.111 4.25457C94.6245 4.29483 94.1497 4.35883 93.6802 4.43834C95.4336 7.51743 99.7966 10.6848 101.682 11.8413C101.905 12.0036 102.177 12.1945 102.483 12.3973C104.608 13.8218 108.502 16.0397 111.568 16.4318L111.567 16.4391Z" fill="#BE9A78"/>
<path d="M17.0735 37.0299C17.0945 37.3967 17.1254 37.765 17.1628 38.1293C17.3196 39.7639 17.604 41.357 18.0743 42.8402C17.7136 42.4752 17.4305 42.1955 17.1828 41.8697C16.9351 41.5439 16.7162 41.176 16.5002 40.6322C16.6844 42.6294 17.0365 44.6072 17.6746 46.3876C16.9371 45.6758 16.4973 45.3135 16.0323 44.2309C16.2789 46.2123 16.6899 48.1685 17.3804 49.9315C16.9971 49.5888 16.698 49.3273 16.4277 49.0238C16.1574 48.7202 15.9124 48.3689 15.6668 47.8358C15.9758 49.8014 16.4492 51.7418 17.2082 53.4693C16.8088 53.1447 16.5001 52.8972 16.2167 52.602C15.9334 52.3067 15.6754 51.9636 15.4103 51.4429C15.785 53.3985 16.3368 55.305 17.1675 56.987C16.9597 56.8338 16.7786 56.6953 16.6044 56.5684C16.4367 56.4372 16.2854 56.3036 16.1372 56.1601C15.8443 55.8788 15.5733 55.544 15.2853 55.0299C15.7353 56.9614 16.369 58.8398 17.2778 60.4722C16.4145 59.8956 15.9332 59.5993 15.2986 58.6083C15.824 60.5158 16.5591 62.3535 17.559 63.9281C16.6604 63.3977 16.1599 63.1294 15.4732 62.1715C16.0935 64.0425 16.9331 65.8297 18.0468 67.3243C17.5832 67.0879 17.2101 66.9129 16.8654 66.6803C16.5272 66.4436 16.2079 66.1632 15.8352 65.7028C16.5634 67.5291 17.5335 69.2494 18.7767 70.6301C18.2943 70.4373 17.9084 70.2863 17.538 70.0858C17.1807 69.8771 16.8387 69.619 16.437 69.185C16.5505 69.4059 16.6606 69.6211 16.7741 69.8421C16.8942 70.0589 17.0044 70.274 17.134 70.4768C17.3838 70.8963 17.653 71.3035 17.9219 71.6951C18.2137 72.08 18.5087 72.455 18.8197 72.8119L18.9347 72.9448L19.0561 73.0736C19.1403 73.1548 19.218 73.2401 19.3056 73.3271C19.474 73.4894 19.6424 73.6518 19.8138 73.8043C19.3061 73.6593 18.9079 73.5477 18.5118 73.3794C18.4153 73.3377 18.3153 73.2903 18.2219 73.2388C18.1284 73.1872 18.0315 73.1299 17.9377 73.0628C17.7436 72.9325 17.5424 72.7752 17.3172 72.5776C17.5833 72.9947 17.8395 73.4101 18.1413 73.7966C18.2905 73.987 18.4431 74.1832 18.5923 74.3735L18.8226 74.655C18.9037 74.746 18.9848 74.8371 19.0659 74.9282C19.7143 75.6411 20.4433 76.2633 21.2224 76.7587C20.9577 76.7208 20.7228 76.6877 20.4944 76.6505C20.2725 76.6092 20.0606 76.5695 19.8548 76.51C19.649 76.4505 19.443 76.3754 19.2297 76.2732C19.0164 76.171 18.7925 76.0359 18.5416 75.8705C19.7916 77.4132 21.3489 78.6738 23.0771 79.4379C22.5295 79.437 22.0908 79.4382 21.6607 79.3786C21.2241 79.323 20.7927 79.2008 20.2395 78.9343C21.7225 80.2658 23.4758 81.2832 25.3244 81.8126C25.048 81.8454 24.798 81.8774 24.561 81.9011C24.3305 81.9206 24.1065 81.9361 23.8887 81.9317C23.7798 81.9296 23.661 81.9258 23.5487 81.9179C23.4363 81.91 23.3172 81.8906 23.198 81.8712C22.9563 81.8266 22.6912 81.7731 22.3923 81.6777C24.0782 82.7775 25.9749 83.5535 27.9079 83.8631C27.6321 83.9272 27.3827 83.9904 27.1495 84.0355C26.9162 84.0805 26.6961 84.1173 26.4724 84.1484C26.2453 84.1737 26.0179 84.1834 25.7703 84.1742C25.5227 84.165 25.2484 84.1411 24.9338 84.0795C26.7763 84.9453 28.7834 85.485 30.7744 85.5756C30.5058 85.6668 30.2602 85.7514 30.0277 85.8277C29.8016 85.8999 29.5786 85.9622 29.3553 86.0089C29.1255 86.0597 28.8953 86.0949 28.645 86.1112C28.3881 86.1317 28.1111 86.1333 27.7875 86.1169C29.7504 86.748 31.8319 87.0662 33.8614 86.9503C33.3386 87.187 32.9172 87.3831 32.4815 87.525C32.0393 87.671 31.5664 87.7652 30.914 87.7991C32.9613 88.2103 35.1008 88.3096 37.1359 87.9922C36.6275 88.2832 36.2332 88.5096 35.805 88.6942C35.5892 88.7836 35.3699 88.8673 35.1175 88.9404C34.8651 89.0135 34.5859 89.0718 34.2571 89.1221C36.3689 89.3103 38.5371 89.2014 40.5545 88.6735C40.314 88.842 40.106 88.9897 39.9012 89.1277C39.6963 89.2656 39.4976 89.3838 39.2954 89.4962C38.8813 89.7194 38.4301 89.9107 37.7803 90.0696C38.8587 90.0583 39.942 89.9648 41.0003 89.7842C41.5294 89.6939 42.0514 89.5765 42.5696 89.4377C43.0844 89.2932 43.5825 89.1355 44.0699 88.945C43.6361 89.3311 43.2962 89.6338 42.9094 89.903C42.5226 90.1722 42.079 90.4062 41.4439 90.635C42.533 90.5061 43.6235 90.2893 44.6723 89.9722C45.1967 89.8136 45.7075 89.632 46.2011 89.4218C46.6947 89.2115 47.3305 88.8635 47.7735 88.5982C48.2028 88.31 48.7808 87.8799 49.1889 87.5259C49.5936 87.1662 49.9812 86.7777 50.3551 86.3663C51.0964 85.5475 51.7764 84.6409 52.3862 83.6918C51.9017 84.1735 51.4957 84.4707 51.0918 84.7111C50.6844 84.9458 50.2727 85.1279 49.7397 85.3473C50.1245 84.9844 50.4922 84.5927 50.8432 84.1879C51.1907 83.7774 51.5345 83.3454 51.8516 82.8988C52.4922 82.0014 53.0559 81.0499 53.5528 80.0615C53.1185 80.5825 52.7529 80.9175 52.3729 81.1982C52.1844 81.3336 51.9926 81.4632 51.7809 81.5896C51.5692 81.7161 51.3509 81.8466 51.0933 81.9864C52.4577 80.3763 53.5343 78.4184 54.3257 76.388C54.1338 76.6682 53.9573 76.899 53.7801 77.0985C53.6029 77.298 53.435 77.4679 53.2568 77.6206C52.8973 77.9358 52.5301 78.1925 52.049 78.5294C53.2426 76.7982 54.1234 74.7824 54.6929 72.7107C54.3689 73.2964 54.0738 73.6895 53.7479 74.0309C53.4319 74.3739 53.0687 74.6677 52.6281 75.0423C53.6385 73.2293 54.3105 71.1639 54.6455 69.0748C54.5199 69.3761 54.3868 69.6348 54.2531 69.8622C54.1194 70.0895 53.985 70.2856 53.8438 70.4703C53.7026 70.6549 53.5446 70.8264 53.3835 71.0078C53.2125 71.1876 53.035 71.3715 52.8284 71.5818C53.6495 69.7068 54.0899 67.6141 54.1742 65.5256C54.0819 65.8376 53.9786 66.1011 53.8781 66.339C53.7742 66.5713 53.6631 66.7764 53.5386 66.9741C53.4142 67.1719 53.2829 67.3581 53.1352 67.5468C52.9909 67.7413 52.8237 67.9424 52.6437 68.1675C53.256 66.2429 53.4423 64.1452 53.2536 62.0954C53.2075 62.4097 53.134 62.678 53.0568 62.9249C53.0198 63.0435 52.9793 63.1563 52.9388 63.269C52.8949 63.3761 52.8445 63.4872 52.7972 63.5885C52.696 63.7953 52.588 63.9905 52.4669 64.194C52.3394 64.4016 52.1988 64.6175 52.0456 64.8572C52.4233 62.9152 52.3298 60.8446 51.8558 58.8729C51.8362 59.5029 51.7469 59.9555 51.5977 60.3827C51.4549 60.8059 51.2557 61.2094 51.0091 61.7143C51.1296 59.7771 50.7439 57.7731 49.9757 55.9247C50.0087 56.2363 50.0208 56.4979 50.0128 56.7405C49.9983 56.9873 49.9766 57.2069 49.935 57.4233C49.8934 57.6397 49.832 57.8529 49.7674 58.076C49.6964 58.3032 49.6254 58.5303 49.532 58.7954C49.4525 57.8482 49.2477 56.9014 48.9247 55.9819C48.8826 55.8661 48.8471 55.7461 48.7985 55.6344L48.6594 55.2951C48.5623 55.0717 48.4652 54.8483 48.3647 54.6191C48.1736 54.1623 47.9238 53.7428 47.6837 53.3092C47.7527 53.6059 47.7977 53.8624 47.8226 54.1C47.8317 54.2209 47.8439 54.3319 47.8463 54.4413C47.8486 54.5506 47.8444 54.6641 47.8368 54.7719C47.7999 55.2071 47.7198 55.63 47.6157 56.1632C47.5614 55.9364 47.4972 55.7079 47.433 55.4795C47.4009 55.3652 47.3622 55.2552 47.3267 55.1352L47.2703 54.9651L47.2074 54.7991C47.033 54.3555 46.8488 53.9103 46.648 53.4675C46.4278 53.0372 46.1945 52.6151 45.9513 52.1914C45.8247 51.9788 45.7016 51.7718 45.5655 51.5732C45.4293 51.3745 45.2962 51.166 45.1501 50.9658C45.337 51.536 45.4121 51.9635 45.431 52.387C45.4369 52.8187 45.3931 53.2424 45.3417 53.7739C44.7138 52.0107 43.6622 50.3342 42.4133 48.8384C42.6427 49.3896 42.7407 49.8104 42.7925 50.2289C42.8442 50.6473 42.8203 51.0743 42.8151 51.608C42.0304 49.9127 40.862 48.3262 39.5257 46.9096C40.0431 47.9748 40.0488 48.5571 40.1012 49.6245C39.1989 47.9879 37.9366 46.4847 36.5259 45.1391C37.0954 46.1713 37.1341 46.7485 37.2423 47.8042C36.2389 46.2238 34.9022 44.7916 33.4401 43.5102C33.7477 44.0119 33.9176 44.4028 34.0317 44.8055C34.0888 45.0069 34.1325 45.2008 34.1734 45.4203C34.211 45.634 34.2422 45.8676 34.2808 46.1282C33.2027 44.6031 31.7948 43.2319 30.2844 42.0049C30.6145 42.4843 30.8009 42.8728 30.9215 43.2714C31.0487 43.6658 31.123 44.062 31.223 44.5766C30.0734 43.0969 28.6206 41.7859 27.0519 40.6117C27.4016 41.0787 27.5944 41.4631 27.7346 41.8492C27.8747 42.2354 27.9656 42.6291 28.0885 43.137C26.8772 41.7044 25.3791 40.4379 23.772 39.3198C24.4974 40.2372 24.6118 40.8061 24.8936 41.807C23.6336 40.4132 22.0872 39.2012 20.4514 38.125C20.8302 38.5656 21.0491 38.9335 21.2122 39.313C21.3818 39.6883 21.4956 40.0754 21.648 40.5725C20.5789 39.4693 19.3309 38.4876 17.9894 37.6048C17.6916 37.4057 17.3808 37.215 17.0799 37.0258L17.0735 37.0299Z" fill="url(#paint0_radial_2112_273662)"/>
<path opacity="0.4" d="M23.3158 49.5558C23.9055 48.5961 24.2342 47.5069 24.5117 46.4348C24.7859 45.357 24.9853 44.2569 25.2659 43.175C25.05 44.2623 24.9149 45.3526 24.7023 46.4456C24.5977 46.9949 24.4738 47.541 24.3045 48.0848C24.1386 48.6343 23.9338 49.1774 23.6416 49.7062L23.3158 49.5558Z" fill="#84623D"/>
<path opacity="0.4" d="M25.8751 52.8901C25.5699 53.0541 25.2817 53.1314 24.9933 53.1936C24.7049 53.2558 24.4223 53.2991 24.1365 53.3369C23.5711 53.4084 23.0051 53.45 22.4483 53.4781C21.8852 53.5103 21.3251 53.5329 20.7712 53.5516L19.9374 53.5891L19.5192 53.62C19.3841 53.6377 19.236 53.6334 19.1084 53.707C19.2327 53.6278 19.3838 53.6227 19.5218 53.5956L19.946 53.5456L20.7883 53.4648C21.3477 53.4121 21.9073 53.3595 22.4697 53.2974C23.0322 53.2353 23.5881 53.1622 24.1466 53.0646C24.4259 53.0158 24.6986 52.956 24.971 52.8812C25.2373 52.8104 25.5093 52.7206 25.7207 52.586L25.897 52.8838L25.8751 52.8901Z" fill="#84623D"/>
<path opacity="0.4" d="M28.3066 56.6223C28.6274 56.3714 28.8948 56.0157 29.1074 55.6408C29.3264 55.2619 29.5099 54.8671 29.6771 54.4595C30.0149 53.6499 30.2787 52.818 30.6065 51.9916C31.2851 50.3627 31.7997 48.6918 32.4461 47.0526C31.8608 48.7069 31.4039 50.3872 30.7897 52.0368C30.4937 52.8583 30.2588 53.6949 29.9438 54.5285C29.7896 54.9433 29.6193 55.3606 29.3977 55.7643C29.176 56.168 28.9129 56.5751 28.5137 56.8992L28.3003 56.6264L28.3066 56.6223Z" fill="#84623D"/>
<path opacity="0.4" d="M19.7764 59.7676C20.4894 60.3017 21.3814 60.5838 22.2903 60.763C23.2022 60.9328 24.15 61.0028 25.1053 60.9686C26.0605 60.9343 27.0267 60.8164 27.9745 60.5799C28.9127 60.3418 29.8643 59.9803 30.6201 59.3756L30.8385 59.6426C29.9725 60.2946 28.9758 60.6236 28.0023 60.8458C27.0255 61.0625 26.0429 61.1525 25.0775 61.155C24.1088 61.1518 23.1635 61.0571 22.2573 60.8531C21.3573 60.6451 20.4647 60.3328 19.7764 59.7676Z" fill="#84623D"/>
<path opacity="0.4" d="M31.7033 62.612C33.242 60.7767 34.78 58.9111 35.8674 56.8252C36.4127 55.7851 36.836 54.6997 37.1091 53.5948C37.3822 52.4898 37.518 51.3725 37.5394 50.2666C37.5498 51.3676 37.4524 52.4912 37.2017 53.6049C36.9544 54.7242 36.5568 55.8239 36.0343 56.888C34.9926 59.0216 33.4843 60.9375 31.9879 62.8151L31.7033 62.612Z" fill="#84623D"/>
<path opacity="0.4" d="M21.6562 67.1094C22.6624 67.3789 23.7131 67.5214 24.7839 67.5678C25.8546 67.6141 26.9421 67.5587 28.0244 67.408C29.1068 67.2573 30.1935 67.0128 31.2397 66.6423C32.286 66.2718 33.3108 65.7784 34.2094 65.1151L34.4071 65.3913C33.4396 66.0682 32.3799 66.5458 31.2954 66.8951C30.2109 67.2444 29.1141 67.4575 28.0187 67.5861C26.9263 67.7053 25.832 67.7347 24.7668 67.6545C23.6955 67.5782 22.6536 67.4073 21.6562 67.1094Z" fill="#84623D"/>
<path opacity="0.4" d="M36.0595 69.2951C37.1847 68.5774 38.184 67.6324 39.035 66.5975C39.8922 65.5587 40.604 64.4203 41.1714 63.228C42.2998 60.8475 42.8025 58.2433 42.5251 55.7984C42.8723 58.2295 42.4338 60.8543 41.3509 63.2827C40.8064 64.4988 40.1047 65.6691 39.261 66.7455C38.4077 67.8203 37.4093 68.8108 36.2441 69.5925L36.0658 69.2911L36.0595 69.2951Z" fill="#84623D"/>
<path opacity="0.4" d="M23.1611 73.3867C24.3284 73.8782 25.5986 74.1516 26.8892 74.3433C28.1766 74.5295 29.4998 74.6165 30.8326 74.5602C31.4989 74.5245 32.1678 74.4642 32.8253 74.312C33.4795 74.1543 34.1482 73.934 34.8044 73.7216C36.1103 73.2858 37.3881 72.7154 38.5545 71.9566L38.7315 72.2557C37.5145 73.0161 36.1921 73.5693 34.8574 73.9853C34.1883 74.1906 33.5318 74.3879 32.849 74.5409C32.1659 74.6789 31.4842 74.7321 30.8144 74.7472C29.4714 74.7719 28.1538 74.6508 26.8659 74.4345C25.5842 74.2142 24.3195 73.9068 23.1707 73.3883L23.1611 73.3867Z" fill="#84623D"/>
<path opacity="0.4" d="M40.4597 76.3047C41.4976 75.6276 42.394 74.6966 43.1942 73.7198C43.9912 72.7374 44.6886 71.6886 45.2994 70.5954C45.904 69.5063 46.4126 68.3713 46.8034 67.212C47.1942 66.0527 47.4578 64.8674 47.5377 63.6922C47.4926 64.8681 47.2515 66.062 46.8926 67.2316C46.5337 68.4012 46.0445 69.5544 45.4593 70.6618C44.8774 71.7747 44.1965 72.8513 43.4096 73.8654C42.6195 74.874 41.7333 75.8367 40.6339 76.599L40.4564 76.2991L40.4597 76.3047Z" fill="#84623D"/>
<path opacity="0.4" d="M29.4922 81.377C31.7525 81.7428 34.0255 82.1158 36.3747 82.0515C37.546 82.0138 38.7309 81.8684 39.8834 81.5377C41.036 81.2071 42.153 80.6858 43.1523 79.9802L43.3416 80.2712C42.2855 80.9824 41.121 81.4959 39.9301 81.8053C38.7392 82.1146 37.5317 82.2364 36.3565 82.2384C33.9903 82.245 31.738 81.8054 29.4955 81.3825L29.4922 81.377Z" fill="#84623D"/>
<path opacity="0.4" d="M44.5093 83.1454C44.6734 83.102 44.9296 82.908 45.1287 82.7197C45.3341 82.5275 45.5392 82.3201 45.7252 82.1096C46.1097 81.6805 46.4681 81.2221 46.8075 80.7606C47.486 79.8224 48.0907 78.847 48.6377 77.8471C49.1752 76.8455 49.6548 75.8044 50.023 74.75C50.3912 73.6956 50.654 72.6089 50.7139 71.529C50.6794 72.608 50.4548 73.701 50.109 74.7641C49.7665 75.8327 49.3189 76.8842 48.8041 77.9095C48.2797 78.9332 47.6978 79.9325 47.0325 80.8929C46.7029 81.3711 46.3511 81.8406 45.9672 82.2999C45.7753 82.5295 45.5767 82.7481 45.3558 82.9579C45.247 83.0656 45.1316 83.1621 45.0004 83.2611C44.8659 83.3545 44.7347 83.4535 44.5265 83.5097L44.503 83.1494L44.5093 83.1454Z" fill="#84623D"/>
<path d="M19.1244 41.2544C19.1834 42.0051 19.4323 42.7052 19.7753 43.3396C20.122 43.9798 20.5384 44.5774 20.9759 45.1621C21.4133 45.7468 21.8298 46.3443 22.2323 46.9504L23.4468 48.7643L28.3403 56.0149C31.613 60.8396 34.9066 65.6514 38.0191 70.5905C39.5528 73.078 40.9431 75.645 42.3438 78.1975C42.6974 78.8335 43.0441 79.4738 43.4047 80.1055C43.7617 80.7313 44.1503 81.3459 44.5318 81.9648L46.8426 85.6815C48.3726 88.1631 49.8331 90.7035 51.1537 93.3133C52.4779 95.9289 53.6556 98.6344 54.3747 101.563L53.3417 101.884C52.6993 99.064 51.5748 96.367 50.3039 93.7597C49.0329 91.1524 47.6183 88.6084 46.1339 86.1072L43.8896 82.358C43.515 81.7348 43.1368 81.1057 42.7794 80.4637C42.4221 79.8218 42.0824 79.1772 41.7427 78.5327C40.377 75.9588 39.0391 73.3679 37.5407 70.8752C34.5123 65.901 31.2955 61.0422 28.0959 56.1646L23.3212 48.8412L22.1309 47.0043C21.7423 46.3896 21.3328 45.7878 20.9024 45.1988C20.4789 44.6056 20.0657 43.9979 19.726 43.3533C19.3933 42.7045 19.1514 42.0001 19.103 41.251L19.1244 41.2544Z" fill="#BE9A78"/>
<defs>
<radialGradient id="paint0_radial_2112_273662" cx="0" cy="0" r="1" gradientUnits="userSpaceOnUse" gradientTransform="translate(43.4662 76.8255) rotate(-32.3962) scale(32.5178 28.2002)">
<stop offset="0.35" stop-color="#F3E084"/>
<stop offset="0.99" stop-color="#C8DA6F"/>
</radialGradient>
</defs>
</svg>
