<svg width="136" height="119" viewBox="0 0 136 119" fill="none" xmlns="http://www.w3.org/2000/svg">
<path d="M78.3369 88.6162C77.7445 89.2342 76.9242 89.5698 75.785 89.4249C75.2837 89.3638 74.7141 89.2265 74.1444 88.5171C73.5976 87.8381 73.5216 87.2431 73.6052 86.7853C73.9849 84.7866 75.3596 83.9933 77.6078 84.3671C78.5496 84.5196 79.3395 85.4961 79.3926 86.5031C79.4458 87.5711 78.9445 88.1356 78.3369 88.6162Z" fill="#FAAB99"/>
<path d="M111.315 59.4954C110.723 60.1133 109.902 60.449 108.763 60.3041C108.262 60.2431 107.692 60.1057 107.123 59.3963C106.576 58.7173 106.5 58.1223 106.583 57.6646C106.963 55.6658 108.338 54.8725 110.586 55.2463C111.528 55.3988 112.318 56.3753 112.371 57.3823C112.424 58.4503 111.923 59.0148 111.315 59.4954Z" fill="#FAAB99"/>
<path d="M79.8237 12.7092C79.0338 13.556 77.7806 13.6323 75.9806 12.7321C75.0236 12.2515 74.5527 11.6793 74.378 10.7563C73.8616 7.97181 76.4515 6.72071 79.2768 8.39138C80.3477 9.02456 80.8414 9.75691 80.8262 10.6952C80.811 11.6488 80.4313 12.2667 79.8161 12.7168L79.8237 12.7092Z" fill="#FAAB99"/>
<path d="M100.255 111.824C99.7465 112.328 99.1693 112.694 98.2579 112.595C97.225 112.48 96.4731 111.733 96.1161 110.482C95.4249 108.056 97.1794 105.95 99.3592 106.599C100.377 106.896 101.159 107.812 101.266 108.88C101.402 110.268 101.068 111.275 100.255 111.832V111.824Z" fill="#FAAB99"/>
<path d="M129.384 80.9737C129.809 80.4855 130.387 80.2185 131.146 80.2109C132.255 80.1956 133.068 80.9356 133.508 82.3698C134.199 84.605 133.197 85.3602 132.126 86.0315C131.875 86.1917 131.518 86.2222 131.177 86.2604C130.645 86.3214 130.014 86.2222 129.316 85.467C128.655 84.7575 128.397 83.9947 128.374 83.3615C128.328 82.2248 128.685 81.4391 129.384 80.9813V80.9737Z" fill="#FAAB99"/>
<path d="M116.756 4.33879C116.164 4.95671 115.343 5.29237 114.204 5.14743C113.703 5.0864 113.133 4.94909 112.564 4.23963C112.017 3.56067 111.941 2.96564 112.024 2.50792C112.404 0.509205 113.779 -0.284174 116.027 0.0896305C116.969 0.242204 117.759 1.21867 117.812 2.22566C117.865 3.29367 117.364 3.85818 116.756 4.33879Z" fill="#FAAB99"/>
<path d="M4.62827 52.7791C3.99028 53.2063 3.25356 53.5954 2.1295 53.3665C0.83834 53.1072 -0.111041 51.9705 0.0104794 50.7957C0.200356 48.9419 1.28645 48.0875 3.18521 48.2477C3.73965 48.2935 4.4308 48.4537 5.09157 49.2928C5.69917 50.0786 5.60044 50.6278 5.5093 51.1313C5.39537 51.8179 5.06878 52.3214 4.62827 52.7715V52.7791Z" fill="#FAAB99"/>
<path d="M62.1663 113.755C62.8499 113.366 63.4727 112.931 64.5208 113.137C65.531 113.335 66.3284 114.22 66.3056 115.197C66.2525 117.348 65.2272 118.485 63.2145 118.508C62.7967 118.508 62.2955 118.386 61.7638 117.798C61.1866 117.157 61.1714 116.646 61.1714 116.15C61.1714 115.037 61.7182 114.426 62.1663 113.755Z" fill="#FAAB99"/>
<path d="M131.328 42.8571C131.761 42.4223 132.399 42.1553 133.257 42.2392C134.374 42.3384 135.391 43.4521 135.384 44.6041C135.361 46.6257 134.351 47.5945 132.475 47.5411C131.321 47.5106 130.379 46.435 130.31 45.1533C130.257 44.0624 130.683 43.3987 131.336 42.8647L131.328 42.8571Z" fill="#FAAB99"/>
<path d="M109.103 37.0459C108.374 37.4273 107.667 37.8546 106.467 37.5036C105.115 37.1069 103.938 35.7261 104.006 34.5056C104.143 32.2627 105.351 31.2024 107.698 31.5609C108.852 31.7364 109.482 32.4611 109.885 33.7961C110.409 35.5278 109.68 36.2068 109.103 37.0459Z" fill="#FAAB99"/>
<path d="M7.27586 78.7977C7.95942 78.4086 8.5822 77.9738 9.63032 78.1797C10.6405 78.3781 11.4379 79.263 11.4152 80.2395C11.362 82.3908 10.3367 83.5274 8.32397 83.5503C7.90624 83.5503 7.40498 83.4282 6.87332 82.8408C6.2961 82.2 6.28091 81.6889 6.28091 81.1931C6.28091 80.0793 6.82775 79.469 7.27586 78.7977Z" fill="#FAAB99"/>
<path d="M31.2961 101.468C31.729 101.033 32.367 100.766 33.2253 100.85C34.3417 100.95 35.3595 102.063 35.3519 103.215C35.3291 105.237 34.319 106.206 32.443 106.152C31.2885 106.122 30.3467 105.046 30.2784 103.765C30.2252 102.674 30.6506 102.01 31.3037 101.476L31.2961 101.468Z" fill="#FAAB99"/>
<path d="M61.8787 75.1923C61.0888 76.039 59.8356 76.1153 58.0356 75.2151C57.0786 74.7345 56.6077 74.1624 56.4331 73.2393C55.9166 70.4549 58.5065 69.2037 61.3319 70.8744C62.4028 71.5076 62.8964 72.24 62.8813 73.1783C62.8661 74.1319 62.4863 74.7498 61.8711 75.1999L61.8787 75.1923Z" fill="#FAAB99"/>
<path d="M28.672 29.5839C28.034 30.0111 27.2973 30.4002 26.1732 30.1713C24.882 29.9119 23.9326 28.7753 24.0542 27.6004C24.244 25.7467 25.3301 24.8923 27.2289 25.0525C27.7833 25.0982 28.4745 25.2584 29.1353 26.0976C29.7429 26.8833 29.6441 27.4326 29.553 27.9361C29.4391 28.6227 29.1125 29.1262 28.672 29.5763V29.5839Z" fill="#FAAB99"/>
<path d="M34.7152 65.3395C33.9253 66.1863 32.6721 66.2626 30.8721 65.3624C29.9151 64.8818 29.4442 64.3096 29.2695 63.3866C28.7531 60.6021 31.343 59.351 34.1683 61.0217C35.2392 61.6549 35.7329 62.3872 35.7177 63.3255C35.7025 64.2791 35.3228 64.897 34.7076 65.3471L34.7152 65.3395Z" fill="#FAAB99"/>
<path d="M51.9827 49.6241C51.4131 50.1581 50.7827 50.4861 49.8105 50.3259C48.846 50.1657 48.1017 49.3647 47.8814 48.2662C47.4637 46.2141 49.0586 44.1772 50.8738 44.4442C52.0511 44.6197 52.7954 45.4512 52.9169 46.7252C53.0536 48.0983 52.7346 49.0825 51.9827 49.6165V49.6241Z" fill="#FAAB99"/>
<path d="M75.9539 39.3029C75.3159 39.7301 74.5792 40.1192 73.4551 39.8903C72.1639 39.6309 71.2145 38.4943 71.3361 37.3195C71.5259 35.4657 72.612 34.6113 74.5108 34.7715C75.0652 34.8172 75.7564 34.9775 76.4172 35.8166C77.0248 36.6024 76.926 37.1516 76.8349 37.6551C76.721 38.3417 76.3944 38.8452 75.9539 39.2953V39.3029Z" fill="#FAAB99"/>
<path d="M81.7543 57.4312C82.4379 57.0421 83.0607 56.6073 84.1088 56.8133C85.1189 57.0116 85.9164 57.8966 85.8936 58.873C85.8404 61.0243 84.8151 62.161 82.8024 62.1839C82.3847 62.1839 81.8834 62.0618 81.3518 61.4744C80.7745 60.8336 80.7594 60.3225 80.7594 59.8266C80.7594 58.7128 81.3062 58.1025 81.7543 57.4312Z" fill="#FAAB99"/>
</svg>
