<svg width="136" height="119" viewBox="0 0 136 119" fill="none" xmlns="http://www.w3.org/2000/svg">
<path d="M57.0469 88.6162C57.6393 89.2342 58.4596 89.5698 59.5988 89.4249C60.1001 89.3638 60.6697 89.2265 61.2393 88.5171C61.7862 87.8381 61.8621 87.2431 61.7786 86.7853C61.3988 84.7866 60.0241 83.9933 57.776 84.3671C56.8342 84.5196 56.0443 85.4961 55.9912 86.5031C55.938 87.5711 56.4393 88.1356 57.0469 88.6162Z" fill="#FAAB99"/>
<path d="M24.0687 59.4954C24.6611 60.1133 25.4814 60.449 26.6206 60.3041C27.1219 60.2431 27.6915 60.1057 28.2612 59.3963C28.808 58.7173 28.884 58.1223 28.8004 57.6646C28.4207 55.6658 27.046 54.8725 24.7978 55.2463C23.856 55.3988 23.0662 56.3753 23.013 57.3823C22.9598 58.4503 23.4611 59.0148 24.0687 59.4954Z" fill="#FAAB99"/>
<path d="M55.5601 12.7092C56.35 13.556 57.6032 13.6323 59.4032 12.7321C60.3602 12.2515 60.8311 11.6793 61.0058 10.7563C61.5222 7.97181 58.9323 6.72071 56.1069 8.39138C55.036 9.02456 54.5424 9.75691 54.5576 10.6952C54.5728 11.6488 54.9525 12.2667 55.5677 12.7168L55.5601 12.7092Z" fill="#FAAB99"/>
<path d="M35.1284 111.824C35.6373 112.328 36.2145 112.694 37.1259 112.595C38.1588 112.48 38.9107 111.733 39.2677 110.482C39.9588 108.056 38.2044 105.95 36.0246 106.599C35.0069 106.896 34.2246 107.812 34.1183 108.88C33.9816 110.268 34.3157 111.275 35.1284 111.832V111.824Z" fill="#FAAB99"/>
<path d="M5.99971 80.9737C5.57439 80.4855 4.99718 80.2185 4.23767 80.2109C3.12879 80.1956 2.31612 80.9356 1.87561 82.3698C1.18446 84.605 2.18699 85.3602 3.25789 86.0315C3.50853 86.1917 3.8655 86.2222 4.20728 86.2604C4.73893 86.3214 5.36933 86.2222 6.06807 85.467C6.72884 84.7575 6.98707 83.9947 7.00986 83.3615C7.05543 82.2248 6.69845 81.4391 5.99971 80.9813V80.9737Z" fill="#FAAB99"/>
<path d="M18.6277 4.33879C19.2201 4.95671 20.0404 5.29237 21.1797 5.14743C21.6809 5.0864 22.2506 4.94909 22.8202 4.23963C23.367 3.56067 23.443 2.96564 23.3594 2.50792C22.9797 0.509205 21.605 -0.284174 19.3568 0.0896305C18.4151 0.242204 17.6252 1.21867 17.572 2.22566C17.5188 3.29367 18.0201 3.85818 18.6277 4.33879Z" fill="#FAAB99"/>
<path d="M130.756 52.7791C131.394 53.2063 132.13 53.5954 133.254 53.3665C134.545 53.1072 135.495 51.9705 135.373 50.7957C135.183 48.9419 134.097 48.0875 132.199 48.2477C131.644 48.2935 130.953 48.4537 130.292 49.2928C129.685 50.0786 129.783 50.6278 129.874 51.1313C129.988 51.8179 130.315 52.3214 130.756 52.7715V52.7791Z" fill="#FAAB99"/>
<path d="M73.2174 113.755C72.5339 113.366 71.9111 112.931 70.863 113.137C69.8528 113.335 69.0554 114.22 69.0781 115.197C69.1313 117.348 70.1566 118.485 72.1693 118.508C72.5871 118.508 73.0883 118.386 73.62 117.798C74.1972 117.157 74.2124 116.646 74.2124 116.15C74.2124 115.037 73.6655 114.426 73.2174 113.755Z" fill="#FAAB99"/>
<path d="M4.05566 42.8571C3.62275 42.4223 2.98477 42.1553 2.12653 42.2392C1.01005 42.3384 -0.00767134 43.4521 -7.62939e-05 44.6041C0.0227088 46.6257 1.03285 47.5945 2.90883 47.5411C4.06328 47.5106 5.00505 46.435 5.07341 45.1533C5.12658 44.0624 4.70125 43.3987 4.04808 42.8647L4.05566 42.8571Z" fill="#FAAB99"/>
<path d="M26.2811 37.0459C27.0102 37.4273 27.7166 37.8546 28.9166 37.5036C30.2685 37.1069 31.4457 35.7261 31.3774 34.5056C31.2407 32.2627 30.0331 31.2024 27.6862 31.5609C26.5317 31.7364 25.9014 32.4611 25.4988 33.7961C24.9748 35.5278 25.7039 36.2068 26.2811 37.0459Z" fill="#FAAB99"/>
<path d="M128.108 78.7977C127.424 78.4086 126.802 77.9738 125.753 78.1797C124.743 78.3781 123.946 79.263 123.969 80.2395C124.022 82.3908 125.047 83.5274 127.06 83.5503C127.478 83.5503 127.979 83.4282 128.51 82.8408C129.088 82.2 129.103 81.6889 129.103 81.1931C129.103 80.0793 128.556 79.469 128.108 78.7977Z" fill="#FAAB99"/>
<path d="M104.088 101.468C103.655 101.033 103.017 100.766 102.159 100.85C101.042 100.95 100.024 102.063 100.032 103.215C100.055 105.237 101.065 106.206 102.941 106.152C104.095 106.122 105.037 105.046 105.105 103.765C105.159 102.674 104.733 102.01 104.08 101.476L104.088 101.468Z" fill="#FAAB99"/>
<path d="M73.5051 75.1923C74.295 76.039 75.5481 76.1153 77.3482 75.2151C78.3051 74.7345 78.776 74.1624 78.9507 73.2393C79.4672 70.4549 76.8773 69.2037 74.0519 70.8744C72.981 71.5076 72.4873 72.24 72.5025 73.1783C72.5177 74.1319 72.8975 74.7498 73.5127 75.1999L73.5051 75.1923Z" fill="#FAAB99"/>
<path d="M106.712 29.5839C107.35 30.0111 108.087 30.4002 109.211 30.1713C110.502 29.9119 111.451 28.7753 111.33 27.6004C111.14 25.7467 110.054 24.8923 108.155 25.0525C107.6 25.0982 106.909 25.2584 106.249 26.0976C105.641 26.8833 105.74 27.4326 105.831 27.9361C105.945 28.6227 106.271 29.1262 106.712 29.5763V29.5839Z" fill="#FAAB99"/>
<path d="M100.669 65.3395C101.459 66.1863 102.712 66.2626 104.512 65.3624C105.469 64.8818 105.94 64.3096 106.114 63.3866C106.631 60.6021 104.041 59.351 101.215 61.0217C100.145 61.6549 99.6509 62.3872 99.6661 63.3255C99.6813 64.2791 100.061 64.897 100.676 65.3471L100.669 65.3395Z" fill="#FAAB99"/>
<path d="M83.4011 49.6241C83.9707 50.1581 84.6011 50.4861 85.5733 50.3259C86.5378 50.1657 87.2821 49.3647 87.5024 48.2662C87.9201 46.2141 86.3252 44.1772 84.5099 44.4442C83.3327 44.6197 82.5884 45.4512 82.4669 46.7252C82.3302 48.0983 82.6492 49.0825 83.4011 49.6165V49.6241Z" fill="#FAAB99"/>
<path d="M59.4299 39.3029C60.0679 39.7301 60.8046 40.1192 61.9287 39.8903C63.2199 39.6309 64.1692 38.4943 64.0477 37.3195C63.8578 35.4657 62.7718 34.6113 60.873 34.7715C60.3186 34.8172 59.6274 34.9775 58.9666 35.8166C58.359 36.6024 58.4578 37.1516 58.5489 37.6551C58.6628 38.3417 58.9894 38.8452 59.4299 39.2953V39.3029Z" fill="#FAAB99"/>
<path d="M53.6295 57.4312C52.9459 57.0421 52.3231 56.6073 51.275 56.8133C50.2649 57.0116 49.4674 57.8966 49.4902 58.873C49.5434 61.0243 50.5687 62.161 52.5814 62.1839C52.9991 62.1839 53.5004 62.0618 54.032 61.4744C54.6093 60.8336 54.6244 60.3225 54.6244 59.8266C54.6244 58.7128 54.0776 58.1025 53.6295 57.4312Z" fill="#FAAB99"/>
</svg>
