<svg width="277" height="276" viewBox="0 0 277 276" fill="none" xmlns="http://www.w3.org/2000/svg">
<path d="M162.906 216.217C161.721 217.453 160.081 218.124 157.802 217.834C156.8 217.712 155.66 217.438 154.521 216.019C153.427 214.661 153.275 213.471 153.443 212.555C154.202 208.558 156.951 206.971 161.448 207.719C163.331 208.024 164.911 209.977 165.017 211.991C165.124 214.127 164.121 215.256 162.906 216.217Z" fill="#FAAB99"/>
<path d="M228.862 157.976C227.678 159.211 226.037 159.883 223.758 159.593C222.756 159.471 221.617 159.196 220.477 157.777C219.384 156.419 219.232 155.229 219.399 154.314C220.158 150.316 222.908 148.73 227.404 149.477C229.288 149.782 230.867 151.735 230.974 153.749C231.08 155.885 230.078 157.014 228.862 157.976Z" fill="#FAAB99"/>
<path d="M109.922 9.10082C108.646 9.95523 107.173 10.7334 104.925 10.2756C102.343 9.75689 100.444 7.48353 100.687 5.1339C101.067 1.42637 103.239 -0.282446 107.036 0.0379577C108.145 0.129502 109.527 0.449898 110.849 2.1282C112.064 3.69971 111.867 4.79824 111.685 5.80523C111.457 7.17839 110.803 8.18538 109.922 9.08557V9.10082Z" fill="#FAAB99"/>
<path d="M165.88 64.4031C164.3 66.0967 161.793 66.2493 158.193 64.4489C156.279 63.4877 155.338 62.3434 154.988 60.4973C153.955 54.9283 159.135 52.4261 164.786 55.7675C166.928 57.0338 167.915 58.4985 167.885 60.3752C167.854 62.2823 167.095 63.5182 165.864 64.4184L165.88 64.4031Z" fill="#FAAB99"/>
<path d="M206.743 262.633C205.725 263.64 204.571 264.373 202.748 264.174C200.682 263.945 199.178 262.45 198.464 259.948C197.082 255.096 200.591 250.885 204.95 252.182C206.986 252.777 208.551 254.608 208.763 256.744C209.037 259.521 208.368 261.535 206.743 262.648V262.633Z" fill="#FAAB99"/>
<path d="M265 200.932C265.851 199.956 267.005 199.422 268.524 199.406C270.742 199.376 272.368 200.856 273.249 203.724C274.631 208.195 272.626 209.705 270.484 211.048C269.983 211.368 269.269 211.429 268.585 211.505C267.522 211.628 266.261 211.429 264.864 209.919C263.542 208.5 263.026 206.974 262.98 205.708C262.889 203.434 263.603 201.863 265 200.947V200.932Z" fill="#FAAB99"/>
<path d="M186.383 16.5055C185.244 17.5736 183.983 18.2296 182.039 17.9092C180.11 17.5888 178.621 15.9868 178.181 13.7897C177.345 9.68552 180.535 5.6118 184.166 6.14581C186.52 6.49673 188.009 8.15981 188.252 10.7078C188.51 13.4541 187.887 15.4223 186.383 16.4903V16.5055Z" fill="#FAAB99"/>
<path d="M239.744 47.6623C238.559 48.8981 236.919 49.5695 234.64 49.2796C233.638 49.1575 232.499 48.8829 231.359 47.464C230.266 46.1061 230.114 44.916 230.281 44.0005C231.04 40.0031 233.79 38.4164 238.286 39.164C240.17 39.4691 241.749 41.4221 241.856 43.436C241.962 45.5721 240.959 46.7011 239.744 47.6623Z" fill="#FAAB99"/>
<path d="M15.4887 144.543C14.2127 145.397 12.7393 146.176 10.4912 145.718C7.90885 145.199 6.01008 142.926 6.25313 140.576C6.63288 136.869 8.80506 135.16 12.6026 135.48C13.7115 135.572 15.0938 135.892 16.4153 137.57C17.6305 139.142 17.433 140.24 17.2508 141.247C17.0229 142.621 16.3697 143.628 15.4887 144.528V144.543Z" fill="#FAAB99"/>
<path d="M130.565 266.495C131.932 265.717 133.178 264.847 135.274 265.259C137.294 265.656 138.889 267.425 138.843 269.378C138.737 273.681 136.686 275.954 132.661 276C131.826 276 130.823 275.756 129.76 274.581C128.605 273.299 128.575 272.277 128.575 271.285C128.575 269.058 129.669 267.837 130.565 266.495Z" fill="#FAAB99"/>
<path d="M268.888 124.699C269.754 123.829 271.03 123.295 272.747 123.463C274.98 123.661 277.015 125.889 277 128.193C276.954 132.236 274.934 134.174 271.182 134.067C268.873 134.006 266.99 131.855 266.853 129.291C266.747 127.11 267.597 125.782 268.904 124.714L268.888 124.699Z" fill="#FAAB99"/>
<path d="M224.438 113.077C222.979 113.839 221.567 114.694 219.167 113.992C216.463 113.199 214.108 110.437 214.245 107.996C214.518 103.51 216.934 101.389 221.627 102.107C223.936 102.457 225.197 103.907 226.002 106.577C227.05 110.04 225.592 111.398 224.438 113.077Z" fill="#FAAB99"/>
<path d="M11.0236 98.1613C9.44383 99.8549 6.93747 100.007 3.33741 98.2071C1.42346 97.2459 0.481677 96.1016 0.132305 94.2555C-0.900621 88.6866 4.2792 86.1843 9.92991 89.5257C12.0717 90.792 13.0591 92.2568 13.0287 94.1334C12.9983 96.0406 12.2388 97.2764 11.0084 98.1766L11.0236 98.1613Z" fill="#FAAB99"/>
<path d="M20.7839 196.58C22.151 195.802 23.3966 194.932 25.4928 195.344C27.5131 195.741 29.1081 197.511 29.0625 199.464C28.9562 203.766 26.9055 206.04 22.8801 206.085C22.0446 206.085 21.0421 205.841 19.9788 204.666C18.8244 203.385 18.794 202.363 18.794 201.371C18.794 199.143 19.8877 197.923 20.7839 196.58Z" fill="#FAAB99"/>
<path d="M68.8244 241.921C69.6902 241.052 70.9662 240.518 72.6827 240.685C74.9156 240.884 76.9511 243.111 76.9359 245.415C76.8904 249.458 74.8701 251.396 71.1181 251.289C68.8092 251.228 66.9257 249.077 66.7889 246.514C66.6826 244.332 67.5333 243.005 68.8396 241.937L68.8244 241.921Z" fill="#FAAB99"/>
<path d="M129.99 189.369C128.41 191.063 125.903 191.215 122.303 189.415C120.389 188.454 119.448 187.309 119.098 185.463C118.065 179.894 123.245 177.392 128.896 180.734C131.038 182 132.025 183.465 131.995 185.341C131.964 187.248 131.205 188.484 129.974 189.385L129.99 189.369Z" fill="#FAAB99"/>
<path d="M63.5761 98.1525C62.3001 99.0069 60.8267 99.785 58.5785 99.3273C55.9962 98.8086 54.0975 96.5352 54.3405 94.1856C54.7203 90.4781 56.8924 88.7692 60.69 89.0897C61.7988 89.1812 63.1812 89.5016 64.5027 91.1799C65.7179 92.7514 65.5204 93.8499 65.3381 94.8569C65.1103 96.2301 64.4571 97.237 63.5761 98.1372V98.1525Z" fill="#FAAB99"/>
<path d="M96.398 53.0002C97.7651 52.2221 99.0107 51.3524 101.107 51.7644C103.127 52.1611 104.722 53.931 104.677 55.8839C104.57 60.1865 102.52 62.4598 98.4942 62.5056C97.6587 62.5056 96.6562 62.2614 95.5929 61.0866C94.4384 59.805 94.4081 58.7828 94.4081 57.7911C94.4081 55.5635 95.5018 54.3429 96.398 53.0002Z" fill="#FAAB99"/>
<path d="M75.6625 169.664C74.0827 171.357 71.5764 171.51 67.9763 169.71C66.0624 168.748 65.1206 167.604 64.7712 165.758C63.7383 160.189 68.9181 157.687 74.5688 161.028C76.7106 162.294 77.698 163.759 77.6676 165.636C77.6372 167.543 76.8777 168.779 75.6473 169.679L75.6625 169.664Z" fill="#FAAB99"/>
<path d="M110.198 138.233C109.058 139.301 107.798 139.957 105.853 139.637C103.924 139.316 102.435 137.714 101.995 135.517C101.16 131.413 104.349 127.339 107.98 127.873C110.334 128.224 111.823 129.887 112.066 132.435C112.339 135.181 111.701 137.15 110.198 138.218V138.233Z" fill="#FAAB99"/>
<path d="M158.14 117.591C156.864 118.445 155.39 119.223 153.142 118.765C150.56 118.247 148.661 115.973 148.904 113.624C149.284 109.916 151.456 108.207 155.254 108.528C156.363 108.619 157.745 108.94 159.066 110.618C160.282 112.189 160.084 113.288 159.902 114.295C159.674 115.668 159.021 116.675 158.14 117.575V117.591Z" fill="#FAAB99"/>
<path d="M169.741 153.847C171.108 153.069 172.353 152.199 174.45 152.611C176.47 153.008 178.065 154.778 178.019 156.731C177.913 161.033 175.862 163.307 171.837 163.352C171.002 163.352 169.999 163.108 168.936 161.934C167.781 160.652 167.751 159.63 167.751 158.638C167.751 156.41 168.845 155.19 169.741 153.847Z" fill="#FAAB99"/>
<path d="M37.65 23.2356C38.5158 22.366 39.7918 21.832 41.5083 21.9845C43.7412 22.1829 45.7767 24.4105 45.7615 26.7143C45.7159 30.7575 43.6956 32.6952 39.9437 32.5884C37.6348 32.5274 35.7512 30.3761 35.6145 27.8128C35.5082 25.631 36.3588 24.3037 37.6652 23.2356H37.65Z" fill="#FAAB99"/>
</svg>
