<svg width="136" height="119" viewBox="0 0 136 119" fill="none" xmlns="http://www.w3.org/2000/svg">
<path d="M78.3369 29.8916C77.7445 29.2737 76.9242 28.938 75.785 29.0829C75.2837 29.144 74.7141 29.2813 74.1444 29.9907C73.5976 30.6697 73.5216 31.2647 73.6052 31.7225C73.9849 33.7212 75.3596 34.5146 77.6078 34.1407C78.5496 33.9882 79.3394 33.0117 79.3926 32.0047C79.4458 30.9367 78.9445 30.3722 78.3369 29.8916Z" fill="#FAAB99"/>
<path d="M111.315 59.0124C110.723 58.3945 109.902 58.0588 108.763 58.2037C108.262 58.2648 107.692 58.4021 107.123 59.1115C106.576 59.7905 106.5 60.3855 106.583 60.8432C106.963 62.842 108.338 63.6353 110.586 63.2615C111.528 63.109 112.318 62.1325 112.371 61.1255C112.424 60.0575 111.923 59.493 111.315 59.0124Z" fill="#FAAB99"/>
<path d="M79.8237 105.799C79.0338 104.952 77.7806 104.876 75.9806 105.776C75.0236 106.256 74.5527 106.828 74.378 107.752C73.8616 110.536 76.4515 111.787 79.2768 110.116C80.3477 109.483 80.8414 108.751 80.8262 107.813C80.811 106.859 80.4313 106.241 79.8161 105.791L79.8237 105.799Z" fill="#FAAB99"/>
<path d="M100.255 6.68358C99.7465 6.18009 99.1693 5.81391 98.2579 5.91308C97.2249 6.02752 96.473 6.77513 96.1161 8.02623C95.4249 10.4521 97.1794 12.5577 99.3592 11.9092C100.377 11.6117 101.159 10.6962 101.266 9.62823C101.402 8.23982 101.068 7.23284 100.255 6.67595L100.255 6.68358Z" fill="#FAAB99"/>
<path d="M129.384 37.5341C129.809 38.0223 130.387 38.2893 131.146 38.2969C132.255 38.3122 133.068 37.5722 133.508 36.138C134.199 33.9028 133.197 33.1476 132.126 32.4763C131.875 32.3161 131.518 32.2856 131.177 32.2474C130.645 32.1864 130.014 32.2856 129.316 33.0408C128.655 33.7503 128.397 34.5131 128.374 35.1463C128.328 36.283 128.685 37.0687 129.384 37.5265L129.384 37.5341Z" fill="#FAAB99"/>
<path d="M116.756 114.169C116.164 113.551 115.343 113.215 114.204 113.36C113.703 113.421 113.133 113.559 112.564 114.268C112.017 114.947 111.941 115.542 112.024 116C112.404 117.999 113.779 118.792 116.027 118.418C116.969 118.266 117.759 117.289 117.812 116.282C117.865 115.214 117.364 114.65 116.756 114.169Z" fill="#FAAB99"/>
<path d="M4.62826 65.7287C3.99028 65.3015 3.25356 64.9124 2.12949 65.1413C0.838336 65.4007 -0.111046 66.5373 0.0104749 67.7121C0.200351 69.5659 1.28644 70.4203 3.1852 70.2601C3.73964 70.2143 4.43079 70.0541 5.09156 69.215C5.69917 68.4292 5.60043 67.88 5.50929 67.3765C5.39537 66.6899 5.06878 66.1864 4.62826 65.7363L4.62826 65.7287Z" fill="#FAAB99"/>
<path d="M62.1663 4.75283C62.8499 5.14189 63.4727 5.57672 64.5208 5.37074C65.5309 5.1724 66.3284 4.28748 66.3056 3.31101C66.2525 1.15972 65.2271 0.0230558 63.2145 0.00016995C62.7967 0.000169986 62.2954 0.12222 61.7638 0.709627C61.1866 1.35044 61.1714 1.86156 61.1714 2.35742C61.1714 3.47121 61.7182 4.0815 62.1663 4.75283Z" fill="#FAAB99"/>
<path d="M131.328 75.6507C131.761 76.0855 132.399 76.3525 133.257 76.2686C134.374 76.1694 135.391 75.0557 135.384 73.9037C135.361 71.8821 134.351 70.9133 132.475 70.9667C131.321 70.9972 130.379 72.0728 130.31 73.3545C130.257 74.4454 130.683 75.1091 131.336 75.6431L131.328 75.6507Z" fill="#FAAB99"/>
<path d="M109.103 81.4619C108.374 81.0805 107.667 80.6533 106.467 81.0042C105.115 81.4009 103.938 82.7817 104.006 84.0022C104.143 86.2451 105.351 87.3055 107.698 86.9469C108.852 86.7714 109.482 86.0467 109.885 84.7117C110.409 82.98 109.68 82.3011 109.103 81.4619Z" fill="#FAAB99"/>
<path d="M7.27585 39.7102C7.95941 40.0992 8.5822 40.5341 9.63031 40.3281C10.6405 40.1297 11.4379 39.2448 11.4152 38.2683C11.362 36.1171 10.3366 34.9804 8.32396 34.9575C7.90623 34.9575 7.40497 35.0796 6.87332 35.667C6.29609 36.3078 6.2809 36.8189 6.2809 37.3148C6.2809 38.4285 6.82775 39.0388 7.27585 39.7102Z" fill="#FAAB99"/>
<path d="M31.2961 17.0395C31.729 17.4744 32.367 17.7414 33.2253 17.6575C34.3417 17.5583 35.3595 16.4445 35.3519 15.2926C35.3291 13.271 34.3189 12.3021 32.443 12.3555C31.2885 12.386 30.3467 13.4617 30.2784 14.7433C30.2252 15.8342 30.6505 16.4979 31.3037 17.0319L31.2961 17.0395Z" fill="#FAAB99"/>
<path d="M61.8787 43.3156C61.0888 42.4688 59.8356 42.3925 58.0356 43.2927C57.0786 43.7733 56.6077 44.3454 56.4331 45.2685C55.9166 48.053 58.5065 49.3041 61.3319 47.6334C62.4028 47.0002 62.8964 46.2678 62.8812 45.3295C62.8661 44.3759 62.4863 43.758 61.8711 43.3079L61.8787 43.3156Z" fill="#FAAB99"/>
<path d="M28.672 88.9239C28.034 88.4967 27.2973 88.1077 26.1732 88.3365C24.882 88.5959 23.9326 89.7326 24.0542 90.9074C24.244 92.7611 25.3301 93.6155 27.2289 93.4553C27.7833 93.4096 28.4745 93.2494 29.1353 92.4102C29.7429 91.6245 29.6441 91.0752 29.553 90.5717C29.4391 89.8851 29.1125 89.3816 28.672 88.9316L28.672 88.9239Z" fill="#FAAB99"/>
<path d="M34.7152 53.1683C33.9253 52.3215 32.6721 52.2452 30.8721 53.1454C29.9151 53.626 29.4442 54.1982 29.2695 55.1212C28.753 57.9057 31.343 59.1568 34.1683 57.4861C35.2392 56.8529 35.7329 56.1206 35.7177 55.1823C35.7025 54.2287 35.3228 53.6108 34.7076 53.1607L34.7152 53.1683Z" fill="#FAAB99"/>
<path d="M51.9827 68.8837C51.4131 68.3497 50.7827 68.0217 49.8105 68.1819C48.846 68.3421 48.1016 69.1431 47.8814 70.2416C47.4637 72.2937 49.0586 74.3306 50.8738 74.0636C52.0511 73.8881 52.7954 73.0566 52.9169 71.7826C53.0536 70.4095 52.7346 69.4254 51.9827 68.8913L51.9827 68.8837Z" fill="#FAAB99"/>
<path d="M75.9539 79.2049C75.3159 78.7777 74.5792 78.3886 73.4551 78.6175C72.1639 78.8769 71.2145 80.0135 71.3361 81.1884C71.5259 83.0421 72.612 83.8965 74.5108 83.7363C75.0652 83.6906 75.7564 83.5304 76.4171 82.6912C77.0248 81.9054 76.926 81.3562 76.8349 80.8527C76.721 80.1661 76.3944 79.6626 75.9539 79.2125L75.9539 79.2049Z" fill="#FAAB99"/>
<path d="M81.7543 61.0766C82.4379 61.4657 83.0607 61.9005 84.1088 61.6945C85.1189 61.4962 85.9164 60.6112 85.8936 59.6348C85.8404 57.4835 84.8151 56.3468 82.8024 56.3239C82.3847 56.3239 81.8834 56.446 81.3518 57.0334C80.7745 57.6742 80.7593 58.1853 80.7593 58.6812C80.7593 59.795 81.3062 60.4053 81.7543 61.0766Z" fill="#FAAB99"/>
</svg>
