<svg width="136" height="119" viewBox="0 0 136 119" fill="none" xmlns="http://www.w3.org/2000/svg">
<path d="M57.0469 29.8916C57.6393 29.2737 58.4596 28.938 59.5988 29.0829C60.1001 29.144 60.6697 29.2813 61.2394 29.9907C61.7862 30.6697 61.8621 31.2647 61.7786 31.7225C61.3989 33.7212 60.0242 34.5146 57.776 34.1407C56.8342 33.9882 56.0443 33.0117 55.9912 32.0047C55.938 30.9367 56.4393 30.3722 57.0469 29.8916Z" fill="#FAAB99"/>
<path d="M24.0687 59.0124C24.6611 58.3945 25.4814 58.0588 26.6206 58.2037C27.1219 58.2648 27.6915 58.4021 28.2612 59.1115C28.808 59.7905 28.884 60.3855 28.8004 60.8432C28.4207 62.842 27.046 63.6353 24.7978 63.2615C23.856 63.109 23.0662 62.1325 23.013 61.1255C22.9598 60.0575 23.4611 59.493 24.0687 59.0124Z" fill="#FAAB99"/>
<path d="M55.5601 105.799C56.35 104.952 57.6032 104.876 59.4032 105.776C60.3602 106.256 60.8311 106.828 61.0058 107.752C61.5222 110.536 58.9323 111.787 56.1069 110.116C55.036 109.483 54.5424 108.751 54.5576 107.813C54.5728 106.859 54.9525 106.241 55.5677 105.791L55.5601 105.799Z" fill="#FAAB99"/>
<path d="M35.1284 6.68358C35.6373 6.18009 36.2145 5.81391 37.1259 5.91308C38.1588 6.02752 38.9107 6.77513 39.2677 8.02623C39.9589 10.4521 38.2044 12.5577 36.0246 11.9092C35.0069 11.6117 34.2246 10.6962 34.1183 9.62823C33.9816 8.23982 34.3157 7.23284 35.1284 6.67595L35.1284 6.68358Z" fill="#FAAB99"/>
<path d="M5.99972 37.5341C5.57439 38.0223 4.99718 38.2893 4.23768 38.2969C3.1288 38.3122 2.31613 37.5722 1.87562 36.138C1.18447 33.9028 2.18699 33.1476 3.2579 32.4763C3.50853 32.3161 3.86551 32.2856 4.20728 32.2474C4.73894 32.1864 5.36933 32.2856 6.06808 33.0408C6.72885 33.7503 6.98708 34.5131 7.00986 35.1463C7.05543 36.283 6.69846 37.0687 5.99972 37.5265L5.99972 37.5341Z" fill="#FAAB99"/>
<path d="M18.6277 114.169C19.2201 113.551 20.0404 113.215 21.1797 113.36C21.6809 113.421 22.2506 113.559 22.8202 114.268C23.367 114.947 23.443 115.542 23.3594 116C22.9797 117.999 21.605 118.792 19.3568 118.418C18.4151 118.266 17.6252 117.289 17.572 116.282C17.5188 115.214 18.0201 114.65 18.6277 114.169Z" fill="#FAAB99"/>
<path d="M130.756 65.7287C131.394 65.3015 132.13 64.9124 133.254 65.1413C134.545 65.4007 135.495 66.5373 135.373 67.7121C135.183 69.5659 134.097 70.4203 132.199 70.2601C131.644 70.2143 130.953 70.0541 130.292 69.215C129.685 68.4292 129.783 67.88 129.874 67.3765C129.988 66.6899 130.315 66.1864 130.756 65.7363L130.756 65.7287Z" fill="#FAAB99"/>
<path d="M73.2175 4.75283C72.5339 5.14189 71.9111 5.57672 70.863 5.37074C69.8528 5.1724 69.0554 4.28748 69.0782 3.31101C69.1313 1.15972 70.1566 0.0230558 72.1693 0.00016995C72.5871 0.000169986 73.0883 0.12222 73.62 0.709627C74.1972 1.35044 74.2124 1.86156 74.2124 2.35742C74.2124 3.47121 73.6656 4.0815 73.2175 4.75283Z" fill="#FAAB99"/>
<path d="M4.05567 75.6507C3.62275 76.0855 2.98477 76.3525 2.12653 76.2686C1.01006 76.1694 -0.00766754 75.0557 -7.23945e-05 73.9037C0.0227129 71.8821 1.03286 70.9133 2.90883 70.9667C4.06328 70.9972 5.00506 72.0728 5.07341 73.3545C5.12658 74.4454 4.70126 75.1091 4.04808 75.6431L4.05567 75.6507Z" fill="#FAAB99"/>
<path d="M26.2811 81.4619C27.0102 81.0805 27.7166 80.6533 28.9166 81.0042C30.2685 81.4009 31.4457 82.7817 31.3774 84.0022C31.2407 86.2451 30.0331 87.3055 27.6862 86.9469C26.5318 86.7714 25.9014 86.0467 25.4988 84.7117C24.9748 82.98 25.7039 82.3011 26.2811 81.4619Z" fill="#FAAB99"/>
<path d="M128.108 39.7102C127.424 40.0992 126.802 40.5341 125.753 40.3281C124.743 40.1297 123.946 39.2448 123.969 38.2683C124.022 36.1171 125.047 34.9804 127.06 34.9575C127.478 34.9575 127.979 35.0796 128.51 35.667C129.088 36.3078 129.103 36.8189 129.103 37.3148C129.103 38.4285 128.556 39.0388 128.108 39.7102Z" fill="#FAAB99"/>
<path d="M104.088 17.0395C103.655 17.4744 103.017 17.7414 102.159 17.6575C101.042 17.5583 100.024 16.4445 100.032 15.2926C100.055 13.271 101.065 12.3021 102.941 12.3555C104.095 12.386 105.037 13.4617 105.105 14.7433C105.159 15.8342 104.733 16.4979 104.08 17.0319L104.088 17.0395Z" fill="#FAAB99"/>
<path d="M73.5051 43.3156C74.295 42.4688 75.5482 42.3925 77.3482 43.2927C78.3052 43.7733 78.776 44.3454 78.9507 45.2685C79.4672 48.053 76.8773 49.3041 74.0519 47.6334C72.981 47.0002 72.4874 46.2678 72.5025 45.3295C72.5177 44.3759 72.8975 43.758 73.5127 43.3079L73.5051 43.3156Z" fill="#FAAB99"/>
<path d="M106.712 88.9239C107.35 88.4967 108.087 88.1077 109.211 88.3365C110.502 88.5959 111.451 89.7326 111.33 90.9074C111.14 92.7611 110.054 93.6155 108.155 93.4553C107.6 93.4096 106.909 93.2494 106.249 92.4102C105.641 91.6245 105.74 91.0752 105.831 90.5717C105.945 89.8851 106.271 89.3816 106.712 88.9316L106.712 88.9239Z" fill="#FAAB99"/>
<path d="M100.669 53.1683C101.459 52.3215 102.712 52.2452 104.512 53.1454C105.469 53.626 105.94 54.1982 106.114 55.1212C106.631 57.9057 104.041 59.1568 101.215 57.4861C100.145 56.8529 99.6509 56.1206 99.6661 55.1823C99.6813 54.2287 100.061 53.6108 100.676 53.1607L100.669 53.1683Z" fill="#FAAB99"/>
<path d="M83.4011 68.8837C83.9707 68.3497 84.6011 68.0217 85.5733 68.1819C86.5378 68.3421 87.2821 69.1431 87.5024 70.2416C87.9201 72.2937 86.3252 74.3306 84.5099 74.0636C83.3327 73.8881 82.5884 73.0566 82.4669 71.7826C82.3302 70.4095 82.6492 69.4254 83.4011 68.8913L83.4011 68.8837Z" fill="#FAAB99"/>
<path d="M59.4299 79.2049C60.0679 78.7777 60.8046 78.3886 61.9287 78.6175C63.2199 78.8769 64.1692 80.0135 64.0477 81.1884C63.8578 83.0421 62.7718 83.8965 60.873 83.7363C60.3186 83.6906 59.6274 83.5304 58.9666 82.6912C58.359 81.9054 58.4578 81.3562 58.5489 80.8527C58.6628 80.1661 58.9894 79.6626 59.4299 79.2125L59.4299 79.2049Z" fill="#FAAB99"/>
<path d="M53.6295 61.0766C52.9459 61.4657 52.3231 61.9005 51.275 61.6945C50.2649 61.4962 49.4674 60.6112 49.4902 59.6348C49.5434 57.4835 50.5687 56.3468 52.5814 56.3239C52.9991 56.3239 53.5004 56.446 54.032 57.0334C54.6093 57.6742 54.6244 58.1853 54.6244 58.6812C54.6244 59.795 54.0776 60.4053 53.6295 61.0766Z" fill="#FAAB99"/>
</svg>
