<svg width="539" height="423" viewBox="0 0 539 423" fill="none" xmlns="http://www.w3.org/2000/svg">
<path d="M142.66 337.358C142.792 337.202 142.92 337.019 143.035 336.787C143.393 336.064 143.443 335.496 143.282 335.036C143.007 334.274 142.124 333.827 141.048 333.564C140.918 333.428 140.781 333.314 140.635 333.223C140.21 332.954 139.727 332.9 139.183 333.053C139.183 333.053 139.183 333.053 139.176 333.057C139.176 333.057 139.172 333.049 139.168 333.042C138.795 332.804 138.309 332.743 137.881 332.588C137.453 332.433 137.084 332.184 136.949 331.581C137.064 331.508 137.186 331.45 137.315 331.408C137.567 331.308 137.844 331.243 138.118 331.171C138.251 331.136 138.392 331.098 138.521 331.056C138.65 331.013 138.78 330.971 138.91 330.91C139.154 330.795 139.387 330.656 139.581 330.434C139.678 330.322 139.759 330.199 139.834 330.042C140.581 329.567 141.664 329.686 142.173 328.788C142.201 328.747 142.224 328.717 142.248 328.669C144.975 327.307 147.383 328.378 149.85 329.572C150.805 330.033 151.553 330.234 152.125 330.161C153.08 330.049 153.555 329.177 153.729 327.526C153.429 326.832 153.045 326.374 152.617 326.079C151.96 325.637 151.187 325.56 150.385 325.563C150.117 325.567 149.848 325.572 149.576 325.588C149.035 325.608 148.498 325.617 147.986 325.54C147.737 325.507 147.499 325.478 147.25 325.445C147.546 325.043 147.834 324.644 148.133 324.249C148.616 323.909 149.088 323.564 149.553 323.204C150.482 322.484 151.36 321.713 152.182 320.865C152.592 320.446 152.982 320.009 153.358 319.54C153.784 319.255 154.226 319.084 154.674 318.985C155.35 318.836 156.041 318.857 156.74 318.894C157.2 318.921 157.665 318.955 158.126 318.963C158.36 318.965 158.583 318.963 158.814 318.939C158.973 319.118 159.133 319.239 159.309 319.316C159.657 319.48 160.05 319.483 160.44 319.477C160.636 319.479 160.837 319.469 161.041 319.485C162.396 319.569 163.296 319.004 163.53 317.917C163.56 317.762 163.582 317.592 163.593 317.417C163.605 317.027 163.559 316.673 163.459 316.382C163.244 315.788 162.802 315.405 162.155 315.278C161.827 315.217 161.457 315.223 161.028 315.303C160.344 315.278 159.672 315.257 158.826 315.224C158.542 315.217 158.248 315.205 157.923 315.19C158.886 313.928 159.783 312.744 160.654 311.601C161.524 310.458 162.366 309.356 163.209 308.254C163.651 308.064 164.125 308.001 164.602 307.963C165.39 307.892 166.195 307.898 166.924 307.582C167.092 307.503 167.259 307.424 167.409 307.306C167.624 307.346 167.835 307.378 168.039 307.394C169.061 307.485 169.95 307.272 170.596 306.564C170.855 306.282 171.078 305.923 171.253 305.465C171.363 305.084 171.451 304.696 171.462 304.324C171.473 303.755 171.291 303.25 170.745 302.943C170.697 302.919 170.66 302.881 170.603 302.86C170.041 302.618 169.44 302.451 168.864 302.516C168.72 302.528 168.576 302.558 168.439 302.604C168.302 302.65 168.161 302.707 168.031 302.787C168 302.801 167.977 302.831 167.946 302.846C167.713 303.003 167.489 303.202 167.287 303.485C166.687 303.618 166.164 303.855 165.696 304.189C165.466 304.354 165.25 304.549 165.057 304.753C164.856 304.96 164.678 305.195 164.506 305.445C164.154 305.648 163.888 305.736 163.703 305.739C163.412 305.736 163.264 305.542 163.179 305.263C163.094 304.984 163.075 304.627 163.025 304.303C163.159 302.925 163.072 301.632 162.54 300.484C162.217 299.8 161.735 299.173 161.043 298.617C160.819 298.497 160.591 298.37 160.366 298.25C160.177 298.086 159.968 297.941 159.77 297.837C159.164 297.522 158.547 297.54 158.139 298.315C157.785 298.97 157.83 299.56 158.072 300.093C158.314 300.627 158.755 301.105 159.222 301.561C159.7 302.359 160.179 303.156 160.658 303.954C161.693 305.138 161.673 306.64 161.951 308.059C161.548 308.709 161.138 309.344 160.698 309.974C159.698 311.394 158.539 312.777 157.195 314.181C156.762 314.629 156.334 315.085 155.852 315.547C155.902 314.011 155.993 312.879 156.007 311.839C156.014 311.498 156.005 311.164 155.989 310.833C155.951 310.119 155.675 309.573 155.253 309.133C154.831 308.694 154.282 308.361 153.695 308.065C153.564 308.005 153.432 307.945 153.297 307.915C153.03 307.843 152.766 307.837 152.522 307.933C152.407 307.987 152.285 308.063 152.184 308.167C151.234 309.179 152.007 310.204 152.292 311.206C152.642 312.421 153.082 313.613 153.481 314.815C153.653 315.316 153.767 315.816 153.81 316.303C153.845 316.794 153.798 317.267 153.618 317.736C153.502 318.045 153.33 318.352 153.086 318.645C151.395 320.363 149.708 322.088 148.017 323.806C147.679 323.881 147.334 323.96 146.999 324.042C147.231 322.853 147.656 321.676 147.699 320.481C147.718 319.768 147.6 319.044 147.207 318.309C147.091 318.045 146.979 317.788 146.837 317.564C146.42 316.878 145.846 316.453 144.847 316.868C144.245 317.115 143.973 317.487 143.911 317.911C143.88 318.122 143.906 318.354 143.962 318.591C144.017 318.828 144.118 319.081 144.234 319.327C144.177 319.542 144.146 319.753 144.138 319.954C144.101 320.667 144.279 321.362 144.454 322.049C144.573 322.538 144.688 323.019 144.719 323.521C144.733 323.768 144.739 324.019 144.7 324.272C144.684 324.495 144.646 324.711 144.6 324.911C144.477 325.401 144.268 325.828 144.006 326.224C143.507 326.966 142.807 327.579 142.062 328.155C141.106 328.306 140.274 328.698 139.676 329.487C139.616 329.459 139.563 329.447 139.503 329.437C139.333 329.414 139.173 329.471 139.02 329.562C139.005 329.569 138.982 329.58 138.967 329.587C138.691 329.754 138.429 330.029 138.142 330.173C138.127 330.18 138.112 330.188 138.096 330.195C137.783 330.342 137.447 330.322 137.045 329.826C137.14 329.613 137.232 329.391 137.319 329.181C137.613 328.319 138.069 327.447 138.208 326.592C138.342 325.731 138.167 324.884 137.175 324.046C136.704 323.207 136.231 323.036 135.831 323.177C135.424 323.322 135.089 323.8 134.864 324.272C134.548 324.966 134.47 325.791 134.438 326.614C134.429 326.891 134.423 327.156 134.429 327.426C134.418 328.173 134.387 328.92 134.286 329.635C134.185 330.33 134.005 330.998 133.708 331.635C133.495 332.093 133.225 332.53 132.873 332.95C130.249 333.52 127.892 335.073 125.184 335.365C124.793 335.408 124.4 335.425 124 335.407C124.029 335.074 124.182 334.804 124.35 334.547C124.521 334.297 124.723 334.051 124.849 333.785C124.936 333.613 125.015 333.444 125.09 333.268C125.241 332.915 125.373 332.561 125.467 332.207C125.558 331.845 125.611 331.482 125.607 331.118C125.599 330.567 125.459 330.013 125.123 329.458C124.804 328.942 124.315 328.478 123.551 328.697C122.714 328.942 122.322 329.455 122.098 330.068C121.873 330.681 121.818 331.374 121.661 331.993C121.518 332.539 121.367 333.089 121.201 333.609C121.085 333.955 120.964 334.293 120.829 334.62C120.559 335.274 120.222 335.865 119.792 336.377C119.575 336.63 119.332 336.867 119.063 337.069C118.925 337.171 118.783 337.266 118.63 337.357C118.331 337.536 117.992 337.686 117.615 337.798C117.243 337.918 116.833 337.998 116.378 338.044C114.972 338.209 113.563 338.367 111.509 338.603C112.198 338.006 112.735 337.442 113.151 336.88C113.85 335.949 114.228 335.029 114.442 334.017C114.517 333.663 114.55 333.337 114.515 333.025C114.461 332.515 114.205 332.072 113.566 331.726C113.278 331.57 113.038 331.496 112.83 331.491C112.203 331.467 111.855 332.016 111.417 332.57C110.792 333.363 110.397 334.188 110.101 335.163C109.537 337.073 108.654 338.268 107.292 338.921C106.475 339.306 105.484 339.501 104.274 339.527C104.1 339.534 103.922 339.533 103.745 339.532C103.336 339.537 102.917 339.538 102.486 339.534C101.503 339.528 100.468 339.51 99.2963 339.499C100.422 338.442 101.343 337.725 102.083 336.86C102.316 336.581 102.495 336.29 102.607 335.993C102.719 335.696 102.774 335.398 102.765 335.101C102.752 334.657 102.594 334.224 102.3 333.837C102.2 333.706 102.078 333.585 101.948 333.468C101.358 332.948 100.811 332.877 100.327 333.077C99.8464 333.285 99.436 333.76 99.1407 334.341C98.3107 335.925 97.3479 337.168 96.2119 338.005C95.8396 338.284 95.4418 338.509 95.026 338.695C93.9922 339.155 92.836 339.315 91.5356 339.13C90.7554 339.019 89.9285 338.79 89.0435 338.437C88.9724 338.405 88.8932 338.395 88.8064 338.389C88.6364 338.385 88.4503 338.426 88.2606 338.459C88.1658 338.475 88.0786 338.488 87.9877 338.494C87.966 338.447 87.8872 338.419 87.7473 338.419L87.7321 338.426C86.7057 338.15 85.6718 337.877 84.6454 337.6C84.5063 337.562 84.356 337.521 84.2169 337.483C84.1738 337.372 84.1419 337.265 84.1214 337.162C84.056 336.845 84.0851 336.531 84.3518 336.245C84.8179 336.185 85.2298 336.01 85.6195 335.807C86.2538 335.47 86.815 335.018 87.3463 334.542C87.766 334.165 88.0242 333.743 88.1464 333.31C88.1873 333.159 88.2129 333.016 88.216 332.864C88.2334 332.564 88.1866 332.267 88.0754 331.972C87.9642 331.677 87.8036 331.396 87.5747 331.128C87.1873 330.663 86.7905 330.475 86.4086 330.476C86.0268 330.478 85.6451 330.658 85.2957 330.926C85.0615 331.102 84.8302 331.324 84.6177 331.546C84.4904 331.672 84.3892 331.814 84.2768 331.951C84.0483 332.219 83.8234 332.494 83.6022 332.777C83.4898 332.914 83.3886 333.056 83.2762 333.193C81.9953 334.277 80.4539 334.788 78.8977 335.287C78.7341 335.336 78.5742 335.392 78.4107 335.441C74.1397 333.746 70.1312 331.599 66.2647 329.159C62.3983 326.719 58.6815 323.983 54.994 321.111C54.9564 321.843 55.1622 322.319 55.4535 322.679C55.6047 322.861 55.768 323.009 55.9542 323.147C56.1292 323.281 56.3117 323.41 56.4831 323.536C57.548 324.33 58.6169 325.112 59.6975 325.88C61.8587 327.415 64.0628 328.883 66.3295 330.246C67.4647 330.931 68.6043 331.587 69.7708 332.22C70.7318 332.734 71.6723 333.323 72.6442 333.86C72.9619 334.039 73.2948 334.211 73.6165 334.378C74.2751 334.706 74.9494 335.008 75.6593 335.227C76.3617 335.45 77.0957 335.601 77.8658 335.651C77.884 335.69 77.929 335.706 78.0118 335.723C78.4159 335.927 78.8276 336.128 79.2317 336.331C80.832 338.676 81.5323 341.407 82.4882 344.027C82.8676 345.069 83.5157 345.73 84.422 345.773C84.7279 345.788 85.0543 345.728 85.4199 345.593C85.7779 345.462 86.0157 345.293 86.1711 345.088C86.4778 344.69 86.4428 344.181 86.3062 343.654C86.236 343.386 86.147 343.118 86.0656 342.847C85.9556 342.495 85.8339 342.158 85.697 341.828C85.5601 341.498 85.3926 341.183 85.2135 340.882C84.8477 340.284 84.3746 339.756 83.7445 339.33C83.672 339.177 83.6032 339.031 83.5231 338.881C83.268 338.597 83.013 338.314 82.7543 338.023C83.0629 337.905 83.3751 337.795 83.6873 337.686C83.7018 337.716 83.7392 337.736 83.7995 337.746C84.6315 338.283 85.5325 338.59 86.4835 338.668C86.8042 338.695 87.133 338.699 87.4622 338.685C87.7245 338.984 88.0457 339.17 88.3838 339.274C88.5491 339.328 88.726 339.366 88.9032 339.386C89.0805 339.406 89.2581 339.406 89.4358 339.407C91.1721 339.349 92.7132 339.589 94.0513 340.151C94.9358 340.522 95.7381 341.036 96.4391 341.692C96.7915 342.023 97.1129 342.388 97.4147 342.79C97.7165 343.193 97.9985 343.633 98.2533 344.113C98.5081 344.594 98.732 345.108 98.9399 345.668C99.1187 346.166 99.4535 346.618 99.7774 347.048C100.09 347.454 100.443 347.767 100.817 347.947C101.192 348.127 101.591 348.183 102.002 348.083C102.279 348.018 102.554 347.889 102.834 347.672C103.552 347.136 103.701 346.483 103.556 345.801C103.474 345.389 103.275 344.966 103.038 344.543C102.833 344.188 102.586 343.882 102.309 343.59C101.806 343.058 101.203 342.591 100.556 342.051C99.9538 341.546 99.3228 340.979 98.7105 340.235C98.9931 340.28 99.2833 340.322 99.5703 340.337C101.853 340.528 104.078 340.042 106.14 340.14C107.945 340.227 109.616 340.782 111.09 342.641C111.464 343.611 112.044 344.427 112.725 345.176C112.954 345.425 113.187 345.662 113.428 345.896C113.654 346.118 113.896 346.314 114.146 346.469C114.396 346.623 114.658 346.744 114.922 346.807C115.087 346.842 115.25 346.85 115.424 346.843C115.795 346.818 116.176 346.676 116.545 346.351C116.803 346.126 116.959 345.884 117.028 345.635C117.105 345.383 117.107 345.128 117.059 344.869C117.012 344.61 116.918 344.353 116.799 344.1C116.679 343.846 116.556 343.604 116.428 343.373C115.973 342.508 115.295 341.86 114.425 341.482C114.133 341.357 113.825 341.258 113.498 341.196C113.042 340.547 111.97 340.649 111.688 339.674C113.321 339.279 114.917 338.883 116.524 338.491C116.808 338.48 117.103 338.453 117.391 338.43C118.266 338.346 119.138 338.216 119.992 338.246C120.562 338.268 121.116 338.354 121.648 338.573C122.18 338.791 122.695 339.131 123.18 339.663C123.325 339.773 123.451 339.901 123.58 340.037C123.787 340.259 123.968 340.503 124.159 340.75C124.358 341.013 124.553 341.269 124.763 341.517C124.952 341.738 125.155 341.952 125.394 342.121C125.692 342.338 126.032 342.506 126.458 342.577C126.671 342.871 126.897 343.093 127.132 343.255C127.49 343.499 127.862 343.596 128.241 343.549C128.617 343.494 128.999 343.295 129.369 342.932C129.616 342.684 129.787 342.434 129.883 342.183C129.979 341.931 129.999 341.677 129.963 341.422C129.939 341.292 129.908 341.166 129.865 341.036C129.722 340.653 129.461 340.278 129.109 339.909C128.277 339.034 127.306 338.459 126.251 338.064C125.617 337.827 124.96 337.64 124.27 337.543C124.308 337.506 124.354 337.484 124.396 337.455C126.983 335.38 130.379 335.281 133.246 333.9C134.311 333.962 135.155 335.019 136.32 334.601C136.936 335.945 138.353 336.338 139.423 337.063C139.71 337.256 140.024 337.447 140.346 337.595C140.668 337.744 141.013 337.844 141.346 337.875C141.848 337.91 142.331 337.767 142.737 337.303L142.66 337.358Z" fill="#EAE7D0"/>
<path d="M138.024 410.721C138.226 410.693 138.444 410.643 138.684 410.547C139.434 410.249 139.851 409.859 140.038 409.41C140.343 408.659 139.986 407.736 139.361 406.822C139.356 406.634 139.33 406.457 139.282 406.292C139.146 405.808 138.823 405.445 138.316 405.195C138.316 405.195 138.316 405.195 138.308 405.193C138.308 405.193 138.311 405.185 138.313 405.177C138.194 404.751 137.874 404.38 137.659 403.978C137.445 403.577 137.337 403.145 137.639 402.607C137.774 402.629 137.903 402.668 138.027 402.723C138.281 402.817 138.531 402.954 138.783 403.083C138.905 403.146 139.035 403.212 139.16 403.267C139.284 403.322 139.408 403.377 139.546 403.418C139.805 403.496 140.071 403.549 140.363 403.513C140.51 403.495 140.653 403.458 140.814 403.391C141.687 403.538 142.412 404.35 143.392 404.023C143.439 404.011 143.477 404.004 143.527 403.984C146.465 404.794 147.54 407.201 148.576 409.738C148.978 410.719 149.4 411.369 149.874 411.697C150.659 412.252 151.595 411.921 152.828 410.81C153.069 410.094 153.09 409.497 152.969 408.99C152.776 408.223 152.252 407.649 151.655 407.115C151.452 406.939 151.249 406.763 151.036 406.592C150.62 406.246 150.215 405.893 149.885 405.493C149.722 405.302 149.565 405.122 149.402 404.931C149.891 404.83 150.371 404.726 150.858 404.632C151.445 404.702 152.026 404.761 152.613 404.804C153.785 404.89 154.953 404.904 156.132 404.823C156.716 404.785 157.299 404.721 157.892 404.624C158.399 404.696 158.842 404.865 159.241 405.091C159.844 405.432 160.344 405.91 160.839 406.404C161.163 406.732 161.485 407.068 161.823 407.382C161.996 407.541 162.163 407.688 162.351 407.825C162.35 408.064 162.388 408.261 162.467 408.436C162.616 408.791 162.907 409.056 163.2 409.312C163.345 409.445 163.501 409.571 163.642 409.72C164.594 410.688 165.641 410.87 166.541 410.218C166.667 410.122 166.797 410.011 166.922 409.888C167.192 409.606 167.395 409.312 167.515 409.029C167.752 408.444 167.68 407.863 167.283 407.336C167.08 407.072 166.801 406.828 166.428 406.601C165.937 406.125 165.451 405.66 164.844 405.07C164.638 404.875 164.426 404.67 164.195 404.441C165.755 404.146 167.214 403.866 168.625 403.598C170.036 403.33 171.4 403.074 172.763 402.818C173.219 402.972 173.614 403.242 173.994 403.533C174.627 404.007 175.222 404.549 175.975 404.802C176.152 404.855 176.33 404.908 176.52 404.921C176.653 405.094 176.789 405.259 176.93 405.408C177.629 406.159 178.433 406.595 179.386 406.5C179.767 406.463 180.173 406.346 180.61 406.122C180.946 405.913 181.271 405.682 181.528 405.413C181.917 404.998 182.119 404.5 181.918 403.907C181.898 403.857 181.896 403.803 181.868 403.751C181.612 403.195 181.277 402.668 180.805 402.332C180.69 402.244 180.562 402.17 180.43 402.113C180.297 402.055 180.154 402.003 180.004 401.976C179.972 401.966 179.934 401.973 179.902 401.963C179.623 401.924 179.324 401.923 178.984 401.998C178.449 401.696 177.902 401.522 177.331 401.458C177.049 401.426 176.758 401.428 176.478 401.45C176.19 401.47 175.901 401.525 175.606 401.596C175.208 401.512 174.951 401.4 174.812 401.278C174.598 401.081 174.618 400.838 174.741 400.574C174.864 400.309 175.089 400.031 175.268 399.756C176.289 398.821 177.089 397.802 177.461 396.592C177.678 395.868 177.738 395.079 177.596 394.203C177.509 393.964 177.425 393.717 177.338 393.478C177.307 393.229 177.249 392.982 177.171 392.772C176.931 392.132 176.46 391.734 175.638 392.037C174.937 392.288 174.576 392.756 174.4 393.315C174.223 393.874 174.231 394.523 174.273 395.174C174.096 396.088 173.919 397.001 173.741 397.915C173.719 399.487 172.7 400.591 171.958 401.831C171.224 402.045 170.495 402.243 169.746 402.418C168.052 402.805 166.267 403.058 164.329 403.204C163.707 403.248 163.084 403.3 162.416 403.322C163.48 402.213 164.305 401.432 165.01 400.668C165.244 400.419 165.461 400.165 165.67 399.908C166.119 399.352 166.279 398.761 166.259 398.152C166.239 397.543 166.054 396.929 165.814 396.316C165.757 396.183 165.7 396.051 165.619 395.938C165.469 395.707 165.276 395.525 165.031 395.433C164.909 395.397 164.767 395.372 164.623 395.382C163.24 395.499 163.129 396.778 162.672 397.714C162.119 398.851 161.65 400.032 161.143 401.192C160.935 401.68 160.686 402.128 160.392 402.519C160.091 402.907 159.739 403.227 159.291 403.457C158.999 403.608 158.666 403.721 158.288 403.776C155.882 403.923 153.474 404.078 151.068 404.225C150.767 404.055 150.457 403.882 150.153 403.72C151.121 402.991 152.224 402.399 153.055 401.54C153.545 401.022 153.942 400.405 154.141 399.596C154.232 399.322 154.32 399.056 154.364 398.794C154.512 398.005 154.37 397.306 153.35 396.946C152.737 396.727 152.286 396.822 151.957 397.096C151.792 397.233 151.656 397.422 151.539 397.636C151.422 397.849 151.328 398.104 151.25 398.365C151.063 398.486 150.899 398.623 150.759 398.767C150.255 399.272 149.923 399.908 149.593 400.537C149.354 400.979 149.118 401.414 148.806 401.808C148.651 402.001 148.488 402.192 148.29 402.354C148.129 402.509 147.956 402.644 147.788 402.762C147.369 403.044 146.928 403.222 146.469 403.341C145.601 403.56 144.671 403.547 143.732 403.477C142.92 402.95 142.039 402.686 141.067 402.873C141.041 402.812 141.01 402.767 140.972 402.72C140.861 402.589 140.704 402.524 140.53 402.49C140.513 402.485 140.489 402.478 140.473 402.473C140.156 402.413 139.777 402.441 139.468 402.357C139.452 402.352 139.435 402.348 139.419 402.343C139.088 402.243 138.851 402.004 138.884 401.366C139.098 401.271 139.314 401.167 139.52 401.069C140.314 400.625 141.237 400.281 141.911 399.738C142.587 399.188 143.023 398.44 142.845 397.154C143.056 396.216 142.819 395.772 142.427 395.61C142.027 395.446 141.459 395.577 140.976 395.777C140.276 396.082 139.667 396.644 139.093 397.234C138.901 397.434 138.72 397.628 138.544 397.832C138.036 398.38 137.514 398.915 136.96 399.379C136.42 399.828 135.84 400.204 135.193 400.48C134.729 400.678 134.236 400.822 133.693 400.899C131.36 399.569 128.57 399.148 126.361 397.554C126.041 397.325 125.738 397.074 125.452 396.794C125.697 396.565 125.991 396.467 126.288 396.388C126.582 396.317 126.896 396.269 127.168 396.156C127.348 396.085 127.519 396.013 127.693 395.932C128.041 395.771 128.376 395.596 128.683 395.395C128.992 395.187 129.274 394.952 129.515 394.679C129.877 394.264 130.143 393.759 130.264 393.121C130.373 392.524 130.319 391.852 129.604 391.504C128.819 391.126 128.183 391.246 127.607 391.552C127.03 391.858 126.526 392.336 125.996 392.691C125.524 393.002 125.044 393.31 124.573 393.585C124.255 393.765 123.939 393.936 123.62 394.089C122.982 394.394 122.336 394.608 121.674 394.702C121.344 394.744 121.005 394.758 120.67 394.728C120.498 394.713 120.329 394.688 120.155 394.654C119.814 394.587 119.46 394.472 119.106 394.303C118.748 394.143 118.39 393.929 118.021 393.659C116.865 392.842 115.712 392.017 114.027 390.819C114.938 390.835 115.714 390.776 116.4 390.636C117.542 390.411 118.438 389.979 119.273 389.37C119.567 389.156 119.809 388.936 119.991 388.681C120.292 388.266 120.398 387.765 120.155 387.08C120.044 386.772 119.915 386.556 119.764 386.413C119.314 385.976 118.688 386.152 117.992 386.271C116.997 386.443 116.152 386.792 115.28 387.32C113.583 388.362 112.128 388.662 110.678 388.235C109.813 387.976 108.946 387.458 108.029 386.669C107.895 386.557 107.763 386.438 107.632 386.319C107.325 386.049 107.012 385.769 106.694 385.479C105.968 384.817 105.21 384.111 104.346 383.32C105.89 383.286 107.054 383.37 108.183 383.221C108.542 383.169 108.871 383.072 109.152 382.926C109.434 382.78 109.675 382.595 109.866 382.369C110.153 382.03 110.325 381.602 110.365 381.118C110.379 380.953 110.369 380.782 110.351 380.608C110.259 379.827 109.9 379.408 109.406 379.234C108.91 379.067 108.287 379.146 107.679 379.38C106.002 380.003 104.455 380.284 103.052 380.146C102.588 380.105 102.142 380.006 101.708 379.867C100.632 379.518 99.6649 378.864 98.8215 377.857C98.3155 377.253 97.8542 376.529 97.432 375.675C97.4006 375.603 97.3481 375.543 97.2876 375.481C97.164 375.364 96.9984 375.27 96.8352 375.168C96.7536 375.117 96.6801 375.068 96.609 375.011C96.6237 374.962 96.5842 374.888 96.48 374.795L96.4638 374.79C95.8856 373.898 95.2992 373.004 94.7209 372.112C94.6427 371.991 94.5588 371.859 94.4806 371.738C94.5229 371.627 94.5708 371.526 94.6243 371.436C94.7874 371.157 95.0192 370.942 95.4083 370.908C95.7953 371.175 96.2188 371.32 96.6441 371.43C97.341 371.604 98.0608 371.642 98.7742 371.644C99.3379 371.644 99.8122 371.503 100.193 371.263C100.324 371.178 100.439 371.088 100.543 370.977C100.756 370.766 100.92 370.514 101.034 370.22C101.149 369.927 101.217 369.61 101.226 369.258C101.249 368.653 101.08 368.248 100.795 367.994C100.51 367.74 100.106 367.618 99.6667 367.584C99.3747 367.558 99.0544 367.569 98.7478 367.592C98.5691 367.6 98.3991 367.638 98.2236 367.665C97.8749 367.711 97.5237 367.765 97.1701 367.828C96.9945 367.855 96.8246 367.893 96.649 367.92C94.9724 367.869 93.4845 367.218 91.9935 366.549C91.8391 366.476 91.6823 366.411 91.528 366.338C89.4853 362.222 87.9403 357.945 86.6965 353.546C85.4527 349.146 84.5181 344.627 83.6961 340.026C83.179 340.544 83.0139 341.036 82.9896 341.499C82.9803 341.735 83.0025 341.955 83.049 342.181C83.0898 342.398 83.1387 342.616 83.182 342.824C83.4433 344.127 83.715 345.423 84.0054 346.716C84.5861 349.303 85.2438 351.868 86.0179 354.397C86.4038 355.666 86.8131 356.915 87.2573 358.166C87.6282 359.191 87.9336 360.258 88.2972 361.307C88.4138 361.652 88.5466 362.003 88.6738 362.342C88.9443 363.026 89.2439 363.702 89.6253 364.339C89.9986 364.975 90.4431 365.578 90.9824 366.13C90.9702 366.171 90.9928 366.213 91.0428 366.281C91.207 366.703 91.3793 367.127 91.5435 367.549C91.1661 370.362 89.8608 372.861 88.8198 375.449C88.4053 376.477 88.4448 377.403 89.0907 378.04C89.3079 378.256 89.5907 378.429 89.9528 378.574C90.3068 378.715 90.5963 378.749 90.8487 378.701C91.3431 378.61 91.6577 378.207 91.9085 377.724C92.0352 377.478 92.1481 377.219 92.2691 376.963C92.4226 376.628 92.5575 376.296 92.6762 375.959C92.795 375.622 92.8813 375.276 92.9491 374.932C93.0766 374.244 93.0779 373.534 92.8941 372.796C92.9429 372.634 92.9893 372.479 93.0301 372.314C93.03 371.933 93.0299 371.551 93.0322 371.162C93.3402 371.281 93.6457 371.408 93.9512 371.535C93.9414 371.568 93.9559 371.608 93.9947 371.655C94.2541 372.61 94.7185 373.442 95.3739 374.135C95.5943 374.37 95.8357 374.593 96.0901 374.802C96.0853 375.2 96.1995 375.553 96.3817 375.856C96.4688 376.007 96.5745 376.154 96.6931 376.287C96.8118 376.42 96.9434 376.539 97.075 376.659C98.4051 377.776 99.3904 378.985 100.01 380.298C100.419 381.165 100.672 382.084 100.755 383.04C100.796 383.522 100.791 384.008 100.746 384.509C100.702 385.01 100.617 385.526 100.485 386.054C100.353 386.582 100.176 387.114 99.9565 387.669C99.7566 388.159 99.7029 388.719 99.6566 389.255C99.6176 389.766 99.671 390.235 99.8288 390.619C99.9866 391.003 100.246 391.312 100.618 391.512C100.868 391.649 101.159 391.737 101.512 391.763C102.404 391.844 102.952 391.459 103.301 390.854C103.515 390.493 103.649 390.045 103.756 389.572C103.841 389.172 103.862 388.779 103.851 388.376C103.833 387.644 103.696 386.893 103.577 386.059C103.467 385.281 103.376 384.438 103.418 383.476C103.598 383.698 103.786 383.923 103.99 384.126C105.56 385.794 107.539 386.921 109.007 388.372C110.291 389.644 111.162 391.174 111.015 393.542C110.645 394.513 110.531 395.507 110.536 396.52C110.54 396.858 110.555 397.191 110.578 397.526C110.597 397.842 110.646 398.149 110.729 398.431C110.811 398.713 110.926 398.978 111.079 399.201C111.179 399.338 111.295 399.452 111.429 399.564C111.721 399.793 112.099 399.942 112.591 399.948C112.933 399.953 113.212 399.877 113.429 399.738C113.655 399.602 113.826 399.414 113.964 399.19C114.102 398.965 114.205 398.712 114.285 398.443C114.366 398.175 114.436 397.912 114.495 397.655C114.736 396.707 114.664 395.772 114.271 394.909C114.137 394.621 113.974 394.342 113.772 394.077C113.867 393.29 113.002 392.649 113.444 391.735C114.922 392.533 116.374 393.306 117.83 394.089C118.049 394.27 118.287 394.448 118.516 394.623C119.223 395.146 119.958 395.632 120.573 396.225C120.983 396.623 121.337 397.057 121.587 397.575C121.836 398.094 121.992 398.69 121.997 399.41C122.031 399.589 122.039 399.769 122.044 399.956C122.05 400.26 122.021 400.561 121.998 400.874C121.97 401.202 121.944 401.523 121.935 401.848C121.927 402.138 121.935 402.433 121.999 402.719C122.076 403.079 122.217 403.431 122.486 403.769C122.448 404.13 122.468 404.447 122.534 404.724C122.637 405.145 122.849 405.466 123.162 405.684C123.478 405.894 123.895 406.001 124.413 405.98C124.763 405.96 125.057 405.889 125.297 405.766C125.536 405.643 125.721 405.468 125.865 405.253C125.934 405.141 125.995 405.026 126.05 404.901C126.199 404.52 126.256 404.067 126.242 403.558C126.208 402.35 125.87 401.273 125.35 400.275C125.036 399.675 124.673 399.096 124.225 398.562C124.278 398.561 124.327 398.575 124.378 398.582C127.688 398.768 130.28 400.965 133.335 401.856C134.086 402.613 134.007 403.964 135.153 404.432C134.712 405.843 135.503 407.082 135.813 408.337C135.898 408.673 136.004 409.024 136.144 409.35C136.284 409.676 136.474 409.981 136.7 410.226C137.05 410.588 137.505 410.805 138.117 410.731L138.024 410.721Z" fill="#EAE7D0"/>
<path d="M163.111 304.808C163.253 304.46 163.374 304.068 163.443 303.596C163.66 302.126 163.424 301.104 162.882 300.391C161.967 299.213 160.168 298.93 158.135 299.081C157.831 298.916 157.526 298.795 157.22 298.718C156.322 298.489 155.447 298.668 154.582 299.245C154.582 299.245 154.582 299.245 154.57 299.256C154.57 299.256 154.56 299.244 154.549 299.233C153.761 299.029 152.875 299.197 152.038 299.168C151.201 299.14 150.414 298.914 149.835 297.935C149.995 297.742 150.176 297.572 150.378 297.425C150.762 297.107 151.21 296.836 151.648 296.553C151.861 296.417 152.086 296.271 152.289 296.123C152.491 295.976 152.694 295.829 152.886 295.648C153.248 295.307 153.579 294.933 153.791 294.433C153.897 294.183 153.971 293.921 154.013 293.603C155.051 292.349 157.013 291.942 157.396 290.081C157.421 289.994 157.445 289.929 157.458 289.83C161.46 285.9 166.284 286.407 171.28 287.098C173.212 287.363 174.636 287.29 175.597 286.838C177.205 286.1 177.542 284.303 176.909 281.316C175.991 280.27 175.059 279.687 174.141 279.413C172.741 279.012 171.344 279.317 169.942 279.775C169.475 279.936 169.008 280.096 168.539 280.278C167.604 280.621 166.669 280.942 165.728 281.097C165.274 281.18 164.841 281.265 164.387 281.348C164.676 280.476 164.954 279.615 165.254 278.754C165.906 277.884 166.537 277.012 167.146 276.118C168.365 274.33 169.464 272.483 170.423 270.531C170.902 269.567 171.337 268.579 171.73 267.545C172.313 266.804 172.99 266.254 173.718 265.827C174.816 265.182 176.039 264.827 177.283 264.495C178.104 264.28 178.937 264.078 179.748 263.83C180.16 263.701 180.549 263.571 180.94 263.397C181.319 263.619 181.668 263.742 182.02 263.776C182.723 263.866 183.413 263.647 184.091 263.417C184.436 263.308 184.782 263.176 185.148 263.09C187.568 262.468 188.823 260.967 188.615 258.932C188.579 258.644 188.522 258.333 188.443 258.022C188.241 257.331 187.961 256.737 187.621 256.285C186.908 255.367 185.917 254.947 184.711 255.093C184.103 255.171 183.457 255.392 182.752 255.775C181.541 256.119 180.352 256.464 178.852 256.887C178.352 257.035 177.83 257.182 177.252 257.339C178.222 254.583 179.122 252.001 179.996 249.507C180.871 247.012 181.721 244.605 182.571 242.198C183.238 241.615 184.031 241.234 184.845 240.898C186.184 240.327 187.596 239.879 188.693 238.914C188.942 238.68 189.191 238.446 189.386 238.155C189.785 238.103 190.172 238.039 190.538 237.952C192.38 237.531 193.815 236.654 194.544 235.047C194.837 234.407 195.024 233.653 195.071 232.75C195.048 232.022 194.98 231.292 194.789 230.635C194.487 229.632 193.88 228.851 192.751 228.625C192.652 228.61 192.566 228.563 192.456 228.559C191.334 228.455 190.186 228.503 189.215 228.944C188.97 229.046 188.735 229.181 188.521 229.339C188.307 229.497 188.092 229.677 187.91 229.891C187.865 229.934 187.841 229.999 187.796 230.042C187.475 230.449 187.198 230.925 187.004 231.536C186.029 232.108 185.249 232.82 184.618 233.669C184.309 234.089 184.043 234.554 183.82 235.02C183.586 235.497 183.406 236.009 183.248 236.544C182.748 237.1 182.331 237.405 182.008 237.515C181.497 237.674 181.129 237.419 180.822 236.978C180.515 236.538 180.279 235.923 180.007 235.385C179.46 232.897 178.574 230.683 176.991 228.975C176.038 227.961 174.838 227.137 173.311 226.555C172.85 226.473 172.379 226.38 171.918 226.298C171.494 226.118 171.046 225.981 170.64 225.912C169.4 225.704 168.331 226.086 168.055 227.675C167.808 229.023 168.22 230.029 168.948 230.826C169.675 231.623 170.716 232.21 171.793 232.743C173.084 233.868 174.375 234.993 175.666 236.117C178.148 237.603 178.967 240.244 180.257 242.57C179.921 243.937 179.564 245.281 179.151 246.633C178.205 249.688 176.962 252.765 175.405 255.985C174.902 257.015 174.41 258.057 173.829 259.139C173.045 256.422 172.562 254.388 171.996 252.561C171.815 251.959 171.611 251.379 171.395 250.809C170.923 249.58 170.13 248.781 169.141 248.251C168.153 247.721 167.004 247.45 165.807 247.265C165.544 247.234 165.28 247.203 165.026 247.228C164.518 247.254 164.051 247.392 163.679 247.699C163.509 247.859 163.338 248.062 163.221 248.301C162.131 250.612 164.066 251.968 165.135 253.559C166.436 255.489 167.884 257.325 169.264 259.203C169.848 259.983 170.332 260.794 170.684 261.622C171.024 262.46 171.209 263.316 171.161 264.24C171.133 264.845 171.005 265.48 170.744 266.133C168.759 270.099 166.785 274.077 164.8 278.044C164.25 278.367 163.69 278.7 163.151 279.035C162.883 276.82 162.959 274.519 162.357 272.404C161.984 271.145 161.368 269.944 160.262 268.881C159.91 268.483 159.568 268.096 159.191 267.786C158.072 266.821 156.827 266.403 155.314 267.696C154.399 268.47 154.134 269.276 154.266 270.052C154.333 270.441 154.509 270.833 154.741 271.215C154.972 271.598 155.292 271.984 155.635 272.349C155.656 272.757 155.723 273.145 155.823 273.502C156.162 274.77 156.869 275.886 157.566 276.99C158.05 277.779 158.525 278.556 158.864 279.416C159.029 279.841 159.182 280.276 159.257 280.742C159.356 281.142 159.411 281.541 159.444 281.917C159.506 282.845 159.383 283.711 159.15 284.552C158.697 286.135 157.818 287.604 156.841 289.037C155.254 289.842 154.02 291.001 153.42 292.723C153.299 292.707 153.2 292.715 153.089 292.733C152.779 292.789 152.531 292.979 152.315 293.225C152.292 293.246 152.258 293.278 152.236 293.299C151.848 293.749 151.544 294.378 151.124 294.793C151.102 294.815 151.079 294.836 151.057 294.857C150.592 295.293 149.993 295.449 149.008 294.809C149.053 294.38 149.087 293.941 149.121 293.523C149.146 291.848 149.45 290.061 149.207 288.488C148.954 286.902 148.166 285.519 145.954 284.616C144.654 283.414 143.729 283.382 143.11 283.857C142.479 284.342 142.164 285.368 142.038 286.322C141.877 287.717 142.21 289.206 142.621 290.664C142.762 291.154 142.903 291.622 143.066 292.091C143.47 293.405 143.841 294.73 144.068 296.039C144.286 297.314 144.35 298.584 144.192 299.868C144.078 300.791 143.854 301.709 143.475 302.644C139.206 305.132 135.961 309.187 131.385 311.235C130.726 311.532 130.047 311.784 129.336 311.98C129.198 311.38 129.313 310.822 129.461 310.276C129.619 309.741 129.833 309.197 129.903 308.659C129.957 308.308 130 307.968 130.031 307.616C130.095 306.913 130.126 306.219 130.09 305.546C130.043 304.861 129.929 304.195 129.716 303.559C129.39 302.6 128.831 301.71 127.927 300.929C127.076 300.205 125.956 299.671 124.743 300.489C123.417 301.391 123.021 302.513 122.977 303.713C122.932 304.913 123.228 306.158 123.305 307.33C123.364 308.368 123.412 309.417 123.417 310.42C123.409 311.093 123.39 311.753 123.339 312.402C123.236 313.699 122.981 314.925 122.519 316.067C122.283 316.632 121.992 317.184 121.636 317.69C121.453 317.948 121.258 318.195 121.042 318.441C120.621 318.923 120.112 319.38 119.516 319.789C118.931 320.21 118.259 320.584 117.489 320.921C115.122 322.008 112.744 323.084 109.283 324.662C110.15 323.226 110.77 321.935 111.179 320.715C111.875 318.688 112.015 316.863 111.815 314.971C111.745 314.307 111.618 313.718 111.38 313.192C110.996 312.33 110.297 311.7 108.981 311.456C108.389 311.347 107.926 311.353 107.559 311.462C106.448 311.777 106.151 312.935 105.698 314.154C105.054 315.896 104.831 317.564 104.866 319.439C104.962 323.103 104.095 325.697 102.08 327.612C100.868 328.749 99.2447 329.653 97.1409 330.385C96.8402 330.496 96.5288 330.595 96.2173 330.695C95.5052 330.935 94.771 331.174 94.0148 331.413C92.291 331.96 90.4677 332.515 88.4105 333.16C89.781 330.672 90.9883 328.894 91.7921 326.96C92.041 326.34 92.1905 325.728 92.2179 325.144C92.2453 324.561 92.1727 324.007 91.9887 323.494C91.7127 322.724 91.1914 322.055 90.4562 321.545C90.2076 321.371 89.925 321.229 89.6311 321.098C88.3025 320.523 87.3053 320.709 86.5713 321.334C85.848 321.97 85.3992 323.035 85.2117 324.22C84.6576 327.464 83.6773 330.186 82.1631 332.295C81.6695 332.994 81.101 333.614 80.479 334.177C78.9299 335.568 76.9967 336.505 74.6153 336.919C73.1864 337.167 71.6084 337.234 69.8591 337.119C69.7162 337.103 69.5722 337.131 69.4168 337.17C69.1167 337.259 68.8141 337.436 68.5008 337.601C68.3442 337.684 68.1989 337.756 68.0429 337.817C67.9786 337.749 67.8245 337.743 67.5797 337.823L67.5571 337.844C65.6034 337.943 63.6384 338.051 61.6847 338.149C61.4198 338.162 61.1329 338.175 60.868 338.187C60.7295 338.017 60.613 337.848 60.5185 337.679C60.2244 337.162 60.0971 336.595 60.402 335.944C61.1839 335.574 61.8053 335.034 62.3726 334.458C63.2921 333.508 64.0176 332.398 64.6778 331.263C65.199 330.366 65.4112 329.48 65.3794 328.652C65.3654 328.365 65.3288 328.099 65.2481 327.832C65.1088 327.298 64.8581 326.804 64.4961 326.351C64.1341 325.897 63.6934 325.496 63.1408 325.158C62.1986 324.563 61.3969 324.458 60.7294 324.678C60.0619 324.897 59.4959 325.429 59.0362 326.097C58.7262 326.538 58.4471 327.058 58.2014 327.567C58.0499 327.86 57.9531 328.165 57.8343 328.47C57.586 329.068 57.3485 329.677 57.1216 330.297C57.0028 330.602 56.9061 330.907 56.7873 331.212C55.1595 333.835 52.7511 335.604 50.3099 337.361C50.0514 337.539 49.8036 337.729 49.545 337.908C41.1063 337.364 32.8702 335.879 24.717 333.801C16.5638 331.723 8.50473 329.043 0.419708 326.107C0.768917 327.409 1.39912 328.126 2.11351 328.591C2.48171 328.824 2.85176 328.991 3.25579 329.127C3.63779 329.261 4.03112 329.385 4.40242 329.508C6.71707 330.293 9.03236 331.056 11.3596 331.787C16.014 333.248 20.7055 334.567 25.4472 335.667C27.8234 336.223 30.1902 336.723 32.5915 337.17C34.5656 337.525 36.5466 338.023 38.5527 338.411C39.2103 338.544 39.8905 338.656 40.5488 338.767C41.8878 338.967 43.2395 339.113 44.6068 339.094C45.9628 339.085 47.3338 338.934 48.7104 338.585C48.7639 338.642 48.852 338.645 49.0067 338.628C49.8298 338.756 50.6642 338.872 51.4873 339C55.6191 342.196 58.3947 346.58 61.5547 350.625C62.8102 352.233 64.3201 353.024 65.9307 352.583C66.4749 352.437 67.0121 352.146 67.5757 351.703C68.128 351.27 68.4486 350.84 68.6045 350.393C68.9155 349.522 68.5652 348.65 68.0268 347.805C67.7523 347.376 67.4444 346.958 67.1479 346.529C66.7556 345.975 66.3514 345.454 65.9245 344.954C65.4977 344.454 65.0255 343.997 64.5415 343.573C63.562 342.734 62.4341 342.078 61.0893 341.69C60.8752 341.462 60.6719 341.245 60.4465 341.028C59.8392 340.677 59.2318 340.325 58.6137 339.962C59.0873 339.581 59.5717 339.212 60.056 338.843C60.0988 338.889 60.1756 338.902 60.2863 338.884C62.0477 339.353 63.7995 339.38 65.5083 338.976C66.0852 338.841 66.6634 338.663 67.2315 338.451C67.8602 338.825 68.5285 338.969 69.1791 338.959C69.4988 338.959 69.8304 338.926 70.1519 338.86C70.4734 338.794 70.7848 338.694 71.0962 338.595C74.1027 337.508 76.9372 337.054 79.5983 337.278C81.3577 337.427 83.0536 337.871 84.6528 338.62C85.4578 339.001 86.2276 339.457 86.9842 339.99C87.7407 340.524 88.4841 341.133 89.203 341.831C89.9219 342.528 90.6056 343.301 91.2869 344.162C91.8825 344.933 92.7253 345.535 93.536 346.103C94.3146 346.637 95.1095 346.984 95.8671 347.087C96.6247 347.191 97.3558 347.061 98.0176 346.654C98.4661 346.383 98.8737 346 99.2415 345.462C100.194 344.116 100.085 342.889 99.4442 341.775C99.0664 341.101 98.4778 340.474 97.8224 339.867C97.2635 339.363 96.6573 338.967 96.0059 338.614C94.8227 337.967 93.5023 337.492 92.0636 336.913C90.7231 336.371 89.297 335.737 87.8028 334.782C88.3231 334.701 88.8548 334.609 89.3656 334.472C93.4709 333.511 97.0904 331.398 100.756 330.399C103.966 329.529 107.206 329.552 110.841 331.97C112.045 333.456 113.524 334.554 115.14 335.481C115.683 335.786 116.226 336.069 116.781 336.342C117.302 336.602 117.837 336.808 118.362 336.936C118.887 337.065 119.415 337.127 119.912 337.089C120.221 337.056 120.51 336.977 120.811 336.866C121.446 336.613 122.033 336.148 122.495 335.37C122.819 334.83 122.955 334.316 122.935 333.842C122.927 333.356 122.785 332.91 122.554 332.484C122.324 332.057 122.015 331.66 121.662 331.284C121.309 330.908 120.955 330.554 120.601 330.222C119.313 328.965 117.758 328.217 116.021 328.047C115.439 327.994 114.844 327.996 114.235 328.074C113.069 327.196 111.251 327.982 110.203 326.436C112.839 324.818 115.408 323.22 117.999 321.622C118.489 321.44 118.991 321.226 119.481 321.023C120.965 320.379 122.419 319.657 123.93 319.224C124.941 318.94 125.959 318.776 127.015 318.857C128.071 318.937 129.165 319.239 130.315 319.896C130.631 320.006 130.925 320.16 131.229 320.325C131.717 320.595 132.171 320.919 132.647 321.244C133.144 321.592 133.631 321.929 134.14 322.244C134.595 322.524 135.072 322.783 135.586 322.944C136.23 323.154 136.922 323.255 137.708 323.138C138.248 323.532 138.77 323.792 139.272 323.942C140.038 324.167 140.744 324.125 141.381 323.827C142.007 323.518 142.563 322.953 143.005 322.108C143.297 321.534 143.455 320.999 143.48 320.504C143.505 320.009 143.397 319.553 143.188 319.127C143.073 318.913 142.947 318.71 142.798 318.507C142.33 317.918 141.66 317.409 140.835 316.962C138.881 315.903 136.855 315.447 134.785 315.354C133.541 315.3 132.283 315.345 131.021 315.566C131.067 315.479 131.135 315.415 131.192 315.34C134.543 310.241 140.433 308.14 144.669 304.096C146.567 303.599 148.645 304.972 150.448 303.579C152.287 305.582 154.991 305.466 157.276 306.129C157.888 306.304 158.545 306.459 159.194 306.537C159.842 306.614 160.504 306.593 161.103 306.459C162.002 306.236 162.766 305.711 163.214 304.668L163.111 304.808Z" fill="#FFFDEB" style="mix-blend-mode:multiply"/>
<path d="M153.966 400.788C154.264 400.707 154.58 400.59 154.921 400.399C155.987 399.808 156.535 399.144 156.729 398.436C157.039 397.252 156.325 395.94 155.214 394.692C155.169 394.412 155.096 394.153 154.993 393.915C154.694 393.216 154.141 392.735 153.334 392.46C153.334 392.46 153.334 392.46 153.321 392.458C153.321 392.458 153.323 392.445 153.325 392.433C153.065 391.818 152.513 391.325 152.115 390.766C151.716 390.206 151.47 389.581 151.819 388.716C152.024 388.724 152.225 388.757 152.422 388.815C152.82 388.907 153.221 389.063 153.623 389.207C153.818 389.278 154.025 389.351 154.222 389.41C154.419 389.468 154.616 389.527 154.83 389.562C155.232 389.628 155.641 389.656 156.072 389.545C156.288 389.489 156.495 389.407 156.723 389.275C158.058 389.325 159.301 390.4 160.704 389.721C160.773 389.694 160.827 389.677 160.898 389.636C165.453 390.281 167.529 393.675 169.572 397.272C170.363 398.662 171.121 399.553 171.894 399.953C173.177 400.632 174.515 399.955 176.144 398.053C176.367 396.933 176.282 396.036 176.002 395.301C175.565 394.19 174.67 393.432 173.672 392.749C173.334 392.524 172.997 392.3 172.645 392.086C171.955 391.648 171.28 391.199 170.709 390.664C170.428 390.41 170.158 390.17 169.877 389.916C170.589 389.67 171.288 389.421 171.998 389.186C172.89 389.177 173.772 389.153 174.658 389.104C176.43 389.005 178.181 388.799 179.93 388.45C180.797 388.281 181.657 388.071 182.526 387.811C183.299 387.821 183.995 387.988 184.636 388.249C185.604 388.642 186.445 389.261 187.282 389.905C187.831 390.333 188.378 390.774 188.945 391.179C189.234 391.382 189.513 391.571 189.821 391.738C189.865 392.096 189.96 392.385 190.113 392.631C190.405 393.133 190.891 393.473 191.38 393.8C191.623 393.97 191.881 394.13 192.12 394.325C193.732 395.59 195.335 395.659 196.557 394.508C196.726 394.341 196.9 394.149 197.063 393.942C197.412 393.466 197.659 392.987 197.784 392.54C198.026 391.618 197.805 390.763 197.108 390.051C196.754 389.694 196.288 389.384 195.687 389.116C194.859 388.499 194.041 387.897 193.018 387.132C192.672 386.88 192.315 386.613 191.925 386.315C194.204 385.572 196.333 384.87 198.393 384.195C200.454 383.52 202.445 382.873 204.436 382.226C205.149 382.369 205.792 382.695 206.417 383.058C207.457 383.645 208.452 384.341 209.628 384.573C209.904 384.618 210.181 384.664 210.468 384.646C210.701 384.879 210.936 385.1 211.175 385.295C212.368 386.283 213.655 386.781 215.064 386.454C215.627 386.325 216.211 386.071 216.823 385.651C217.285 385.272 217.726 384.864 218.059 384.412C218.561 383.715 218.767 382.931 218.351 382.083C218.311 382.011 218.299 381.931 218.246 381.858C217.755 381.075 217.151 380.352 216.38 379.94C216.191 379.831 215.986 379.745 215.776 379.685C215.566 379.624 215.342 379.574 215.112 379.563C215.061 379.554 215.007 379.571 214.957 379.563C214.532 379.558 214.083 379.614 213.589 379.793C212.73 379.444 211.877 379.291 211.01 379.304C210.583 379.312 210.147 379.37 209.732 379.458C209.305 379.544 208.882 379.682 208.455 379.846C207.843 379.797 207.437 379.679 207.204 379.524C206.846 379.27 206.828 378.903 206.962 378.483C207.095 378.064 207.378 377.603 207.593 377.158C208.94 375.56 209.939 373.879 210.261 371.997C210.446 370.871 210.384 369.678 210.001 368.394C209.825 368.053 209.65 367.7 209.474 367.359C209.379 366.993 209.245 366.633 209.087 366.334C208.604 365.423 207.822 364.918 206.65 365.531C205.65 366.042 205.2 366.813 205.044 367.683C204.888 368.554 205.026 369.525 205.215 370.492C205.127 371.894 205.039 373.295 204.95 374.697C205.222 377.054 203.91 378.904 203.04 380.905C201.982 381.368 200.929 381.805 199.843 382.212C197.382 383.12 194.759 383.845 191.885 384.438C190.964 384.624 190.04 384.823 189.046 384.985C190.424 383.119 191.507 381.79 192.415 380.51C192.716 380.092 192.992 379.67 193.255 379.245C193.819 378.325 193.944 377.41 193.796 376.502C193.648 375.594 193.251 374.71 192.775 373.84C192.664 373.652 192.552 373.465 192.41 373.312C192.139 372.995 191.816 372.76 191.431 372.67C191.242 372.639 191.024 372.629 190.811 372.672C188.762 373.115 188.845 375.052 188.342 376.541C187.734 378.351 187.261 380.209 186.727 382.044C186.51 382.814 186.224 383.534 185.861 384.176C185.484 384.815 185.02 385.363 184.394 385.793C183.986 386.076 183.509 386.31 182.954 386.465C179.381 387.152 175.806 387.85 172.234 388.537C171.75 388.34 171.253 388.142 170.767 387.958C172.074 386.679 173.61 385.58 174.687 384.133C175.321 383.262 175.795 382.262 175.936 381.012C176.019 380.584 176.1 380.168 176.115 379.768C176.184 378.558 175.835 377.539 174.239 377.199C173.279 376.989 172.622 377.219 172.182 377.693C171.963 377.929 171.795 378.24 171.662 378.582C171.528 378.923 171.437 379.324 171.37 379.729C171.115 379.947 170.895 380.183 170.713 380.426C170.056 381.28 169.683 382.297 169.311 383.301C169.04 384.01 168.77 384.707 168.38 385.357C168.185 385.676 167.978 385.992 167.713 386.274C167.501 386.538 167.269 386.772 167.041 386.982C166.468 387.485 165.842 387.837 165.178 388.105C163.922 388.6 162.527 388.761 161.107 388.839C159.791 388.207 158.42 387.982 157.001 388.45C156.95 388.364 156.896 388.303 156.829 388.24C156.638 388.066 156.391 387.999 156.123 387.981C156.097 387.977 156.06 387.971 156.035 387.967C155.548 387.939 154.987 388.054 154.507 387.989C154.482 387.984 154.457 387.98 154.432 387.976C153.917 387.891 153.516 387.579 153.442 386.618C153.743 386.434 154.047 386.237 154.335 386.05C155.438 385.231 156.753 384.538 157.657 383.595C158.562 382.639 159.07 381.437 158.554 379.546C158.689 378.1 158.248 377.482 157.63 377.315C156.999 377.147 156.174 377.453 155.49 377.847C154.502 378.438 153.698 379.398 152.954 380.393C152.705 380.729 152.471 381.054 152.247 381.394C151.593 382.313 150.915 383.215 150.177 384.016C149.455 384.794 148.66 385.469 147.745 386.007C147.088 386.393 146.378 386.705 145.581 386.925C141.831 385.386 137.572 385.297 133.957 383.339C133.435 383.058 132.931 382.741 132.449 382.376C132.771 381.987 133.192 381.784 133.621 381.607C134.048 381.444 134.509 381.312 134.894 381.089C135.15 380.949 135.392 380.807 135.637 380.652C136.127 380.343 136.594 380.017 137.014 379.657C137.437 379.285 137.814 378.879 138.121 378.423C138.583 377.732 138.884 376.924 138.941 375.946C138.988 375.032 138.777 374.036 137.639 373.654C136.39 373.241 135.463 373.543 134.659 374.112C133.855 374.682 133.192 375.496 132.469 376.13C131.822 376.687 131.163 377.241 130.512 377.745C130.07 378.075 129.631 378.392 129.183 378.682C128.287 379.263 127.362 379.708 126.388 379.977C125.902 380.105 125.398 380.191 124.891 380.212C124.631 380.221 124.373 380.218 124.105 380.2C123.582 380.166 123.031 380.062 122.467 379.879C121.901 379.708 121.323 379.457 120.719 379.124C118.83 378.125 116.944 377.113 114.189 375.647C115.557 375.495 116.707 375.255 117.705 374.913C119.372 374.355 120.63 373.535 121.762 372.461C122.159 372.085 122.479 371.708 122.703 371.29C123.073 370.611 123.135 369.841 122.637 368.863C122.413 368.423 122.177 368.125 121.924 367.94C121.165 367.374 120.262 367.758 119.243 368.071C117.787 368.521 116.59 369.208 115.387 370.166C113.049 372.056 110.928 372.786 108.676 372.429C107.331 372.208 105.933 371.601 104.407 370.597C104.185 370.456 103.965 370.303 103.744 370.15C103.233 369.806 102.711 369.448 102.178 369.074C100.962 368.225 99.6917 367.314 98.2451 366.297C100.549 365.948 102.308 365.848 103.969 365.406C104.497 365.259 104.97 365.051 105.363 364.777C105.757 364.504 106.081 364.181 106.323 363.805C106.687 363.241 106.862 362.568 106.828 361.835C106.817 361.586 106.768 361.332 106.707 361.075C106.419 359.923 105.8 359.366 105.027 359.2C104.252 359.047 103.335 359.286 102.47 359.755C100.082 361.012 97.8203 361.732 95.6922 361.798C94.9905 361.826 94.3034 361.765 93.6266 361.641C91.9483 361.326 90.3742 360.535 88.9167 359.191C88.0421 358.384 87.2114 357.39 86.4139 356.194C86.353 356.093 86.2628 356.013 86.1601 355.931C85.9525 355.78 85.6863 355.672 85.4222 355.55C85.2902 355.49 85.1707 355.431 85.0533 355.36C85.0658 355.284 84.9923 355.181 84.8183 355.061L84.7932 355.057C83.7548 353.834 82.7037 352.609 81.6653 351.386C81.5248 351.22 81.3737 351.039 81.2332 350.873C81.2748 350.698 81.327 350.538 81.3896 350.392C81.5797 349.943 81.8851 349.577 82.461 349.451C83.0919 349.776 83.754 349.91 84.4118 349.993C85.4887 350.118 86.5736 350.036 87.6418 349.9C88.4858 349.791 89.1683 349.488 89.6914 349.054C89.8714 348.902 90.0262 348.745 90.16 348.559C90.4382 348.202 90.6346 347.793 90.7492 347.331C90.8638 346.869 90.9051 346.382 90.8499 345.853C90.7671 344.943 90.4354 344.369 89.9595 344.044C89.4836 343.719 88.855 343.616 88.191 343.65C87.7491 343.668 87.2716 343.745 86.8172 343.84C86.5512 343.887 86.3041 343.976 86.0466 344.051C85.5335 344.187 85.0184 344.337 84.5012 344.498C84.2437 344.573 83.9966 344.662 83.739 344.737C81.2194 344.986 78.8662 344.3 76.5045 343.587C76.2593 343.508 76.0121 343.441 75.7669 343.362C71.9116 337.597 68.7701 331.494 66.0557 325.149C63.3413 318.805 61.0665 312.221 58.9444 305.493C58.271 306.369 58.1191 307.137 58.1723 307.834C58.2042 308.19 58.28 308.515 58.3935 308.845C58.4966 309.161 58.6122 309.479 58.7173 309.782C59.3607 311.681 60.0187 313.569 60.704 315.448C62.0745 319.207 63.556 322.92 65.205 326.556C66.0284 328.38 66.8832 330.17 67.7904 331.956C68.5443 333.419 69.2082 334.957 69.9558 336.457C70.1973 336.951 70.4639 337.45 70.7201 337.934C71.2576 338.905 71.8369 339.858 72.5314 340.739C73.2133 341.617 73.9957 342.434 74.9099 343.156C74.8995 343.22 74.9415 343.278 75.0296 343.371C75.3571 343.97 75.6972 344.572 76.0248 345.171C76.005 349.456 74.5354 353.45 73.4785 357.525C73.0574 359.144 73.2959 360.522 74.3862 361.35C74.7531 361.632 75.2101 361.837 75.78 361.982C76.3374 362.126 76.7773 362.12 77.1458 361.999C77.8682 361.767 78.2611 361.104 78.5429 360.331C78.6849 359.939 78.8038 359.53 78.9352 359.123C79.1001 358.591 79.2376 358.068 79.3501 357.541C79.4625 357.014 79.5247 356.478 79.5596 355.951C79.6169 354.895 79.4815 353.834 79.0633 352.765C79.1049 352.512 79.1444 352.271 79.1734 352.016C79.0994 351.445 79.0253 350.874 78.9534 350.291C79.4374 350.409 79.9194 350.541 80.4013 350.672C80.393 350.722 80.4224 350.779 80.4895 350.842C81.0631 352.223 81.9192 353.377 83.0348 354.288C83.4101 354.596 83.8147 354.883 84.2361 355.148C84.306 355.744 84.5454 356.251 84.8769 356.669C85.0364 356.877 85.2231 357.077 85.4265 357.253C85.6299 357.429 85.85 357.582 86.0702 357.736C88.2777 359.151 89.987 360.77 91.1686 362.614C91.9494 363.834 92.5062 365.159 92.8159 366.574C92.9697 367.288 93.0566 368.017 93.0868 368.776C93.1171 369.534 93.0909 370.322 92.9956 371.138C92.9002 371.954 92.7379 372.785 92.517 373.658C92.3127 374.43 92.341 375.279 92.3755 376.09C92.4163 376.864 92.5868 377.554 92.8975 378.099C93.2082 378.644 93.6571 379.055 94.2522 379.283C94.6525 379.44 95.1051 379.514 95.6392 379.485C96.9902 379.434 97.7351 378.751 98.1402 377.778C98.3909 377.196 98.5052 376.5 98.5734 375.771C98.6229 375.155 98.5782 374.563 98.4831 373.963C98.3142 372.87 97.9651 371.773 97.6242 370.548C97.3085 369.404 97.0095 368.16 96.8861 366.711C97.1986 367.009 97.5237 367.309 97.8676 367.573C100.541 369.767 103.723 371.069 106.201 372.957C108.369 374.613 109.97 376.734 110.209 380.307C109.842 381.832 109.865 383.343 110.068 384.857C110.14 385.363 110.227 385.858 110.326 386.355C110.416 386.824 110.549 387.275 110.727 387.681C110.906 388.087 111.128 388.461 111.401 388.766C111.577 388.951 111.772 389.1 111.995 389.24C112.477 389.527 113.072 389.677 113.809 389.59C114.322 389.532 114.724 389.364 115.023 389.114C115.335 388.867 115.555 388.552 115.718 388.189C115.881 387.826 115.985 387.427 116.053 387.01C116.122 386.592 116.176 386.185 116.215 385.789C116.391 384.324 116.103 382.938 115.347 381.723C115.091 381.317 114.793 380.93 114.439 380.573C114.429 379.376 113.01 378.584 113.494 377.131C115.862 378.04 118.184 378.915 120.517 379.805C120.879 380.033 121.269 380.253 121.646 380.471C122.806 381.116 124 381.703 125.036 382.47C125.726 382.987 126.34 383.568 126.815 384.296C127.289 385.023 127.638 385.886 127.784 386.963C127.87 387.224 127.916 387.491 127.961 387.771C128.028 388.224 128.044 388.681 128.069 389.153C128.091 389.65 128.115 390.135 128.163 390.624C128.208 391.06 128.278 391.5 128.429 391.915C128.614 392.439 128.893 392.939 129.361 393.393C129.374 393.941 129.465 394.41 129.618 394.812C129.854 395.423 130.233 395.862 130.745 396.128C131.258 396.381 131.904 396.461 132.674 396.328C133.194 396.231 133.621 396.068 133.956 395.837C134.29 395.606 134.533 395.308 134.707 394.96C134.788 394.778 134.857 394.595 134.915 394.397C135.065 393.798 135.062 393.109 134.942 392.348C134.657 390.547 133.943 389.001 132.971 387.607C132.386 386.77 131.729 385.974 130.955 385.262C131.035 385.249 131.11 385.261 131.188 385.261C136.179 384.899 140.485 387.685 145.231 388.426C146.501 389.414 146.644 391.452 148.45 391.93C148.064 394.127 149.488 395.83 150.196 397.648C150.387 398.134 150.614 398.639 150.887 399.1C151.16 399.56 151.504 399.981 151.89 400.304C152.483 400.778 153.206 401.014 154.109 400.785L153.966 400.788Z" fill="#FFFDEB" style="mix-blend-mode:multiply"/>
<path d="M430.599 156.676C430.232 156.754 429.824 156.804 429.348 156.787C427.862 156.741 426.898 156.327 426.292 155.667C425.295 154.558 425.337 152.737 425.845 150.763C425.737 150.435 425.672 150.113 425.651 149.798C425.585 148.874 425.917 148.044 426.637 147.295C426.637 147.295 426.637 147.295 426.65 147.286C426.65 147.286 426.641 147.273 426.631 147.261C426.571 146.449 426.893 145.607 427.013 144.778C427.134 143.949 427.051 143.134 426.19 142.391C425.972 142.514 425.773 142.662 425.592 142.835C425.211 143.157 424.865 143.55 424.509 143.931C424.337 144.116 424.153 144.311 423.972 144.484C423.791 144.658 423.61 144.831 423.398 144.988C422.999 145.284 422.572 145.543 422.042 145.663C421.777 145.723 421.506 145.749 421.186 145.734C419.767 146.533 419.019 148.393 417.12 148.439C417.03 148.448 416.961 148.46 416.861 148.456C412.284 151.696 411.928 156.535 411.721 161.573C411.638 163.522 411.315 164.911 410.7 165.776C409.688 167.227 407.86 167.24 405.032 166.088C404.166 164.998 403.757 163.978 403.65 163.026C403.504 161.577 404.051 160.256 404.752 158.958C404.992 158.527 405.233 158.095 405.496 157.667C405.999 156.807 406.48 155.944 406.8 155.045C406.962 154.613 407.122 154.202 407.285 153.77C406.376 153.9 405.479 154.02 404.578 154.163C403.606 154.651 402.637 155.117 401.649 155.558C399.673 156.44 397.66 157.194 395.569 157.791C394.535 158.091 393.485 158.345 392.398 158.548C391.566 158.99 390.904 159.558 390.355 160.2C389.525 161.166 388.959 162.306 388.411 163.471C388.055 164.242 387.707 165.025 387.32 165.78C387.12 166.162 386.923 166.522 386.682 166.876C386.834 167.289 386.892 167.654 386.863 168.006C386.828 168.714 386.49 169.354 386.143 169.981C385.974 170.301 385.784 170.618 385.633 170.963C384.592 173.234 382.893 174.203 380.926 173.637C380.649 173.551 380.354 173.439 380.061 173.306C379.417 172.986 378.883 172.604 378.497 172.189C377.721 171.325 377.483 170.275 377.841 169.114C378.026 168.529 378.357 167.933 378.86 167.307C379.413 166.176 379.964 165.067 380.646 163.666C380.88 163.2 381.118 162.712 381.374 162.172C378.49 162.638 375.79 163.065 373.18 163.483C370.57 163.901 368.05 164.311 365.53 164.721C364.838 165.273 364.322 165.986 363.847 166.728C363.048 167.944 362.357 169.255 361.212 170.162C360.938 170.366 360.663 170.57 360.342 170.71C360.22 171.093 360.088 171.463 359.938 171.808C359.197 173.546 358.079 174.803 356.369 175.235C355.687 175.41 354.911 175.46 354.015 175.346C353.302 175.194 352.596 174.998 351.983 174.693C351.05 174.218 350.388 173.482 350.366 172.331C350.369 172.232 350.338 172.138 350.354 172.029C350.45 170.907 350.702 169.786 351.307 168.908C351.451 168.685 351.626 168.477 351.819 168.295C352.013 168.112 352.228 167.933 352.471 167.791C352.521 167.754 352.59 167.743 352.64 167.706C353.098 167.463 353.615 167.274 354.25 167.192C354.987 166.334 355.826 165.692 356.774 165.222C357.241 164.992 357.746 164.812 358.244 164.676C358.755 164.531 359.291 164.445 359.845 164.384C360.481 163.99 360.856 163.634 361.021 163.336C361.268 162.861 361.083 162.454 360.703 162.073C360.324 161.693 359.762 161.351 359.28 160.988C356.928 160.008 354.907 158.744 353.507 156.883C352.678 155.766 352.08 154.438 351.778 152.832C351.779 152.364 351.771 151.884 351.772 151.416C351.67 150.966 351.615 150.501 351.619 150.089C351.634 148.832 352.2 147.848 353.813 147.858C355.183 147.854 356.1 148.439 356.755 149.296C357.41 150.153 357.803 151.282 358.137 152.436C359.015 153.906 359.893 155.376 360.771 156.846C361.792 159.553 364.246 160.827 366.307 162.509C367.711 162.421 369.097 162.308 370.502 162.141C373.675 161.753 376.924 161.075 380.37 160.114C381.473 159.802 382.585 159.502 383.753 159.122C381.219 157.869 379.302 157.033 377.604 156.152C377.044 155.867 376.51 155.563 375.987 155.25C374.862 154.567 374.216 153.644 373.87 152.578C373.523 151.511 373.46 150.332 373.491 149.122C373.507 148.857 373.523 148.592 373.592 148.346C373.709 147.851 373.927 147.416 374.296 147.104C374.483 146.965 374.713 146.833 374.969 146.76C377.436 146.097 378.428 148.242 379.804 149.576C381.473 151.199 383.023 152.949 384.626 154.641C385.29 155.354 386.002 155.975 386.754 156.467C387.519 156.951 388.328 157.285 389.246 157.402C389.847 157.482 390.495 157.468 391.183 157.327C395.439 156.077 399.704 154.84 403.96 153.59C404.375 153.107 404.803 152.614 405.227 152.144C403.096 151.487 400.818 151.153 398.843 150.185C397.67 149.595 396.598 148.776 395.747 147.499C395.418 147.081 395.098 146.676 394.859 146.25C394.109 144.978 393.918 143.679 395.459 142.419C396.383 141.656 397.223 141.538 397.964 141.806C398.334 141.94 398.689 142.183 399.024 142.479C399.36 142.775 399.683 143.158 399.981 143.56C400.379 143.654 400.749 143.788 401.082 143.95C402.27 144.508 403.243 145.402 404.206 146.284C404.896 146.901 405.577 147.505 406.363 147.992C406.752 148.229 407.153 148.457 407.598 148.614C407.975 148.782 408.357 148.907 408.721 149.006C409.624 149.232 410.499 149.264 411.367 149.184C413.006 149.02 414.607 148.416 416.19 147.708C417.265 146.288 418.624 145.28 420.425 144.995C420.431 144.873 420.456 144.777 420.494 144.671C420.603 144.376 420.834 144.165 421.115 143.996C421.14 143.978 421.177 143.95 421.202 143.931C421.713 143.63 422.386 143.442 422.87 143.103C422.895 143.084 422.92 143.066 422.945 143.047C423.456 142.668 423.716 142.106 423.26 141.023C422.831 140.991 422.392 140.947 421.975 140.906C420.322 140.633 418.51 140.615 417.004 140.098C415.489 139.567 414.267 138.547 413.771 136.209C412.819 134.717 412.951 133.801 413.529 133.275C414.118 132.741 415.183 132.612 416.145 132.658C417.546 132.747 418.952 133.339 420.315 134.002C420.772 134.227 421.207 134.449 421.639 134.693C422.862 135.324 424.1 135.923 425.347 136.38C426.564 136.82 427.802 137.108 429.094 137.181C430.022 137.232 430.965 137.175 431.953 136.968C435.159 133.207 439.725 130.734 442.552 126.593C442.961 125.998 443.33 125.374 443.649 124.709C443.083 124.467 442.513 124.481 441.95 124.529C441.395 124.59 440.822 124.704 440.28 124.678C439.925 124.669 439.583 124.65 439.231 124.619C438.528 124.557 437.84 124.464 437.183 124.309C436.517 124.142 435.882 123.912 435.295 123.589C434.408 123.098 433.632 122.39 433.024 121.362C432.462 120.396 432.135 119.199 433.155 118.15C434.278 117.005 435.453 116.815 436.642 116.984C437.831 117.153 439.003 117.665 440.142 117.949C441.154 118.191 442.178 118.424 443.164 118.607C443.827 118.718 444.481 118.817 445.128 118.882C446.423 119.011 447.675 118.978 448.88 118.726C449.479 118.593 450.074 118.405 450.635 118.144C450.921 118.009 451.199 117.862 451.479 117.693C452.028 117.363 452.568 116.944 453.076 116.43C453.594 115.929 454.081 115.334 454.55 114.636C456.04 112.499 457.52 110.35 459.688 107.224C458.12 107.822 456.74 108.204 455.466 108.39C453.348 108.715 451.527 108.529 449.701 107.996C449.06 107.81 448.503 107.581 448.027 107.252C447.247 106.722 446.75 105.922 446.744 104.584C446.742 103.982 446.83 103.528 447.002 103.186C447.509 102.148 448.702 102.061 449.982 101.832C451.81 101.507 453.491 101.583 455.331 101.951C458.919 102.694 461.626 102.302 463.868 100.658C465.203 99.6676 466.38 98.23 467.473 96.2895C467.636 96.0133 467.789 95.7244 467.942 95.4356C468.305 94.7773 468.671 94.0972 469.04 93.3953C469.884 91.7959 470.753 90.1 471.754 88.1899C469.061 89.0973 467.098 89.9701 465.051 90.418C464.397 90.5529 463.768 90.5914 463.189 90.5149C462.61 90.4384 462.078 90.2687 461.606 89.9965C460.897 89.5883 460.331 88.9567 459.959 88.1426C459.832 87.8671 459.743 87.5638 459.666 87.2512C459.335 85.8418 459.696 84.8934 460.441 84.2819C461.196 83.683 462.323 83.4303 463.522 83.4558C466.813 83.486 469.666 83.0042 472.01 81.8881C472.786 81.5265 473.497 81.0769 474.161 80.5646C475.805 79.2868 477.07 77.5505 477.9 75.2803C478.398 73.9182 478.744 72.377 478.94 70.635C478.95 70.4916 479.003 70.3548 479.069 70.2088C479.21 69.9292 479.437 69.6628 479.656 69.3839C479.765 69.2444 479.862 69.1142 479.95 68.9714C479.894 68.8961 479.916 68.7435 480.038 68.5168L480.063 68.4983C480.506 66.593 480.961 64.6784 481.405 62.7731C481.464 62.5147 481.527 62.2345 481.587 61.9761C481.444 61.8096 481.298 61.6649 481.149 61.542C480.692 61.1609 480.157 60.935 479.462 61.1195C478.959 61.8235 478.317 62.3391 477.65 62.7952C476.552 63.5316 475.33 64.0487 474.096 64.4971C473.121 64.8509 472.212 64.9026 471.403 64.7244C471.123 64.6597 470.867 64.5765 470.619 64.4497C470.118 64.2179 469.676 63.8836 469.294 63.4469C468.912 63.0102 468.596 62.5054 468.361 61.9014C467.943 60.8686 467.982 60.0611 468.316 59.4431C468.651 58.8252 469.274 58.3624 470.013 58.0285C470.502 57.8017 471.063 57.6192 471.608 57.4678C471.923 57.3705 472.241 57.3295 472.562 57.2666C473.194 57.1283 473.836 57.0026 474.487 56.8894C474.807 56.8266 475.125 56.7855 475.446 56.7227C478.316 55.586 480.484 53.5296 482.647 51.4388C482.868 51.2161 483.099 51.0059 483.321 50.7831C484.282 42.3817 484.282 34.0128 483.683 25.6204C483.085 17.2279 481.876 8.8211 480.422 0.343609C481.641 0.918231 482.234 1.66549 482.566 2.45114C482.73 2.85487 482.829 3.24869 482.89 3.67029C482.955 4.07008 483.007 4.47913 483.062 4.86636C483.424 7.28361 483.764 9.69756 484.071 12.1175C484.683 16.9573 485.149 21.8084 485.39 26.6701C485.516 29.1072 485.588 31.5252 485.602 33.9676C485.601 35.9732 485.739 38.0112 485.766 40.0545C485.78 40.7253 485.769 41.4145 485.762 42.0819C485.721 43.4353 485.625 44.7914 485.364 46.1336C485.115 47.4666 484.723 48.789 484.135 50.0818C484.181 50.1445 484.169 50.2318 484.125 50.3811C484.104 51.2138 484.071 52.0557 484.051 52.8884C486.463 57.5215 490.285 61.0309 493.705 64.8583C495.065 66.3792 495.576 68.0054 494.856 69.5122C494.615 70.0218 494.234 70.4991 493.698 70.975C493.174 71.4417 492.694 71.681 492.227 71.7552C491.314 71.9067 490.518 71.4073 489.782 70.7275C489.409 70.3813 489.051 70.0041 488.682 69.6361C488.206 69.1518 487.765 68.6616 487.349 68.1528C486.933 67.6441 486.567 67.0983 486.235 66.5466C485.584 65.4339 485.138 64.2075 484.994 62.8152C484.808 62.5641 484.631 62.3256 484.457 62.0653C484.219 61.4052 483.981 60.745 483.733 60.0724C483.275 60.471 482.825 60.8821 482.376 61.2933C482.413 61.3435 482.413 61.4215 482.376 61.5272C482.524 63.3438 482.24 65.0726 481.539 66.6826C481.305 67.2265 481.026 67.7638 480.717 68.2853C480.974 68.9705 480.997 69.6538 480.871 70.2922C480.815 70.6068 480.724 70.9273 480.602 71.232C480.48 71.5367 480.326 71.8255 480.173 72.1143C478.57 74.8803 477.621 77.5893 477.369 80.2479C477.203 82.0058 477.34 83.7537 477.794 85.4605C478.025 86.3202 478.338 87.1587 478.728 87.9979C479.119 88.837 479.587 89.6768 480.146 90.508C480.704 91.3392 481.344 92.1492 482.071 92.9725C482.723 93.6953 483.166 94.6315 483.582 95.5302C483.969 96.3911 484.17 97.235 484.137 97.9989C484.104 98.7628 483.847 99.4594 483.329 100.038C482.983 100.432 482.534 100.765 481.938 101.031C480.445 101.73 479.257 101.405 478.275 100.577C477.678 100.085 477.166 99.395 476.685 98.6424C476.287 98.0029 476.006 97.3361 475.774 96.6324C475.347 95.3531 475.113 93.9694 474.799 92.4509C474.503 91.0354 474.133 89.5196 473.457 87.8796C473.285 88.3772 473.1 88.8841 472.875 89.3626C471.201 93.2322 468.479 96.4194 466.846 99.8496C465.42 102.854 464.868 106.047 466.603 110.054C467.852 111.502 468.67 113.152 469.295 114.907C469.499 115.496 469.682 116.08 469.852 116.674C470.016 117.234 470.123 117.796 470.156 118.336C470.189 118.876 470.157 119.406 470.032 119.889C469.944 120.187 469.816 120.458 469.653 120.734C469.291 121.314 468.729 121.809 467.881 122.126C467.293 122.349 466.763 122.391 466.299 122.288C465.823 122.193 465.41 121.975 465.03 121.672C464.651 121.37 464.316 120.996 464.008 120.581C463.701 120.167 463.416 119.756 463.152 119.348C462.143 117.859 461.683 116.195 461.824 114.456C461.875 113.873 461.982 113.288 462.167 112.703C461.509 111.4 462.606 109.749 461.27 108.444C459.21 110.751 457.181 112.995 455.149 115.262C454.884 115.712 454.584 116.168 454.296 116.615C453.4 117.961 452.432 119.263 451.738 120.674C451.278 121.618 450.936 122.592 450.828 123.645C450.72 124.698 450.824 125.828 451.266 127.077C451.318 127.408 451.417 127.724 451.525 128.052C451.705 128.581 451.944 129.085 452.179 129.611C452.433 130.162 452.678 130.7 452.898 131.257C453.093 131.755 453.263 132.271 453.33 132.805C453.422 133.476 453.399 134.175 453.145 134.927C453.437 135.529 453.6 136.088 453.658 136.61C453.744 137.403 453.577 138.091 453.171 138.665C452.756 139.226 452.101 139.673 451.191 139.958C450.575 140.143 450.02 140.204 449.528 140.141C449.037 140.078 448.607 139.89 448.225 139.609C448.035 139.458 447.858 139.298 447.684 139.115C447.187 138.55 446.806 137.801 446.512 136.91C445.816 134.798 445.727 132.723 446.003 130.67C446.17 129.436 446.438 128.206 446.879 127.003C446.786 127.033 446.711 127.089 446.627 127.132C441.014 129.525 437.901 134.948 433.17 138.4C432.344 140.18 433.327 142.469 431.636 143.996C433.281 146.161 432.687 148.802 432.934 151.168C432.998 151.802 433.034 152.476 432.995 153.127C432.956 153.779 432.818 154.427 432.58 154.992C432.202 155.838 431.549 156.497 430.444 156.753L430.599 156.676Z" fill="#FFFDEB" style="mix-blend-mode:multiply"/>
<path d="M471.889 41.1529C471.819 42.152 471.643 43.1391 471.523 44.1372C471.486 44.4517 471.465 44.7714 471.443 45.0912C471.428 45.346 471.388 45.6004 471.387 45.8605C471.386 46.1707 471.424 46.4867 471.463 46.8026C471.479 47.0181 471.469 47.233 471.51 47.4489C470.185 51.7797 469.651 56.3166 468.386 60.6686C467.971 62.1161 467.461 63.5466 466.832 64.9347C465.591 65.6601 464.346 66.3753 463.105 67.1006C461.205 67.2722 459.296 67.3987 457.399 67.6305C457.224 67.6519 457.043 67.6883 456.872 67.7199C456.525 67.7979 456.203 67.9014 455.914 68.0507C455.196 68.4164 454.743 69.0526 454.911 70.1116C454.974 70.4781 455.067 70.8302 455.2 71.1631C455.4 71.6624 455.701 72.0888 456.116 72.3873C456.249 72.4851 456.412 72.5684 456.581 72.6369C456.918 72.7738 457.307 72.8367 457.773 72.8011C458.59 72.7476 459.382 72.4335 460.192 72.2347C460.298 72.1968 460.394 72.1388 460.495 72.0908C460.606 72.038 460.712 72.0001 460.819 71.9372C461.403 72.2292 461.876 72.1037 462.327 71.8527C462.59 71.7029 462.844 71.5079 463.103 71.3231C463.103 71.3231 463.198 71.34 463.248 71.341C463.508 71.3663 463.731 71.4459 463.908 71.5845C464.125 71.754 464.285 71.9874 464.435 72.2506C464.029 73.0128 463.618 73.79 463.212 74.5522C462.041 76.7548 460.87 78.9574 459.688 81.1648C459.269 81.8718 458.8 82.5027 458.279 83.0475C457.501 83.8622 456.603 84.4994 455.598 84.9393C455.567 84.9537 455.537 84.9681 455.497 84.9873C454.517 85.4027 453.421 85.6507 452.219 85.7014L452.22 85.6514C451.563 85.493 450.896 85.3394 450.243 85.1911C449.047 84.9418 448.064 84.8018 447.299 84.7813C446.524 84.7656 445.961 84.8593 445.581 85.1018C444.816 85.5765 444.78 86.5964 445.301 88.268C445.641 88.9853 446.071 89.4993 446.565 89.8345C446.728 89.9428 446.906 90.0315 447.09 90.1052C447.631 90.3063 448.246 90.3238 448.93 90.1725C449.151 90.117 449.388 90.0417 449.64 89.9468C449.893 90.0369 450.118 90.0665 450.333 90.0509C450.404 90.0423 450.464 90.0385 450.534 90.0299C450.75 89.9892 450.952 89.9183 451.149 89.8122C451.149 89.8122 451.159 89.8074 451.169 89.8026C451.614 89.5665 452.037 89.2298 452.491 89.0389C452.733 89.4441 452.985 89.8444 453.222 90.2394C453.156 90.2831 453.095 90.3369 453.034 90.3907C452.642 90.688 452.32 91.0266 452.353 91.5927C449.846 92.8577 448.869 95.8097 446.351 97.0795C445.974 97.1719 445.597 97.2643 445.219 97.3567C444.842 97.4492 444.465 97.5416 444.088 97.634C443.881 97.7199 443.679 97.8158 443.481 97.9219C441.038 97.2621 438.59 96.5921 436.136 95.9371C434.787 95.5746 433.756 95.8539 433.275 97.345C433.173 97.6782 433.112 97.9921 433.09 98.2869C433.047 99.1615 433.439 99.8548 434.413 100.395C435.893 101.215 437.369 101.715 438.881 101.641C439.788 101.594 440.709 101.343 441.65 100.847C441.883 101.207 441.981 101.544 441.929 101.853C441.918 101.908 441.882 101.962 441.856 102.011C441.824 102.101 441.797 102.2 441.73 102.294C441.622 102.432 441.485 102.559 441.292 102.675C440.324 103.271 439.429 103.994 438.543 104.711C438.116 105.063 437.678 105.419 437.25 105.77C437.23 105.78 437.21 105.79 437.205 105.805C436.792 106.136 436.38 106.468 435.948 106.785C434.998 107.496 433.989 108.136 432.863 108.608C432.545 108.537 432.226 108.465 431.907 108.394C429.445 107.409 426.994 106.393 424.517 105.428C423.971 105.216 423.419 105.045 422.889 104.999C422.54 104.967 422.199 105.005 421.896 105.124C421.886 105.129 421.876 105.134 421.856 105.144C421.411 105.33 421.043 105.703 420.8 106.363C420.731 106.557 420.672 106.746 420.648 106.93C420.494 107.858 420.847 108.68 421.561 109.27C421.846 109.506 422.182 109.718 422.564 109.871C422.782 109.965 423.011 110.055 423.229 110.149C423.447 110.244 423.676 110.334 423.894 110.428C424.336 110.602 424.793 110.756 425.256 110.871C426.177 111.09 427.122 111.124 428.136 110.754C428.373 111.149 428.625 111.549 428.862 111.944C427.447 112.851 426.038 113.743 424.623 114.65C423.159 115.531 421.709 116.417 420.245 117.298C419.763 117.614 419.302 117.87 418.848 118.06C418.717 118.123 418.586 118.135 418.45 118.187C417.241 118.613 416.109 118.655 415.029 118.363C413.436 117.931 411.967 116.845 410.539 115.506C409.018 114.73 407.518 112.273 405.889 113.12C405.51 113.313 405.132 113.69 404.739 114.298C404.527 114.634 404.38 114.951 404.299 115.249C404.234 115.478 404.225 115.693 404.226 115.903C404.234 115.998 404.237 116.084 404.245 116.179C404.28 116.41 404.361 116.631 404.457 116.834C404.572 117.076 404.747 117.29 404.933 117.499C405.702 118.335 406.944 118.995 407.967 119.611C408.761 119.977 409.564 120.339 410.362 120.715C410.318 120.885 410.265 121.034 410.202 121.162C410.082 121.43 409.927 121.652 409.753 121.834C409.661 121.927 409.57 121.995 409.468 122.068C409.367 122.141 409.26 122.204 409.149 122.257C408.704 122.468 408.207 122.593 407.689 122.702C406.799 122.89 405.9 123.081 405.359 123.821C403.861 124.136 402.368 124.461 400.861 124.78C399.478 123.902 398.099 123.034 396.716 122.155C396.325 121.462 395.857 120.842 395.339 120.246C394.836 119.656 394.282 119.089 393.728 118.522C393.508 118.293 393.287 118.088 393.06 117.924C392.612 117.579 392.145 117.38 391.65 117.38C391.405 117.385 391.143 117.434 390.876 117.549C389.972 117.941 389.373 118.609 389.429 119.511C389.448 119.812 389.542 120.139 389.71 120.492C390.722 122.859 392.58 124.243 394.945 125.051C394.94 125.326 394.895 125.545 394.826 125.739C394.389 127.061 392.843 126.519 391.845 126.894C389.789 127.078 387.699 127.005 385.683 127.48C385.381 127.549 385.07 127.598 384.773 127.702C383.702 126.96 382.626 126.207 381.556 125.465C380.67 123.991 379.8 122.523 378.899 121.069C378.594 120.582 378.309 120.086 377.998 119.615C377.697 119.163 377.376 118.697 377.004 118.329C376.881 118.201 376.743 118.093 376.6 118.001C376.037 117.624 375.374 117.505 374.51 117.928C373.903 118.216 373.64 118.626 373.545 119.079C373.385 119.837 373.707 120.724 373.741 121.5C373.749 121.595 373.772 121.67 373.78 121.766C373.831 122.212 373.933 122.609 374.101 122.963C374.139 123.044 374.198 123.115 374.247 123.191C374.314 123.307 374.387 123.434 374.464 123.546C374.503 123.601 374.562 123.648 374.601 123.703C374.709 123.826 374.802 123.943 374.914 124.05C374.974 124.096 375.037 124.153 375.097 124.199C375.215 124.291 375.328 124.399 375.446 124.491C375.505 124.537 375.584 124.574 375.648 124.63C375.776 124.718 375.905 124.806 376.028 124.883C376.137 124.955 376.261 125.008 376.38 125.075C376.479 125.127 376.568 125.184 376.667 125.236C376.766 125.288 376.86 125.33 376.949 125.387C377.067 125.454 377.191 125.507 377.31 125.574C377.529 125.904 377.997 126.239 378.341 126.571C378.733 126.954 378.96 127.329 378.398 127.683C378.159 127.833 377.781 127.975 377.198 128.104C374.441 128.088 371.689 128.082 368.967 127.592C368.428 127.501 367.89 127.41 367.367 127.274C367.145 127.145 366.907 127.01 366.675 126.885C366.289 126.672 365.907 126.469 365.547 126.232C365.335 126.097 365.132 125.958 364.945 125.799C364.945 125.799 364.941 125.789 364.926 125.784C364.818 125.687 364.72 125.585 364.622 125.483C364.592 125.447 364.553 125.416 364.524 125.381C364.441 125.284 364.363 125.172 364.285 125.061C364.261 125.01 364.217 124.969 364.178 124.913C364.086 124.771 364.009 124.61 363.948 124.428C363.933 124.398 363.924 124.378 363.909 124.348C363.209 121.907 362.508 119.466 361.803 117.041C361.601 116.616 361.365 116.196 361.086 115.87C360.617 115.326 360.007 115.033 359.113 115.47C358.658 115.686 358.251 115.978 357.964 116.312C357.872 116.431 357.779 116.549 357.717 116.678C357.581 116.94 357.51 117.234 357.514 117.554C357.517 117.874 357.625 118.232 357.822 118.621C357.945 121.905 359.671 124.082 362.119 125.742C362.499 125.995 362.894 126.253 363.3 126.481C363.289 126.511 363.264 126.536 363.253 126.566C363.196 126.679 363.139 126.793 363.072 126.887C363.072 126.887 363.051 126.897 363.056 126.907C362.344 127.938 361.199 127.9 360.082 127.947C359.441 127.979 358.804 128.046 358.282 128.381C358.252 128.395 358.231 128.405 358.201 128.419C358.145 128.458 358.084 128.512 358.033 128.561C357.987 128.595 357.952 128.625 357.911 128.669C357.316 128.617 356.785 128.671 356.336 128.822C356.11 128.892 355.898 128.993 355.71 129.119C355.325 129.352 355.003 129.665 354.745 130.035C354.349 130.583 354.095 131.248 353.94 131.94C353.83 132.438 353.882 132.835 354.046 133.153C354.122 133.315 354.235 133.447 354.367 133.57C355.01 134.193 356.161 134.452 356.917 134.897C357.669 135.333 358.205 135.289 358.651 135.027C358.864 134.902 359.053 134.725 359.232 134.529C359.616 134.111 359.961 133.613 360.364 133.236C360.441 133.163 360.517 133.089 360.599 133.026C360.993 132.814 361.369 132.561 361.725 132.293C362.162 131.962 362.589 131.61 362.997 131.243C363.247 131.013 363.492 130.798 363.742 130.568C364.486 129.892 365.245 129.247 366.14 128.785C366.439 128.631 366.747 128.497 367.079 128.389C367.734 128.672 368.401 128.851 369.074 128.965C369.408 129.017 369.748 129.053 370.082 129.08C371.781 129.215 373.506 129.04 375.198 129.239C375.263 129.245 375.323 129.241 375.388 129.248C376.048 129.281 376.781 129.181 377.046 129.922C377.06 129.952 377.055 129.967 377.059 130.002C377.092 130.123 377.105 130.228 377.098 130.318C377.045 130.912 376.296 131.107 375.863 131.449C375.619 131.639 375.39 131.834 375.225 132.061C375.05 132.293 374.94 132.556 374.918 132.875C374.571 133.239 374.368 133.595 374.286 133.943C374.27 134.013 374.278 134.083 374.262 134.153C374.244 134.298 374.241 134.448 374.248 134.593C374.299 135.249 374.616 135.891 374.868 136.552C374.939 136.728 374.996 136.899 375.052 137.071C375.369 137.267 375.666 137.423 375.948 137.549C375.963 137.554 375.978 137.56 375.993 137.565C376.415 137.749 376.798 137.826 377.163 137.839C377.428 137.849 377.674 137.819 377.901 137.749C377.961 137.72 378.051 137.727 378.112 137.698C378.163 137.674 378.204 137.63 378.254 137.606C378.588 137.422 378.884 137.158 379.122 136.773C379.184 136.669 379.237 136.545 379.294 136.431C379.367 136.297 379.444 136.174 379.503 136.01C379.513 135.98 379.524 135.95 379.535 135.921C379.635 135.662 379.726 135.384 379.812 135.071C380.757 134.374 381.367 133.466 381.571 132.305C382.536 131.103 383.496 129.917 384.462 128.716C386.093 128.709 387.694 128.481 389.277 128.163C390.262 127.968 391.252 127.758 392.242 127.523C393.862 127.36 395.467 127.193 397.076 127.035C397.235 127.084 397.395 127.132 397.554 127.18C397.698 127.223 397.847 127.276 397.991 127.319C397.941 127.343 397.91 127.382 397.864 127.416C397.737 127.514 397.6 127.616 397.477 127.724C394.762 129.855 393.479 131.38 393.345 133.053C393.291 133.723 393.422 134.416 393.726 135.187C393.873 135.576 394.071 135.965 394.302 136.4C394.97 136.528 395.53 136.56 396.046 136.525C396.241 136.519 396.432 136.503 396.612 136.466C397.577 136.281 398.274 135.715 398.79 134.715C398.952 134.403 399.099 134.035 399.238 133.623C399.446 132.992 399.616 132.28 399.764 131.417C400.907 128.869 401.78 126.09 404.448 124.823C404.832 124.641 405.245 124.494 405.708 124.373C407.604 124.142 409.382 123.607 411.045 122.755C411.602 122.466 412.149 122.157 412.671 121.798C413.077 121.556 413.497 121.319 413.902 121.077C413.823 122.031 413.446 122.829 412.97 123.575C412.164 124.824 411.09 125.928 410.685 127.396C410.517 128.008 410.415 128.601 410.398 129.166C410.379 130.116 410.616 131.007 411.284 131.841C411.592 132.227 411.978 132.415 412.386 132.518C412.769 132.621 413.164 132.644 413.556 132.582C413.817 132.532 414.079 132.458 414.331 132.363C415.869 131.793 416.079 130.357 416.285 128.835C416.461 127.588 416.437 126.312 416.558 125.053C416.664 123.79 416.894 122.554 417.584 121.397C417.663 121.198 417.737 121.015 417.821 120.826C417.905 120.638 417.988 120.449 418.077 120.271C418.255 119.915 418.457 119.583 418.708 119.303C419.209 118.743 419.882 118.387 420.932 118.458C422.579 117.441 424.231 116.433 425.888 115.411C426.764 115.169 427.474 113.953 428.446 114.643C428.969 115.013 428.868 115.532 428.697 116.059C428.601 116.377 428.479 116.695 428.448 116.994C428.396 117.588 428.293 118.182 428.211 118.765C428.119 119.354 428.052 119.943 428.05 120.538C428.036 122.414 429.094 123.286 430.648 123.427C430.867 123.447 431.107 123.457 431.338 123.446C431.583 123.441 431.794 123.416 431.99 123.36C433.142 123.073 433.487 122.104 433.53 120.969C433.539 120.779 433.538 120.594 433.532 120.399C433.459 118.131 433.32 115.857 433.212 113.593C433.229 113.239 433.256 112.879 433.299 112.525C433.44 111.467 433.731 110.462 434.251 109.497C435.411 108.81 436.381 107.879 437.381 106.984C438.38 106.089 439.408 105.229 440.695 104.705C440.808 104.577 440.935 104.479 441.057 104.372C441.128 104.313 441.215 104.26 441.291 104.211C441.341 104.187 441.392 104.138 441.443 104.114C441.767 103.911 442.106 103.738 442.421 103.514C442.33 103.817 442.253 104.126 442.207 104.445C442.206 104.495 442.19 104.54 442.189 104.59C442.147 104.919 442.13 105.249 442.148 105.599C442.331 105.958 442.509 106.307 442.691 106.666L442.768 106.828C442.381 107.395 442.259 107.998 442.256 108.593C442.269 109.194 442.422 109.778 442.621 110.327C443.137 111.753 443.715 113.621 445.712 113.316C447.816 112.999 448.167 111.235 447.965 109.399C447.774 107.72 447.503 106.053 446.643 104.555C446.578 102.592 446.513 100.63 446.438 98.6722C447.004 98.1683 447.57 97.6645 448.121 97.1553C449.233 96.1322 450.325 95.0937 451.314 93.943C451.812 93.3727 452.284 92.777 452.717 92.1504C452.919 92.0794 453.091 91.9728 453.234 91.8556C453.682 91.4945 453.918 90.9489 454.203 90.4544C454.363 90.4777 454.508 90.4956 454.627 90.538C455.457 90.8 455.307 91.5524 455.096 92.3086C454.885 93.0898 454.874 93.85 454.964 94.6123C455.048 95.3644 455.223 96.1234 455.342 96.8963C455.494 97.7899 455.744 98.5254 456.128 99.0735C456.386 99.4339 456.695 99.7204 457.067 99.903C457.627 100.169 458.321 100.224 459.167 99.9955C460.827 99.5539 461.188 98.5406 461.057 97.3772C460.976 96.6852 460.736 95.9449 460.495 95.2546C460.051 93.9548 459.582 92.6796 459.098 91.399C458.614 90.1185 458.13 88.8379 457.646 87.5573C457.636 87.277 457.652 86.9971 457.702 86.738C457.803 86.2197 457.998 85.7434 458.248 85.2782C458.487 84.8177 458.787 84.3785 459.071 83.934C459.355 83.4895 459.625 83.0397 459.82 82.5634C459.92 82.3302 460 82.0817 460.06 81.8178C461.474 79.525 462.946 77.2534 464.052 74.8094C464.094 74.7152 464.151 74.6263 464.193 74.5321C464.466 73.9072 464.685 73.2462 464.904 72.5853C464.979 72.3516 465.083 72.1286 465.153 71.8849C465.311 71.773 465.468 71.6861 465.635 71.5945C465.825 71.8135 465.975 72.0516 466.095 72.3042C466.925 74.0521 466.228 76.3393 467.879 77.7836C468.456 78.971 469.218 80.0821 470.228 80.4077C470.829 80.605 471.527 80.509 472.328 79.9799C473.033 79.5089 473.335 78.9447 473.393 78.3355C473.45 77.7263 473.249 77.0668 472.931 76.425C472.725 75.9906 472.464 75.57 472.197 75.1644C471.139 73.537 470.142 71.8809 469.115 70.2391C468.679 69.0846 468.252 67.9252 467.815 66.7707C467.75 66.5543 467.674 66.3426 467.588 66.1357C468.807 63.0686 469.782 59.9314 470.543 56.7599C471.299 53.5783 471.846 50.3475 472.208 47.0679C472.482 45.1923 472.76 43.3268 473.024 41.456C473.085 40.9069 473.136 40.3626 473.198 39.8136C473.622 35.9849 473.985 32.1599 473.508 28.338C473.193 28.3266 472.868 28.32 472.553 28.3086C472.429 30.4474 472.31 32.5963 472.186 34.7351C472.062 36.8738 471.943 39.0227 471.819 41.1615L471.889 41.1529Z" fill="#EAE7D0"/>
</svg>
