<svg width="1764" height="836" viewBox="0 0 1764 836" fill="none" xmlns="http://www.w3.org/2000/svg">
<path d="M433.939 577.163C434.34 576.688 434.73 576.132 435.078 575.426C436.17 573.226 436.32 571.498 435.831 570.1C434.993 567.782 432.307 566.42 429.035 565.621C428.641 565.207 428.222 564.862 427.78 564.585C426.486 563.767 425.017 563.603 423.363 564.069C423.363 564.069 423.363 564.069 423.34 564.08C423.34 564.08 423.329 564.056 423.318 564.033C422.183 563.312 420.704 563.124 419.402 562.652C418.101 562.18 416.978 561.424 416.567 559.59C416.917 559.368 417.288 559.193 417.682 559.064C418.447 558.761 419.29 558.563 420.123 558.342C420.527 558.236 420.955 558.12 421.349 557.992C421.742 557.863 422.136 557.735 422.531 557.549C423.274 557.198 423.984 556.778 424.572 556.1C424.867 555.761 425.116 555.387 425.344 554.908C427.616 553.465 430.908 553.826 432.459 551.095C432.542 550.97 432.612 550.879 432.685 550.731C440.979 546.591 448.306 549.848 455.809 553.479C458.712 554.88 460.988 555.492 462.729 555.271C465.633 554.929 467.079 552.276 467.606 547.257C466.695 545.144 465.528 543.753 464.224 542.854C462.228 541.51 459.875 541.277 457.437 541.284C456.621 541.298 455.804 541.312 454.975 541.36C453.33 541.422 451.696 541.45 450.137 541.214C449.381 541.114 448.658 541.026 447.901 540.926C448.8 539.702 449.676 538.489 450.585 537.289C452.055 536.253 453.491 535.204 454.905 534.109C457.732 531.919 460.401 529.574 462.903 526.994C464.148 525.722 465.336 524.39 466.481 522.964C467.775 522.097 469.119 521.577 470.482 521.277C472.538 520.821 474.641 520.887 476.766 520.998C478.167 521.08 479.579 521.185 480.981 521.21C481.694 521.216 482.372 521.21 483.075 521.136C483.559 521.679 484.046 522.05 484.581 522.282C485.64 522.783 486.836 522.79 488.021 522.774C488.619 522.778 489.229 522.747 489.848 522.798C493.971 523.053 496.708 521.333 497.42 518.027C497.51 517.556 497.578 517.038 497.612 516.508C497.647 515.32 497.508 514.243 497.204 513.358C496.551 511.552 495.207 510.386 493.237 510.001C492.24 509.814 491.113 509.832 489.809 510.076C487.729 510 485.684 509.936 483.11 509.836C482.249 509.814 481.352 509.78 480.364 509.731C483.294 505.893 486.024 502.292 488.67 498.815C491.317 495.339 493.88 491.987 496.444 488.636C497.789 488.058 499.231 487.864 500.682 487.751C503.078 487.535 505.527 487.551 507.742 486.592C508.253 486.351 508.764 486.11 509.22 485.752C509.873 485.872 510.515 485.97 511.134 486.02C514.245 486.295 516.949 485.649 518.913 483.494C519.701 482.637 520.378 481.546 520.913 480.151C521.247 478.994 521.512 477.811 521.547 476.681C521.582 474.951 521.027 473.413 519.367 472.482C519.219 472.409 519.107 472.29 518.936 472.228C517.226 471.492 515.397 470.984 513.645 471.182C513.207 471.217 512.768 471.309 512.352 471.449C511.935 471.588 511.506 471.762 511.11 472.006C511.017 472.05 510.946 472.14 510.853 472.184C510.142 472.662 509.463 473.268 508.847 474.13C507.022 474.534 505.432 475.255 504.009 476.269C503.309 476.771 502.653 477.366 502.065 477.986C501.454 478.617 500.911 479.33 500.39 480.09C499.319 480.709 498.509 480.977 497.945 480.986C497.06 480.975 496.612 480.387 496.353 479.537C496.095 478.688 496.037 477.601 495.884 476.616C496.292 472.425 496.027 468.494 494.408 465.001C493.427 462.921 491.96 461.014 489.855 459.321C489.173 458.957 488.479 458.57 487.797 458.207C487.221 457.707 486.586 457.264 485.983 456.948C484.14 455.99 482.264 456.046 481.021 458.404C479.945 460.396 480.081 462.189 480.818 463.812C481.555 465.435 482.894 466.889 484.315 468.276C485.771 470.703 487.228 473.129 488.685 475.556C491.831 479.157 491.772 483.726 492.616 488.042C491.391 490.019 490.144 491.95 488.806 493.867C485.763 498.187 482.239 502.391 478.15 506.662C476.835 508.025 475.53 509.412 474.064 510.818C474.217 506.147 474.494 502.702 474.536 499.54C474.557 498.502 474.532 497.486 474.483 496.48C474.367 494.307 473.527 492.646 472.243 491.309C470.96 489.972 469.29 488.96 467.503 488.06C467.104 487.877 466.706 487.694 466.294 487.603C465.482 487.386 464.677 487.365 463.935 487.658C463.587 487.822 463.214 488.055 462.909 488.371C460.018 491.448 462.369 494.567 463.238 497.614C464.301 501.311 465.641 504.935 466.854 508.591C467.375 510.116 467.724 511.637 467.854 513.118C467.962 514.61 467.818 516.049 467.271 517.478C466.918 518.416 466.393 519.349 465.651 520.242C460.508 525.467 455.376 530.716 450.233 535.941C449.205 536.169 448.154 536.407 447.137 536.659C447.844 533.04 449.135 529.46 449.267 525.827C449.323 523.659 448.965 521.456 447.769 519.221C447.417 518.416 447.077 517.634 446.642 516.953C445.374 514.866 443.63 513.575 440.592 514.837C438.76 515.587 437.932 516.72 437.744 518.008C437.651 518.652 437.728 519.358 437.898 520.078C438.067 520.798 438.373 521.568 438.726 522.315C438.551 522.969 438.458 523.613 438.434 524.224C438.321 526.391 438.864 528.506 439.396 530.597C439.757 532.084 440.106 533.548 440.202 535.074C440.244 535.825 440.263 536.587 440.144 537.358C440.095 538.038 439.978 538.693 439.84 539.301C439.464 540.792 438.828 542.092 438.033 543.295C436.516 545.553 434.385 547.415 432.118 549.17C429.212 549.627 426.681 550.821 424.861 553.222C424.679 553.136 424.518 553.097 424.335 553.07C423.819 552.999 423.333 553.171 422.867 553.448C422.821 553.47 422.751 553.503 422.705 553.525C421.866 554.034 421.067 554.868 420.196 555.308C420.15 555.33 420.103 555.351 420.057 555.373C419.105 555.822 418.083 555.762 416.86 554.253C417.149 553.602 417.428 552.928 417.694 552.289C418.586 549.668 419.974 547.014 420.395 544.416C420.805 541.794 420.271 539.218 417.253 536.671C415.822 534.118 414.384 533.597 413.168 534.028C411.928 534.469 410.91 535.921 410.225 537.358C409.262 539.469 409.027 541.979 408.93 544.482C408.901 545.324 408.885 546.131 408.903 546.951C408.868 549.224 408.776 551.496 408.467 553.67C408.159 555.786 407.612 557.815 406.71 559.755C406.061 561.146 405.24 562.476 404.168 563.753C396.187 565.489 389.019 570.213 380.78 571.099C379.593 571.231 378.396 571.281 377.179 571.227C377.268 570.214 377.733 569.394 378.244 568.611C378.765 567.851 379.378 567.104 379.763 566.295C380.026 565.77 380.267 565.257 380.496 564.72C380.955 563.647 381.356 562.572 381.643 561.494C381.918 560.393 382.079 559.289 382.067 558.181C382.044 556.506 381.618 554.822 380.595 553.133C379.626 551.562 378.137 550.15 375.813 550.818C373.268 551.562 372.075 553.124 371.393 554.988C370.711 556.853 370.541 558.961 370.066 560.842C369.63 562.504 369.17 564.178 368.666 565.758C368.311 566.811 367.946 567.841 367.534 568.834C366.712 570.822 365.686 572.62 364.378 574.179C363.719 574.948 362.98 575.668 362.162 576.282C361.742 576.594 361.311 576.883 360.845 577.16C359.937 577.703 358.904 578.161 357.759 578.501C356.625 578.865 355.378 579.11 353.995 579.248C349.719 579.751 345.432 580.231 339.186 580.949C341.281 579.132 342.914 577.419 344.179 575.708C346.307 572.877 347.456 570.078 348.105 567.001C348.334 565.922 348.435 564.931 348.328 563.982C348.164 562.431 347.387 561.084 345.442 560.03C344.566 559.558 343.835 559.331 343.203 559.315C341.296 559.243 340.238 560.913 338.904 562.599C337.004 565.01 335.803 567.519 334.903 570.485C333.186 576.294 330.502 579.931 326.357 581.915C323.872 583.087 320.859 583.68 317.178 583.759C316.649 583.78 316.108 583.778 315.568 583.776C314.326 583.79 313.05 583.793 311.739 583.782C308.75 583.764 305.601 583.707 302.037 583.674C305.46 580.459 308.264 578.28 310.514 575.648C311.221 574.8 311.768 573.913 312.108 573.01C312.449 572.107 312.617 571.199 312.589 570.298C312.548 568.947 312.068 567.63 311.173 566.453C310.87 566.053 310.498 565.685 310.103 565.329C308.307 563.748 306.644 563.533 305.172 564.141C303.71 564.774 302.462 566.219 301.563 567.986C299.039 572.804 296.11 576.585 292.655 579.129C291.522 579.978 290.312 580.663 289.048 581.231C285.903 582.628 282.386 583.116 278.431 582.553C276.057 582.216 273.542 581.517 270.85 580.444C270.634 580.346 270.393 580.317 270.129 580.299C269.612 580.285 269.046 580.41 268.469 580.51C268.18 580.561 267.915 580.6 267.639 580.616C267.573 580.476 267.333 580.389 266.908 580.39L266.861 580.412C263.739 579.57 260.594 578.74 257.472 577.899C257.049 577.784 256.592 577.657 256.169 577.542C256.038 577.204 255.941 576.878 255.878 576.565C255.68 575.602 255.768 574.646 256.579 573.778C257.997 573.595 259.25 573.061 260.435 572.445C262.365 571.42 264.072 570.044 265.688 568.596C266.965 567.451 267.75 566.167 268.122 564.849C268.246 564.39 268.324 563.954 268.333 563.492C268.386 562.581 268.244 561.677 267.906 560.78C267.567 559.883 267.079 559.027 266.383 558.213C265.204 556.798 263.997 556.225 262.836 556.23C261.674 556.235 260.513 556.783 259.45 557.598C258.738 558.134 258.034 558.809 257.388 559.485C257.001 559.867 256.693 560.298 256.351 560.717C255.656 561.53 254.972 562.367 254.299 563.227C253.957 563.645 253.65 564.076 253.308 564.495C249.411 567.789 244.723 569.344 239.989 570.862C239.492 571.011 239.005 571.183 238.508 571.332C225.517 566.176 213.324 559.644 201.563 552.223C189.802 544.801 178.497 536.479 167.28 527.744C167.166 529.969 167.792 531.416 168.678 532.512C169.138 533.066 169.634 533.517 170.201 533.936C170.733 534.342 171.288 534.737 171.809 535.12C175.049 537.534 178.3 539.914 181.587 542.248C188.161 546.918 194.865 551.382 201.76 555.529C205.213 557.614 208.679 559.607 212.227 561.532C215.151 563.096 218.012 564.889 220.968 566.522C221.934 567.066 222.947 567.589 223.925 568.098C225.928 569.096 227.979 570.014 230.139 570.681C232.275 571.358 234.508 571.819 236.851 571.971C236.906 572.088 237.043 572.138 237.295 572.19C238.524 572.81 239.776 573.419 241.005 574.039C245.873 581.17 248.003 589.478 250.911 597.447C252.065 600.617 254.036 602.629 256.793 602.757C257.723 602.804 258.716 602.621 259.828 602.211C260.917 601.812 261.64 601.299 262.113 600.676C263.046 599.465 262.94 597.915 262.524 596.312C262.311 595.498 262.04 594.683 261.792 593.858C261.458 592.787 261.088 591.762 260.671 590.758C260.255 589.755 259.745 588.796 259.201 587.881C258.088 586.064 256.649 584.457 254.732 583.162C254.512 582.694 254.302 582.25 254.059 581.794C253.283 580.932 252.507 580.069 251.72 579.183C252.659 578.826 253.608 578.493 254.558 578.159C254.602 578.253 254.716 578.313 254.899 578.341C257.43 579.975 260.171 580.911 263.063 581.146C264.039 581.229 265.039 581.243 266.04 581.199C266.838 582.108 267.815 582.675 268.844 582.99C269.346 583.153 269.884 583.271 270.424 583.331C270.963 583.39 271.503 583.393 272.044 583.395C277.325 583.218 282.013 583.949 286.083 585.657C288.773 586.787 291.213 588.35 293.346 590.344C294.418 591.352 295.395 592.462 296.313 593.686C297.231 594.91 298.089 596.248 298.864 597.71C299.639 599.173 300.32 600.737 300.953 602.439C301.497 603.953 302.515 605.33 303.5 606.636C304.452 607.872 305.525 608.823 306.664 609.371C307.802 609.92 309.018 610.089 310.266 609.786C311.109 609.589 311.945 609.194 312.798 608.535C314.981 606.905 315.436 604.92 314.995 602.842C314.745 601.589 314.139 600.304 313.417 599.016C312.796 597.938 312.044 597.007 311.2 596.12C309.669 594.499 307.835 593.079 305.868 591.436C304.037 589.9 302.117 588.178 300.255 585.914C301.114 586.051 301.997 586.178 302.87 586.223C309.815 586.804 316.583 585.325 322.855 585.624C328.345 585.89 333.428 587.578 337.912 593.233C339.047 596.182 340.813 598.663 342.883 600.944C343.58 601.7 344.29 602.422 345.023 603.134C345.71 603.809 346.445 604.405 347.206 604.875C347.967 605.344 348.764 605.711 349.565 605.904C350.069 606.009 350.563 606.033 351.092 606.012C352.221 605.937 353.379 605.505 354.503 604.518C355.288 603.834 355.763 603.095 355.974 602.339C356.208 601.571 356.212 600.798 356.067 600.01C355.922 599.221 355.639 598.44 355.275 597.669C354.912 596.898 354.536 596.161 354.148 595.459C352.764 592.826 350.7 590.858 348.056 589.705C347.167 589.325 346.23 589.024 345.234 588.837C343.848 586.862 340.588 587.172 339.729 584.206C344.697 583.005 349.551 581.801 354.439 580.61C355.302 580.574 356.201 580.493 357.076 580.423C359.737 580.168 362.39 579.774 364.987 579.863C366.722 579.93 368.406 580.192 370.026 580.857C371.645 581.521 373.21 582.554 374.684 584.173C375.125 584.507 375.508 584.898 375.902 585.312C376.533 585.986 377.081 586.727 377.663 587.481C378.268 588.281 378.861 589.058 379.501 589.813C380.074 590.486 380.693 591.136 381.419 591.651C382.325 592.309 383.361 592.82 384.656 593.038C385.305 593.932 385.992 594.607 386.707 595.099C387.795 595.842 388.928 596.137 390.08 595.993C391.222 595.826 392.384 595.22 393.51 594.118C394.262 593.363 394.783 592.603 395.075 591.837C395.366 591.071 395.428 590.3 395.317 589.523C395.245 589.129 395.149 588.746 395.019 588.35C394.583 587.184 393.79 586.045 392.721 584.921C390.188 582.259 387.234 580.51 384.028 579.309C382.099 578.59 380.098 578.02 378 577.724C378.118 577.611 378.257 577.546 378.385 577.457C386.252 571.146 396.584 570.844 405.305 566.645C408.543 566.831 411.111 570.048 414.655 568.776C416.527 572.864 420.837 574.059 424.092 576.266C424.965 576.853 425.919 577.432 426.899 577.884C427.879 578.336 428.93 578.64 429.94 578.735C431.467 578.843 432.936 578.407 434.172 576.995L433.939 577.163Z" fill="#EAE7D0"/>
<path d="M419.834 800.313C420.449 800.228 421.111 800.076 421.843 799.783C424.125 798.876 425.392 797.692 425.963 796.326C426.89 794.042 425.803 791.234 423.904 788.452C423.887 787.88 423.807 787.344 423.663 786.842C423.248 785.368 422.266 784.264 420.724 783.505C420.724 783.505 420.724 783.505 420.7 783.498C420.7 783.498 420.707 783.473 420.715 783.448C420.353 782.153 419.378 781.024 418.726 779.803C418.074 778.582 417.744 777.27 418.665 775.631C419.073 775.699 419.467 775.817 419.845 775.985C420.617 776.271 421.377 776.688 422.144 777.08C422.515 777.272 422.911 777.472 423.289 777.639C423.668 777.807 424.046 777.974 424.464 778.1C425.251 778.336 426.06 778.498 426.951 778.388C427.397 778.333 427.832 778.221 428.322 778.017C430.976 778.463 433.183 780.933 436.162 779.939C436.307 779.901 436.421 779.881 436.573 779.819C445.509 782.286 448.78 789.606 451.932 797.323C453.154 800.307 454.437 802.283 455.879 803.283C458.268 804.971 461.116 803.964 464.865 800.585C465.6 798.404 465.662 796.589 465.293 795.049C464.707 792.715 463.114 790.969 461.296 789.344C460.68 788.808 460.063 788.273 459.415 787.754C458.15 786.7 456.917 785.629 455.915 784.411C455.419 783.83 454.94 783.282 454.445 782.702C455.931 782.393 457.393 782.076 458.872 781.792C460.658 782.004 462.427 782.184 464.21 782.315C467.777 782.576 471.33 782.618 474.915 782.372C476.692 782.258 478.466 782.062 480.27 781.767C481.812 781.988 483.159 782.5 484.373 783.188C486.207 784.224 487.727 785.678 489.232 787.182C490.22 788.18 491.199 789.202 492.226 790.158C492.751 790.639 493.26 791.088 493.832 791.503C493.829 792.23 493.943 792.831 494.186 793.362C494.639 794.443 495.523 795.247 496.415 796.028C496.857 796.43 497.331 796.815 497.758 797.267C500.653 800.213 503.838 800.765 506.578 798.782C506.96 798.492 507.357 798.152 507.736 797.78C508.557 796.921 509.174 796.027 509.54 795.166C510.261 793.386 510.041 791.621 508.833 790.017C508.217 789.212 507.367 788.471 506.235 787.781C504.739 786.334 503.26 784.919 501.414 783.124C500.787 782.531 500.144 781.906 499.442 781.21C504.187 780.314 508.624 779.461 512.917 778.646C517.209 777.83 521.356 777.052 525.503 776.273C526.89 776.744 528.092 777.563 529.246 778.449C531.172 779.89 532.983 781.54 535.272 782.308C535.813 782.47 536.354 782.632 536.932 782.671C537.337 783.197 537.749 783.699 538.176 784.151C540.305 786.435 542.748 787.762 545.649 787.473C546.808 787.362 548.042 787.004 549.372 786.324C550.394 785.687 551.382 784.985 552.163 784.168C553.346 782.904 553.962 781.39 553.35 779.588C553.289 779.434 553.284 779.271 553.199 779.111C552.419 777.42 551.399 775.819 549.964 774.795C549.615 774.528 549.227 774.304 548.824 774.129C548.421 773.954 547.985 773.796 547.528 773.713C547.43 773.683 547.316 773.703 547.218 773.674C546.369 773.554 545.459 773.55 544.425 773.78C542.798 772.86 541.134 772.333 539.397 772.136C538.541 772.04 537.655 772.044 536.804 772.112C535.928 772.173 535.047 772.34 534.151 772.557C532.941 772.302 532.159 771.959 531.734 771.589C531.083 770.989 531.144 770.252 531.519 769.447C531.895 768.643 532.578 767.796 533.123 766.961C536.228 764.117 538.66 761.017 539.792 757.337C540.453 755.134 540.637 752.735 540.204 750.069C539.939 749.343 539.683 748.591 539.418 747.864C539.324 747.108 539.148 746.354 538.91 745.716C538.181 743.771 536.749 742.558 534.247 743.48C532.115 744.243 531.018 745.667 530.481 747.367C529.944 749.067 529.967 751.043 530.096 753.024C529.557 755.802 529.018 758.581 528.479 761.359C528.411 766.14 525.312 769.499 523.054 773.272C520.821 773.924 518.603 774.526 516.326 775.056C511.174 776.235 505.743 777.005 499.847 777.447C497.958 777.581 496.06 777.74 494.03 777.805C497.267 774.434 499.776 772.058 501.921 769.735C502.631 768.977 503.292 768.204 503.928 767.424C505.294 765.73 505.78 763.933 505.719 762.081C505.659 760.228 505.094 758.359 504.367 756.496C504.193 756.093 504.019 755.69 503.774 755.347C503.315 754.642 502.73 754.089 501.983 753.811C501.614 753.7 501.181 753.624 500.743 753.655C496.535 754.01 496.199 757.901 494.808 760.748C493.126 764.208 491.7 767.799 490.158 771.329C489.525 772.811 488.767 774.175 487.874 775.364C486.957 776.545 485.887 777.519 484.525 778.216C483.636 778.678 482.622 779.021 481.473 779.188C474.155 779.635 466.83 780.107 459.512 780.554C458.595 780.036 457.654 779.511 456.73 779.018C459.674 776.799 463.028 775.001 465.555 772.387C467.046 770.812 468.253 768.935 468.858 766.473C469.135 765.639 469.405 764.83 469.537 764.033C469.989 761.634 469.555 759.507 466.452 758.414C464.589 757.747 463.215 758.036 462.215 758.868C461.715 759.285 461.3 759.862 460.945 760.51C460.589 761.159 460.302 761.936 460.065 762.728C459.498 763.097 458.998 763.514 458.571 763.952C457.038 765.488 456.028 767.424 455.026 769.335C454.3 770.681 453.581 772.003 452.632 773.202C452.161 773.789 451.665 774.368 451.062 774.862C450.571 775.335 450.046 775.744 449.536 776.103C448.26 776.961 446.918 777.502 445.523 777.866C442.884 778.53 440.055 778.49 437.196 778.28C434.729 776.676 432.049 775.871 429.09 776.44C429.012 776.255 428.919 776.119 428.801 775.976C428.465 775.578 427.988 775.381 427.457 775.275C427.407 775.261 427.334 775.238 427.284 775.224C426.32 775.042 425.169 775.128 424.227 774.872C424.178 774.858 424.129 774.843 424.079 774.828C423.071 774.526 422.352 773.797 422.451 771.858C423.101 771.567 423.759 771.252 424.384 770.954C426.8 769.603 429.607 768.557 431.657 766.906C433.715 765.231 435.04 762.958 434.499 759.046C435.142 756.191 434.421 754.842 433.228 754.349C432.012 753.849 430.284 754.247 428.814 754.858C426.686 755.784 424.833 757.494 423.088 759.29C422.503 759.897 421.951 760.486 421.416 761.108C419.87 762.775 418.283 764.402 416.6 765.812C414.956 767.18 413.192 768.323 411.225 769.163C409.812 769.763 408.312 770.204 406.661 770.436C399.566 766.391 391.078 765.111 384.358 760.262C383.387 759.566 382.464 758.803 381.594 757.949C382.339 757.255 383.232 756.957 384.136 756.715C385.032 756.499 385.986 756.354 386.814 756.009C387.36 755.795 387.882 755.574 388.412 755.328C389.471 754.837 390.488 754.306 391.421 753.696C392.362 753.062 393.22 752.348 393.952 751.516C395.054 750.255 395.864 748.718 396.232 746.778C396.563 744.962 396.399 742.917 394.224 741.859C391.835 740.71 389.903 741.075 388.149 742.005C386.396 742.935 384.86 744.39 383.249 745.471C381.813 746.415 380.352 747.352 378.921 748.191C377.953 748.736 376.993 749.257 376.022 749.721C374.082 750.65 372.117 751.301 370.102 751.586C369.098 751.716 368.067 751.757 367.048 751.668C366.527 751.619 366.013 751.545 365.482 751.44C364.444 751.236 363.369 750.887 362.29 750.374C361.204 749.886 360.112 749.235 358.992 748.413C355.476 745.928 351.967 743.418 346.842 739.776C349.615 739.826 351.974 739.644 354.059 739.218C357.534 738.534 360.261 737.222 362.801 735.368C363.692 734.718 364.429 734.049 364.984 733.272C365.9 732.009 366.222 730.487 365.481 728.403C365.145 727.466 364.753 726.809 364.294 726.374C362.923 725.046 361.021 725.581 358.902 725.943C355.877 726.465 353.306 727.527 350.653 729.132C345.493 732.304 341.065 733.213 336.656 731.917C334.025 731.127 331.388 729.554 328.598 727.151C328.19 726.813 327.79 726.45 327.389 726.087C326.456 725.268 325.506 724.416 324.538 723.532C322.327 721.52 320.024 719.372 317.396 716.964C322.09 716.863 325.632 717.117 329.065 716.664C330.158 716.506 331.158 716.213 332.015 715.769C332.872 715.324 333.603 714.762 334.185 714.073C335.058 713.04 335.582 711.741 335.703 710.267C335.746 709.767 335.715 709.245 335.659 708.716C335.381 706.34 334.288 705.068 332.786 704.536C331.276 704.029 329.382 704.269 327.533 704.982C322.434 706.877 317.728 707.731 313.458 707.312C312.048 707.186 310.69 706.886 309.37 706.463C306.097 705.4 303.156 703.411 300.591 700.348C299.052 698.51 297.649 696.309 296.364 693.711C296.269 693.494 296.109 693.311 295.925 693.121C295.549 692.765 295.045 692.479 294.549 692.168C294.301 692.013 294.077 691.865 293.861 691.692C293.906 691.544 293.785 691.319 293.469 691.035L293.419 691.02C291.66 688.307 289.877 685.587 288.118 682.874C287.88 682.506 287.625 682.106 287.387 681.737C287.516 681.398 287.661 681.091 287.824 680.817C288.32 679.967 289.025 679.316 290.209 679.213C291.386 680.024 292.674 680.465 293.968 680.799C296.087 681.328 298.277 681.445 300.447 681.449C302.162 681.452 303.604 681.021 304.762 680.29C305.161 680.032 305.511 679.759 305.826 679.422C306.475 678.781 306.973 678.013 307.322 677.12C307.67 676.226 307.879 675.264 307.905 674.193C307.975 672.353 307.461 671.119 306.594 670.347C305.727 669.574 304.497 669.205 303.162 669.101C302.274 669.023 301.299 669.054 300.367 669.125C299.823 669.15 299.306 669.265 298.772 669.347C297.711 669.488 296.643 669.653 295.568 669.842C295.034 669.925 294.517 670.039 293.983 670.122C288.883 669.967 284.357 667.988 279.822 665.952C279.352 665.73 278.875 665.533 278.406 665.311C272.192 652.791 267.493 639.782 263.71 626.399C259.926 613.017 257.083 599.27 254.583 585.275C253.01 586.853 252.508 588.348 252.434 589.755C252.406 590.475 252.473 591.143 252.615 591.832C252.739 592.49 252.888 593.155 253.019 593.788C253.814 597.749 254.641 601.693 255.524 605.627C257.29 613.494 259.291 621.297 261.646 628.99C262.819 632.849 264.064 636.649 265.415 640.453C266.544 643.57 267.472 646.816 268.579 650.007C268.933 651.058 269.337 652.123 269.724 653.156C270.547 655.238 271.458 657.292 272.618 659.231C273.754 661.164 275.106 662.999 276.746 664.678C276.709 664.802 276.778 664.931 276.93 665.138C277.429 666.421 277.953 667.711 278.453 668.994C277.305 677.551 273.335 685.153 270.168 693.024C268.907 696.152 269.028 698.966 270.992 700.905C271.653 701.562 272.513 702.09 273.614 702.528C274.691 702.959 275.572 703.062 276.34 702.915C277.843 702.638 278.8 701.414 279.563 699.944C279.949 699.196 280.292 698.409 280.66 697.63C281.127 696.61 281.537 695.6 281.898 694.575C282.26 693.551 282.522 692.497 282.729 691.453C283.116 689.357 283.12 687.2 282.561 684.956C282.71 684.461 282.851 683.99 282.975 683.488C282.975 682.328 282.974 681.168 282.981 679.983C283.918 680.346 284.847 680.732 285.777 681.119C285.747 681.218 285.791 681.339 285.909 681.483C286.698 684.39 288.11 686.918 290.104 689.027C290.775 689.741 291.509 690.42 292.283 691.057C292.268 692.266 292.615 693.341 293.17 694.263C293.435 694.72 293.756 695.167 294.117 695.572C294.478 695.978 294.878 696.34 295.279 696.703C299.324 700.103 302.321 703.781 304.206 707.772C305.451 710.412 306.221 713.205 306.473 716.114C306.596 717.58 306.581 719.059 306.445 720.583C306.31 722.107 306.053 723.675 305.652 725.281C305.25 726.887 304.711 728.505 304.043 730.193C303.435 731.683 303.272 733.388 303.131 735.018C303.013 736.574 303.175 737.998 303.655 739.167C304.135 740.336 304.925 741.275 306.056 741.884C306.815 742.301 307.701 742.567 308.776 742.647C311.489 742.894 313.154 741.722 314.216 739.882C314.867 738.783 315.276 737.422 315.601 735.982C315.859 734.765 315.923 733.57 315.888 732.346C315.833 730.118 315.419 727.835 315.055 725.298C314.72 722.932 314.444 720.367 314.573 717.439C315.12 718.116 315.692 718.8 316.311 719.417C321.087 724.492 327.108 727.918 331.573 732.333C335.477 736.203 338.128 740.856 337.681 748.059C336.554 751.011 336.209 754.037 336.223 757.116C336.235 758.145 336.28 759.157 336.35 760.176C336.409 761.138 336.558 762.072 336.81 762.93C337.061 763.788 337.409 764.594 337.875 765.273C338.18 765.688 338.531 766.036 338.939 766.375C339.828 767.073 340.979 767.526 342.474 767.544C343.515 767.559 344.362 767.328 345.024 766.906C345.712 766.492 346.232 765.92 346.651 765.237C347.071 764.554 347.382 763.784 347.628 762.967C347.873 762.151 348.086 761.351 348.267 760.569C348.998 757.687 348.779 754.843 347.584 752.218C347.177 751.341 346.682 750.491 346.066 749.685C346.356 747.291 343.724 745.341 345.068 742.561C349.566 744.99 353.98 747.34 358.411 749.722C359.077 750.273 359.799 750.813 360.497 751.347C362.647 752.936 364.883 754.416 366.754 756.219C368 757.429 369.077 758.75 369.837 760.327C370.597 761.904 371.07 763.719 371.084 765.908C371.188 766.451 371.212 766.998 371.228 767.569C371.246 768.492 371.158 769.41 371.087 770.36C371.002 771.359 370.924 772.334 370.895 773.323C370.871 774.206 370.897 775.104 371.092 775.972C371.326 777.067 371.754 778.14 372.572 779.167C372.456 780.266 372.516 781.228 372.719 782.071C373.031 783.351 373.677 784.327 374.63 784.991C375.591 785.63 376.86 785.957 378.434 785.89C379.497 785.832 380.393 785.615 381.122 785.24C381.851 784.866 382.413 784.333 382.85 783.682C383.06 783.34 383.245 782.991 383.413 782.61C383.868 781.452 384.04 780.074 383.996 778.523C383.892 774.85 382.865 771.575 381.284 768.538C380.33 766.714 379.224 764.952 377.862 763.329C378.024 763.324 378.172 763.368 378.327 763.388C388.396 763.956 396.281 770.638 405.573 773.347C407.857 775.651 407.615 779.759 411.101 781.183C409.76 785.474 412.166 789.245 413.111 793.062C413.368 794.083 413.69 795.151 414.117 796.142C414.543 797.133 415.122 798.062 415.809 798.808C416.873 799.91 418.257 800.568 420.119 800.345L419.834 800.313Z" fill="#EAE7D0"/>
<path d="M496.145 478.154C496.577 477.096 496.946 475.901 497.154 474.467C497.816 469.996 497.098 466.886 495.45 464.717C492.667 461.134 487.193 460.274 481.011 460.732C480.086 460.231 479.158 459.864 478.226 459.63C475.496 458.933 472.832 459.478 470.201 461.232C470.201 461.232 470.201 461.232 470.167 461.264C470.167 461.264 470.134 461.23 470.102 461.195C467.705 460.576 465.009 461.087 462.463 460.999C459.917 460.912 457.523 460.225 455.762 457.247C456.248 456.661 456.799 456.143 457.415 455.695C458.582 454.729 459.947 453.904 461.278 453.045C461.927 452.631 462.61 452.185 463.226 451.737C463.842 451.288 464.458 450.84 465.044 450.29C466.146 449.255 467.15 448.116 467.796 446.596C468.119 445.836 468.343 445.038 468.47 444.07C471.628 440.256 477.597 439.019 478.762 433.359C478.837 433.093 478.909 432.894 478.951 432.594C491.122 420.639 505.797 422.184 520.993 424.283C526.871 425.089 531.202 424.869 534.124 423.494C539.015 421.248 540.04 415.784 538.116 406.697C535.322 403.516 532.489 401.742 529.696 400.908C525.439 399.688 521.188 400.615 516.925 402.01C515.503 402.498 514.081 402.986 512.657 403.54C509.812 404.583 506.968 405.558 504.105 406.029C502.723 406.283 501.409 406.54 500.027 406.794C500.906 404.142 501.751 401.522 502.662 398.904C504.648 396.256 506.566 393.606 508.42 390.886C512.126 385.447 515.469 379.828 518.385 373.893C519.842 370.958 521.167 367.952 522.362 364.808C524.135 362.555 526.193 360.882 528.409 359.584C531.75 357.619 535.468 356.54 539.252 355.53C541.751 354.879 544.283 354.262 546.751 353.508C548.003 353.115 549.187 352.72 550.376 352.191C551.53 352.868 552.593 353.24 553.663 353.344C555.801 353.619 557.898 352.953 559.963 352.253C561.011 351.92 562.062 351.52 563.176 351.257C570.538 349.364 574.354 344.801 573.723 338.609C573.614 337.733 573.439 336.788 573.198 335.841C572.586 333.741 571.732 331.934 570.697 330.557C568.529 327.766 565.514 326.489 561.847 326.933C559.997 327.171 558.033 327.841 555.888 329.008C552.205 330.055 548.588 331.104 544.026 332.389C542.504 332.839 540.916 333.288 539.159 333.764C542.11 325.382 544.845 317.528 547.506 309.941C550.166 302.353 552.753 295.031 555.339 287.709C557.367 285.935 559.779 284.777 562.256 283.756C566.328 282.018 570.624 280.657 573.958 277.72C574.716 277.008 575.473 276.297 576.068 275.412C577.28 275.252 578.459 275.058 579.572 274.795C585.174 273.512 589.54 270.846 591.756 265.959C592.649 264.011 593.216 261.717 593.361 258.972C593.289 256.756 593.083 254.536 592.502 252.538C591.582 249.488 589.738 247.11 586.304 246.422C586.003 246.378 585.739 246.235 585.404 246.224C581.993 245.905 578.502 246.053 575.548 247.393C574.801 247.703 574.086 248.114 573.435 248.595C572.785 249.076 572.132 249.623 571.578 250.275C571.44 250.404 571.367 250.603 571.23 250.732C570.256 251.973 569.411 253.419 568.822 255.277C565.856 257.019 563.482 259.184 561.566 261.767C560.625 263.043 559.814 264.457 559.137 265.875C558.426 267.326 557.879 268.884 557.397 270.51C555.875 272.202 554.608 273.13 553.626 273.466C552.071 273.949 550.953 273.172 550.018 271.832C549.083 270.492 548.365 268.623 547.539 266.985C545.874 259.416 543.18 252.684 538.364 247.488C535.467 244.404 531.815 241.897 527.171 240.128C525.77 239.879 524.337 239.594 522.935 239.345C521.643 238.797 520.28 238.382 519.046 238.172C515.275 237.539 512.024 238.701 511.184 243.535C510.432 247.633 511.687 250.695 513.899 253.118C516.11 255.541 519.279 257.327 522.552 258.949C526.48 262.37 530.407 265.792 534.334 269.213C541.885 273.732 544.375 281.765 548.3 288.842C547.278 292.998 546.191 297.085 544.935 301.2C542.059 310.491 538.276 319.851 533.542 329.647C532.012 332.78 530.515 335.948 528.746 339.24C526.363 330.976 524.894 324.789 523.173 319.23C522.62 317.4 521.999 315.635 521.344 313.902C519.907 310.164 517.494 307.734 514.489 306.121C511.483 304.509 507.986 303.684 504.347 303.123C503.545 303.028 502.743 302.934 501.97 303.008C500.425 303.089 499.005 303.509 497.873 304.443C497.356 304.928 496.836 305.547 496.48 306.273C493.165 313.301 499.05 317.427 502.301 322.267C506.26 328.138 510.662 333.722 514.86 339.433C516.638 341.808 518.111 344.273 519.18 346.791C520.215 349.342 520.778 351.944 520.632 354.755C520.547 356.597 520.158 358.528 519.364 360.513C513.326 372.578 507.32 384.678 501.281 396.744C499.611 397.726 497.906 398.74 496.268 399.757C495.452 393.022 495.682 386.022 493.851 379.587C492.718 375.759 490.843 372.106 487.48 368.872C486.408 367.661 485.368 366.485 484.221 365.54C480.817 362.606 477.03 361.336 472.427 365.269C469.645 367.621 468.839 370.074 469.242 372.436C469.444 373.616 469.98 374.808 470.685 375.973C471.39 377.137 472.363 378.311 473.404 379.42C473.47 380.663 473.671 381.843 473.976 382.927C475.008 386.785 477.159 390.179 479.277 393.538C480.752 395.937 482.195 398.3 483.227 400.918C483.728 402.209 484.193 403.533 484.422 404.949C484.723 406.167 484.89 407.38 484.992 408.523C485.181 411.347 484.805 413.983 484.096 416.541C482.72 421.356 480.047 425.824 477.075 430.182C472.245 432.631 468.491 436.157 466.668 441.393C466.301 441.347 465.998 441.37 465.661 441.425C464.718 441.594 463.964 442.171 463.306 442.92C463.237 442.985 463.134 443.082 463.065 443.147C461.887 444.514 460.961 446.427 459.685 447.691C459.616 447.756 459.547 447.821 459.479 447.885C458.067 449.212 456.243 449.686 453.247 447.738C453.384 446.435 453.489 445.097 453.591 443.826C453.667 438.732 454.591 433.298 453.854 428.511C453.084 423.689 450.688 419.482 443.959 416.735C440.005 413.078 437.191 412.981 435.307 414.425C433.388 415.902 432.428 419.021 432.045 421.925C431.557 426.167 432.57 430.695 433.82 435.131C434.247 436.622 434.677 438.045 435.173 439.47C436.402 443.469 437.529 447.499 438.222 451.48C438.884 455.359 439.078 459.222 438.599 463.129C438.252 465.934 437.57 468.727 436.417 471.571C423.431 479.139 413.563 491.475 399.642 497.702C397.638 498.606 395.572 499.373 393.409 499.969C392.991 498.144 393.341 496.446 393.79 494.784C394.271 493.158 394.921 491.504 395.135 489.868C395.299 488.8 395.428 487.765 395.525 486.695C395.72 484.556 395.812 482.447 395.702 480.397C395.56 478.313 395.214 476.289 394.565 474.356C393.574 471.438 391.873 468.73 389.123 466.355C386.536 464.153 383.129 462.527 379.438 465.016C375.405 467.761 374.202 471.173 374.066 474.824C373.93 478.474 374.83 482.261 375.065 485.824C375.244 488.982 375.39 492.173 375.404 495.225C375.38 497.269 375.324 499.279 375.168 501.252C374.856 505.199 374.081 508.928 372.676 512.4C371.957 514.119 371.072 515.799 369.989 517.338C369.43 518.124 368.839 518.875 368.181 519.623C366.9 521.088 365.352 522.477 363.54 523.722C361.761 525.002 359.717 526.139 357.375 527.165C350.174 530.472 342.941 533.744 332.413 538.546C335.05 534.176 336.937 530.251 338.182 526.538C340.299 520.374 340.724 514.822 340.114 509.066C339.903 507.047 339.517 505.257 338.791 503.656C337.624 501.033 335.499 499.116 331.496 498.374C329.695 498.044 328.286 498.063 327.171 498.393C323.791 499.35 322.888 502.873 321.509 506.582C319.55 511.88 318.871 516.953 318.979 522.658C319.27 533.801 316.634 541.691 310.503 547.516C306.818 550.977 301.88 553.725 295.48 555.952C294.566 556.29 293.618 556.593 292.671 556.895C290.505 557.626 288.272 558.353 285.971 559.079C280.728 560.743 275.182 562.43 268.925 564.394C273.093 556.825 276.766 551.418 279.211 545.533C279.968 543.648 280.422 541.786 280.506 540.011C280.589 538.237 280.368 536.553 279.809 534.991C278.969 532.648 277.383 530.615 275.147 529.063C274.391 528.534 273.531 528.102 272.637 527.702C268.596 525.953 265.563 526.52 263.33 528.421C261.13 530.358 259.765 533.597 259.195 537.199C257.509 547.067 254.527 555.348 249.922 561.762C248.42 563.89 246.691 565.775 244.799 567.487C240.087 571.718 234.207 574.567 226.963 575.827C222.617 576.582 217.817 576.786 212.496 576.435C212.061 576.387 211.623 576.472 211.15 576.59C210.238 576.86 209.317 577.399 208.364 577.903C207.888 578.154 207.446 578.374 206.971 578.559C206.776 578.351 206.307 578.335 205.563 578.577L205.494 578.642C199.551 578.941 193.574 579.271 187.631 579.57C186.826 579.609 185.953 579.646 185.147 579.686C184.726 579.168 184.371 578.653 184.084 578.14C183.19 576.567 182.802 574.843 183.73 572.863C186.108 571.738 187.998 570.092 189.724 568.341C192.521 565.453 194.728 562.075 196.736 558.623C198.321 555.894 198.967 553.2 198.87 550.682C198.827 549.809 198.716 549 198.47 548.187C198.047 546.562 197.284 545.061 196.183 543.681C195.082 542.302 193.741 541.082 192.061 540.052C189.194 538.243 186.756 537.924 184.726 538.592C182.695 539.26 180.973 540.878 179.575 542.909C178.632 544.251 177.783 545.831 177.036 547.382C176.575 548.271 176.281 549.2 175.919 550.127C175.164 551.945 174.442 553.798 173.752 555.686C173.39 556.612 173.096 557.541 172.735 558.467C167.783 566.446 160.457 571.827 153.032 577.172C152.246 577.715 151.492 578.292 150.705 578.835C125.037 577.18 99.9848 572.663 75.1848 566.343C50.3847 560.024 25.8709 551.869 1.27826 542.941C2.34047 546.901 4.25739 549.08 6.43038 550.496C7.55038 551.205 8.67598 551.713 9.90492 552.125C11.0669 552.533 12.2633 552.91 13.3927 553.284C20.4333 555.673 27.4758 557.994 34.5547 560.216C48.7123 564.661 62.9827 568.673 77.4058 572.02C84.6337 573.71 91.8328 575.233 99.137 576.591C105.142 577.669 111.167 579.184 117.27 580.367C119.27 580.771 121.339 581.111 123.341 581.448C127.414 582.058 131.526 582.501 135.685 582.443C139.809 582.417 143.979 581.957 148.167 580.894C148.329 581.067 148.597 581.076 149.068 581.026C151.572 581.414 154.11 581.769 156.613 582.157C169.181 591.879 177.624 605.214 187.236 617.516C191.055 622.409 195.647 624.814 200.546 623.474C202.202 623.028 203.836 622.145 205.55 620.796C207.23 619.479 208.206 618.171 208.68 616.812C209.626 614.162 208.56 611.51 206.923 608.939C206.087 607.636 205.151 606.363 204.249 605.057C203.056 603.373 201.826 601.788 200.528 600.268C199.229 598.748 197.793 597.357 196.321 596.066C193.342 593.515 189.911 591.519 185.82 590.339C185.169 589.646 184.551 588.987 183.865 588.327C182.018 587.257 180.17 586.187 178.29 585.083C179.731 583.925 181.204 582.802 182.677 581.679C182.807 581.818 183.041 581.86 183.378 581.804C188.736 583.229 194.064 583.312 199.262 582.083C201.017 581.674 202.775 581.131 204.503 580.486C206.416 581.625 208.449 582.064 210.428 582.031C211.4 582.031 212.408 581.932 213.386 581.731C214.364 581.53 215.312 581.227 216.259 580.924C225.404 577.617 234.026 576.237 242.12 576.918C247.472 577.371 252.63 578.722 257.495 581.002C259.943 582.16 262.285 583.548 264.586 585.17C266.887 586.791 269.149 588.647 271.335 590.767C273.522 592.888 275.602 595.24 277.674 597.86C279.486 600.203 282.049 602.035 284.515 603.763C286.883 605.387 289.301 606.442 291.606 606.757C293.91 607.071 296.134 606.678 298.147 605.439C299.511 604.614 300.751 603.45 301.87 601.812C304.768 597.72 304.437 593.986 302.487 590.599C301.337 588.547 299.547 586.641 297.553 584.796C295.853 583.262 294.01 582.058 292.028 580.984C288.429 579.015 284.413 577.569 280.037 575.809C275.959 574.16 271.621 572.233 267.076 569.327C268.659 569.08 270.276 568.8 271.83 568.384C284.317 565.461 295.327 559.032 306.476 555.996C316.24 553.347 326.095 553.418 337.153 560.774C340.815 565.293 345.314 568.633 350.23 571.452C351.881 572.38 353.533 573.242 355.219 574.071C356.806 574.864 358.432 575.49 360.03 575.88C361.628 576.271 363.232 576.46 364.744 576.344C365.686 576.243 366.564 576.004 367.479 575.667C369.412 574.895 371.195 573.481 372.602 571.115C373.587 569.472 374 567.911 373.94 566.467C373.914 564.99 373.483 563.634 372.782 562.336C372.081 561.037 371.142 559.831 370.068 558.688C368.994 557.544 367.918 556.467 366.84 555.458C362.924 551.634 358.193 549.359 352.91 548.842C351.138 548.68 349.328 548.685 347.477 548.923C343.931 546.252 338.399 548.644 335.212 543.94C343.229 539.018 351.043 534.157 358.924 529.298C360.415 528.745 361.942 528.094 363.435 527.474C367.949 525.517 372.369 523.322 376.966 522.005C380.041 521.138 383.139 520.641 386.351 520.886C389.563 521.131 392.89 522.05 396.387 524.048C397.35 524.383 398.242 524.85 399.167 525.351C400.653 526.173 402.033 527.16 403.48 528.149C404.993 529.207 406.473 530.23 408.022 531.189C409.406 532.041 410.859 532.829 412.421 533.319C414.381 533.956 416.485 534.263 418.875 533.91C420.518 535.106 422.105 535.899 423.634 536.354C425.962 537.038 428.111 536.91 430.048 536.005C431.952 535.064 433.643 533.345 434.989 530.776C435.876 529.029 436.358 527.402 436.434 525.896C436.509 524.39 436.18 523.003 435.545 521.707C435.195 521.058 434.81 520.441 434.358 519.822C432.933 518.029 430.898 516.484 428.388 515.123C422.444 511.9 416.28 510.515 409.985 510.231C406.201 510.067 402.375 510.204 398.534 510.876C398.676 510.613 398.882 510.419 399.056 510.19C409.248 494.679 427.164 488.288 440.048 475.988C445.824 474.477 452.144 478.652 457.627 474.414C463.222 480.508 471.446 480.154 478.397 482.171C480.259 482.704 482.258 483.176 484.229 483.411C486.201 483.647 488.214 483.582 490.036 483.175C492.771 482.498 495.096 480.901 496.459 477.729L496.145 478.154Z" fill="#FFFDEB" style="mix-blend-mode:multiply"/>
<path d="M1436.11 476.569C1434.99 476.807 1433.75 476.958 1432.3 476.908C1427.79 476.766 1424.85 475.509 1423.01 473.501C1419.98 470.127 1420.1 464.587 1421.65 458.584C1421.32 457.586 1421.13 456.607 1421.06 455.648C1420.86 452.838 1421.87 450.313 1424.06 448.035C1424.06 448.035 1424.06 448.035 1424.1 448.007C1424.1 448.007 1424.07 447.969 1424.04 447.93C1423.86 445.462 1424.84 442.899 1425.2 440.378C1425.57 437.857 1425.32 435.379 1422.7 433.118C1422.04 433.492 1421.43 433.943 1420.88 434.47C1419.72 435.447 1418.67 436.643 1417.59 437.801C1417.06 438.366 1416.5 438.959 1415.95 439.486C1415.4 440.013 1414.85 440.54 1414.21 441.018C1412.99 441.919 1411.69 442.705 1410.08 443.071C1409.28 443.255 1408.45 443.333 1407.48 443.287C1403.16 445.718 1400.89 451.373 1395.11 451.516C1394.84 451.542 1394.63 451.578 1394.32 451.566C1380.4 461.423 1379.32 476.139 1378.69 491.466C1378.44 497.394 1377.45 501.618 1375.58 504.249C1372.5 508.664 1366.94 508.704 1358.34 505.198C1355.71 501.884 1354.46 498.781 1354.14 495.885C1353.69 491.479 1355.36 487.46 1357.49 483.512C1358.22 482.199 1358.95 480.886 1359.75 479.583C1361.28 476.968 1362.75 474.342 1363.72 471.608C1364.21 470.294 1364.7 469.045 1365.2 467.73C1362.43 468.125 1359.7 468.492 1356.96 468.925C1354 470.409 1351.06 471.827 1348.05 473.168C1342.04 475.851 1335.92 478.144 1329.56 479.961C1326.41 480.874 1323.22 481.645 1319.91 482.263C1317.38 483.608 1315.37 485.337 1313.7 487.288C1311.17 490.227 1309.45 493.695 1307.79 497.239C1306.7 499.583 1305.65 501.965 1304.47 504.261C1303.86 505.423 1303.26 506.519 1302.53 507.594C1302.99 508.85 1303.17 509.962 1303.08 511.033C1302.97 513.186 1301.94 515.132 1300.89 517.04C1300.37 518.013 1299.79 518.976 1299.34 520.026C1296.17 526.935 1291 529.881 1285.02 528.162C1284.18 527.899 1283.28 527.559 1282.39 527.154C1280.43 526.179 1278.8 525.018 1277.63 523.756C1275.27 521.127 1274.55 517.933 1275.63 514.403C1276.2 512.624 1277.2 510.811 1278.73 508.907C1280.42 505.467 1282.09 502.094 1284.17 497.832C1284.88 496.415 1285.6 494.931 1286.38 493.286C1277.61 494.704 1269.39 496.002 1261.46 497.275C1253.52 498.547 1245.85 499.793 1238.19 501.039C1236.08 502.72 1234.51 504.89 1233.07 507.145C1230.64 510.844 1228.53 514.831 1225.05 517.592C1224.22 518.211 1223.38 518.83 1222.41 519.259C1222.04 520.423 1221.64 521.548 1221.18 522.598C1218.92 527.883 1215.52 531.707 1210.32 533.021C1208.25 533.554 1205.89 533.705 1203.16 533.36C1200.99 532.897 1198.84 532.3 1196.98 531.374C1194.14 529.927 1192.13 527.691 1192.06 524.189C1192.07 523.886 1191.98 523.6 1192.03 523.268C1192.32 519.855 1193.08 516.446 1194.93 513.776C1195.36 513.097 1195.89 512.465 1196.48 511.91C1197.07 511.355 1197.73 510.81 1198.47 510.38C1198.62 510.267 1198.83 510.231 1198.98 510.119C1200.37 509.381 1201.94 508.805 1203.88 508.556C1206.12 505.946 1208.67 503.994 1211.55 502.566C1212.97 501.866 1214.51 501.319 1216.03 500.904C1217.58 500.462 1219.21 500.2 1220.9 500.015C1222.83 498.816 1223.97 497.734 1224.47 496.828C1225.22 495.382 1224.66 494.144 1223.51 492.987C1222.35 491.829 1220.64 490.79 1219.18 489.687C1212.02 486.706 1205.87 482.86 1201.62 477.199C1199.09 473.8 1197.28 469.762 1196.36 464.878C1196.36 463.455 1196.34 461.994 1196.34 460.57C1196.03 459.202 1195.86 457.787 1195.87 456.534C1195.92 452.711 1197.64 449.718 1202.55 449.749C1206.71 449.735 1209.5 451.514 1211.5 454.12C1213.49 456.727 1214.68 460.162 1215.7 463.671C1218.37 468.143 1221.04 472.615 1223.71 477.087C1226.82 485.319 1234.28 489.195 1240.55 494.313C1244.82 494.045 1249.04 493.7 1253.31 493.194C1262.96 492.012 1272.85 489.949 1283.33 487.028C1286.68 486.078 1290.06 485.167 1293.62 484.01C1285.91 480.199 1280.08 477.655 1274.91 474.975C1273.21 474.107 1271.58 473.183 1270 472.231C1266.57 470.153 1264.61 467.348 1263.55 464.104C1262.5 460.859 1262.31 457.271 1262.4 453.591C1262.45 452.785 1262.5 451.979 1262.71 451.231C1263.06 449.725 1263.73 448.403 1264.85 447.453C1265.42 447.031 1266.12 446.629 1266.9 446.408C1274.4 444.392 1277.42 450.916 1281.61 454.973C1286.68 459.911 1291.4 465.234 1296.27 470.379C1298.29 472.549 1300.46 474.436 1302.75 475.935C1305.07 477.406 1307.53 478.422 1310.33 478.778C1312.15 479.02 1314.12 478.98 1316.22 478.551C1329.16 474.749 1342.14 470.985 1355.08 467.182C1356.34 465.712 1357.65 464.215 1358.94 462.783C1352.45 460.785 1345.52 459.769 1339.52 456.826C1335.95 455.032 1332.69 452.538 1330.1 448.655C1329.1 447.385 1328.13 446.153 1327.4 444.857C1325.12 440.986 1324.54 437.034 1329.22 433.202C1332.03 430.882 1334.59 430.523 1336.84 431.339C1337.97 431.746 1339.05 432.486 1340.07 433.386C1341.09 434.286 1342.07 435.452 1342.98 436.674C1344.19 436.959 1345.32 437.367 1346.33 437.859C1349.94 439.559 1352.9 442.278 1355.83 444.958C1357.93 446.835 1360 448.674 1362.39 450.155C1363.57 450.876 1364.79 451.569 1366.15 452.045C1367.29 452.558 1368.46 452.937 1369.56 453.241C1372.31 453.927 1374.97 454.025 1377.61 453.781C1382.6 453.282 1387.47 451.443 1392.28 449.291C1395.55 444.973 1399.69 441.904 1405.16 441.038C1405.18 440.669 1405.26 440.375 1405.37 440.053C1405.71 439.155 1406.41 438.515 1407.26 438.001C1407.34 437.944 1407.45 437.86 1407.53 437.804C1409.08 436.887 1411.13 436.315 1412.6 435.284C1412.68 435.227 1412.75 435.171 1412.83 435.115C1414.38 433.961 1415.17 432.25 1413.79 428.956C1412.48 428.859 1411.15 428.725 1409.88 428.601C1404.85 427.772 1399.34 427.717 1394.76 426.142C1390.15 424.529 1386.43 421.425 1384.93 414.315C1382.03 409.775 1382.43 406.989 1384.19 405.391C1385.98 403.764 1389.22 403.373 1392.15 403.511C1396.41 403.783 1400.68 405.583 1404.83 407.601C1406.22 408.286 1407.54 408.961 1408.86 409.702C1412.58 411.621 1416.34 413.445 1420.14 414.833C1423.84 416.173 1427.6 417.048 1431.53 417.271C1434.36 417.427 1437.23 417.251 1440.23 416.621C1449.98 405.183 1463.87 397.66 1472.47 385.064C1473.71 383.253 1474.84 381.355 1475.81 379.333C1474.08 378.598 1472.35 378.64 1470.64 378.787C1468.95 378.973 1467.21 379.319 1465.56 379.239C1464.48 379.211 1463.44 379.155 1462.37 379.061C1460.23 378.872 1458.14 378.59 1456.14 378.118C1454.11 377.608 1452.18 376.909 1450.39 375.926C1447.7 374.433 1445.34 372.279 1443.49 369.152C1441.78 366.215 1440.78 362.573 1443.89 359.383C1447.3 355.9 1450.87 355.322 1454.49 355.836C1458.11 356.35 1461.68 357.907 1465.14 358.77C1468.22 359.507 1471.33 360.216 1474.33 360.772C1476.35 361.111 1478.34 361.412 1480.31 361.609C1484.24 362.002 1488.05 361.9 1491.72 361.134C1493.54 360.731 1495.35 360.158 1497.05 359.365C1497.93 358.955 1498.77 358.507 1499.62 357.992C1501.29 356.99 1502.93 355.714 1504.48 354.151C1506.06 352.627 1507.54 350.818 1508.96 348.695C1513.5 342.195 1518 335.657 1524.59 326.148C1519.82 327.968 1515.63 329.129 1511.75 329.695C1505.31 330.685 1499.77 330.118 1494.21 328.497C1492.26 327.931 1490.57 327.234 1489.12 326.235C1486.75 324.621 1485.24 322.19 1485.22 318.119C1485.21 316.288 1485.48 314.905 1486.01 313.865C1487.55 310.709 1491.18 310.445 1495.07 309.747C1500.63 308.758 1505.74 308.99 1511.34 310.108C1522.25 312.371 1530.49 311.177 1537.31 306.176C1541.37 303.164 1544.95 298.791 1548.27 292.889C1548.77 292.048 1549.23 291.17 1549.7 290.291C1550.8 288.289 1551.92 286.22 1553.04 284.085C1555.61 279.22 1558.25 274.062 1561.29 268.252C1553.1 271.012 1547.13 273.666 1540.91 275.029C1538.92 275.439 1537 275.556 1535.24 275.324C1533.48 275.091 1531.86 274.575 1530.43 273.747C1528.27 272.505 1526.55 270.584 1525.42 268.108C1525.03 267.27 1524.76 266.347 1524.52 265.396C1523.52 261.109 1524.62 258.224 1526.88 256.364C1529.18 254.543 1532.61 253.774 1536.26 253.852C1546.27 253.944 1554.94 252.478 1562.07 249.083C1564.43 247.983 1566.6 246.616 1568.62 245.057C1573.62 241.171 1577.46 235.889 1579.99 228.984C1581.5 224.841 1582.55 220.153 1583.15 214.854C1583.18 214.418 1583.34 214.002 1583.54 213.557C1583.97 212.707 1584.67 211.897 1585.33 211.048C1585.66 210.624 1585.96 210.228 1586.22 209.794C1586.05 209.565 1586.12 209.1 1586.49 208.411L1586.57 208.354C1587.92 202.559 1589.3 196.735 1590.65 190.94C1590.83 190.154 1591.02 189.302 1591.2 188.516C1590.77 188.009 1590.33 187.569 1589.87 187.195C1588.48 186.036 1586.85 185.349 1584.74 185.91C1583.21 188.051 1581.26 189.62 1579.23 191.007C1575.89 193.247 1572.17 194.82 1568.42 196.184C1565.45 197.26 1562.69 197.417 1560.23 196.875C1559.37 196.679 1558.6 196.425 1557.84 196.04C1556.32 195.335 1554.98 194.318 1553.81 192.989C1552.65 191.661 1551.69 190.126 1550.97 188.288C1549.7 185.147 1549.82 182.691 1550.84 180.811C1551.85 178.931 1553.75 177.524 1556 176.508C1557.49 175.818 1559.19 175.263 1560.85 174.802C1561.81 174.507 1562.77 174.382 1563.75 174.191C1565.67 173.77 1567.63 173.387 1569.61 173.043C1570.58 172.852 1571.55 172.727 1572.52 172.536C1581.25 169.078 1587.85 162.823 1594.43 156.464C1595.1 155.786 1595.8 155.147 1596.48 154.469C1599.4 128.914 1599.4 103.458 1597.58 77.9305C1595.76 52.4027 1592.08 26.8311 1587.66 1.0447C1591.37 2.79256 1593.17 5.06554 1594.18 7.4553C1594.68 8.68334 1594.98 9.88125 1595.17 11.1636C1595.36 12.3797 1595.52 13.6239 1595.69 14.8018C1596.79 22.1545 1597.83 29.4971 1598.76 36.8579C1600.62 51.5794 1602.04 66.3352 1602.77 81.1233C1603.15 88.5364 1603.38 95.8913 1603.42 103.321C1603.41 109.421 1603.83 115.62 1603.92 121.836C1603.96 123.876 1603.93 125.972 1603.9 128.002C1603.78 132.119 1603.49 136.244 1602.69 140.327C1601.94 144.381 1600.74 148.404 1598.95 152.336C1599.1 152.527 1599.06 152.792 1598.92 153.247C1598.86 155.779 1598.76 158.34 1598.7 160.873C1606.04 174.966 1617.66 185.641 1628.06 197.283C1632.2 201.909 1633.75 206.855 1631.57 211.439C1630.83 212.989 1629.67 214.44 1628.04 215.888C1626.45 217.308 1624.99 218.036 1623.57 218.261C1620.79 218.722 1618.37 217.203 1616.13 215.135C1615 214.082 1613.91 212.935 1612.78 211.815C1611.34 210.342 1610 208.851 1608.73 207.304C1607.47 205.756 1606.35 204.096 1605.34 202.418C1603.36 199.033 1602 195.303 1601.57 191.068C1601 190.304 1600.46 189.579 1599.94 188.787C1599.21 186.779 1598.49 184.771 1597.73 182.725C1596.34 183.937 1594.97 185.188 1593.6 186.439C1593.72 186.591 1593.72 186.829 1593.6 187.15C1594.06 192.676 1593.19 197.934 1591.06 202.832C1590.35 204.486 1589.5 206.12 1588.56 207.707C1589.34 209.791 1589.41 211.869 1589.03 213.811C1588.86 214.768 1588.58 215.743 1588.21 216.67C1587.84 217.597 1587.37 218.475 1586.9 219.354C1582.03 227.767 1579.14 236.007 1578.37 244.094C1577.87 249.441 1578.28 254.758 1579.67 259.949C1580.37 262.564 1581.32 265.115 1582.51 267.667C1583.7 270.22 1585.12 272.774 1586.82 275.303C1588.52 277.831 1590.47 280.295 1592.68 282.799C1594.66 284.998 1596.01 287.845 1597.27 290.579C1598.45 293.198 1599.06 295.764 1598.96 298.088C1598.86 300.412 1598.08 302.531 1596.5 304.292C1595.45 305.488 1594.08 306.502 1592.27 307.312C1587.73 309.438 1584.12 308.45 1581.13 305.93C1579.31 304.435 1577.76 302.335 1576.29 300.046C1575.08 298.1 1574.23 296.072 1573.52 293.932C1572.22 290.04 1571.51 285.831 1570.56 281.212C1569.66 276.907 1568.53 272.296 1566.48 267.308C1565.95 268.821 1565.39 270.363 1564.7 271.819C1559.61 283.589 1551.33 293.284 1546.37 303.717C1542.03 312.856 1540.35 322.568 1545.63 334.756C1549.42 339.161 1551.91 344.181 1553.82 349.52C1554.44 351.309 1554.99 353.087 1555.51 354.894C1556.01 356.597 1556.33 358.307 1556.44 359.95C1556.54 361.592 1556.44 363.204 1556.06 364.671C1555.79 365.58 1555.4 366.402 1554.9 367.243C1553.8 369.008 1552.09 370.512 1549.52 371.477C1547.72 372.155 1546.11 372.284 1544.7 371.969C1543.25 371.682 1542 371.017 1540.84 370.096C1539.69 369.176 1538.67 368.039 1537.73 366.778C1536.8 365.518 1535.93 364.268 1535.13 363.028C1532.06 358.496 1530.66 353.437 1531.09 348.146C1531.24 346.374 1531.57 344.593 1532.13 342.813C1530.13 338.85 1533.47 333.83 1529.4 329.859C1523.14 336.876 1516.97 343.704 1510.79 350.598C1509.98 351.967 1509.07 353.354 1508.19 354.713C1505.47 358.808 1502.52 362.769 1500.41 367.059C1499.01 369.932 1497.97 372.893 1497.64 376.097C1497.31 379.301 1497.63 382.739 1498.98 386.535C1499.13 387.542 1499.44 388.503 1499.76 389.502C1500.31 391.11 1501.04 392.643 1501.75 394.243C1502.53 395.92 1503.27 397.558 1503.94 399.252C1504.53 400.765 1505.05 402.335 1505.25 403.959C1505.53 406.001 1505.46 408.126 1504.69 410.416C1505.58 412.245 1506.08 413.947 1506.25 415.533C1506.51 417.945 1506.01 420.038 1504.77 421.783C1503.51 423.49 1501.52 424.849 1498.75 425.718C1496.87 426.282 1495.19 426.467 1493.69 426.274C1492.19 426.082 1490.89 425.511 1489.73 424.657C1489.15 424.197 1488.61 423.709 1488.08 423.154C1486.57 421.434 1485.41 419.157 1484.51 416.445C1482.4 410.023 1482.13 403.712 1482.96 397.466C1483.48 393.713 1484.29 389.972 1485.63 386.312C1485.35 386.404 1485.12 386.573 1484.86 386.704C1467.79 393.982 1458.32 410.48 1443.93 420.978C1441.42 426.394 1444.41 433.354 1439.26 437.999C1444.27 444.587 1442.46 452.617 1443.21 459.815C1443.41 461.743 1443.52 463.793 1443.4 465.775C1443.28 467.757 1442.86 469.727 1442.14 471.448C1440.99 474.019 1439 476.024 1435.64 476.803L1436.11 476.569Z" fill="#FFFDEB" style="mix-blend-mode:multiply"/>
<path d="M468.331 770.098C469.235 769.851 470.197 769.495 471.235 768.915C474.476 767.116 476.143 765.098 476.732 762.942C477.677 759.343 475.506 755.35 472.124 751.554C471.989 750.702 471.765 749.914 471.452 749.191C470.545 747.066 468.861 745.604 466.406 744.766C466.406 744.766 466.406 744.766 466.368 744.759C466.368 744.759 466.375 744.721 466.381 744.682C465.588 742.813 463.911 741.313 462.698 739.612C461.485 737.911 460.737 736.009 461.798 733.378C462.423 733.401 463.034 733.502 463.633 733.679C464.844 733.957 466.062 734.434 467.286 734.872C467.879 735.088 468.51 735.311 469.109 735.488C469.708 735.666 470.307 735.843 470.957 735.95C472.181 736.151 473.424 736.237 474.736 735.899C475.392 735.73 476.022 735.478 476.716 735.078C480.775 735.231 484.558 738.501 488.824 736.435C489.034 736.351 489.2 736.3 489.416 736.177C503.271 738.137 509.585 748.462 515.799 759.402C518.206 763.631 520.51 766.341 522.862 767.558C526.764 769.622 530.833 767.564 535.79 761.778C536.467 758.372 536.209 755.642 535.358 753.408C534.029 750.028 531.305 747.723 528.27 745.644C527.243 744.961 526.216 744.279 525.145 743.629C523.047 742.296 520.994 740.931 519.259 739.302C518.404 738.529 517.581 737.801 516.726 737.029C518.892 736.278 521.019 735.521 523.178 734.809C525.892 734.78 528.574 734.707 531.269 734.557C536.659 734.257 541.985 733.631 547.304 732.568C549.942 732.053 552.559 731.416 555.203 730.626C557.554 730.656 559.67 731.162 561.621 731.957C564.566 733.152 567.123 735.035 569.668 736.994C571.339 738.296 573.004 739.637 574.726 740.868C575.606 741.487 576.454 742.061 577.391 742.571C577.526 743.66 577.814 744.537 578.28 745.285C579.168 746.814 580.647 747.848 582.133 748.843C582.873 749.36 583.657 749.844 584.384 750.438C589.289 754.287 594.164 754.495 597.88 750.996C598.396 750.488 598.924 749.903 599.42 749.273C600.482 747.827 601.232 746.369 601.613 745.009C602.348 742.206 601.676 739.606 599.558 737.44C598.48 736.353 597.064 735.41 595.234 734.595C592.715 732.719 590.228 730.888 587.116 728.558C586.063 727.793 584.979 726.982 583.793 726.076C590.722 723.816 597.2 721.679 603.467 719.626C609.734 717.574 615.791 715.605 621.848 713.636C624.014 714.071 625.972 715.065 627.872 716.167C631.034 717.951 634.064 720.07 637.639 720.776C638.48 720.914 639.322 721.052 640.194 720.998C640.903 721.707 641.617 722.378 642.344 722.971C645.973 725.978 649.887 727.491 654.174 726.496C655.888 726.106 657.665 725.331 659.523 724.055C660.93 722.903 662.273 721.662 663.284 720.287C664.811 718.166 665.439 715.78 664.174 713.201C664.052 712.983 664.014 712.74 663.854 712.516C662.36 710.136 660.522 707.937 658.176 706.683C657.602 706.351 656.978 706.09 656.34 705.907C655.703 705.723 655.021 705.571 654.32 705.535C654.167 705.51 654.001 705.562 653.848 705.537C652.555 705.522 651.192 705.693 649.689 706.236C647.075 705.175 644.481 704.709 641.843 704.75C640.543 704.773 639.218 704.951 637.957 705.218C636.658 705.478 635.371 705.899 634.072 706.397C632.211 706.25 630.975 705.888 630.267 705.416C629.176 704.644 629.124 703.529 629.53 702.252C629.936 700.975 630.795 699.575 631.449 698.22C635.546 693.361 638.585 688.249 639.566 682.521C640.129 679.096 639.939 675.469 638.775 671.563C638.238 670.526 637.708 669.451 637.171 668.415C636.883 667.3 636.474 666.205 635.995 665.297C634.526 662.526 632.147 660.989 628.582 662.854C625.538 664.408 624.171 666.753 623.697 669.401C623.222 672.05 623.64 675.004 624.217 677.944C623.949 682.208 623.68 686.471 623.411 690.735C624.236 697.905 620.248 703.533 617.599 709.618C614.383 711.026 611.18 712.357 607.875 713.593C600.391 716.355 592.41 718.56 583.671 720.365C580.868 720.932 578.059 721.537 575.033 722.028C579.225 716.354 582.52 712.312 585.281 708.418C586.196 707.146 587.036 705.861 587.837 704.57C589.554 701.77 589.933 698.986 589.483 696.225C589.034 693.464 587.826 690.776 586.376 688.127C586.038 687.558 585.699 686.988 585.265 686.522C584.442 685.557 583.46 684.842 582.287 684.57C581.714 684.476 581.051 684.446 580.401 684.576C574.172 685.924 574.421 691.814 572.892 696.344C571.044 701.85 569.605 707.502 567.981 713.084C567.321 715.426 566.451 717.615 565.345 719.567C564.201 721.513 562.788 723.178 560.885 724.485C559.643 725.348 558.192 726.058 556.504 726.532C545.636 728.619 534.763 730.745 523.895 732.832C522.423 732.234 520.912 731.63 519.433 731.071C523.41 727.18 528.083 723.838 531.359 719.436C533.286 716.789 534.728 713.746 535.157 709.943C535.41 708.641 535.657 707.378 535.7 706.16C535.912 702.48 534.85 699.381 529.994 698.346C527.075 697.708 525.075 698.407 523.739 699.847C523.071 700.567 522.562 701.511 522.156 702.551C521.749 703.591 521.47 704.809 521.268 706.041C520.492 706.704 519.823 707.424 519.27 708.163C517.273 710.759 516.136 713.852 515.006 716.907C514.18 719.064 513.361 721.182 512.172 723.16C511.581 724.13 510.951 725.093 510.143 725.949C509.5 726.752 508.794 727.466 508.1 728.103C506.356 729.634 504.453 730.704 502.434 731.519C498.613 733.025 494.37 733.513 490.05 733.752C486.047 731.829 481.879 731.145 477.56 732.569C477.407 732.307 477.241 732.121 477.037 731.93C476.457 731.4 475.705 731.197 474.889 731.142C474.812 731.13 474.698 731.111 474.621 731.098C473.143 731.013 471.436 731.365 469.976 731.165C469.9 731.152 469.823 731.14 469.747 731.127C468.179 730.87 466.961 729.919 466.734 726.996C467.651 726.436 468.574 725.836 469.453 725.27C472.808 722.778 476.806 720.668 479.555 717.8C482.31 714.894 483.854 711.235 482.286 705.484C482.694 701.086 481.354 699.206 479.474 698.699C477.555 698.186 475.046 699.118 472.964 700.317C469.959 702.115 467.516 705.033 465.251 708.06C464.494 709.082 463.782 710.071 463.102 711.105C461.111 713.9 459.05 716.644 456.804 719.081C454.608 721.447 452.19 723.5 449.408 725.137C447.408 726.311 445.25 727.26 442.823 727.928C431.418 723.248 418.464 722.977 407.466 717.021C405.878 716.167 404.348 715.204 402.881 714.094C403.86 712.911 405.14 712.291 406.446 711.755C407.745 711.257 409.146 710.855 410.318 710.178C411.095 709.752 411.833 709.321 412.578 708.85C414.068 707.909 415.487 706.918 416.767 705.824C418.052 704.691 419.198 703.457 420.133 702.069C421.538 699.968 422.452 697.51 422.627 694.536C422.77 691.753 422.129 688.723 418.668 687.562C414.869 686.305 412.047 687.225 409.603 688.957C407.158 690.69 405.141 693.164 402.939 695.094C400.973 696.787 398.968 698.473 396.988 700.005C395.645 701.009 394.308 701.975 392.946 702.858C390.221 704.623 387.406 705.979 384.445 706.796C382.967 707.186 381.432 707.447 379.89 707.51C379.1 707.538 378.316 707.528 377.5 707.473C375.907 707.369 374.231 707.054 372.517 706.496C370.796 705.976 369.036 705.213 367.2 704.2C361.455 701.161 355.717 698.084 347.339 693.625C351.499 693.163 354.996 692.433 358.034 691.391C363.103 689.695 366.93 687.202 370.373 683.934C371.582 682.789 372.555 681.645 373.235 680.373C374.36 678.306 374.549 675.965 373.035 672.99C372.351 671.652 371.637 670.745 370.865 670.183C368.556 668.46 365.811 669.629 362.71 670.582C358.283 671.949 354.641 674.038 350.981 676.954C343.871 682.701 337.42 684.921 330.569 683.835C326.477 683.163 322.225 681.318 317.583 678.263C316.907 677.836 316.237 677.37 315.568 676.905C314.012 675.859 312.424 674.768 310.804 673.632C307.105 671.048 303.24 668.279 298.84 665.185C305.847 664.123 311.199 663.817 316.25 662.474C317.855 662.026 319.295 661.393 320.491 660.562C321.688 659.731 322.675 658.747 323.412 657.604C324.519 655.889 325.051 653.842 324.946 651.612C324.914 650.856 324.766 650.081 324.58 649.299C323.703 645.796 321.821 644.104 319.47 643.599C317.111 643.132 314.322 643.859 311.692 645.285C304.427 649.11 297.548 651.299 291.075 651.5C288.94 651.584 286.85 651.399 284.792 651.021C279.687 650.064 274.899 647.657 270.465 643.569C267.805 641.116 265.278 638.093 262.852 634.454C262.667 634.147 262.393 633.904 262.08 633.655C261.449 633.196 260.639 632.865 259.836 632.496C259.434 632.311 259.071 632.133 258.714 631.916C258.752 631.685 258.528 631.372 257.999 631.008L257.923 630.996C254.764 627.276 251.567 623.549 248.408 619.829C247.981 619.324 247.521 618.775 247.094 618.27C247.221 617.737 247.379 617.25 247.57 616.807C248.148 615.439 249.077 614.327 250.829 613.943C252.748 614.931 254.762 615.341 256.763 615.59C260.038 615.97 263.338 615.722 266.587 615.308C269.155 614.979 271.231 614.055 272.822 612.736C273.369 612.272 273.84 611.797 274.247 611.231C275.093 610.145 275.691 608.9 276.039 607.495C276.388 606.09 276.514 604.609 276.346 603C276.094 600.232 275.085 598.485 273.637 597.497C272.19 596.508 270.278 596.194 268.258 596.297C266.914 596.352 265.461 596.588 264.079 596.875C263.27 597.018 262.519 597.29 261.735 597.517C260.175 597.932 258.608 598.386 257.035 598.879C256.251 599.106 255.5 599.377 254.716 599.604C247.052 600.361 239.894 598.275 232.711 596.107C231.965 595.866 231.213 595.663 230.467 595.422C218.74 577.885 209.184 559.322 200.928 540.023C192.671 520.725 185.752 500.697 179.297 480.233C177.249 482.9 176.786 485.234 176.948 487.356C177.045 488.439 177.276 489.425 177.621 490.43C177.935 491.391 178.286 492.357 178.606 493.279C180.563 499.054 182.565 504.798 184.649 510.515C188.818 521.949 193.324 533.241 198.34 544.301C200.845 549.85 203.445 555.296 206.204 560.729C208.497 565.176 210.517 569.855 212.791 574.418C213.526 575.922 214.337 577.438 215.116 578.91C216.751 581.866 218.513 584.764 220.625 587.442C222.699 590.115 225.079 592.601 227.86 594.796C227.829 594.989 227.956 595.168 228.224 595.449C229.22 597.272 230.255 599.102 231.251 600.926C231.191 613.957 226.721 626.106 223.506 638.501C222.225 643.428 222.951 647.617 226.267 650.138C227.383 650.994 228.773 651.617 230.507 652.06C232.202 652.497 233.54 652.48 234.661 652.11C236.859 651.404 238.054 649.388 238.911 647.039C239.343 645.845 239.704 644.6 240.104 643.362C240.606 641.745 241.024 640.154 241.366 638.55C241.708 636.947 241.897 635.318 242.003 633.715C242.178 630.503 241.766 627.274 240.494 624.022C240.62 623.252 240.74 622.521 240.829 621.745C240.603 620.009 240.378 618.273 240.159 616.498C241.632 616.858 243.098 617.257 244.564 617.656C244.538 617.81 244.628 617.983 244.832 618.175C246.577 622.374 249.181 625.884 252.574 628.655C253.716 629.593 254.946 630.467 256.228 631.271C256.441 633.084 257.169 634.626 258.177 635.899C258.662 636.532 259.23 637.139 259.849 637.675C260.468 638.211 261.137 638.677 261.807 639.143C268.522 643.447 273.721 648.372 277.315 653.982C279.69 657.691 281.384 661.724 282.326 666.028C282.794 668.2 283.058 670.417 283.15 672.724C283.242 675.031 283.162 677.429 282.872 679.91C282.582 682.392 282.089 684.919 281.417 687.575C280.795 689.923 280.881 692.506 280.986 694.974C281.11 697.326 281.629 699.426 282.574 701.083C283.519 702.74 284.884 703.992 286.695 704.685C287.912 705.162 289.289 705.388 290.914 705.299C295.023 705.144 297.289 703.066 298.521 700.107C299.283 698.336 299.631 696.219 299.839 694.001C299.989 692.129 299.853 690.328 299.564 688.502C299.05 685.177 297.988 681.841 296.951 678.114C295.991 674.636 295.082 670.851 294.706 666.442C295.657 667.349 296.646 668.263 297.692 669.067C305.824 675.738 315.501 679.7 323.04 685.443C329.634 690.479 334.504 696.93 335.231 707.799C334.116 712.437 334.185 717.033 334.803 721.64C335.021 723.177 335.285 724.683 335.586 726.195C335.862 727.623 336.265 728.993 336.808 730.229C337.351 731.464 338.028 732.603 338.858 733.529C339.394 734.092 339.987 734.545 340.663 734.972C342.129 735.845 343.939 736.301 346.182 736.037C347.743 735.859 348.965 735.348 349.875 734.589C350.824 733.836 351.492 732.879 351.987 731.774C352.483 730.67 352.8 729.458 353.009 728.188C353.217 726.918 353.381 725.68 353.501 724.475C354.037 720.018 353.159 715.803 350.86 712.106C350.081 710.872 349.175 709.695 348.097 708.609C348.067 704.968 343.75 702.56 345.223 698.138C352.426 700.903 359.489 703.565 366.584 706.272C367.687 706.967 368.873 707.636 370.021 708.299C373.547 710.262 377.181 712.044 380.332 714.38C382.43 715.95 384.299 717.719 385.742 719.932C387.185 722.145 388.246 724.77 388.689 728.044C388.952 728.838 389.093 729.651 389.228 730.503C389.434 731.881 389.48 733.272 389.558 734.707C389.624 736.22 389.696 737.694 389.844 739.18C389.98 740.507 390.192 741.846 390.652 743.107C391.215 744.701 392.064 746.224 393.487 747.604C393.527 749.27 393.803 750.699 394.269 751.921C394.985 753.778 396.14 755.114 397.696 755.923C399.258 756.693 401.221 756.937 403.565 756.531C405.145 756.238 406.444 755.74 407.463 755.038C408.481 754.336 409.219 753.429 409.747 752.37C409.995 751.818 410.204 751.26 410.382 750.657C410.838 748.835 410.829 746.739 410.463 744.426C409.596 738.948 407.424 734.244 404.468 730.004C402.687 727.459 400.69 725.036 398.336 722.871C398.578 722.832 398.808 722.869 399.043 722.869C414.225 721.767 427.324 730.242 441.758 732.496C445.623 735.502 446.058 741.699 451.552 743.155C450.375 749.838 454.708 755.016 456.863 760.547C457.444 762.025 458.134 763.561 458.964 764.962C459.794 766.363 460.841 767.642 462.015 768.625C463.82 770.068 466.019 770.785 468.764 770.09L468.331 770.098Z" fill="#FFFDEB" style="mix-blend-mode:multiply"/>
<path d="M1561.71 125.179C1561.49 128.218 1560.96 131.221 1560.59 134.257C1560.48 135.213 1560.41 136.186 1560.35 137.159C1560.3 137.934 1560.18 138.707 1560.18 139.499C1560.17 140.442 1560.29 141.403 1560.41 142.364C1560.46 143.02 1560.43 143.673 1560.55 144.33C1556.52 157.503 1554.9 171.304 1551.05 184.541C1549.79 188.944 1548.24 193.295 1546.32 197.518C1542.55 199.724 1538.76 201.899 1534.98 204.106C1529.21 204.628 1523.4 205.012 1517.63 205.717C1517.1 205.783 1516.55 205.893 1516.03 205.989C1514.97 206.227 1513.99 206.542 1513.11 206.996C1510.93 208.108 1509.55 210.043 1510.06 213.264C1510.25 214.379 1510.54 215.45 1510.94 216.463C1511.55 217.982 1512.47 219.279 1513.73 220.187C1514.13 220.484 1514.63 220.738 1515.14 220.946C1516.17 221.362 1517.35 221.554 1518.77 221.445C1521.25 221.283 1523.66 220.327 1526.13 219.722C1526.45 219.607 1526.74 219.431 1527.05 219.285C1527.39 219.124 1527.71 219.009 1528.03 218.818C1529.81 219.706 1531.25 219.324 1532.62 218.56C1533.42 218.105 1534.19 217.512 1534.98 216.949C1534.98 216.949 1535.27 217.001 1535.42 217.004C1536.21 217.081 1536.89 217.323 1537.43 217.745C1538.09 218.26 1538.58 218.97 1539.03 219.771C1537.8 222.089 1536.55 224.453 1535.31 226.772C1531.75 233.472 1528.19 240.171 1524.59 246.886C1523.32 249.036 1521.89 250.955 1520.31 252.612C1517.94 255.09 1515.21 257.029 1512.15 258.367C1512.06 258.411 1511.97 258.454 1511.84 258.513C1508.86 259.776 1505.53 260.531 1501.87 260.685L1501.88 260.533C1499.88 260.051 1497.85 259.584 1495.86 259.133C1492.23 258.374 1489.24 257.948 1486.91 257.886C1484.55 257.838 1482.84 258.123 1481.68 258.861C1479.35 260.305 1479.24 263.407 1480.83 268.492C1481.87 270.674 1483.17 272.237 1484.67 273.257C1485.17 273.586 1485.71 273.856 1486.27 274.08C1487.92 274.692 1489.79 274.745 1491.87 274.285C1492.54 274.116 1493.26 273.887 1494.03 273.598C1494.8 273.872 1495.48 273.962 1496.14 273.915C1496.35 273.889 1496.53 273.877 1496.75 273.851C1497.41 273.727 1498.02 273.512 1498.62 273.189C1498.62 273.189 1498.65 273.174 1498.68 273.16C1500.03 272.441 1501.32 271.417 1502.7 270.837C1503.44 272.069 1504.2 273.287 1504.92 274.488C1504.72 274.621 1504.54 274.785 1504.35 274.949C1503.16 275.853 1502.18 276.883 1502.28 278.605C1494.65 282.452 1491.68 291.432 1484.02 295.294C1482.88 295.575 1481.73 295.856 1480.58 296.137C1479.43 296.419 1478.29 296.7 1477.14 296.981C1476.51 297.242 1475.9 297.534 1475.3 297.857C1467.86 295.85 1460.42 293.812 1452.95 291.819C1448.85 290.717 1445.71 291.566 1444.25 296.102C1443.94 297.115 1443.75 298.07 1443.69 298.967C1443.56 301.627 1444.75 303.736 1447.71 305.379C1452.21 307.874 1456.7 309.396 1461.3 309.169C1464.06 309.027 1466.86 308.262 1469.72 306.753C1470.43 307.848 1470.73 308.873 1470.58 309.814C1470.54 309.98 1470.43 310.145 1470.35 310.296C1470.26 310.568 1470.17 310.871 1469.97 311.156C1469.64 311.575 1469.22 311.962 1468.64 312.316C1465.69 314.128 1462.97 316.325 1460.27 318.507C1458.97 319.577 1457.64 320.661 1456.34 321.73C1456.28 321.759 1456.22 321.788 1456.2 321.834C1454.95 322.843 1453.7 323.853 1452.38 324.815C1449.49 326.979 1446.42 328.925 1443 330.362C1442.03 330.145 1441.06 329.927 1440.09 329.71C1432.6 326.713 1425.15 323.625 1417.61 320.687C1415.95 320.045 1414.27 319.524 1412.66 319.385C1411.6 319.287 1410.56 319.403 1409.64 319.765C1409.61 319.779 1409.58 319.794 1409.52 319.823C1408.16 320.389 1407.04 321.523 1406.3 323.532C1406.09 324.122 1405.91 324.696 1405.84 325.258C1405.37 328.079 1406.45 330.581 1408.62 332.375C1409.49 333.093 1410.51 333.737 1411.67 334.202C1412.33 334.489 1413.03 334.762 1413.69 335.05C1414.36 335.337 1415.05 335.61 1415.72 335.897C1417.06 336.426 1418.45 336.896 1419.86 337.244C1422.66 337.909 1425.53 338.013 1428.62 336.889C1429.34 338.09 1430.11 339.308 1430.83 340.51C1426.52 343.268 1422.24 345.982 1417.93 348.74C1413.48 351.42 1409.07 354.115 1404.62 356.795C1403.15 357.754 1401.75 358.532 1400.37 359.113C1399.97 359.303 1399.57 359.341 1399.16 359.5C1395.48 360.795 1392.03 360.923 1388.75 360.034C1383.91 358.719 1379.44 355.418 1375.09 351.342C1370.47 348.981 1365.9 341.508 1360.95 344.086C1359.79 344.672 1358.64 345.82 1357.45 347.668C1356.81 348.69 1356.36 349.654 1356.11 350.563C1355.92 351.259 1355.89 351.912 1355.89 352.552C1355.91 352.841 1355.92 353.1 1355.95 353.39C1356.05 354.092 1356.3 354.766 1356.59 355.381C1356.94 356.119 1357.48 356.769 1358.04 357.404C1360.38 359.947 1364.16 361.956 1367.27 363.83C1369.68 364.944 1372.13 366.044 1374.55 367.189C1374.42 367.703 1374.26 368.157 1374.07 368.548C1373.7 369.363 1373.23 370.038 1372.7 370.59C1372.42 370.874 1372.15 371.081 1371.84 371.303C1371.53 371.525 1371.2 371.717 1370.87 371.877C1369.51 372.519 1368 372.899 1366.42 373.233C1363.72 373.802 1360.98 374.386 1359.34 376.635C1354.78 377.593 1350.24 378.581 1345.65 379.554C1341.45 376.882 1337.25 374.24 1333.05 371.568C1331.86 369.459 1330.43 367.574 1328.86 365.761C1327.33 363.965 1325.64 362.242 1323.96 360.518C1323.29 359.82 1322.62 359.198 1321.93 358.697C1320.56 357.649 1319.14 357.042 1317.64 357.042C1316.89 357.058 1316.1 357.209 1315.28 357.558C1312.53 358.75 1310.71 360.783 1310.88 363.525C1310.94 364.44 1311.22 365.435 1311.73 366.51C1314.81 373.71 1320.47 377.918 1327.66 380.376C1327.64 381.213 1327.51 381.88 1327.3 382.469C1325.97 386.49 1321.27 384.843 1318.23 385.984C1311.98 386.542 1305.62 386.322 1299.49 387.765C1298.57 387.975 1297.62 388.123 1296.72 388.439C1293.46 386.182 1290.19 383.894 1286.93 381.637C1284.24 377.154 1281.59 372.687 1278.85 368.264C1277.92 366.784 1277.06 365.275 1276.11 363.841C1275.2 362.468 1274.22 361.048 1273.09 359.93C1272.71 359.542 1272.29 359.214 1271.86 358.931C1270.15 357.785 1268.13 357.425 1265.5 358.711C1263.66 359.587 1262.85 360.833 1262.57 362.212C1262.08 364.516 1263.06 367.214 1263.16 369.575C1263.19 369.864 1263.26 370.094 1263.28 370.384C1263.44 371.741 1263.75 372.95 1264.26 374.025C1264.37 374.271 1264.55 374.488 1264.7 374.719C1264.91 375.073 1265.13 375.458 1265.36 375.798C1265.48 375.967 1265.66 376.108 1265.78 376.278C1266.11 376.65 1266.39 377.005 1266.73 377.332C1266.91 377.473 1267.11 377.644 1267.29 377.784C1267.65 378.066 1267.99 378.392 1268.35 378.673C1268.53 378.814 1268.77 378.925 1268.96 379.097C1269.35 379.363 1269.74 379.63 1270.12 379.866C1270.45 380.086 1270.83 380.245 1271.19 380.451C1271.49 380.609 1271.76 380.782 1272.06 380.94C1272.36 381.098 1272.65 381.226 1272.92 381.399C1273.28 381.604 1273.66 381.764 1274.02 381.969C1274.68 382.971 1276.11 383.989 1277.15 385C1278.35 386.165 1279.04 387.305 1277.33 388.382C1276.6 388.839 1275.45 389.272 1273.68 389.662C1265.29 389.614 1256.92 389.597 1248.64 388.105C1247 387.828 1245.36 387.552 1243.77 387.139C1243.1 386.745 1242.38 386.335 1241.67 385.955C1240.49 385.307 1239.33 384.69 1238.24 383.968C1237.59 383.56 1236.98 383.136 1236.41 382.653C1236.41 382.653 1236.39 382.622 1236.35 382.606C1236.02 382.31 1235.72 382 1235.42 381.689C1235.33 381.581 1235.21 381.487 1235.13 381.379C1234.87 381.085 1234.64 380.745 1234.4 380.406C1234.33 380.252 1234.19 380.128 1234.07 379.958C1233.79 379.526 1233.56 379.034 1233.37 378.483C1233.33 378.39 1233.3 378.329 1233.26 378.237C1231.13 370.813 1229 363.389 1226.85 356.011C1226.24 354.72 1225.52 353.442 1224.67 352.451C1223.24 350.794 1221.39 349.904 1218.67 351.234C1217.28 351.891 1216.05 352.779 1215.17 353.796C1214.89 354.156 1214.61 354.515 1214.42 354.907C1214.01 355.705 1213.79 356.599 1213.8 357.573C1213.81 358.547 1214.14 359.634 1214.74 360.818C1215.11 370.808 1220.37 377.428 1227.81 382.479C1228.97 383.248 1230.17 384.033 1231.4 384.728C1231.37 384.818 1231.29 384.893 1231.26 384.984C1231.09 385.33 1230.91 385.677 1230.71 385.962C1230.71 385.962 1230.65 385.991 1230.66 386.021C1228.5 389.158 1225.01 389.042 1221.62 389.186C1219.67 389.284 1217.73 389.488 1216.14 390.506C1216.05 390.55 1215.99 390.579 1215.89 390.623C1215.72 390.741 1215.54 390.905 1215.38 391.054C1215.24 391.157 1215.14 391.246 1215.01 391.381C1213.2 391.222 1211.59 391.388 1210.22 391.847C1209.53 392.061 1208.89 392.368 1208.32 392.752C1207.14 393.459 1206.17 394.413 1205.38 395.538C1204.18 397.203 1203.4 399.226 1202.93 401.332C1202.6 402.847 1202.76 404.053 1203.25 405.021C1203.49 405.513 1203.83 405.916 1204.23 406.289C1206.19 408.185 1209.69 408.971 1211.99 410.327C1214.27 411.651 1215.91 411.517 1217.26 410.723C1217.91 410.34 1218.48 409.804 1219.03 409.206C1220.2 407.936 1221.25 406.421 1222.47 405.274C1222.71 405.05 1222.94 404.827 1223.19 404.634C1224.39 403.988 1225.53 403.22 1226.61 402.405C1227.94 401.397 1229.24 400.328 1230.48 399.212C1231.24 398.512 1231.99 397.857 1232.75 397.157C1235.01 395.103 1237.32 393.141 1240.04 391.735C1240.95 391.267 1241.89 390.86 1242.9 390.53C1244.89 391.392 1246.92 391.936 1248.97 392.281C1249.98 392.439 1251.02 392.551 1252.03 392.633C1257.2 393.042 1262.45 392.509 1267.59 393.115C1267.79 393.134 1267.98 393.123 1268.17 393.142C1270.18 393.244 1272.41 392.939 1273.21 395.192C1273.26 395.284 1273.24 395.329 1273.26 395.436C1273.35 395.804 1273.39 396.124 1273.37 396.397C1273.21 398.205 1270.93 398.798 1269.62 399.837C1268.88 400.415 1268.18 401.01 1267.68 401.7C1267.15 402.404 1266.81 403.204 1266.74 404.176C1265.69 405.281 1265.07 406.364 1264.82 407.425C1264.77 407.637 1264.8 407.85 1264.75 408.062C1264.69 408.502 1264.68 408.959 1264.7 409.401C1264.86 411.397 1265.82 413.349 1266.59 415.358C1266.81 415.895 1266.98 416.416 1267.15 416.937C1268.11 417.535 1269.02 418.01 1269.88 418.392C1269.92 418.409 1269.97 418.425 1270.01 418.441C1271.29 418.999 1272.46 419.236 1273.57 419.274C1274.38 419.305 1275.13 419.214 1275.82 419C1276 418.912 1276.27 418.933 1276.46 418.845C1276.61 418.772 1276.74 418.638 1276.89 418.565C1277.91 418.007 1278.81 417.204 1279.53 416.031C1279.72 415.716 1279.88 415.338 1280.05 414.992C1280.27 414.586 1280.51 414.21 1280.69 413.711C1280.72 413.621 1280.75 413.53 1280.79 413.439C1281.09 412.654 1281.37 411.808 1281.63 410.854C1284.5 408.736 1286.36 405.974 1286.98 402.44C1289.91 398.787 1292.83 395.178 1295.77 391.525C1300.73 391.503 1305.6 390.811 1310.42 389.843C1313.41 389.249 1316.43 388.61 1319.44 387.895C1324.37 387.401 1329.25 386.891 1334.14 386.412C1334.63 386.559 1335.11 386.706 1335.59 386.853C1336.03 386.983 1336.49 387.145 1336.93 387.275C1336.77 387.348 1336.68 387.468 1336.54 387.572C1336.15 387.868 1335.73 388.179 1335.36 388.507C1327.1 394.99 1323.2 399.628 1322.79 404.718C1322.63 406.754 1323.03 408.862 1323.95 411.209C1324.4 412.39 1325 413.574 1325.7 414.897C1327.74 415.288 1329.44 415.383 1331.01 415.278C1331.6 415.26 1332.18 415.21 1332.73 415.1C1335.67 414.535 1337.79 412.813 1339.36 409.771C1339.85 408.822 1340.3 407.705 1340.72 406.45C1341.35 404.53 1341.87 402.365 1342.32 399.741C1345.79 391.99 1348.45 383.537 1356.56 379.683C1357.73 379.129 1358.99 378.683 1360.4 378.315C1366.17 377.61 1371.57 375.985 1376.63 373.394C1378.33 372.515 1379.99 371.575 1381.58 370.481C1382.81 369.745 1384.09 369.025 1385.32 368.289C1385.08 371.191 1383.94 373.618 1382.49 375.886C1380.04 379.687 1376.77 383.045 1375.54 387.509C1375.03 389.371 1374.72 391.175 1374.67 392.894C1374.61 395.784 1375.33 398.492 1377.36 401.029C1378.29 402.204 1379.47 402.776 1380.71 403.09C1381.88 403.403 1383.08 403.473 1384.27 403.284C1385.06 403.133 1385.86 402.905 1386.63 402.617C1391.31 400.885 1391.94 396.515 1392.57 391.887C1393.11 388.093 1393.03 384.211 1393.4 380.384C1393.72 376.54 1394.42 372.78 1396.52 369.262C1396.76 368.658 1396.99 368.099 1397.24 367.526C1397.5 366.953 1397.75 366.38 1398.02 365.838C1398.56 364.753 1399.18 363.746 1399.94 362.894C1401.47 361.19 1403.51 360.105 1406.7 360.322C1411.72 357.228 1416.74 354.164 1421.78 351.055C1424.45 350.318 1426.61 346.618 1429.56 348.717C1431.15 349.845 1430.85 351.421 1430.33 353.024C1430.03 353.992 1429.66 354.958 1429.57 355.869C1429.41 357.677 1429.1 359.482 1428.85 361.257C1428.57 363.047 1428.36 364.839 1428.36 366.65C1428.32 372.355 1431.53 375.008 1436.26 375.438C1436.93 375.497 1437.66 375.527 1438.36 375.496C1439.1 375.481 1439.74 375.402 1440.34 375.232C1443.85 374.359 1444.9 371.413 1445.03 367.961C1445.05 367.383 1445.05 366.82 1445.03 366.226C1444.81 359.328 1444.39 352.411 1444.06 345.526C1444.11 344.446 1444.19 343.352 1444.32 342.274C1444.75 339.057 1445.64 336.001 1447.22 333.065C1450.75 330.976 1453.7 328.144 1456.74 325.421C1459.78 322.697 1462.91 320.082 1466.82 318.488C1467.16 318.099 1467.55 317.803 1467.92 317.475C1468.14 317.297 1468.4 317.135 1468.63 316.987C1468.79 316.914 1468.94 316.765 1469.09 316.692C1470.08 316.073 1471.11 315.546 1472.07 314.866C1471.79 315.788 1471.56 316.727 1471.42 317.698C1471.41 317.85 1471.37 317.986 1471.36 318.138C1471.24 319.14 1471.18 320.144 1471.24 321.21C1471.8 322.302 1472.34 323.363 1472.89 324.454L1473.13 324.946C1471.95 326.672 1471.58 328.506 1471.57 330.317C1471.61 332.144 1472.07 333.919 1472.68 335.59C1474.25 339.928 1476 345.609 1482.08 344.682C1488.48 343.716 1489.55 338.351 1488.93 332.769C1488.35 327.659 1487.53 322.59 1484.91 318.032C1484.72 312.063 1484.52 306.094 1484.29 300.139C1486.01 298.606 1487.73 297.074 1489.41 295.525C1492.79 292.413 1496.11 289.254 1499.12 285.754C1500.63 284.019 1502.07 282.207 1503.39 280.301C1504 280.085 1504.53 279.761 1504.96 279.404C1506.32 278.306 1507.04 276.647 1507.91 275.142C1508.39 275.213 1508.83 275.268 1509.2 275.397C1511.72 276.193 1511.27 278.482 1510.62 280.782C1509.98 283.158 1509.95 285.471 1510.22 287.789C1510.48 290.077 1511.01 292.386 1511.37 294.737C1511.83 297.455 1512.6 299.692 1513.76 301.359C1514.55 302.456 1515.49 303.327 1516.62 303.883C1518.32 304.693 1520.43 304.858 1523.01 304.164C1528.06 302.821 1529.16 299.738 1528.76 296.2C1528.51 294.095 1527.78 291.843 1527.05 289.743C1525.7 285.79 1524.27 281.911 1522.8 278.016C1521.32 274.12 1519.85 270.225 1518.38 266.33C1518.35 265.477 1518.4 264.626 1518.55 263.838C1518.86 262.261 1519.45 260.813 1520.21 259.397C1520.94 257.997 1521.85 256.661 1522.72 255.309C1523.58 253.957 1524.4 252.589 1524.99 251.14C1525.3 250.431 1525.54 249.675 1525.72 248.872C1530.02 241.898 1534.5 234.988 1537.87 227.554C1538 227.267 1538.17 226.997 1538.3 226.71C1539.13 224.81 1539.79 222.799 1540.46 220.789C1540.68 220.078 1541 219.4 1541.22 218.658C1541.69 218.318 1542.17 218.054 1542.68 217.775C1543.26 218.441 1543.72 219.166 1544.08 219.934C1546.61 225.25 1544.48 232.208 1549.51 236.601C1551.26 240.212 1553.58 243.592 1556.65 244.583C1558.48 245.183 1560.6 244.891 1563.04 243.281C1565.19 241.849 1566.1 240.133 1566.28 238.279C1566.45 236.426 1565.84 234.421 1564.88 232.468C1564.25 231.147 1563.45 229.868 1562.64 228.634C1559.42 223.684 1556.39 218.646 1553.27 213.652C1551.94 210.141 1550.64 206.614 1549.31 203.102C1549.11 202.444 1548.88 201.8 1548.62 201.171C1552.33 191.841 1555.3 182.299 1557.61 172.652C1559.91 162.974 1561.57 153.147 1562.68 143.171C1563.51 137.466 1564.35 131.792 1565.16 126.101C1565.34 124.431 1565.5 122.775 1565.69 121.105C1566.97 109.459 1568.08 97.8248 1566.63 86.1994C1565.67 86.1648 1564.68 86.1447 1563.73 86.1101C1563.35 92.6157 1562.99 99.1521 1562.61 105.658C1562.23 112.163 1561.87 118.7 1561.49 125.205L1561.71 125.179Z" fill="#EAE7D0"/>
</svg>
