<svg width="2000" height="224" viewBox="0 0 2000 224" fill="none" xmlns="http://www.w3.org/2000/svg">
<mask id="mask0_3243_517378" style="mask-type:alpha" maskUnits="userSpaceOnUse" x="0" y="0" width="2000" height="224">
<rect width="2000" height="224" fill="#D9D9D9"/>
</mask>
<g mask="url(#mask0_3243_517378)">
<path d="M0 -879.842C0 -879.842 286.719 -843.488 541.406 -879.842C796.094 -916.197 769.42 -879.843 951.562 -879.842C1133.71 -879.842 1178.12 -896.726 1417.97 -879.842C1520.73 -872.608 1540.62 -840.338 1747.66 -872.753C1954.69 -905.169 2000 -879.842 2000 -879.842V217.681C2000 217.681 1798.44 239.257 1591.41 202.672C1384.38 166.088 1200.78 202.672 904.688 184.849C785.349 177.666 608.594 220.495 357.031 204.548C105.469 188.602 0 217.681 0 217.681V-879.842Z" fill="#F3FFDF"/>
</g>
</svg>
