<svg width="2000" height="1562" viewBox="0 0 2000 1562" fill="none" xmlns="http://www.w3.org/2000/svg">
<path d="M3288.54 1096.13C3260.01 968.89 3139.98 894.717 3001.13 869.319C2497.88 777.325 1988.49 723.034 1477.06 706.623C1463.77 695.101 1449.64 684.613 1434.87 674.993C1312.48 595.991 1158.3 579.954 1014.95 609.769C880.299 637.768 746.706 670.664 613.281 703.76C439.161 694.641 265.124 690.888 91.367 696.583C39.3614 622.514 -50.2701 568.212 -154.116 559.027C-325.471 543.871 -482.013 655.478 -494.697 803.087C-524.306 1148.37 -88.6556 1262.84 268.383 1263.56C331.168 1304.03 410.583 1322.51 498.313 1301.63C561.182 1286.5 624.22 1271.57 687.089 1256.44C742.473 1260.78 797.288 1265.26 850.795 1269.81C1118.36 1292.18 1385.95 1314.37 1653.6 1337.85C1895.62 1359.08 2130.1 1400.32 2369.1 1438.83C2622.78 1479.56 2879.62 1480.29 3116.02 1390.52C3242.98 1342.26 3315.1 1214.13 3288.54 1096.13Z" fill="#FFFFD9"/>
<path opacity="0.7" d="M2385.21 507.684C2474.58 427.095 2433.92 323.71 2318.83 292.697C2313.92 286.497 2308.57 280.223 2302.15 274.393C2218.11 196.438 2025.57 177.738 1874.56 225.158C1848.14 233.416 1823.4 243.404 1800.57 254.662C1697.02 209.992 1580.4 178.22 1448.82 168.555C1292.43 157.127 1139.77 194.595 988.83 236.902C866.474 271.19 750.094 294.368 618.979 315.812C561.386 325.256 503.537 334.88 445.713 342.799C418.495 328.929 338.215 320.696 314.422 320.053C175.293 315.786 9.94368 382.813 -120.974 420.525C-260.601 460.692 -424.154 493.717 -529.482 571.057C-589.854 615.502 -637.088 669.859 -681.687 723.816C-752.469 768.848 -795.656 830.244 -774.572 886.003C-762.212 918.85 -739.668 947.743 -704.658 968.085C-732.29 1027.26 -733.893 1084.05 -658.557 1127.05C-564.74 1180.56 -414.246 1168.08 -305.313 1108.9C-292.338 1101.84 -279.544 1094.51 -266.75 1087.18C-201.698 1094.18 -126.259 1083.59 -58.2127 1050.45C5.46665 1019.4 67.8684 987.398 128.875 954.62C204.019 960.797 287.161 948.612 363.832 931.174C368.762 930.001 373.553 928.849 378.483 927.676C442.295 973.27 550.579 978.105 648.625 950.055C816.992 901.986 979.02 841.131 1130.4 770.838C1215.86 782.394 1313.23 765.784 1406.05 743.487C1415.32 757.813 1427.99 771.197 1445.09 782.917C1550.5 855.79 1699.66 838.269 1827.53 785.146C1865.47 778.967 1901.56 767.116 1930.19 749.168C1940.95 742.435 1951.13 735.647 1961.17 728.881C1977.57 725.685 1993.88 721.935 2009.91 717.236C2097.27 691.658 2171.2 644.022 2234.79 595.546C2235.96 594.802 2237.12 594.059 2238.15 593.336C2296.26 570.492 2347.76 541.424 2385.19 507.545L2385.21 507.684Z" fill="#EDFFE1"/>
</svg>
