<svg width="180" height="180" viewBox="0 0 180 180" fill="none" xmlns="http://www.w3.org/2000/svg">
<path d="M74.0423 179.581C49.5742 178.711 39.0208 170.076 23.3789 143.004C14.4261 127.509 0.220082 108.316 0.010531 94.0822C-0.627534 51.2278 27.8336 36.5044 56.987 12.9811C59.6354 10.9011 63.5202 10.5528 66.2959 8.55714C73.8662 3.16435 89.5749 2.31238 97.4457 0.295523C114.209 -1.42202 142.645 3.88811 158.384 28.4081C166.023 40.4063 170.798 55.4862 176.676 69.6046C180.729 93.5738 183.042 114.331 171.642 139.206C170.892 140.901 169.844 142.215 168.821 143.437C162.165 150.274 157.201 159.503 145.756 166.618C122.864 180.85 100.133 180.54 74.0765 179.64L74.0423 179.581Z" fill="#FFFEF6"/>
</svg>
