<svg width="800" height="72" viewBox="0 0 800 72" fill="none" xmlns="http://www.w3.org/2000/svg">
<mask id="mask0_3243_517374" style="mask-type:alpha" maskUnits="userSpaceOnUse" x="0" y="0" width="800" height="72">
<rect width="800" height="72" fill="#D9D9D9"/>
</mask>
<g mask="url(#mask0_3243_517374)">
<path d="M0 -992.344C0 -992.344 114.688 -972.868 216.562 -992.344C318.438 -1011.82 307.768 -992.344 380.625 -992.344C453.482 -992.344 471.25 -1001.39 567.188 -992.344C608.293 -988.469 616.25 -971.181 699.062 -988.546C781.875 -1005.91 800 -992.344 800 -992.344V-404.385C800 -404.385 719.375 -392.827 636.562 -412.426C553.75 -432.024 480.312 -412.426 361.875 -421.974C314.14 -425.822 243.438 -402.878 142.812 -411.421C42.1875 -419.964 0 -404.385 0 -404.385V-992.344Z" fill="#F3FFDF"/>
<path d="M0 -519.344C0 -519.344 114.688 -499.868 216.562 -519.344C318.438 -538.82 307.768 -519.344 380.625 -519.344C453.482 -519.344 471.25 -528.389 567.188 -519.344C608.293 -515.469 616.25 -498.181 699.062 -515.546C781.875 -532.912 800 -519.344 800 -519.344V68.6149C800 68.6149 719.375 80.1731 636.562 60.5745C553.75 40.9758 480.312 60.5744 361.875 51.0264C314.14 47.1781 243.438 70.1225 142.812 61.5795C42.1875 53.0365 0 68.6149 0 68.6149V-519.344Z" fill="#F3FFDF"/>
</g>
</svg>
