<svg width="180" height="180" viewBox="0 0 180 180" fill="none" xmlns="http://www.w3.org/2000/svg">
<path d="M76.9279 0.13181C104.136 -0.793435 128.667 2.95902 150.959 17.5573C171.985 31.3332 184.397 63.8709 178.556 90.0862C176.025 101.498 182.499 112.189 175.538 125.348C154.463 165.134 119.078 173.718 81.6005 179.886C78.2908 180.452 74.6403 178.704 71.2333 179.064C32.6847 182.971 3.82192 157.218 2.06972 116.456C1.3883 101.292 -1.28867 86.8479 0.755576 70.7075C4.79539 38.5295 22.5608 19.7677 45.0962 2.95904C55.6094 -4.85414 67.7289 6.0431 76.8793 0.13181L76.9279 0.13181Z" fill="#FFFEF6"/>
</svg>
