<svg width="2000" height="119" viewBox="0 0 2000 119" fill="none" xmlns="http://www.w3.org/2000/svg">
<mask id="mask0_3243_517376" style="mask-type:alpha" maskUnits="userSpaceOnUse" x="0" y="0" width="2000" height="119">
<rect width="2000" height="119" fill="#D9D9D9"/>
</mask>
<g mask="url(#mask0_3243_517376)">
<path d="M0 16.1577C0 16.1577 286.719 52.5123 541.406 16.1577C796.094 -20.197 769.42 16.1574 951.562 16.1577C1133.71 16.158 1178.12 -0.726076 1417.97 16.1577C1520.73 23.3916 1540.62 55.6623 1747.66 23.2468C1954.69 -9.16857 2000 16.1577 2000 16.1577V1113.68C2000 1113.68 1798.44 1135.26 1591.41 1098.67C1384.38 1062.09 1200.78 1098.67 904.688 1080.85C785.349 1073.67 608.594 1116.5 357.031 1100.55C105.469 1084.6 0 1113.68 0 1113.68V16.1577Z" fill="#F3FFDF"/>
</g>
</svg>
