<svg width="800" height="72" viewBox="0 0 800 72" fill="none" xmlns="http://www.w3.org/2000/svg">
<mask id="mask0_3243_517372" style="mask-type:alpha" maskUnits="userSpaceOnUse" x="0" y="0" width="800" height="72">
<rect width="800" height="72" fill="#D9D9D9"/>
</mask>
<g mask="url(#mask0_3243_517372)">
<path d="M0 8.6559C0 8.6559 114.688 28.1316 216.562 8.6559C318.438 -10.8198 307.768 8.65574 380.625 8.6559C453.482 8.65605 471.25 -0.38897 567.188 8.6559C608.293 12.5312 616.25 29.8191 699.062 12.4537C781.875 -4.91173 800 8.6559 800 8.6559V596.615C800 596.615 719.375 608.173 636.562 588.574C553.75 568.976 480.312 588.574 361.875 579.026C314.14 575.178 243.438 598.122 142.812 589.579C42.1875 581.036 0 596.615 0 596.615V8.6559Z" fill="#F3FFDF"/>
<path d="M0 481.656C0 481.656 114.688 501.132 216.562 481.656C318.438 462.18 307.768 481.656 380.625 481.656C453.482 481.656 471.25 472.611 567.188 481.656C608.293 485.531 616.25 502.819 699.062 485.454C781.875 468.088 800 481.656 800 481.656V1069.61C800 1069.61 719.375 1081.17 636.562 1061.57C553.75 1041.98 480.312 1061.57 361.875 1052.03C314.14 1048.18 243.438 1071.12 142.812 1062.58C42.1875 1054.04 0 1069.61 0 1069.61V481.656Z" fill="#F3FFDF"/>
</g>
</svg>
