<svg width="800" height="1280" viewBox="0 0 800 1280" fill="none" xmlns="http://www.w3.org/2000/svg">
<path d="M2074.9 898.278C2051.52 794.008 1953.15 733.223 1839.36 712.409C1426.94 637.019 1009.5 592.528 590.382 579.079C579.487 569.636 567.908 561.042 555.809 553.158C455.505 488.416 329.159 475.273 211.675 499.707C101.332 522.652 -8.14822 549.611 -117.49 576.733C-260.182 569.26 -402.806 566.185 -545.2 570.851C-587.819 510.151 -661.272 465.651 -746.374 458.124C-886.801 445.704 -1015.09 537.165 -1025.48 658.132C-1049.75 941.092 -692.729 1034.9 -400.135 1035.49C-348.683 1068.66 -283.602 1083.8 -211.707 1066.69C-160.185 1054.29 -108.526 1042.05 -57.0039 1029.65C-11.6165 1033.21 33.304 1036.88 77.1533 1040.61C296.426 1058.94 515.712 1077.13 735.056 1096.38C933.389 1113.77 1125.55 1147.57 1321.41 1179.12C1529.3 1212.5 1739.78 1213.1 1933.51 1139.54C2037.56 1099.99 2096.66 994.986 2074.9 898.278Z" fill="#FFFFD9"/>
<path opacity="0.7" d="M1334.61 416.048C1407.85 350.006 1374.53 265.281 1280.21 239.865C1276.19 234.785 1271.8 229.643 1266.54 224.866C1197.67 160.981 1039.88 145.656 916.128 184.518C894.48 191.285 874.21 199.47 855.493 208.696C770.64 172.089 675.065 146.051 567.238 138.131C439.075 128.766 313.967 159.471 190.274 194.142C90.0021 222.241 -5.37152 241.235 -112.821 258.809C-160.018 266.548 -207.426 274.435 -254.813 280.925C-277.118 269.558 -342.908 262.811 -362.406 262.284C-476.423 258.787 -611.927 313.716 -719.215 344.622C-833.639 377.539 -967.672 404.603 -1053.99 467.983C-1103.46 504.406 -1142.17 548.951 -1178.72 593.169C-1236.73 630.073 -1272.12 680.387 -1254.84 726.081C-1244.71 753 -1226.24 776.678 -1197.55 793.348C-1220.19 841.845 -1221.5 888.385 -1159.77 923.619C-1082.88 967.475 -959.552 957.248 -870.281 908.75C-859.648 902.957 -849.163 896.953 -838.679 890.95C-785.368 896.685 -723.546 888.006 -667.781 860.85C-615.596 835.398 -564.458 809.175 -514.463 782.314C-452.882 787.376 -384.746 777.39 -321.915 763.099C-317.875 762.138 -313.948 761.194 -309.908 760.233C-257.614 797.597 -168.875 801.559 -88.5253 778.572C49.4515 739.18 182.234 689.309 306.286 631.704C376.326 641.174 456.121 627.562 532.186 609.289C539.78 621.029 550.164 631.998 564.179 641.602C650.561 701.322 772.799 686.964 877.59 643.429C908.682 638.365 938.255 628.654 961.722 613.945C970.536 608.427 978.878 602.865 987.107 597.32C1000.55 594.701 1013.92 591.627 1027.05 587.777C1098.64 566.815 1159.23 527.778 1211.34 488.051C1212.3 487.442 1213.25 486.833 1214.09 486.241C1261.72 467.52 1303.92 443.698 1334.59 415.934L1334.61 416.048Z" fill="#EDFFE1"/>
</svg>
