<svg width="27" height="26" viewBox="0 0 27 26" fill="none" xmlns="http://www.w3.org/2000/svg">
<path d="M13.4022 0H13.387C6.25244 0 0.46875 5.81688 0.46875 12.9924V13.0076C0.46875 20.1831 6.25244 26 13.387 26H13.4022C20.5367 26 26.3204 20.1831 26.3204 13.0076V12.9924C26.3204 5.81688 20.5367 0 13.4022 0Z" fill="#855E3B"/>
<path d="M12.8403 10.8999C12.9619 11.0528 13.1138 11.1903 13.281 11.282L13.4178 11.3585L13.5546 11.282C13.7218 11.1903 13.8737 11.0528 13.9953 10.8999C14.1777 10.6706 14.3297 10.3802 14.4361 10.0592C14.5424 9.73824 14.588 9.40197 14.588 9.0657C14.588 8.60714 14.4817 8.19445 14.3145 7.8276C14.1321 7.47605 13.8737 7.18563 13.5546 7.00221L13.4178 6.92578L13.281 7.00221C12.9619 7.18563 12.7035 7.47605 12.5211 7.8276C12.3387 8.17916 12.2476 8.60714 12.2476 9.0657C12.2476 9.52425 12.3539 9.96752 12.5211 10.3649C12.6123 10.5636 12.7187 10.7471 12.8403 10.8999ZM13.0379 8.10274C13.1442 7.90403 13.2658 7.73589 13.4178 7.6289C13.5546 7.73589 13.6914 7.90403 13.7977 8.10274C13.9345 8.37787 14.0105 8.69886 14.0105 9.0657C14.0105 9.43254 13.9345 9.81467 13.7825 10.1204C13.7066 10.2732 13.6306 10.4108 13.5394 10.5178C13.4938 10.5636 13.4482 10.6095 13.4026 10.6554C13.357 10.6095 13.3114 10.5636 13.2658 10.5178C13.129 10.3496 13.0075 10.1204 12.9315 9.87581C12.8555 9.61596 12.7947 9.34083 12.8099 9.0657C12.8099 8.69886 12.8859 8.36258 13.0227 8.10274H13.0379Z" fill="white"/>
<path d="M12.6122 11.5107C12.445 11.2355 12.2627 10.9757 12.0347 10.777C11.7915 10.5477 11.5028 10.3643 11.2292 10.242C10.9404 10.1197 10.6517 10.0586 10.3629 10.0586C10.1805 10.0586 10.0134 10.0892 9.84619 10.135L9.69421 10.1809L9.64862 10.3337C9.61822 10.4713 9.60303 10.6089 9.60303 10.7464C9.60303 11.0521 9.67902 11.3578 9.8158 11.6635C9.95258 11.9692 10.1653 12.2444 10.4389 12.5042C10.7125 12.7641 11.0468 13.0086 11.4116 13.192C11.594 13.2838 11.7763 13.3602 11.9435 13.4213C12.1259 13.4825 12.3083 13.513 12.4906 13.513C12.6122 13.513 12.7338 13.4977 12.8402 13.4519L12.9922 13.406L13.0378 13.2532C13.0682 13.1462 13.0833 13.0392 13.0833 12.9322C13.0833 12.7488 13.053 12.5654 13.0074 12.3666C12.9314 12.0762 12.8098 11.7858 12.6426 11.5107H12.6122ZM12.1107 12.8558C11.8979 12.7946 11.6699 12.6724 11.442 12.5348C11.214 12.3972 11.0012 12.2291 10.8341 12.0609C10.6213 11.8622 10.4541 11.633 10.3477 11.4037C10.2413 11.1744 10.1805 10.9451 10.1805 10.7311C10.1805 10.7006 10.1805 10.67 10.1805 10.6394C10.2413 10.6394 10.3021 10.6394 10.3629 10.6394C10.5605 10.6394 10.7733 10.6853 11.0012 10.777C11.2292 10.8687 11.442 11.0216 11.6395 11.205C11.8675 11.419 12.0803 11.7247 12.2323 12.0457C12.3083 12.2138 12.369 12.3666 12.4146 12.5195C12.4602 12.6723 12.4754 12.8099 12.4754 12.9169C12.369 12.9169 12.2475 12.9016 12.1107 12.8558Z" fill="white"/>
<path d="M13.8128 12.3666C13.7672 12.5654 13.7368 12.7488 13.7368 12.9322C13.7368 13.0392 13.7368 13.1462 13.7824 13.2532L13.828 13.406L13.98 13.4519C14.1016 13.4977 14.208 13.513 14.3295 13.513C14.5119 13.513 14.6943 13.4825 14.8767 13.4213C15.1502 13.3296 15.4238 13.2073 15.6821 13.0392C15.9405 12.8863 16.1837 12.6876 16.3813 12.5042C16.6548 12.2597 16.8524 11.9692 16.9892 11.6635C17.1259 11.3578 17.2019 11.0521 17.2019 10.7464C17.2019 10.6089 17.1867 10.4713 17.1563 10.3337L17.1108 10.1809L16.9588 10.135C16.7916 10.0739 16.6092 10.0586 16.442 10.0586C16.1533 10.0586 15.8645 10.1197 15.5758 10.242C15.287 10.3643 15.0134 10.5477 14.7703 10.777C14.4815 11.0521 14.2383 11.419 14.056 11.8011C13.9648 11.9845 13.8888 12.1832 13.8432 12.3819L13.8128 12.3666ZM14.3751 12.5195C14.4359 12.2902 14.5423 12.0304 14.6791 11.8011C14.8159 11.5718 14.983 11.3578 15.1502 11.1897C15.3478 11.0063 15.5758 10.8534 15.7885 10.7617C16.0165 10.67 16.2293 10.6241 16.4268 10.6241C16.4876 10.6241 16.5484 10.6241 16.6092 10.6241C16.6092 10.6547 16.6092 10.6853 16.6092 10.7159C16.6092 10.9146 16.5636 11.1438 16.442 11.3884C16.3357 11.6177 16.1685 11.847 15.9557 12.0457C15.7277 12.2597 15.4238 12.4889 15.1198 12.6418C14.9678 12.7182 14.8159 12.7793 14.6791 12.8252C14.5423 12.8711 14.4207 12.8863 14.3143 12.8863C14.3143 12.7793 14.3295 12.6265 14.3751 12.4889V12.5195Z" fill="white"/>
<path d="M12.6122 14.6904C12.445 14.4152 12.2627 14.1554 12.0347 13.9567C11.7915 13.7274 11.5028 13.544 11.2292 13.4217C10.9404 13.2994 10.6517 13.2383 10.3629 13.2383C10.1805 13.2383 10.0134 13.2689 9.84619 13.3147L9.69421 13.3606L9.64862 13.5134C9.61822 13.651 9.60303 13.7885 9.60303 13.9261C9.60303 14.2318 9.67902 14.5375 9.8158 14.8432C9.95258 15.1489 10.1653 15.4241 10.4389 15.6839C10.7125 15.9437 11.0468 16.1883 11.4116 16.3717C11.594 16.4634 11.7763 16.5399 11.9435 16.601C12.1259 16.6621 12.3083 16.6927 12.4906 16.6927C12.6122 16.6927 12.7338 16.6774 12.8402 16.6316L12.9922 16.5857L13.0378 16.4329C13.0682 16.3259 13.0833 16.2189 13.0833 16.1119C13.0833 15.9285 13.053 15.745 13.0074 15.5463C12.9314 15.2559 12.8098 14.9655 12.6426 14.6904H12.6122ZM12.1107 16.0507C11.8979 15.9896 11.6699 15.8673 11.442 15.7298C11.214 15.5922 11.0012 15.4241 10.8341 15.2559C10.6213 15.0572 10.4541 14.8279 10.3477 14.5987C10.2413 14.3694 10.1805 14.1401 10.1805 13.9261C10.1805 13.8955 10.1805 13.865 10.1805 13.8344C10.2413 13.8344 10.3021 13.8344 10.3629 13.8344C10.5605 13.8344 10.7733 13.8803 11.0012 13.972C11.2292 14.0637 11.442 14.2165 11.6395 14.4C11.8675 14.6139 12.0803 14.9196 12.2323 15.2406C12.3083 15.4088 12.369 15.5616 12.4146 15.7145C12.4602 15.8673 12.4754 16.0049 12.4754 16.1119C12.369 16.1119 12.2475 16.0966 12.1107 16.0507Z" fill="white"/>
<path d="M17.0955 13.3606L16.9435 13.3147C16.7763 13.2536 16.594 13.2383 16.4268 13.2383C16.138 13.2383 15.8493 13.2994 15.5605 13.4217C15.2717 13.544 14.9982 13.7274 14.755 13.9567C14.4663 14.2318 14.2231 14.5987 14.0407 14.9808C13.9495 15.1642 13.8735 15.3629 13.8279 15.5616C13.7823 15.7603 13.752 15.9437 13.752 16.1272C13.752 16.2342 13.752 16.3412 13.7975 16.4482L13.8431 16.601L13.9951 16.6469C14.1167 16.6774 14.2231 16.708 14.3447 16.708C14.527 16.708 14.7094 16.6774 14.8918 16.6163C15.1654 16.5246 15.4389 16.4023 15.6973 16.2342C15.9557 16.0813 16.1988 15.8826 16.3964 15.6992C16.67 15.4546 16.8675 15.1642 17.0195 14.8585C17.1563 14.5528 17.2323 14.2471 17.2323 13.9414C17.2323 13.8038 17.2171 13.6663 17.1867 13.5287L17.1411 13.3758L17.0955 13.3606ZM16.442 14.5987C16.3356 14.8279 16.1684 15.0572 15.9556 15.2559C15.7277 15.4699 15.4237 15.6992 15.1198 15.852C14.9678 15.9285 14.8158 15.9896 14.679 16.0355C14.5422 16.0813 14.4207 16.0966 14.3143 16.0966C14.3143 15.9896 14.3295 15.8368 14.3751 15.6992C14.4359 15.4699 14.5422 15.2101 14.679 14.9808C14.8158 14.7515 14.983 14.5375 15.1502 14.3694C15.3477 14.186 15.5757 14.0331 15.7885 13.9414C16.0164 13.8497 16.2292 13.8038 16.4268 13.8038C16.4876 13.8038 16.5484 13.8038 16.6092 13.8038C16.6092 13.8344 16.6092 13.865 16.6092 13.8955C16.6092 14.0942 16.5636 14.3235 16.442 14.5681V14.5987Z" fill="white"/>
<path d="M12.6122 17.8388C12.445 17.5637 12.2627 17.3038 12.0347 17.1051C11.7915 16.8758 11.5028 16.6924 11.2292 16.5701C10.9404 16.4479 10.6517 16.3867 10.3629 16.3867C10.1805 16.3867 10.0134 16.4173 9.84619 16.4631L9.69421 16.509L9.64862 16.6619C9.61822 16.7994 9.60303 16.937 9.60303 17.0745C9.60303 17.3803 9.67902 17.686 9.8158 17.9917C9.95258 18.2974 10.1653 18.5725 10.4389 18.8323C10.7125 19.0922 11.0468 19.3367 11.4116 19.5202C11.594 19.6119 11.7763 19.6883 11.9435 19.7494C12.1259 19.8106 12.3083 19.8412 12.4906 19.8412C12.6122 19.8412 12.7338 19.8259 12.8402 19.78L12.9922 19.7342L13.0378 19.5813C13.0682 19.4743 13.0833 19.3673 13.0833 19.2603C13.0833 19.0769 13.053 18.8935 13.0074 18.6948C12.9314 18.4044 12.8098 18.1139 12.6426 17.8388H12.6122ZM12.1107 19.1839C11.8979 19.1228 11.6699 19.0005 11.442 18.8629C11.214 18.7253 11.0012 18.5572 10.8341 18.3891C10.6213 18.1904 10.4541 17.9611 10.3477 17.7318C10.2413 17.5025 10.1805 17.2733 10.1805 17.0593C10.1805 17.0287 10.1805 16.9981 10.1805 16.9676C10.2413 16.9676 10.3021 16.9676 10.3629 16.9676C10.5605 16.9676 10.7733 17.0134 11.0012 17.1051C11.2292 17.1968 11.442 17.3497 11.6395 17.5331C11.8675 17.7471 12.0803 18.0528 12.2323 18.3738C12.3083 18.5419 12.369 18.6948 12.4146 18.8476C12.4602 19.0005 12.4754 19.138 12.4754 19.245C12.369 19.245 12.2475 19.2298 12.1107 19.1839Z" fill="white"/>
<path d="M17.0955 16.509L16.9435 16.4631C16.7763 16.402 16.594 16.3867 16.4268 16.3867C16.138 16.3867 15.8493 16.4479 15.5605 16.5701C15.2717 16.6924 14.9982 16.8758 14.755 17.1051C14.4663 17.3803 14.2231 17.7471 14.0407 18.1292C13.9495 18.3126 13.8735 18.5114 13.8279 18.7101C13.7823 18.9088 13.752 19.0922 13.752 19.2756C13.752 19.3826 13.752 19.4896 13.7975 19.5966L13.8431 19.7494L13.9951 19.7953C14.1167 19.8259 14.2231 19.8564 14.3447 19.8564C14.527 19.8564 14.7094 19.8259 14.8918 19.7647C15.1654 19.673 15.4389 19.5507 15.6973 19.3826C15.9557 19.2298 16.1988 19.031 16.3964 18.8476C16.67 18.6031 16.8675 18.3126 17.0195 18.0069C17.1563 17.7012 17.2323 17.3955 17.2323 17.0898C17.2323 16.9523 17.2171 16.8147 17.1867 16.6771L17.1411 16.5243L17.0955 16.509ZM16.442 17.7318C16.3356 17.9611 16.1684 18.1904 15.9556 18.3891C15.7277 18.6031 15.4237 18.8323 15.1198 18.9852C14.9678 19.0616 14.8158 19.1228 14.679 19.1686C14.5422 19.2145 14.4207 19.2298 14.3143 19.2298C14.3143 19.1228 14.3295 18.9699 14.3751 18.8323C14.4359 18.6031 14.5422 18.3432 14.679 18.1139C14.8158 17.8847 14.983 17.6707 15.1502 17.5025C15.3477 17.3191 15.5757 17.1663 15.7885 17.0745C16.0164 16.9828 16.2292 16.937 16.4268 16.937C16.4876 16.937 16.5484 16.937 16.6092 16.937C16.6092 16.9676 16.6092 16.9981 16.6092 17.0287C16.6092 17.2274 16.5636 17.4567 16.442 17.7012V17.7318Z" fill="white"/>
<path d="M13.4027 6.77197C13.5243 6.77197 13.6155 6.68026 13.6155 6.55798V5.07532C13.6155 4.95304 13.5243 4.86133 13.4027 4.86133C13.2811 4.86133 13.1899 4.95304 13.1899 5.07532V6.55798C13.1899 6.68026 13.2811 6.77197 13.4027 6.77197Z" fill="white"/>
<path d="M10.0136 9.79931C10.1351 9.79931 10.2263 9.7076 10.2263 9.58532V8.10266C10.2263 7.98038 10.1351 7.88867 10.0136 7.88867C9.89197 7.88867 9.80078 7.98038 9.80078 8.10266V9.58532C9.80078 9.7076 9.89197 9.79931 10.0136 9.79931Z" fill="white"/>
<path d="M16.7611 9.79931C16.8827 9.79931 16.9739 9.7076 16.9739 9.58532V8.10266C16.9739 7.98038 16.8827 7.88867 16.7611 7.88867C16.6395 7.88867 16.5483 7.98038 16.5483 8.10266V9.58532C16.5483 9.7076 16.6395 9.79931 16.7611 9.79931Z" fill="white"/>
<path d="M13.4031 11.5566C13.2965 11.5566 13.2051 11.6484 13.2051 11.7553V20.9417C13.2051 21.0487 13.2965 21.1404 13.4031 21.1404C13.5098 21.1404 13.6012 21.0487 13.6012 20.9417V11.7553C13.6012 11.6484 13.5098 11.5566 13.4031 11.5566Z" fill="white"/>
</svg>
