<svg width="26" height="26" viewBox="0 0 26 26" fill="none" xmlns="http://www.w3.org/2000/svg">
<path d="M12.9334 0H12.9182C5.78369 0 0 5.81688 0 12.9924V13.0076C0 20.1831 5.78369 26 12.9182 26H12.9334C20.068 26 25.8517 20.1831 25.8517 13.0076V12.9924C25.8517 5.81688 20.068 0 12.9334 0Z" fill="#855E3B"/>
<path d="M16.4748 8.75861L15.7756 7.67337C15.7756 7.67337 15.8364 7.62751 15.8668 7.59694C16.0948 7.36767 16.2316 7.06196 16.2316 6.71041V6.35885C16.2316 6.02258 16.0948 5.70159 15.8668 5.47231C15.6389 5.24303 15.3349 5.10547 15.0006 5.10547H10.8667C10.5324 5.10547 10.2132 5.24303 9.98524 5.47231C9.75728 5.70159 9.62049 6.00729 9.62049 6.35885V6.71041C9.62049 7.04668 9.75728 7.36767 9.98524 7.59694C9.98524 7.59694 10.046 7.6428 10.0764 7.67337L9.37733 8.75861C8.8454 9.5993 8.55664 10.5775 8.55664 11.5711V18.2507C8.55664 19.7028 9.72688 20.8797 11.1707 20.8797H14.6662C16.11 20.8797 17.2802 19.7028 17.2802 18.2507V11.5711C17.2802 10.5775 16.9915 9.5993 16.4596 8.75861H16.4748ZM16.2316 18.2507C16.2316 18.6939 16.0644 19.0761 15.7756 19.3665C15.4869 19.6569 15.1069 19.825 14.6662 19.825H11.1707C10.7299 19.825 10.35 19.6569 10.0612 19.3665C9.77247 19.0761 9.6053 18.6939 9.6053 18.2507V11.5711C9.6053 10.7763 9.83327 9.99671 10.2588 9.33945L11.3987 7.5358C11.4746 7.41352 11.4898 7.24539 11.3987 7.12311C11.3227 6.98554 11.1859 6.90911 11.0491 6.90911H10.8363C10.8363 6.90911 10.7299 6.89383 10.6995 6.84797C10.6692 6.8174 10.6388 6.77155 10.6388 6.71041V6.35885C10.6388 6.35885 10.654 6.25185 10.6995 6.22128C10.7299 6.19071 10.7755 6.16014 10.8363 6.16014H14.9854C14.9854 6.16014 15.0917 6.17543 15.1221 6.22128C15.1525 6.25185 15.1829 6.29771 15.1829 6.35885V6.71041C15.1829 6.71041 15.1677 6.8174 15.1221 6.84797C15.0917 6.87854 15.0461 6.90911 14.9854 6.90911H14.7726C14.6206 6.90911 14.4838 6.98554 14.423 7.12311C14.347 7.26067 14.3622 7.41352 14.423 7.5358L15.5629 9.33945C15.9884 10.012 16.2164 10.7915 16.2164 11.5711V18.2507H16.2316Z" fill="white"/>
<path d="M10.7452 12.3356V18.251C10.7452 18.4038 10.8212 18.4955 10.8668 18.5567C10.9276 18.6178 11.0339 18.6789 11.1707 18.6789H14.6662C14.8182 18.6789 14.9094 18.6025 14.9702 18.5567C15.031 18.4955 15.0918 18.3885 15.0918 18.251V12.0758C12.9793 13.2527 12.8729 11.0364 10.73 12.3356H10.7452Z" fill="white"/>
</svg>
