<svg width="25" height="26" viewBox="0 0 25 26" fill="none" xmlns="http://www.w3.org/2000/svg">
<path d="M1.25316 16.1128C1.84784 19.6969 4.26554 21.7326 7.54993 22.9348C8.52015 23.2901 9.1744 24.2016 9.1744 25.2348V25.9846L9.17413 25.9891H9.1744V26H15.0785V25.239C15.0785 24.2013 15.7391 23.2885 16.7144 22.9343C19.8995 21.778 22.2665 19.8628 22.9436 16.4189C24.0761 15.6352 24.8208 14.329 24.8208 12.8503C24.8208 11.4274 24.1285 10.1075 22.9621 9.29295C22.9722 9.17283 22.977 9.05216 22.977 8.93258C22.977 7.22537 21.9812 5.68638 20.4307 4.9817C19.9166 3.09464 18.2107 1.78593 16.2452 1.78593C15.9935 1.78593 15.7418 1.80759 15.4946 1.85057C14.68 0.689172 13.3628 0 11.942 0C10.7924 0 9.67594 0.47079 8.85858 1.29614C8.55561 1.23048 8.24471 1.19706 7.93217 1.19706C5.78109 1.19706 3.96024 2.77343 3.64258 4.88611C1.97814 5.53128 0.869083 7.14044 0.869083 8.93251C0.869083 9.37399 0.935294 9.80904 1.06628 10.2273C0.377725 11.0209 0 12.0244 0 13.0675C0 14.2531 0.4794 15.3286 1.25316 16.1128ZM3.73312 10.9768L3.97814 10.9061L4.1161 10.8725L4.1105 10.8677L4.12328 10.8643L3.81156 10.6034C3.31453 10.1879 3.02925 9.57877 3.02925 8.93258C3.02925 7.73149 4.00616 6.75458 5.20719 6.75458C5.38177 6.75458 5.56243 6.77808 5.74426 6.82421L6.01785 6.8939L6.19564 6.94672L6.19134 6.93818L6.20548 6.94194L5.99038 6.51727C5.83363 6.20794 5.7541 5.8775 5.7541 5.53531C5.7541 4.33421 6.73128 3.3573 7.9321 3.3573C8.50354 3.3573 9.0441 3.57773 9.4538 3.97869L9.63187 4.15273L9.72186 4.2488L9.72343 4.2421L9.73252 4.25119L9.81602 3.87032C10.033 2.87927 10.9272 2.16024 11.942 2.16024C13.1431 2.16024 14.12 3.13742 14.12 4.33797C14.12 4.41429 14.1155 4.49335 14.1059 4.57999L14.0872 4.7487L14.2465 4.80691L14.4496 4.88351L14.5476 4.76154C14.964 4.24347 15.5828 3.9461 16.2452 3.9461C17.446 3.9461 18.4229 4.92301 18.4229 6.12383C18.4229 6.24368 18.4115 6.36777 18.3877 6.50278L18.3511 6.71153L18.3423 6.74966H18.3444L18.3426 6.76059L18.6039 6.75636L18.6391 6.75451C19.84 6.75451 20.8169 7.73142 20.8169 8.93251C20.8169 9.43747 20.6399 9.92999 20.3185 10.3189L20.144 10.5303L20.0268 10.6613H20.0357L20.0268 10.6723L20.4848 10.6725C21.6846 10.6738 22.6605 11.6505 22.6605 12.8503C22.6605 13.4505 22.4165 13.995 22.0223 14.3892H16.2561L16.179 14.323L16.1448 14.3892H2.61155C2.3297 14.0222 2.16044 13.5648 2.16044 13.0675C2.16044 12.1042 2.80718 11.2445 3.73312 10.9768Z" fill="#855E3B"/>
<path d="M6.84404 11.5926C6.84616 11.5941 6.848 11.5957 6.84992 11.5971C6.9874 11.7024 7.17291 11.7391 7.34209 11.6518C7.53376 11.5527 7.63195 11.3352 7.57913 11.1259C7.4038 10.4314 7.71101 9.6587 8.3999 9.30612C8.96793 9.01517 9.65976 9.12143 10.1613 9.51644C10.2792 9.6093 10.3668 9.70243 10.4632 9.8479C10.5819 10.0271 10.8072 10.1041 11.0109 10.0355L11.06 10.0193C11.2509 9.95491 11.3763 9.7737 11.3731 9.57247C11.365 9.0835 11.5757 8.62467 11.9504 8.3137C12.5334 7.83006 13.3613 7.83116 13.9403 8.27072C14.1135 8.40232 14.3532 8.39959 14.5208 8.26081C14.753 8.06813 14.7434 7.70967 14.5032 7.52737C13.5866 6.83204 12.2774 6.83075 11.3552 7.59597C11.0279 7.86744 10.7835 8.21148 10.629 8.59344C10.6182 8.6177 10.6052 8.64039 10.595 8.66498C9.68218 8.0177 8.41268 8.03403 7.51189 8.78135C6.75576 9.40827 6.44445 10.4194 6.67322 11.345C6.69966 11.4519 6.7658 11.5306 6.84404 11.5926Z" fill="#855E3B"/>
</svg>
