<svg width="27" height="26" viewBox="0 0 27 26" fill="none" xmlns="http://www.w3.org/2000/svg">
<path d="M13.8558 0H13.8406C6.70605 0 0.922363 5.81688 0.922363 12.9924V13.0076C0.922363 20.1831 6.70605 26 13.8406 26H13.8558C20.9903 26 26.774 20.1831 26.774 13.0076V12.9924C26.774 5.81688 20.9903 0 13.8558 0Z" fill="#855E3B"/>
<path d="M20.2239 8.17796C19.8591 7.50541 19.2816 6.95515 18.5825 6.58831C17.8834 6.20618 17.0627 5.99219 16.1964 5.99219C15.4366 5.99219 14.6311 6.16032 13.8712 6.52717C13.1113 6.16032 12.3058 5.99219 11.5459 5.99219C10.6796 5.99219 9.85892 6.20618 9.15981 6.58831C8.46071 6.97044 7.88319 7.50541 7.51844 8.17796C7.21448 8.74351 7.0625 9.38549 7.0625 10.058C7.0625 10.8681 7.27527 11.6935 7.70082 12.4578C8.12636 13.2221 8.74947 13.9252 9.58535 14.4449L9.72213 14.5366L9.9805 14.4143C9.91971 14.5824 9.84372 14.7659 9.78293 14.9798C9.72214 15.2091 9.67654 15.469 9.67654 15.7747C9.67654 16.9363 10.1477 18.0063 10.9076 18.7706C11.6675 19.5348 12.7313 20.0086 13.8864 20.0086C15.0414 20.0086 16.1053 19.5348 16.8652 18.7706C17.6251 18.0063 18.0962 16.9516 18.0962 15.7747C18.0962 15.4843 18.0506 15.2397 17.9898 15.041C17.9442 14.8881 17.8834 14.7658 17.8226 14.6436C17.777 14.5519 17.7314 14.4754 17.701 14.4143C17.701 14.399 17.6858 14.3684 17.6706 14.3532L18.0506 14.5366L18.1874 14.4449C19.0233 13.9252 19.6464 13.2221 20.0719 12.4578C20.4975 11.6935 20.7102 10.8529 20.7102 10.058C20.7102 9.40077 20.5582 8.74351 20.2543 8.17796H20.2239ZM9.73734 13.8335C9.06863 13.3749 8.5519 12.7941 8.20234 12.1521C7.8224 11.4795 7.64002 10.7306 7.64002 10.0427C7.64002 9.46191 7.76161 8.92693 8.01997 8.45309C8.32393 7.90283 8.81026 7.42899 9.41818 7.108C10.0261 6.77173 10.7556 6.58831 11.5307 6.58831C12.1538 6.58831 12.8073 6.71059 13.4608 7.00101L13.5216 7.39842L12.1842 8.02511L12.3818 9.49248L11.0444 10.1192L11.2419 11.5865L9.90451 12.2132L9.9349 12.4272V12.4884H9.90451C9.91971 12.5342 9.93491 12.5801 9.95011 12.6259L10.1021 13.65L9.70694 13.8335H9.73734ZM17.1843 17.1809C16.9107 17.8382 16.4548 18.3884 15.8773 18.7858C15.2998 19.1833 14.6007 19.4125 13.856 19.4125C13.3544 19.4125 12.8833 19.3055 12.4578 19.1221C11.8042 18.847 11.2571 18.3884 10.862 17.8076C10.4668 17.2268 10.2389 16.5236 10.2389 15.7747C10.2389 15.5607 10.2693 15.3773 10.3149 15.2091C10.3452 15.0868 10.3908 14.9493 10.4364 14.827C10.5124 14.6436 10.5884 14.4449 10.6492 14.2309C10.6644 14.1697 10.6796 14.1239 10.6948 14.0627L10.786 14.0169L10.7556 13.757C10.7556 13.6806 10.7556 13.5889 10.7556 13.4972C10.7556 13.3138 10.7404 13.1303 10.6948 12.9316C10.6644 12.8094 10.634 12.6871 10.5884 12.5495L11.9106 11.9381L11.7131 10.4707L13.0505 9.84404L12.8529 8.37667L13.8864 7.90283L14.9198 8.37667L14.7222 9.84404L16.0597 10.4707L15.8621 11.9381L17.1387 12.5342C17.0779 12.7329 17.0323 12.9163 17.0019 13.0692C16.9563 13.2985 16.9411 13.4972 16.9411 13.6806C16.9411 13.9405 16.9867 14.1544 17.0475 14.3379C17.0931 14.4754 17.1539 14.5977 17.2147 14.7047C17.2603 14.7811 17.3059 14.8576 17.3363 14.934C17.3971 15.041 17.4427 15.148 17.4731 15.2855C17.5035 15.4078 17.5339 15.5607 17.5339 15.7594C17.5339 16.2638 17.4275 16.7376 17.2451 17.1656L17.1843 17.1809ZM19.5096 12.1674C19.16 12.8094 18.6433 13.3902 17.9746 13.8487L17.5795 13.6653L17.777 12.1979L17.5795 12.1062L16.4548 11.5713L16.6524 10.1039L15.315 9.4772L15.5125 8.00982L14.1751 7.38313L14.2359 6.98572C14.8742 6.71059 15.5277 6.57302 16.1661 6.57302C16.9411 6.57302 17.6706 6.75644 18.2786 7.09272C18.8865 7.42899 19.3728 7.88754 19.6768 8.43781C19.9351 8.89636 20.0567 9.44663 20.0567 10.0275C20.0567 10.7306 19.8743 11.4643 19.4944 12.1368L19.5096 12.1674Z" fill="white"/>
<path d="M13.8559 13.6953C12.7161 13.6953 11.8042 14.6124 11.8042 15.7588C11.8042 16.9052 12.7161 17.8223 13.8559 17.8223C14.9958 17.8223 15.9076 16.9052 15.9076 15.7588C15.9076 14.6124 14.9958 13.6953 13.8559 13.6953ZM12.5185 16.2938C12.4577 16.1256 12.4121 15.9575 12.4121 15.7741C12.4121 14.9793 13.0504 14.3373 13.8407 14.3373C14.0231 14.3373 14.2055 14.3679 14.3574 14.4443L12.5033 16.3091L12.5185 16.2938Z" fill="white"/>
</svg>
