<svg width="198" height="53" viewBox="0 0 198 53" fill="none" xmlns="http://www.w3.org/2000/svg">
<path d="M192.417 8.41668L194.525 7.61732C195.714 9.64221 196.539 11.8929 196.894 14.2383L194.514 15.1518C194.319 13.0229 193.37 9.97649 192.417 8.41668ZM186.992 3.46711L186.927 3.722C186.771 4.28957 186.552 5.09212 186.248 6.14763C186.155 6.48021 186.155 6.48021 186.071 6.73316C186.67 6.77145 186.95 6.77871 187.309 6.81363C188.622 6.94166 189.563 7.39501 190.152 8.15572C190.755 8.9781 190.921 9.95879 190.744 11.7702C190.41 15.194 189.567 17.8648 188.505 18.8665C187.884 19.4691 187.263 19.6498 186.208 19.5469C185.293 19.4577 184.492 19.2189 183.201 18.651C183.258 18.2748 183.307 17.9781 183.326 17.7791C183.377 17.2615 183.376 16.8595 183.292 16.0677C184.32 16.6502 185.424 17.0792 186.121 17.1471C186.698 17.2034 187.053 16.8562 187.447 15.9099C187.866 14.9059 188.242 13.1139 188.407 11.4219C188.585 9.59055 188.18 9.00848 186.647 8.85911C186.229 8.81837 185.909 8.80724 185.447 8.80243C184.074 12.788 182.943 15.1093 180.331 19.2354L178.146 17.7364C179.882 15.7957 181.764 12.362 183.061 8.75074C182.758 8.76145 182.758 8.76145 182.11 8.81881L180.269 8.94087C179.945 8.96955 179.72 9.00793 179.433 9.06039L179.424 6.68824C180.321 6.75563 181.366 6.75697 183.704 6.68341C184.298 4.51074 184.548 3.38969 184.614 2.7129C184.621 2.63328 184.633 2.51384 184.648 2.3546L187.211 2.86555C187.136 3.01898 187.051 3.27193 186.992 3.46711ZM191.596 4.0565L193.057 3.49558C193.842 4.51651 194.306 5.3253 194.862 6.62541L193.397 7.22613C192.859 5.94787 192.379 5.09732 191.596 4.0565ZM197.357 5.56238L195.908 6.20485C195.418 5.05184 194.852 4.05226 194.159 3.12066L195.561 2.55393C196.367 3.55689 196.851 4.36762 197.357 5.56238Z" fill="#855E3B"/>
<path d="M151.774 15.1073L149.201 14.3582C149.334 14.0429 149.421 13.8181 149.493 13.5684L149.58 13.198C149.877 12.1803 150.355 11.4656 151.094 10.9309C151.637 10.5682 151.83 10.4785 153.319 10.0162C154.807 9.55385 155.422 9.08715 155.679 8.20383C156.02 7.03246 155.215 6.00645 153.583 5.53125C152.584 5.24053 151.622 5.3978 150.96 5.95492C150.574 6.27991 150.363 6.57281 150.074 7.28015L147.333 6.10708C148.048 4.79473 148.645 4.17684 149.694 3.64913C150.931 3.05093 152.524 3.01496 154.329 3.54048C155.942 4.0101 157.117 4.76873 157.853 5.81637C158.549 6.78963 158.747 7.82633 158.434 8.90169C158.166 9.82342 157.742 10.4916 157.102 10.9719C156.482 11.4578 156.028 11.6589 154.165 12.2622C152.739 12.7221 152.298 13.0935 152.002 14.1112C151.912 14.4185 151.842 14.7313 151.774 15.1073ZM148.622 15.9185L151.406 16.7291L150.64 19.3599L147.856 18.5492L148.622 15.9185Z" fill="#855E3B"/>
<path d="M114.561 9.37502L114.593 9.42166C116.514 9.04642 117.416 9.01062 118.89 9.28477C122.253 9.90983 124.094 12.0423 123.593 14.7361C123.246 16.6041 122.044 17.9267 120.111 18.5845C118.698 19.0745 116.953 19.1571 115.144 18.8208C113.493 18.5137 112.175 17.9432 111.498 17.2071C110.853 16.5177 110.574 15.6114 110.738 14.7266C111.042 13.0945 112.677 12.1779 114.643 12.5434C116.02 12.7993 117.113 13.5925 117.745 14.7882C118.047 15.3529 118.183 15.8257 118.321 16.726C120.066 16.4198 120.931 15.7059 121.191 14.3098C121.476 12.7761 120.148 11.4918 117.769 11.0495C114.898 10.5159 111.812 11.1423 109.054 12.847L108.111 10.4748C108.862 10.2684 109.747 9.88375 111.227 9.14184C113.316 8.0857 116.281 6.35862 118.057 5.12237C118.104 5.09035 118.337 4.93027 118.477 4.83423L118.461 4.81091C117.695 4.77032 116.422 4.61503 112.834 4.11073C112.398 4.04998 112.256 4.04405 111.872 4.03359L112.212 1.65574C112.866 1.85867 113.429 2.004 114.51 2.20504C116.182 2.51574 118.599 2.86337 120.532 3.0803C121.231 3.14924 121.455 3.15013 121.799 3.05131L122.696 5.00829C122.329 5.12312 122.169 5.21551 121.524 5.6244C120.372 6.34614 118.699 7.35741 117.925 7.80336C117.516 8.03251 115.903 8.83114 115.462 9.01365C114.908 9.25654 114.908 9.25654 114.561 9.37502ZM116.091 16.9015C115.989 15.4789 115.374 14.6321 114.273 14.4274C113.565 14.2958 113.047 14.5657 112.944 15.1163C112.798 15.9028 113.599 16.5195 115.054 16.79C115.428 16.8595 115.526 16.8778 116.091 16.9015Z" fill="#855E3B"/>
<path d="M83.3048 7.27727L83.3361 8.9971C83.3384 9.07707 83.3632 9.2364 83.3704 9.47629C83.8376 10.3828 84.0619 11.1964 84.0941 12.276C84.1591 14.455 83.1756 16.3652 81.2764 17.7624C80.454 18.3672 79.5469 18.8144 77.7068 19.5095C77.1101 18.2868 76.9013 17.9929 76.2201 17.2929C77.8499 16.9241 78.6611 16.6198 79.584 16.032C80.9202 15.2119 81.6894 14.1685 81.816 13.0442C81.2637 13.9811 80.239 14.5118 78.9196 14.5512C78 14.5786 77.2738 14.3802 76.5792 13.9006C75.6193 13.249 75.1533 12.3825 75.1193 11.243C75.0562 9.12391 76.6701 7.55512 78.9891 7.48598C79.8487 7.46035 80.6149 7.6576 81.086 8.02372C81.0631 7.92436 81.0631 7.92436 81.0589 7.78443C81.0377 7.74504 81.0043 6.62554 80.9883 6.08578C78.1319 6.25098 76.2545 6.36698 75.3767 6.45317C72.3646 6.76308 72.3646 6.76308 71.8272 6.85914L71.6763 4.48258C72.1173 4.50945 72.2972 4.50408 72.6571 4.49335C73.1569 4.47845 73.4767 4.46892 76.0526 4.29207C77.3508 4.21335 77.5507 4.20739 79.1888 4.11853C79.8479 4.07887 79.8479 4.07887 80.8863 4.00789C80.8097 2.10933 80.8097 2.10933 80.6942 1.59254L83.2125 1.49745C83.151 2.11956 83.1522 2.15954 83.1835 3.87937C86.6613 3.75567 88.2194 3.6692 88.9567 3.56718L89.0453 5.86556C88.3038 5.82764 87.343 5.81627 85.6838 5.86574C85.204 5.88005 84.8442 5.89078 83.266 5.97785L83.3048 7.27727ZM81.1042 10.6443C81.0791 9.80472 80.3633 9.28582 79.2638 9.3186C78.2443 9.349 77.4261 10.0937 77.4523 10.9733C77.4798 11.8929 78.1991 12.5318 79.1987 12.502C80.3382 12.468 81.1351 11.6839 81.1042 10.6443Z" fill="#855E3B"/>
<path d="M40.8284 3.54411L41.8544 1.28016C43.9833 2.25147 46.8821 2.98307 50.0243 3.31825C50.1237 3.32886 50.3425 3.3522 50.5811 3.37765L49.9821 5.78771C46.3796 5.24251 43.6733 4.59179 40.8284 3.54411ZM38.3698 9.99974L38.0752 7.29323C38.5944 7.3285 38.5944 7.3285 40.4182 7.20123C43.2952 7.00529 45.0445 7.01087 46.7349 7.1912C48.3458 7.36303 49.5512 7.7531 50.4066 8.40752C51.5611 9.27488 52.115 10.6816 51.9474 12.2527C51.7056 14.5198 50.1127 16.4417 47.56 17.5572C45.8296 18.3179 44.3929 18.5871 41.0961 18.7583C41.0097 17.6831 40.844 17.1626 40.3272 16.1621C42.6447 16.3088 44.8519 15.9811 46.4744 15.2893C48.1389 14.5818 49.1277 13.4201 49.2741 12.0479C49.4332 10.5564 48.4598 9.68824 46.3915 9.46761C44.1442 9.22789 40.0926 9.49966 38.3698 9.99974Z" fill="#855E3B"/>
<path d="M3.57422 4.34539L6.05136 3.46007C6.23323 4.40269 7.69627 7.86828 8.5334 9.35664C9.66001 8.65042 10.357 8.25115 12.6798 6.98823C13.6562 6.45357 13.6562 6.45357 13.9756 6.20863L15.2974 8.52007C13.6533 9.18355 11.221 10.4065 9.18066 11.6557C6.51814 13.2693 5.32328 14.7831 5.59608 16.197C5.87268 17.6305 7.3255 17.9817 10.4872 17.3716C12.9419 16.898 15.3005 16.1374 16.6787 15.3623L17.41 17.9914C17.0014 18.0906 16.8677 18.1367 15.8458 18.4357C13.7666 19.061 12.6821 19.3517 11.3074 19.6169C8.57775 20.1436 6.80485 20.1394 5.40405 19.6356C4.19893 19.196 3.3394 18.1193 3.0628 16.6857C2.81273 15.3897 3.19865 14.0116 4.13235 12.8334C4.77698 12.0572 5.32582 11.5235 6.48103 10.6489C5.75277 9.30244 5.09927 7.92123 4.1385 5.58086C3.73304 4.64065 3.72925 4.62101 3.57422 4.34539ZM11.3291 3.1547L12.5711 2.20215C13.6133 2.95841 14.2875 3.60235 15.1901 4.69107L13.9556 5.68289C13.0764 4.61002 12.375 3.9306 11.3291 3.1547ZM17.2807 2.96373L16.0734 3.99104C15.2759 3.02463 14.4498 2.22668 13.521 1.53003L14.7041 0.588842C15.7621 1.32168 16.4559 1.96183 17.2807 2.96373Z" fill="#855E3B"/>
<path d="M166.839 39.0841L168.01 39.8658C167.954 39.6306 167.954 39.6306 167.855 39.2033C167.629 38.0781 167.424 37.4667 166.813 36.1228L168.67 35.5928C169.364 37.1365 169.574 37.7283 169.927 39.3474L168.061 39.9166C169.373 40.8078 169.731 41.0619 170.98 42.0631C172.735 40.8195 174.386 39.1682 175.308 37.6991C175.546 37.318 175.574 37.2827 175.839 36.7643L177.658 38.0818C177.346 38.4277 177.263 38.5338 176.904 39.0132C175.547 40.8246 174.217 42.1927 172.592 43.4007C173.551 44.2222 174.687 45.2824 175.74 46.3468L174.113 47.9823C172.764 46.4519 172.119 45.7945 170.79 44.5738C169.153 45.5348 167.958 46.0122 165.743 46.594C165.4 45.7515 165.1 45.2031 164.679 44.651C166.632 44.262 167.811 43.8631 169.194 43.1577C167.854 42.0979 167.336 41.7305 165.387 40.5505L166.839 39.0841ZM173.55 39.1663L171.63 39.7042C171.414 38.1123 171.157 37.1441 170.668 35.9058L172.51 35.4543C173.062 36.7866 173.276 37.5627 173.55 39.1663ZM163.086 49.2086L160.849 48.7668C161.048 48.174 161.223 47.4951 161.471 46.2393L163.932 33.7801C164.114 32.8579 164.214 32.1438 164.279 31.4023C164.97 31.6204 165.555 31.7563 166.575 31.9578L178.819 34.3764C179.819 34.5741 180.431 34.6746 181.134 34.7318C180.9 35.5011 180.768 36.0662 180.57 37.0669L178.109 49.5261C177.873 50.723 177.757 51.5156 177.723 52.1001L175.506 51.6621L175.719 50.583L163.299 48.1295L163.086 49.2086ZM166.121 33.8455L163.675 46.2263L176.075 48.6759L178.521 36.2951L166.121 33.8455Z" fill="#855E3B"/>
<path d="M129.921 39.9578L129.986 38.5794C128.649 39.3171 128.117 39.5722 126.71 40.1064C126.41 39.2512 126.19 38.8204 125.648 38.0138C127.54 37.3825 129.283 36.5039 130.878 35.378C132.308 34.3444 133.295 33.3899 134.172 32.19L136.55 32.3024C137.348 33.6216 138.205 34.5631 139.746 35.8374C141.249 37.0897 142.709 37.9597 144.711 38.8152C144.152 39.6297 143.934 39.9998 143.508 40.9608C142.12 40.2544 141.516 39.9055 140.335 39.0488L140.269 40.4472C139.772 40.3637 139.274 40.3201 138.475 40.2823L131.642 39.9592C131.003 39.9289 130.443 39.9225 129.921 39.9578ZM131.761 37.8824L138.553 38.2037C138.793 38.215 138.873 38.2188 139.232 38.2358C137.534 36.894 136.484 35.8032 135.301 34.1455C134.021 35.8069 133.102 36.6244 131.201 37.856C131.441 37.8673 131.541 37.8721 131.761 37.8824ZM130.192 50.3022L127.815 50.1898C127.925 49.5543 127.993 48.9569 128.035 48.0778L128.255 43.423C128.294 42.604 128.281 42.0227 128.249 41.4405C128.685 41.5212 129.164 41.5639 129.963 41.6017L139.952 42.074C140.751 42.1118 141.231 42.1145 141.694 42.0763C141.587 42.6319 141.541 43.1904 141.5 44.0494L141.279 48.7242C141.236 49.6431 141.229 50.2035 141.3 50.8275L138.922 50.7151L138.971 49.6962L130.24 49.2834L130.192 50.3022ZM130.511 43.5698L130.333 47.3256L139.063 47.7384L139.241 43.9826L130.511 43.5698Z" fill="#855E3B"/>
<path d="M100.087 36.0699C99.9695 39.2307 99.5019 42.0394 98.6936 44.3748C97.7725 47.0408 96.5953 48.3234 94.961 48.46C92.6889 48.6499 90.8613 46.4746 90.5931 43.2658C90.4098 41.0735 91.0155 38.9556 92.3006 37.2828C93.8215 35.3092 96.0933 34.156 98.9234 33.9194C103.707 33.5195 107.059 36.1694 107.434 40.6538C107.722 44.1018 106.158 47.0021 103.212 48.4927C102.289 48.9713 101.528 49.2356 100.153 49.5914C99.7262 48.5634 99.4503 48.1449 98.7426 47.3612C100.556 46.9687 101.725 46.5498 102.617 45.9334C104.271 44.8318 105.149 42.8518 104.971 40.7192C104.811 38.8059 103.824 37.3229 102.15 36.4996C101.502 36.1925 100.97 36.0763 100.087 36.0699ZM97.6568 36.2931C96.6304 36.4994 95.9362 36.8384 95.1674 37.4847C93.5932 38.8204 92.7284 40.9599 92.9067 43.0925C93.0433 44.7268 93.8492 45.9639 94.7261 45.8906C95.3838 45.8357 95.9915 44.9419 96.5657 43.1679C97.1731 41.3109 97.6059 38.5653 97.6568 36.2931Z" fill="#855E3B"/>
<path d="M67.9937 43.9071L69.6772 45.1956C69.499 45.2863 69.2247 45.4618 68.3823 45.9848C67.791 46.3486 67.0814 46.6917 66.2537 47.0142C67.7574 48.1699 69.2964 49.0069 71.1097 49.6684C70.5028 50.3543 70.177 50.8253 69.6701 51.752C66.8454 50.4876 64.8244 49.0387 63.1755 47.0862C61.9666 45.6368 61.3539 44.4945 60.8417 42.6591L59.1276 42.36L58.3472 46.8325C60.1267 46.7572 61.0348 46.672 62.493 46.4595L62.169 48.4332C59.9173 48.7712 57.7395 48.919 54.1353 48.9804C53.6453 48.9964 53.5862 48.9861 53.2143 49.0227L53.1856 46.7439C53.8195 46.8342 54.7036 46.887 56.0452 46.8774L56.9013 41.9715L55.8373 41.7859C55.0098 41.6415 54.4744 41.5684 53.8071 41.5535L54.1784 39.4256C54.5784 39.5766 55.3005 39.7432 56.2068 39.9014L57.2313 40.0801L58.3177 33.8542C58.5033 32.7903 58.5421 32.4519 58.5792 31.8899C59.1565 32.0719 59.7442 32.1947 60.7096 32.3632L69.5362 33.9033C70.6789 34.1027 71.234 34.1793 71.8423 34.1839L71.4779 36.2723C70.8612 36.0835 70.4115 35.9847 69.2293 35.7785L60.58 34.2693L60.4081 35.2544L68.7619 36.712C69.55 36.8495 70.1676 36.9167 70.5917 36.9298L70.2788 38.7227C69.8951 38.5948 68.976 38.3939 68.4834 38.3079L60.1296 36.8503L59.9612 37.8157L68.315 39.2733C69.1031 39.4108 69.7601 39.4849 70.1448 39.4911L69.8285 41.3037C69.2906 41.1286 68.8408 41.0299 68.0331 40.8889L59.6793 39.4313L59.4971 40.4755L69.9984 42.3079C70.885 42.4626 71.4238 42.516 71.9696 42.53L71.5983 44.6578C71.1195 44.4931 70.5353 44.3505 69.8457 44.2302L67.9937 43.9071ZM67.7769 43.8692L63.0681 43.0476C63.4607 44.1718 63.8604 44.7897 64.738 45.694C65.84 45.1961 67.1084 44.4429 67.7769 43.8692Z" fill="#FAAB99"/>
<path d="M32.4749 37.7248L34.691 38.3086C34.6042 38.6199 34.6042 38.6199 34.3682 39.41C33.7269 41.6525 33.0894 43.1904 32.2246 44.6726C32.678 45.3274 33.1362 45.8409 33.6035 46.2528C33.9804 46.5739 34.4568 46.8842 34.5761 46.8713C34.6556 46.8626 34.7222 46.7347 34.7935 46.4654C34.8829 45.9929 34.8829 45.9929 34.9183 44.098C35.6678 44.7005 35.9479 44.8712 36.8526 45.2356C36.6872 47.9695 36.1188 49.2182 35.0253 49.3371C34.0113 49.4474 32.2957 48.2861 30.9392 46.5425C29.608 48.176 28.1804 49.478 26.506 50.5453C25.7901 49.6977 25.5455 49.4829 24.8068 48.9798C26.8015 47.8978 28.4214 46.5146 29.7574 44.7397C28.6996 42.7826 28.0027 40.4442 27.4034 36.9687L21.2398 37.6389C21.4275 39.5499 21.4275 39.5499 21.4854 40.2678L25.1439 39.87C25.8398 39.7943 26.1358 39.742 26.5469 39.6369C26.546 39.9991 26.5668 40.5602 26.6114 41.3399C26.8018 44.9404 26.7971 46.0072 26.5499 46.879C26.3182 47.7089 25.6349 48.085 24.1039 48.2515C23.5472 48.312 23.2269 48.3268 22.5863 48.3562C22.3939 47.512 22.2228 47.0478 21.8402 46.3048C22.9091 46.3294 23.2095 46.3169 23.7861 46.2542C24.4025 46.1871 24.5684 46.0484 24.6138 45.5405C24.6972 44.8273 24.6561 43.5241 24.5207 41.9093L21.6178 42.225C21.7251 44.5067 21.6954 45.8981 21.5442 47.2826C21.3592 48.9121 21.0589 49.8501 20.3354 51.337C19.6325 50.6087 19.1938 50.2742 18.4218 49.8351C19.0009 48.6857 19.3169 47.7058 19.4521 46.5444C19.6681 44.831 19.5794 42.165 19.1945 38.6259C19.028 37.0949 18.9541 36.6 18.7682 35.8155C19.4904 35.7973 20.3099 35.7484 21.3438 35.636L27.1099 35.0089C27.0727 34.852 27.0165 34.3351 26.8816 33.4645C26.7817 32.731 26.773 32.6515 26.6459 32.2227L29.012 31.9654C28.9977 32.3895 29.0466 33.209 29.118 33.8651C29.1374 34.0441 29.1958 34.5809 29.2174 34.7797L31.842 34.4943C31.2052 33.8192 30.7821 33.4427 29.8933 32.8554L31.3184 31.7146C32.3173 32.3906 32.6921 32.6918 33.5536 33.5839L32.5975 34.4121L33.194 34.3473C34.2478 34.2327 34.7824 34.1544 35.2886 33.9988L35.5264 36.1859C34.8638 36.1976 34.1039 36.24 33.0899 36.3503L29.511 36.7395C29.9732 39.3246 30.4505 41.1236 31.0721 42.585C31.8911 40.8663 32.3877 39.1425 32.4749 37.7248Z" fill="#FAAB99"/>
</svg>
