<svg width="633" height="145" viewBox="0 0 633 145" fill="none" xmlns="http://www.w3.org/2000/svg">
<path d="M15.8028 113.025L17.8823 109.671C18.9764 110.607 23.9314 113.307 26.3044 114.271C26.9665 112.39 27.4113 111.27 28.9569 107.618C29.603 106.078 29.603 106.078 29.7489 105.492L33.4598 106.969C32.1505 109.284 30.439 112.992 29.2121 116.364C27.5956 120.745 27.608 123.638 29.2493 125.042C30.9133 126.466 32.9462 125.52 36.0862 121.85C38.5241 119.001 40.581 115.905 41.4739 113.707L44.7886 116.109C44.4018 116.607 44.2881 116.786 43.3684 118.092C41.5128 120.768 40.5118 122.123 39.1466 123.719C36.4357 126.887 34.3514 128.539 32.237 129.257C30.4121 129.867 28.3974 129.407 26.7334 127.983C25.2289 126.696 24.3941 124.718 24.3888 122.463C24.4199 120.95 24.5653 119.811 25.1036 117.705C22.9909 116.806 20.9335 115.796 17.6193 113.947C16.265 113.223 16.2422 113.203 15.8028 113.025ZM23.7899 104.381L24.3573 102.103C26.2868 102.017 27.6796 102.142 29.756 102.576L29.2342 104.894C27.2001 104.456 25.7422 104.314 23.7899 104.381ZM30.5952 98.5961L30.1385 100.93C28.2996 100.541 26.5847 100.376 24.8438 100.427L25.3527 98.2169C27.2789 98.0883 28.6912 98.1911 30.5952 98.5961Z" fill="#855E3B"/>
<path d="M70.2168 69.4411L69.4889 65.7845C72.9332 65.108 77.1065 63.4665 81.23 61.1289C81.3605 61.055 81.6476 60.8922 81.9608 60.7147L83.3368 64.1763C78.4686 66.6601 74.6007 68.232 70.2168 69.4411ZM72.8615 79.4599L70.137 76.4178C70.8008 76.0071 70.8008 76.0071 72.9129 74.258C76.249 71.5047 78.3864 69.9827 80.6048 68.7252C82.7188 67.5268 84.5292 66.9489 86.144 66.9991C88.3094 67.0475 90.2141 68.2782 91.3829 70.34C93.0694 73.3152 92.8073 77.0503 90.6702 80.6412C89.2255 83.081 87.7093 84.6646 83.8399 87.7547C82.7948 86.5194 82.1379 86.0297 80.6335 85.2617C83.5869 83.415 85.9913 81.0865 87.3647 78.8251C88.7755 76.508 88.9657 74.2276 87.9449 72.4269C86.8353 70.4695 84.8899 70.2618 82.1757 71.8005C79.2265 73.4722 74.5247 77.3446 72.8615 79.4599Z" fill="#855E3B"/>
<path d="M143.373 43.2145L144.118 45.6848C144.154 45.7992 144.255 46.0192 144.363 46.3626C145.406 47.4812 146.061 48.5646 146.547 50.11C147.528 53.2295 146.885 56.3875 144.712 59.1777C143.771 60.3856 142.643 61.4004 140.27 63.153C138.911 61.6305 138.49 61.2912 137.221 60.5578C139.424 59.3621 140.471 58.5926 141.565 57.3684C143.16 55.6404 143.846 53.821 143.571 52.1463C143.155 53.7237 141.891 54.9071 140.003 55.5009C138.686 55.9147 137.557 55.9238 136.359 55.5143C134.708 54.9641 133.682 53.9028 133.17 52.2715C132.216 49.2379 133.907 46.3161 137.227 45.2724C138.458 44.8855 139.644 44.8584 140.474 45.1953C140.4 45.0612 140.4 45.0612 140.337 44.8608C140.29 44.8126 139.787 43.2099 139.544 42.4372C135.487 43.8383 132.824 44.7699 131.592 45.2516C127.369 46.925 127.369 46.925 126.632 47.2824L125.447 43.9127C126.095 43.772 126.352 43.691 126.868 43.5291C127.583 43.3041 128.041 43.1602 131.688 41.8565C133.53 41.2144 133.816 41.1244 136.145 40.3294C137.08 40.0039 137.08 40.0039 138.551 39.4788C137.667 36.769 137.667 36.769 137.29 36.0699L140.887 34.9076C141.052 35.8308 141.07 35.888 141.815 38.3583C146.786 36.7642 149 36.0051 150.023 35.5578L151.086 38.84C150 39.087 148.608 39.4616 146.233 40.2084C145.546 40.4243 145.031 40.5863 142.788 41.3543L143.373 43.2145ZM141.566 48.9713C141.188 47.7693 139.944 47.3115 138.37 47.8064C136.91 48.2652 136.032 49.6734 136.428 50.9326C136.842 52.2491 138.14 52.8786 139.571 52.4288C141.203 51.9159 142.034 50.4595 141.566 48.9713Z" fill="#855E3B"/>
<path d="M197.023 34.1087L197.093 34.1576C199.598 32.6267 200.847 32.1054 203.064 31.7206C208.118 30.8435 211.821 32.8803 212.524 36.9298C213.011 39.7378 212.012 42.2253 209.638 44.1598C207.906 45.5869 205.496 46.6141 202.777 47.086C200.294 47.5169 198.143 47.4031 196.807 46.7215C195.54 46.0888 194.674 44.9602 194.443 43.6301C194.018 41.1768 195.838 39.0339 198.794 38.521C200.863 38.1619 202.815 38.7061 204.328 40.0573C205.047 40.6936 205.485 41.2875 206.149 42.4815C208.444 41.1395 209.287 39.6838 208.923 37.5852C208.523 35.2796 205.985 34.1671 202.409 34.7879C198.093 35.5368 194.08 38.0297 191.093 41.8671L188.529 39.0236C189.476 38.3416 190.52 37.3383 192.214 35.5219C194.599 32.9462 197.867 28.9688 199.718 26.3029C199.767 26.2336 200.011 25.8867 200.158 25.6786L200.123 25.6541C199.026 25.9969 197.154 26.4434 191.845 27.6083C191.2 27.7508 190.999 27.8162 190.452 28.0024L189.689 24.481C190.714 24.4249 191.582 24.3352 193.208 24.0531C195.72 23.617 199.301 22.8434 202.132 22.1389C203.151 21.8707 203.466 21.7552 203.898 21.4366L206.182 23.7197C205.725 24.0729 205.549 24.2862 204.855 25.1983C203.613 26.8145 201.789 29.1102 200.933 30.1418C200.477 30.6776 198.626 32.643 198.102 33.1299C197.45 33.7606 197.45 33.7606 197.023 34.1087ZM203.106 43.8927C202.22 41.9456 200.912 41.0764 199.257 41.3637C198.193 41.5483 197.605 42.1984 197.749 43.026C197.954 44.2083 199.402 44.6573 201.589 44.2777C202.151 44.1803 202.299 44.1546 203.106 43.8927Z" fill="#855E3B"/>
<path d="M261.413 32.4219L257.405 32.7387C257.425 32.2255 257.427 31.8643 257.396 31.4755L257.321 30.9097C257.196 29.3246 257.488 28.0677 258.24 26.9249C258.809 26.1275 259.032 25.8993 260.874 24.4596C262.716 23.02 263.331 22.0385 263.222 20.6628C263.078 18.8385 261.403 17.8273 258.861 18.0283C257.306 18.1512 256.039 18.8832 255.407 20.0166C255.038 20.6778 254.898 21.2004 254.869 22.3463L250.4 22.1578C250.706 19.9368 251.214 18.7531 252.406 17.4551C253.822 15.9589 256.038 15.0615 258.849 14.8392C261.362 14.6407 263.413 15.0804 265.003 16.1585C266.496 17.1539 267.325 18.5028 267.457 20.1776C267.57 21.6131 267.331 22.7756 266.689 23.7893C266.077 24.8007 265.547 25.3241 263.254 27.1605C261.499 28.5631 261.077 29.3187 261.203 30.9038C261.241 31.3823 261.308 31.8584 261.413 32.4219ZM257.422 35.2351L261.759 34.8924L262.083 38.9896L257.746 39.3324L257.422 35.2351Z" fill="#855E3B"/>
<path d="M327.213 19.541L330.236 18.0277C332.318 20.8686 333.893 24.1017 334.778 27.5479L331.365 29.2729C330.751 26.1255 328.872 21.7237 327.213 19.541ZM318.364 12.9797L318.305 13.37C318.159 14.2406 317.955 15.4715 317.662 17.0928C317.574 17.6032 317.574 17.6032 317.486 17.9936C318.385 17.9597 318.805 17.9278 319.345 17.9255C321.325 17.9168 322.798 18.4503 323.792 19.496C324.817 20.6315 325.214 22.0698 325.226 24.7997C325.248 29.9597 324.396 34.0735 322.963 35.7298C322.128 36.7234 321.229 37.0874 319.639 37.0944C318.259 37.1004 317.028 36.8658 315.015 36.2146C315.043 35.6445 315.071 35.1944 315.07 34.8944C315.066 34.1144 315.004 33.5146 314.759 32.3457C316.382 33.0586 318.094 33.5311 319.144 33.5265C320.014 33.5227 320.491 32.9506 320.935 31.4786C321.408 29.9165 321.696 27.1852 321.685 24.6353C321.673 21.8753 320.979 21.0683 318.669 21.0785C318.039 21.0812 317.559 21.1133 316.87 21.1763C315.427 27.3327 314.092 30.9686 310.821 37.523L307.333 35.6183C309.629 32.4582 311.915 27.0481 313.301 21.462C312.851 21.524 312.851 21.524 311.892 21.7082L309.164 22.1701C308.684 22.2622 308.355 22.3537 307.935 22.4755L307.56 18.9371C308.91 18.9012 310.469 18.7444 313.947 18.2791C314.502 14.9467 314.705 13.2358 314.7 12.2158C314.7 12.0958 314.699 11.9158 314.698 11.6758L318.6 12.0487C318.511 12.2891 318.422 12.6795 318.364 12.9797ZM325.325 13.1592L327.42 12.1C328.746 13.5042 329.561 14.6406 330.589 16.4962L328.494 17.6154C327.496 15.7897 326.651 14.5934 325.325 13.1592ZM334.151 14.5305L332.086 15.7096C331.179 14.0635 330.182 12.6579 329.007 11.373L331.012 10.3142C332.368 11.6883 333.213 12.8246 334.151 14.5305Z" fill="#855E3B"/>
<path d="M390.341 22.3451L393.474 23.7594C393.268 24.1982 393.268 24.1982 392.723 25.3084C391.217 28.4663 389.892 30.5829 388.244 32.5606C388.752 33.6419 389.302 34.5153 389.891 35.2407C390.369 35.8094 390.996 36.3868 391.176 36.3973C391.296 36.4043 391.426 36.2315 391.599 35.8509C391.848 35.1743 391.848 35.1743 392.371 32.3799C393.33 33.4574 393.702 33.7795 394.95 34.5433C394.026 38.5464 392.875 40.2524 391.228 40.1566C389.701 40.0678 387.451 37.9236 385.878 35.0073C383.503 37.093 381.067 38.6642 378.325 39.827C377.477 38.3953 377.168 38.0168 376.201 37.089C379.42 35.9841 382.16 34.3404 384.578 32.0468C383.499 28.8889 383.049 25.2567 383.026 19.9664L373.742 19.4265C373.545 22.2999 373.545 22.2999 373.452 23.3763L378.963 23.6968C380.011 23.7577 380.462 23.7539 381.096 23.7007C381.005 24.2363 380.896 25.0714 380.769 26.2359C380.156 31.6094 379.884 33.1862 379.301 34.4145C378.752 35.5846 377.648 35.9712 375.342 35.837C374.503 35.7883 374.026 35.7304 373.071 35.6148C372.996 34.3183 372.858 33.589 372.477 32.3949C374.052 32.6968 374.5 32.7529 375.368 32.8034C376.297 32.8574 376.577 32.6934 376.77 31.9534C377.07 30.9191 377.333 28.9811 377.534 26.5587L373.162 26.3044C372.754 29.7064 372.364 31.7572 371.796 33.7677C371.118 36.1323 370.44 37.4452 369.001 39.465C368.142 38.213 367.576 37.6091 366.543 36.7678C367.685 35.2114 368.396 33.8404 368.885 32.1559C369.63 29.675 370.161 25.7092 370.471 20.3782C370.605 18.0721 370.619 17.3216 370.539 16.1149C371.612 16.2675 372.836 16.3988 374.394 16.4893L383.079 16.9945C383.063 16.7531 383.108 15.9744 383.125 14.6532C383.159 13.5433 383.166 13.4235 383.085 12.7577L386.649 12.9649C386.523 13.5886 386.391 14.8131 386.334 15.8014C386.318 16.071 386.271 16.8796 386.254 17.1791L390.207 17.409C389.433 16.2521 388.9 15.5901 387.732 14.5004L390.123 13.167C391.433 14.4151 391.912 14.9539 392.965 16.4876L391.345 17.4752L392.243 17.5274C393.831 17.6197 394.641 17.6368 395.429 17.5324L395.237 20.8268C394.254 20.6795 393.119 20.5534 391.592 20.4646L386.201 20.151C386.242 24.0901 386.501 26.8698 387.058 29.186C388.696 26.8472 389.859 24.4206 390.341 22.3451Z" fill="#FAAB99"/>
<path d="M448.508 32.9861L451.231 34.6288C450.98 34.7935 450.6 35.1004 449.431 36.0194C448.609 36.6595 447.608 37.2884 446.428 37.9061C448.86 39.3804 451.293 40.3738 454.106 41.0603C453.315 42.1832 452.907 42.9393 452.304 44.4046C447.884 42.9866 444.631 41.1605 441.85 38.5222C439.808 36.5613 438.706 34.9595 437.639 32.3079L435.034 32.1454L434.61 38.9422C437.251 38.5358 438.59 38.2587 440.729 37.7008L440.572 40.6969C437.271 41.573 434.049 42.1535 428.686 42.8409C427.958 42.9458 427.868 42.9402 427.32 43.0562L426.9 39.6635C427.86 39.6934 429.187 39.6259 431.186 39.3898L431.651 31.9343L430.034 31.8335C428.776 31.755 427.966 31.7345 426.969 31.8226L427.17 28.5889C427.792 28.7479 428.896 28.8769 430.273 28.9628L431.83 29.0599L432.42 19.5983C432.521 17.9815 432.523 17.4706 432.486 16.6266C433.376 16.8024 434.273 16.8884 435.74 16.9799L449.154 17.8168C450.89 17.9252 451.731 17.9475 452.638 17.8539L452.44 21.0277C451.49 20.8482 450.803 20.7753 449.006 20.6632L435.862 19.8431L435.768 21.3402L448.464 22.1322C449.661 22.207 450.593 22.205 451.228 22.1544L451.058 24.8791C450.464 24.7519 449.061 24.6042 448.312 24.5575L435.617 23.7655L435.526 25.2326L448.221 26.0247C449.419 26.0994 450.41 26.1012 450.985 26.0468L450.813 28.8015C449.982 28.6294 449.295 28.5565 448.068 28.4799L435.372 27.6878L435.273 29.2748L451.232 30.2704C452.58 30.3545 453.392 30.345 454.208 30.2757L454.006 33.5094C453.265 33.343 452.37 33.227 451.322 33.1617L448.508 32.9861ZM448.179 32.9655L441.022 32.519C441.794 34.1302 442.492 34.9853 443.95 36.1884C445.51 35.2638 447.277 33.9312 448.179 32.9655Z" fill="#FAAB99"/>
<path d="M501.402 25.9009C500.557 30.5694 499.266 34.6406 497.569 37.9368C495.635 41.6998 493.615 43.3541 491.159 43.2098C487.745 43.0091 485.493 39.3908 485.777 34.5691C485.97 31.2748 487.32 28.2588 489.583 26.0478C492.261 23.4404 495.879 22.2105 500.132 22.4605C507.319 22.8829 511.734 27.5299 511.338 34.2683C511.034 39.4493 508.096 43.4238 503.404 45.0113C501.932 45.5258 500.746 45.7566 498.629 45.9928C498.213 44.3756 497.892 43.6956 497.008 42.3815C499.784 42.184 501.609 41.8105 503.064 41.0846C505.754 39.8002 507.479 37.0466 507.667 33.8421C507.836 30.9671 506.685 28.5554 504.374 26.9771C503.477 26.3835 502.713 26.0981 501.402 25.9009ZM497.747 25.7161C496.179 25.8043 495.076 26.1602 493.797 26.9566C491.176 28.6056 489.437 31.5988 489.249 34.8032C489.105 37.259 490.038 39.2672 491.356 39.3447C492.344 39.4028 493.437 38.2048 494.666 35.6926C495.962 33.0641 497.188 29.0792 497.747 25.7161Z" fill="#855E3B"/>
<path d="M550.136 34.5976L550.234 32.5299C548.23 33.6366 547.431 34.0194 545.321 34.8207C544.871 33.5381 544.541 32.8918 543.727 31.682C546.565 30.7349 549.18 29.4167 551.572 27.7277C553.718 26.1772 555.197 24.7454 556.513 22.9455L560.079 23.1139C561.277 25.0926 562.562 26.5048 564.875 28.416C567.128 30.2944 569.319 31.5992 572.322 32.8823C571.484 34.1041 571.157 34.6593 570.518 36.1008C568.436 35.0414 567.53 34.518 565.758 33.233L565.659 35.3307C564.914 35.2054 564.167 35.1401 562.968 35.0835L552.719 34.5995C551.76 34.5542 550.92 34.5445 550.136 34.5976ZM552.896 31.4844L563.085 31.9655C563.445 31.9825 563.565 31.9882 564.104 32.0136C561.556 30.0012 559.981 28.3651 558.207 25.8786C556.287 28.3708 554.908 29.5971 552.057 31.4447C552.417 31.4617 552.567 31.4688 552.896 31.4844ZM550.545 50.1142L546.979 49.9458C547.144 48.9925 547.247 48.0963 547.309 46.7778L547.639 39.7956C547.697 38.567 547.678 37.6951 547.629 36.8218C548.284 36.9429 549.002 37.0068 550.2 37.0634L565.184 37.771C566.382 37.8276 567.103 37.8316 567.796 37.7742C567.637 38.6076 567.567 39.4453 567.506 40.7338L567.175 47.746C567.11 49.1245 567.1 49.965 567.206 50.901L563.64 50.7326L563.713 49.2043L550.617 48.5859L550.545 50.1142ZM551.022 40.0154L550.756 45.6492L563.851 46.2676L564.117 40.6339L551.022 40.0154Z" fill="#855E3B"/>
<path d="M608.52 36.5904L610.446 37.4548C610.305 37.1207 610.305 37.1207 610.052 36.5134C609.437 34.9055 608.981 34.0524 607.742 32.2169L610.358 30.9698C611.769 33.0802 612.226 33.9033 613.152 36.2102L610.534 37.5173C612.698 38.5083 613.29 38.795 615.388 39.9643C617.673 37.6875 619.703 34.8333 620.701 32.4303C620.959 31.8073 620.99 31.7482 621.254 30.9152L624.273 32.4105C623.896 33.0002 623.801 33.1776 623.389 33.9763C621.834 36.9939 620.207 39.3492 618.105 41.5411C619.728 42.517 621.673 43.8021 623.497 45.1137L621.497 47.9387C619.12 46.0113 618.002 45.1997 615.732 43.7255C613.55 45.555 611.901 46.5592 608.771 47.972C608.053 46.8114 607.473 46.0748 606.713 45.3632C609.504 44.3011 611.149 43.4169 613.019 42.0287C610.773 40.7953 609.914 40.381 606.738 39.1215L608.52 36.5904ZM618.467 35.0387L615.76 36.3133C615.045 34.0124 614.423 32.6444 613.39 30.9348L616.003 29.8076C617.152 31.6405 617.661 32.7352 618.467 35.0387ZM605.492 52.5018L602.074 52.4059C602.22 51.4797 602.309 50.4317 602.363 48.5125L602.897 29.47C602.937 28.0605 602.907 26.9793 602.818 25.8664C603.894 26.0166 604.793 26.0718 606.353 26.1156L625.065 26.6404C626.595 26.6833 627.525 26.6794 628.578 26.5889C628.424 27.7851 628.37 28.6539 628.327 30.1833L627.793 49.2258C627.742 51.0551 627.768 52.2563 627.864 53.1293L624.475 53.0343L624.521 51.3849L605.539 50.8525L605.492 52.5018ZM606.151 29.021L605.62 47.9436L624.573 48.4752L625.104 29.5527L606.151 29.021Z" fill="#855E3B"/>
</svg>
