<svg width="277" height="277" viewBox="0 0 277 277" fill="none" xmlns="http://www.w3.org/2000/svg">
<path d="M162.906 216.323C161.721 217.559 160.081 218.23 157.802 217.94C156.8 217.818 155.66 217.543 154.521 216.124C153.427 214.766 153.275 213.576 153.443 212.661C154.202 208.663 156.951 207.077 161.448 207.824C163.331 208.129 164.911 210.082 165.017 212.096C165.124 214.232 164.121 215.361 162.906 216.323Z" fill="#F7D056"/>
<path d="M228.862 158.081C227.678 159.317 226.037 159.988 223.758 159.698C222.756 159.576 221.617 159.302 220.477 157.883C219.384 156.525 219.232 155.335 219.399 154.419C220.158 150.422 222.908 148.835 227.404 149.583C229.288 149.888 230.867 151.841 230.974 153.855C231.08 155.991 230.078 157.12 228.862 158.081Z" fill="#F7D056"/>
<path d="M109.922 9.20628C108.646 10.0607 107.173 10.8388 104.925 10.3811C102.343 9.86236 100.444 7.589 100.687 5.23937C101.067 1.53184 103.239 -0.176978 107.036 0.143426C108.145 0.23497 109.527 0.555367 110.849 2.23367C112.064 3.80518 111.867 4.90371 111.684 5.9107C111.457 7.28386 110.803 8.29085 109.922 9.19104V9.20628Z" fill="#F7D056"/>
<path d="M165.88 64.5086C164.3 66.2022 161.793 66.3547 158.193 64.5544C156.279 63.5932 155.338 62.4489 154.988 60.6027C153.955 55.0338 159.135 52.5316 164.786 55.873C166.928 57.1393 167.915 58.604 167.885 60.4807C167.854 62.3878 167.095 63.6237 165.864 64.5238L165.88 64.5086Z" fill="#F7D056"/>
<path d="M206.743 262.739C205.725 263.746 204.571 264.478 202.748 264.28C200.682 264.051 199.178 262.556 198.464 260.053C197.082 255.202 200.591 250.991 204.95 252.287C206.986 252.882 208.551 254.713 208.763 256.849C209.037 259.626 208.368 261.64 206.743 262.754V262.739Z" fill="#F7D056"/>
<path d="M265 201.038C265.851 200.061 267.005 199.527 268.524 199.512C270.742 199.481 272.368 200.961 273.249 203.83C274.631 208.3 272.626 209.811 270.484 211.153C269.983 211.474 269.269 211.535 268.585 211.611C267.522 211.733 266.261 211.535 264.864 210.024C263.542 208.605 263.026 207.08 262.98 205.813C262.889 203.54 263.603 201.968 265 201.053V201.038Z" fill="#F7D056"/>
<path d="M186.383 16.611C185.244 17.679 183.983 18.3351 182.039 18.0147C180.11 17.6943 178.621 16.0923 178.181 13.8952C177.345 9.79099 180.535 5.71727 184.166 6.25128C186.52 6.60219 188.009 8.26527 188.252 10.8132C188.51 13.5596 187.887 15.5277 186.383 16.5957V16.611Z" fill="#F7D056"/>
<path d="M239.744 47.7678C238.559 49.0036 236.919 49.6749 234.64 49.385C233.638 49.263 232.499 48.9884 231.359 47.5694C230.266 46.2115 230.114 45.0215 230.281 44.106C231.04 40.1086 233.79 38.5218 238.286 39.2694C240.17 39.5746 241.749 41.5275 241.856 43.5415C241.962 45.6775 240.959 46.8066 239.744 47.7678Z" fill="#F7D056"/>
<path d="M15.4887 144.648C14.2127 145.503 12.7393 146.281 10.4912 145.823C7.90885 145.305 6.01008 143.031 6.25313 140.682C6.63288 136.974 8.80506 135.265 12.6026 135.586C13.7115 135.677 15.0938 135.998 16.4153 137.676C17.6305 139.247 17.433 140.346 17.2508 141.353C17.0229 142.726 16.3697 143.733 15.4887 144.633V144.648Z" fill="#F7D056"/>
<path d="M130.565 266.6C131.932 265.822 133.178 264.952 135.274 265.364C137.294 265.761 138.889 267.531 138.843 269.484C138.737 273.786 136.686 276.06 132.661 276.105C131.826 276.105 130.823 275.861 129.76 274.687C128.605 273.405 128.575 272.383 128.575 271.391C128.575 269.163 129.669 267.943 130.565 266.6Z" fill="#F7D056"/>
<path d="M268.888 124.804C269.754 123.935 271.03 123.401 272.747 123.569C274.98 123.767 277.015 125.994 277 128.298C276.954 132.342 274.934 134.279 271.182 134.172C268.873 134.111 266.99 131.96 266.853 129.397C266.747 127.215 267.597 125.888 268.904 124.82L268.888 124.804Z" fill="#F7D056"/>
<path d="M224.438 113.182C222.979 113.945 221.567 114.799 219.167 114.097C216.463 113.304 214.108 110.542 214.245 108.101C214.518 103.616 216.934 101.495 221.627 102.212C223.936 102.563 225.197 104.012 226.002 106.682C227.05 110.146 225.592 111.504 224.438 113.182Z" fill="#F7D056"/>
<path d="M11.0236 98.2668C9.44383 99.9604 6.93747 100.113 3.33741 98.3126C1.42346 97.3514 0.481677 96.2071 0.132305 94.3609C-0.900621 88.792 4.2792 86.2898 9.92991 89.6312C12.0717 90.8975 13.0591 92.3623 13.0287 94.2389C12.9983 96.1461 12.2388 97.3819 11.0084 98.2821L11.0236 98.2668Z" fill="#F7D056"/>
<path d="M20.7839 196.685C22.151 195.907 23.3966 195.038 25.4928 195.45C27.5131 195.846 29.1081 197.616 29.0625 199.569C28.9562 203.872 26.9055 206.145 22.8801 206.191C22.0446 206.191 21.0421 205.947 19.9788 204.772C18.8244 203.49 18.794 202.468 18.794 201.476C18.794 199.249 19.8877 198.028 20.7839 196.685Z" fill="#F7D056"/>
<path d="M68.8244 242.027C69.6902 241.157 70.9662 240.623 72.6827 240.791C74.9157 240.989 76.9511 243.217 76.9359 245.521C76.8904 249.564 74.8701 251.502 71.1181 251.395C68.8092 251.334 66.9257 249.182 66.7889 246.619C66.6826 244.437 67.5333 243.11 68.8396 242.042L68.8244 242.027Z" fill="#F7D056"/>
<path d="M129.99 189.475C128.41 191.168 125.903 191.321 122.303 189.52C120.389 188.559 119.448 187.415 119.098 185.569C118.065 180 123.245 177.498 128.896 180.839C131.038 182.105 132.025 183.57 131.995 185.447C131.964 187.354 131.205 188.59 129.974 189.49L129.99 189.475Z" fill="#F7D056"/>
<path d="M63.5761 98.258C62.3001 99.1124 60.8267 99.8905 58.5785 99.4328C55.9962 98.914 54.0975 96.6407 54.3405 94.2911C54.7203 90.5835 56.8924 88.8747 60.69 89.1951C61.7988 89.2867 63.1812 89.6071 64.5027 91.2854C65.7179 92.8569 65.5204 93.9554 65.3381 94.9624C65.1103 96.3355 64.4571 97.3425 63.5761 98.2427V98.258Z" fill="#F7D056"/>
<path d="M96.398 53.1057C97.7651 52.3276 99.0107 51.4579 101.107 51.8699C103.127 52.2666 104.722 54.0364 104.677 55.9894C104.57 60.2919 102.52 62.5653 98.4942 62.611C97.6587 62.611 96.6562 62.3669 95.5929 61.1921C94.4384 59.9105 94.4081 58.8883 94.4081 57.8965C94.4081 55.669 95.5018 54.4483 96.398 53.1057Z" fill="#F7D056"/>
<path d="M75.6625 169.769C74.0827 171.463 71.5764 171.615 67.9763 169.815C66.0624 168.854 65.1206 167.709 64.7712 165.863C63.7383 160.294 68.9181 157.792 74.5688 161.134C76.7106 162.4 77.698 163.865 77.6676 165.741C77.6372 167.648 76.8777 168.884 75.6473 169.784L75.6625 169.769Z" fill="#F7D056"/>
<path d="M110.198 138.338C109.058 139.406 107.798 140.062 105.853 139.742C103.924 139.422 102.435 137.82 101.995 135.623C101.16 131.518 104.349 127.445 107.98 127.979C110.334 128.33 111.823 129.993 112.066 132.541C112.339 135.287 111.701 137.255 110.198 138.323V138.338Z" fill="#F7D056"/>
<path d="M158.14 117.696C156.864 118.55 155.39 119.329 153.142 118.871C150.56 118.352 148.661 116.079 148.904 113.729C149.284 110.022 151.456 108.313 155.254 108.633C156.363 108.725 157.745 109.045 159.066 110.723C160.282 112.295 160.084 113.393 159.902 114.4C159.674 115.774 159.021 116.781 158.14 117.681V117.696Z" fill="#F7D056"/>
<path d="M169.741 153.953C171.108 153.174 172.353 152.305 174.45 152.717C176.47 153.113 178.065 154.883 178.019 156.836C177.913 161.139 175.862 163.412 171.837 163.458C171.002 163.458 169.999 163.214 168.936 162.039C167.781 160.757 167.751 159.735 167.751 158.743C167.751 156.516 168.845 155.295 169.741 153.953Z" fill="#F7D056"/>
<path d="M37.65 23.3411C38.5158 22.4714 39.7918 21.9374 41.5083 22.09C43.7412 22.2883 45.7767 24.5159 45.7615 26.8198C45.7159 30.863 43.6956 32.8007 39.9437 32.6939C37.6348 32.6328 35.7512 30.4815 35.6145 27.9183C35.5082 25.7365 36.3588 24.4091 37.6652 23.3411H37.65Z" fill="#F7D056"/>
</svg>
