<svg width="114" height="120" viewBox="0 0 114 120" fill="none" xmlns="http://www.w3.org/2000/svg">
<path d="M35.0479 30.749C35.6403 30.1311 36.4605 29.7954 37.5998 29.9404C38.1011 30.0014 38.6707 30.1387 39.2403 30.8482C39.7872 31.5271 39.8631 32.1222 39.7796 32.5799C39.3998 34.5786 38.0251 35.372 35.777 34.9982C34.8352 34.8456 34.0453 33.8691 33.9922 32.8621C33.939 31.7941 34.4403 31.2296 35.0479 30.749Z" fill="#F7D056"/>
<path d="M2.06968 59.8698C2.6621 59.2519 3.48236 58.9162 4.62162 59.0611C5.12289 59.1222 5.69252 59.2595 6.26214 59.969C6.80899 60.6479 6.88493 61.243 6.80139 61.7007C6.42164 63.6994 5.04694 64.4928 2.79881 64.119C1.85702 63.9664 1.06713 62.9899 1.01397 61.9829C0.960802 60.9149 1.46208 60.3504 2.06968 59.8698Z" fill="#F7D056"/>
<path d="M33.5611 106.656C34.351 105.809 35.6042 105.733 37.4042 106.633C38.3612 107.114 38.8321 107.686 39.0067 108.609C39.5232 111.393 36.9333 112.645 34.1079 110.974C33.037 110.341 32.5434 109.608 32.5585 108.67C32.5737 107.716 32.9535 107.098 33.5687 106.648L33.5611 106.656Z" fill="#F7D056"/>
<path d="M13.1294 7.541C13.6383 7.03751 14.2155 6.67133 15.1269 6.77051C16.1598 6.88494 16.9117 7.63255 17.2687 8.88365C17.9598 11.3096 16.2054 13.4151 14.0256 12.7666C13.0079 12.4691 12.2256 11.5537 12.1192 10.4857C11.9825 9.09724 12.3167 8.09026 13.1294 7.53337L13.1294 7.541Z" fill="#F7D056"/>
<path d="M-15.9993 38.3915C-16.4246 38.8797 -17.0018 39.1467 -17.7613 39.1544C-18.8702 39.1696 -19.6829 38.4297 -20.1234 36.9955C-20.8146 34.7603 -19.812 34.005 -18.7411 33.3337C-18.4905 33.1735 -18.1335 33.143 -17.7917 33.1048C-17.2601 33.0438 -16.6297 33.143 -15.9309 33.8982C-15.2702 34.6077 -15.0119 35.3706 -14.9892 36.0037C-14.9436 37.1404 -15.3006 37.9262 -15.9993 38.3839L-15.9993 38.3915Z" fill="#F7D056"/>
<path d="M-3.37129 115.026C-2.77888 114.409 -1.95862 114.073 -0.819358 114.218C-0.318085 114.279 0.251539 114.416 0.821167 115.126C1.36801 115.805 1.44397 116.4 1.36042 116.857C0.980668 118.856 -0.39404 119.649 -2.64217 119.276C-3.58396 119.123 -4.37385 118.147 -4.42702 117.14C-4.48018 116.072 -3.9789 115.507 -3.37129 115.026Z" fill="#F7D056"/>
<path d="M108.757 66.5861C109.394 66.1589 110.131 65.7698 111.255 65.9987C112.546 66.2581 113.496 67.3947 113.374 68.5696C113.184 70.4233 112.098 71.2777 110.2 71.1175C109.645 71.0718 108.954 70.9116 108.293 70.0724C107.686 69.2866 107.784 68.7374 107.875 68.2339C107.989 67.5473 108.316 67.0438 108.757 66.5937L108.757 66.5861Z" fill="#F7D056"/>
<path d="M51.2184 5.61025C50.5349 5.99931 49.9121 6.43414 48.864 6.22817C47.8538 6.02982 47.0563 5.1449 47.0791 4.16843C47.1323 2.01715 48.1576 0.880478 50.1703 0.857592C50.588 0.857592 51.0893 0.979642 51.621 1.56705C52.1982 2.20786 52.2134 2.71898 52.2134 3.21485C52.2134 4.32863 51.6665 4.93892 51.2184 5.61025Z" fill="#F7D056"/>
<path d="M-17.9434 76.5081C-18.3763 76.9429 -19.0143 77.2099 -19.8725 77.126C-20.989 77.0269 -22.0067 75.9131 -21.9991 74.7612C-21.9763 72.7396 -20.9662 71.7707 -19.0902 71.8241C-17.9357 71.8546 -16.994 72.9303 -16.9256 74.2119C-16.8724 75.3028 -17.2978 75.9665 -17.9509 76.5005L-17.9434 76.5081Z" fill="#F7D056"/>
<path d="M4.28209 82.3193C5.01122 81.9379 5.71756 81.5107 6.91758 81.8616C8.26949 82.2583 9.44672 83.6391 9.37836 84.8597C9.24165 87.1025 8.03404 88.1629 5.68717 87.8043C4.53273 87.6289 3.90235 86.9041 3.49981 85.5691C2.97575 83.8374 3.70487 83.1585 4.28209 82.3193Z" fill="#F7D056"/>
<path d="M106.109 40.5676C105.425 40.9566 104.803 41.3915 103.754 41.1855C102.744 40.9872 101.947 40.1022 101.97 39.1258C102.023 36.9745 103.048 35.8378 105.061 35.8149C105.479 35.8149 105.98 35.937 106.511 36.5244C107.089 37.1652 107.104 37.6763 107.104 38.1722C107.104 39.286 106.557 39.8963 106.109 40.5676Z" fill="#F7D056"/>
<path d="M82.0887 17.897C81.6557 18.3318 81.0177 18.5988 80.1595 18.5149C79.043 18.4157 78.0253 17.3019 78.0329 16.15C78.0557 14.1284 79.0658 13.1596 80.9418 13.213C82.0962 13.2435 83.038 14.3191 83.1064 15.6007C83.1596 16.6916 82.7342 17.3553 82.0811 17.8893L82.0887 17.897Z" fill="#F7D056"/>
<path d="M51.5061 44.173C52.296 43.3262 53.5491 43.2499 55.3492 44.1501C56.3061 44.6307 56.777 45.2028 56.9517 46.1259C57.4682 48.9104 54.8783 50.1615 52.0529 48.4908C50.982 47.8576 50.4883 47.1253 50.5035 46.1869C50.5187 45.2333 50.8985 44.6154 51.5137 44.1653L51.5061 44.173Z" fill="#F7D056"/>
<path d="M84.7128 89.7813C85.3508 89.3541 86.0875 88.9651 87.2116 89.1939C88.5027 89.4533 89.4521 90.59 89.3306 91.7648C89.1407 93.6186 88.0546 94.473 86.1559 94.3128C85.6014 94.267 84.9103 94.1068 84.2495 93.2676C83.6419 92.4819 83.7406 91.9326 83.8318 91.4291C83.9457 90.7426 84.2723 90.2391 84.7128 89.789L84.7128 89.7813Z" fill="#F7D056"/>
<path d="M78.6696 54.0257C79.4595 53.1789 80.7127 53.1027 82.5127 54.0028C83.4697 54.4834 83.9406 55.0556 84.1153 55.9787C84.6317 58.7631 82.0418 60.0142 79.2165 58.3435C78.1456 57.7104 77.6519 56.978 77.6671 56.0397C77.6823 55.0861 78.062 54.4682 78.6772 54.0181L78.6696 54.0257Z" fill="#F7D056"/>
<path d="M61.4021 69.7411C61.9717 69.2071 62.6021 68.8791 63.5742 69.0393C64.5388 69.1995 65.2831 70.0005 65.5034 71.099C65.9211 73.1511 64.3261 75.188 62.5109 74.921C61.3337 74.7455 60.5894 73.914 60.4679 72.64C60.3311 71.2669 60.6501 70.2828 61.4021 69.7488L61.4021 69.7411Z" fill="#F7D056"/>
<path d="M37.4309 80.0623C38.0689 79.6351 38.8056 79.2461 39.9297 79.4749C41.2208 79.7343 42.1702 80.871 42.0487 82.0458C41.8588 83.8995 40.7727 84.754 38.874 84.5938C38.3195 84.548 37.6284 84.3878 36.9676 83.5486C36.36 82.7629 36.4587 82.2136 36.5499 81.7101C36.6638 81.0235 36.9904 80.52 37.4309 80.07L37.4309 80.0623Z" fill="#F7D056"/>
<path d="M31.6305 61.934C30.9469 62.3231 30.3241 62.7579 29.276 62.5519C28.2659 62.3536 27.4684 61.4687 27.4912 60.4922C27.5443 58.3409 28.5697 57.2042 30.5823 57.1813C31.0001 57.1813 31.5014 57.3034 32.033 57.8908C32.6102 58.5316 32.6254 59.0427 32.6254 59.5386C32.6254 60.6524 32.0786 61.2627 31.6305 61.934Z" fill="#F7D056"/>
</svg>
