<svg width="284" height="273" viewBox="0 0 284 273" fill="none" xmlns="http://www.w3.org/2000/svg">
<path d="M58.2432 137.466C57.3582 135.998 57.1365 134.234 58.0081 132.1C58.3863 131.16 58.9473 130.126 60.6127 129.389C62.2074 128.68 63.3954 128.84 64.2355 129.239C67.8962 131.009 68.7134 134.085 66.8239 138.25C66.0401 139.997 63.7449 141.024 61.7736 140.606C59.6844 140.157 58.8552 138.893 58.2432 137.466Z" fill="#F7D056"/>
<path d="M97.3203 216.468C96.4354 215 96.2136 213.236 97.0853 211.102C97.4635 210.162 98.0245 209.128 99.6899 208.391C101.285 207.682 102.473 207.842 103.313 208.241C106.973 210.011 107.791 213.087 105.901 217.252C105.117 218.999 102.822 220.026 100.851 219.608C98.7616 219.159 97.9324 217.895 97.3203 216.468Z" fill="#F7D056"/>
<path d="M271.899 139.66C271.406 138.202 271.038 136.573 272.064 134.512C273.235 132.142 275.922 130.889 278.127 131.733C281.607 133.06 282.692 135.607 281.396 139.206C281.019 140.257 280.351 141.515 278.388 142.362C276.556 143.134 275.547 142.658 274.622 142.221C273.356 141.645 272.554 140.751 271.914 139.664L271.899 139.66Z" fill="#F7D056"/>
<path d="M203.99 179.608C202.766 177.639 203.27 175.169 205.943 172.145C207.368 170.538 208.717 169.921 210.589 170.06C216.232 170.498 217.302 176.167 212.609 180.781C210.83 182.53 209.16 183.108 207.357 182.594C205.524 182.071 204.529 181.015 203.98 179.589L203.99 179.608Z" fill="#F7D056"/>
<path d="M2.05929 167.959C1.3518 166.712 0.944889 165.404 1.60982 163.688C2.36734 161.744 4.20105 160.673 6.80144 160.628C11.8431 160.543 14.9958 165.033 12.6117 168.924C11.5086 170.744 9.33519 171.787 7.21842 171.441C4.46741 170.988 2.69731 169.819 2.04457 167.955L2.05929 167.959Z" fill="#F7D056"/>
<path d="M46.4752 240.396C47.1967 241.473 47.4122 242.73 47.0323 244.207C46.4857 246.365 44.6351 247.558 41.6379 247.67C36.9644 247.854 36.0274 245.519 35.288 243.096C35.109 242.527 35.2355 241.819 35.3394 241.137C35.4978 240.074 36.0168 238.903 37.8376 237.939C39.5503 237.025 41.157 236.919 42.391 237.202C44.6088 237.702 45.94 238.8 46.4605 240.392L46.4752 240.396Z" fill="#F7D056"/>
<path d="M244.892 211.873C244.157 210.492 243.851 209.1 244.666 207.298C245.476 205.511 247.409 204.482 249.644 204.623C253.822 204.874 256.925 209.02 255.466 212.402C254.516 214.594 252.524 215.607 250.002 215.183C247.284 214.724 245.547 213.611 244.907 211.877L244.892 211.873Z" fill="#F7D056"/>
<path d="M200.96 255.546C200.075 254.078 199.853 252.314 200.725 250.18C201.103 249.24 201.664 248.206 203.33 247.469C204.924 246.76 206.112 246.92 206.952 247.319C210.613 249.089 211.43 252.165 209.541 256.33C208.757 258.078 206.462 259.104 204.49 258.686C202.401 258.237 201.572 256.973 200.96 255.546Z" fill="#F7D056"/>
<path d="M165.712 13.0862C165.219 11.6282 164.85 9.99856 165.876 7.93745C167.048 5.56815 169.735 4.31527 171.939 5.15851C175.419 6.48545 176.504 9.0332 175.208 12.6319C174.832 13.6832 174.164 14.9405 172.201 15.7876C170.368 16.5593 169.359 16.0838 168.435 15.6467C167.169 15.0707 166.366 14.177 165.727 13.0901L165.712 13.0862Z" fill="#F7D056"/>
<path d="M18.1208 93.1118C18.5166 94.6384 19.0324 96.0709 18.0903 97.9966C17.1826 99.8526 15.0602 100.941 13.1872 100.392C9.06231 99.1762 7.40095 96.6002 8.40243 92.686C8.61945 91.876 9.11547 90.9672 10.5255 90.2402C12.0623 89.4524 13.0568 89.6873 14.0139 89.9438C16.1638 90.5199 17.0577 91.8958 18.1208 93.1118Z" fill="#F7D056"/>
<path d="M119.04 263.878C119.654 264.943 119.838 266.318 119.23 267.938C118.459 270.052 115.78 271.449 113.56 270.839C109.67 269.749 108.325 267.289 109.403 263.679C110.061 261.457 112.627 260.187 115.136 260.717C117.269 261.179 118.33 262.346 119.021 263.889L119.04 263.878Z" fill="#F7D056"/>
<path d="M141.803 223.791C141.446 222.18 140.988 220.589 142.289 218.444C143.757 216.028 147.034 214.459 149.355 215.223C153.613 216.648 155.032 219.538 153.121 223.903C152.182 226.051 150.456 226.898 147.67 226.988C144.055 227.109 143.123 225.344 141.803 223.791Z" fill="#F7D056"/>
<path d="M211.636 20.7507C210.412 18.7812 210.916 16.312 213.588 13.2874C215.013 11.6805 216.362 11.0634 218.235 11.2021C223.878 11.6409 224.947 17.3096 220.255 21.9236C218.476 23.6725 216.806 24.251 215.003 23.7362C213.17 23.2135 212.174 22.1577 211.625 20.732L211.636 20.7507Z" fill="#F7D056"/>
<path d="M114.114 4.76224C114.51 6.28882 115.026 7.72125 114.083 9.64694C113.176 11.5029 111.053 12.5915 109.18 12.0423C105.055 10.8265 103.394 8.2506 104.396 4.33633C104.613 3.52639 105.109 2.61761 106.519 1.89059C108.056 1.10283 109.05 1.33773 110.007 1.59419C112.157 2.17025 113.051 3.54618 114.114 4.76224Z" fill="#F7D056"/>
<path d="M57.8746 39.6088C58.489 40.6731 58.6729 42.0482 58.0651 43.6688C57.2936 45.7823 54.615 47.1796 52.3954 46.569C48.5051 45.4793 47.1598 43.0196 48.2375 39.4099C48.8962 37.1873 51.4617 35.9175 53.971 36.4479C56.1044 36.909 57.1645 38.0769 57.8559 39.6196L57.8746 39.6088Z" fill="#F7D056"/>
<path d="M92.7053 112.499C91.4812 110.529 91.985 108.06 94.6578 105.035C96.0826 103.429 97.4317 102.811 99.3042 102.95C104.947 103.389 106.017 109.058 101.324 113.672C99.5453 115.421 97.8752 115.999 96.0719 115.484C94.2391 114.962 93.2437 113.906 92.6945 112.48L92.7053 112.499Z" fill="#F7D056"/>
<path d="M197.993 71.7014C197.5 70.2435 197.132 68.6138 198.157 66.5527C199.329 64.1834 202.016 62.9305 204.221 63.7737C207.7 65.1007 208.785 67.6484 207.49 71.2471C207.113 72.2985 206.445 73.5557 204.482 74.4029C202.649 75.1746 201.64 74.699 200.716 74.2619C199.45 73.6859 198.648 72.7923 198.008 71.7054L197.993 71.7014Z" fill="#F7D056"/>
<path d="M233.045 115.198C233.44 116.724 233.956 118.157 233.014 120.083C232.106 121.939 229.984 123.027 228.111 122.478C223.986 121.262 222.325 118.686 223.326 114.772C223.543 113.962 224.039 113.053 225.449 112.326C226.986 111.538 227.981 111.773 228.938 112.03C231.088 112.606 231.982 113.982 233.045 115.198Z" fill="#F7D056"/>
<path d="M125.836 64.9245C124.612 62.9551 125.116 60.4858 127.789 57.4613C129.213 55.8543 130.563 55.2372 132.435 55.3759C138.078 55.8147 139.147 61.4834 134.455 66.0975C132.676 67.8464 131.006 68.4248 129.203 67.91C127.37 67.3874 126.375 66.3315 125.825 64.9059L125.836 64.9245Z" fill="#F7D056"/>
<path d="M147.2 106.535C146.466 105.154 146.16 103.762 146.974 101.96C147.785 100.173 149.717 99.1439 151.952 99.285C156.13 99.5364 159.233 103.682 157.775 107.064C156.825 109.256 154.833 110.269 152.311 109.846C149.589 109.4 147.855 108.273 147.215 106.539L147.2 106.535Z" fill="#F7D056"/>
<path d="M154.669 158.35C154.176 156.892 153.807 155.262 154.833 153.201C156.005 150.832 158.692 149.579 160.896 150.422C164.376 151.749 165.461 154.297 164.165 157.896C163.789 158.947 163.121 160.204 161.158 161.051C159.325 161.823 158.316 161.347 157.392 160.91C156.126 160.334 155.323 159.441 154.684 158.354L154.669 158.35Z" fill="#F7D056"/>
<path d="M116.663 160.219C117.059 161.746 117.574 163.178 116.632 165.104C115.725 166.96 113.602 168.049 111.729 167.499C107.604 166.284 105.943 163.708 106.944 159.793C107.161 158.983 107.657 158.075 109.068 157.348C110.604 156.56 111.599 156.795 112.556 157.051C114.706 157.627 115.6 159.003 116.663 160.219Z" fill="#F7D056"/>
<path d="M277.032 65.9388C277.646 67.0031 277.83 68.3782 277.237 70.0028C276.466 72.1163 273.787 73.5135 271.567 72.903C267.677 71.8133 266.332 69.3536 267.409 65.7438C268.068 63.5212 270.634 62.2515 273.143 62.7818C275.276 63.243 276.336 64.4109 277.028 65.9535L277.032 65.9388Z" fill="#F7D056"/>
</svg>
