<svg width="114" height="120" viewBox="0 0 114 120" fill="none" xmlns="http://www.w3.org/2000/svg">
<path d="M35.042 89.4737C35.6344 90.0916 36.4547 90.4272 37.5939 90.2823C38.0952 90.2213 38.6648 90.0839 39.2345 89.3745C39.7813 88.6955 39.8573 88.1005 39.7737 87.6428C39.394 85.6441 38.0193 84.8507 35.7711 85.2245C34.8293 85.3771 34.0395 86.3535 33.9863 87.3605C33.9331 88.4285 34.4344 88.993 35.042 89.4737Z" fill="#F7D056"/>
<path d="M2.06382 60.3528C2.65623 60.9708 3.4765 61.3064 4.61575 61.1615C5.11703 61.1005 5.68665 60.9631 6.25628 60.2537C6.80312 59.5747 6.87907 58.9797 6.79552 58.522C6.41577 56.5233 5.04108 55.7299 2.79295 56.1037C1.85116 56.2563 1.06127 57.2327 1.0081 58.2397C0.954937 59.3077 1.45622 59.8722 2.06382 60.3528Z" fill="#F7D056"/>
<path d="M33.5552 13.5666C34.3451 14.4134 35.5983 14.4897 37.3983 13.5895C38.3553 13.1089 38.8262 12.5368 39.0009 11.6137C39.5173 8.82923 36.9274 7.57813 34.1021 9.24881C33.0312 9.88199 32.5375 10.6143 32.5527 11.5527C32.5679 12.5062 32.9476 13.1242 33.5628 13.5742L33.5552 13.5666Z" fill="#F7D056"/>
<path d="M13.1235 112.682C13.6324 113.185 14.2096 113.551 15.121 113.452C16.154 113.338 16.9059 112.59 17.2628 111.339C17.954 108.913 16.1995 106.808 14.0197 107.456C13.002 107.754 12.2197 108.669 12.1134 109.737C11.9767 111.125 12.3109 112.132 13.1235 112.689V112.682Z" fill="#F7D056"/>
<path d="M-16.0052 81.8311C-16.4305 81.3429 -17.0077 81.0759 -17.7672 81.0683C-18.8761 81.053 -19.6888 81.793 -20.1293 83.2272C-20.8204 85.4624 -19.8179 86.2176 -18.747 86.8889C-18.4964 87.0491 -18.1394 87.0797 -17.7976 87.1178C-17.266 87.1788 -16.6356 87.0797 -15.9368 86.3244C-15.276 85.615 -15.0178 84.8521 -14.995 84.2189C-14.9495 83.0822 -15.3064 82.2965 -16.0052 81.8388V81.8311Z" fill="#F7D056"/>
<path d="M-3.37715 5.19621C-2.78474 5.81413 -1.96447 6.14979 -0.825218 6.00485C-0.323945 5.94382 0.245679 5.80651 0.815308 5.09705C1.36215 4.4181 1.43811 3.82306 1.35456 3.36534C0.974809 1.36663 -0.3999 0.573248 -2.64803 0.947052C-3.58982 1.09963 -4.37971 2.0761 -4.43288 3.08308C-4.48604 4.15109 -3.98476 4.71561 -3.37715 5.19621Z" fill="#F7D056"/>
<path d="M108.751 53.6366C109.389 54.0638 110.125 54.4528 111.249 54.224C112.541 53.9646 113.49 52.8279 113.368 51.6531C113.179 49.7993 112.092 48.9449 110.194 49.1051C109.639 49.1509 108.948 49.3111 108.287 50.1503C107.68 50.936 107.778 51.4853 107.87 51.9888C107.984 52.6753 108.31 53.1788 108.751 53.6289V53.6366Z" fill="#F7D056"/>
<path d="M51.2126 114.612C50.529 114.223 49.9062 113.789 48.8581 113.994C47.848 114.193 47.0505 115.078 47.0733 116.054C47.1264 118.206 48.1518 119.342 50.1644 119.365C50.5822 119.365 51.0834 119.243 51.6151 118.656C52.1923 118.015 52.2075 117.504 52.2075 117.008C52.2075 115.894 51.6607 115.284 51.2126 114.612Z" fill="#F7D056"/>
<path d="M-17.9492 43.7145C-18.3821 43.2797 -19.0201 43.0127 -19.8784 43.0966C-20.9948 43.1958 -22.0126 44.3096 -22.005 45.4615C-21.9822 47.4831 -20.972 48.4519 -19.0961 48.3985C-17.9416 48.368 -16.9998 47.2924 -16.9315 46.0108C-16.8783 44.9199 -17.3036 44.2562 -17.9568 43.7222L-17.9492 43.7145Z" fill="#F7D056"/>
<path d="M4.27623 37.9033C5.00535 38.2848 5.7117 38.712 6.91171 38.3611C8.26363 37.9644 9.44085 36.5836 9.3725 35.363C9.23579 33.1202 8.02818 32.0598 5.68131 32.4183C4.52687 32.5938 3.89649 33.3185 3.49395 34.6535C2.96989 36.3852 3.69901 37.0642 4.27623 37.9033Z" fill="#F7D056"/>
<path d="M106.103 79.6551C105.419 79.266 104.797 78.8312 103.749 79.0371C102.738 79.2355 101.941 80.1204 101.964 81.0969C102.017 83.2482 103.042 84.3848 105.055 84.4077C105.473 84.4077 105.974 84.2857 106.506 83.6982C107.083 83.0574 107.098 82.5463 107.098 82.0505C107.098 80.9367 106.551 80.3264 106.103 79.6551Z" fill="#F7D056"/>
<path d="M82.0828 102.326C81.6499 101.891 81.0119 101.624 80.1536 101.708C79.0372 101.807 78.0194 102.921 78.027 104.073C78.0498 106.094 79.06 107.063 80.9359 107.01C82.0904 106.979 83.0322 105.904 83.1005 104.622C83.1537 103.531 82.7284 102.867 82.0752 102.333L82.0828 102.326Z" fill="#F7D056"/>
<path d="M51.5002 76.0497C52.2901 76.8965 53.5433 76.9727 55.3433 76.0726C56.3003 75.592 56.7712 75.0198 56.9458 74.0967C57.4623 71.3123 54.8724 70.0612 52.047 71.7318C50.9761 72.365 50.4825 73.0974 50.4977 74.0357C50.5128 74.9893 50.8926 75.6072 51.5078 76.0573L51.5002 76.0497Z" fill="#F7D056"/>
<path d="M84.7069 30.4413C85.3449 30.8685 86.0817 31.2576 87.2057 31.0287C88.4969 30.7693 89.4463 29.6327 89.3247 28.4579C89.1349 26.6041 88.0488 25.7497 86.15 25.9099C85.5956 25.9557 84.9044 26.1159 84.2436 26.955C83.636 27.7408 83.7348 28.29 83.8259 28.7935C83.9399 29.4801 84.2664 29.9836 84.7069 30.4337V30.4413Z" fill="#F7D056"/>
<path d="M78.6637 66.1969C79.4536 67.0437 80.7068 67.12 82.5068 66.2198C83.4638 65.7392 83.9347 65.1671 84.1094 64.244C84.6259 61.4595 82.0359 60.2084 79.2106 61.8791C78.1397 62.5123 77.646 63.2446 77.6612 64.183C77.6764 65.1365 78.0561 65.7545 78.6713 66.2046L78.6637 66.1969Z" fill="#F7D056"/>
<path d="M61.3962 50.4815C61.9658 51.0155 62.5962 51.3435 63.5684 51.1833C64.5329 51.0231 65.2773 50.2221 65.4975 49.1236C65.9152 47.0715 64.3203 45.0346 62.5051 45.3017C61.3278 45.4771 60.5835 46.3086 60.462 47.5826C60.3253 48.9558 60.6443 49.9399 61.3962 50.4739V50.4815Z" fill="#F7D056"/>
<path d="M37.425 40.1603C38.063 40.5875 38.7997 40.9766 39.9238 40.7477C41.215 40.4884 42.1644 39.3517 42.0428 38.1769C41.853 36.3231 40.7669 35.4687 38.8681 35.6289C38.3137 35.6747 37.6225 35.8349 36.9618 36.674C36.3542 37.4598 36.4529 38.009 36.544 38.5125C36.6579 39.1991 36.9845 39.7026 37.425 40.1527V40.1603Z" fill="#F7D056"/>
<path d="M31.6246 58.2886C30.941 57.8996 30.3183 57.4647 29.2701 57.6707C28.26 57.8691 27.4625 58.754 27.4853 59.7305C27.5385 61.8817 28.5638 63.0184 30.5765 63.0413C30.9942 63.0413 31.4955 62.9192 32.0271 62.3318C32.6044 61.691 32.6196 61.1799 32.6196 60.684C32.6196 59.5703 32.0727 58.96 31.6246 58.2886Z" fill="#F7D056"/>
</svg>
