<svg width="106" height="120" viewBox="0 0 106 120" fill="none" xmlns="http://www.w3.org/2000/svg">
<path d="M78.3369 89.4737C77.7445 90.0916 76.9242 90.4272 75.785 90.2823C75.2837 90.2213 74.7141 90.0839 74.1444 89.3745C73.5976 88.6955 73.5216 88.1005 73.6052 87.6428C73.9849 85.6441 75.3596 84.8507 77.6078 85.2245C78.5496 85.3771 79.3395 86.3535 79.3926 87.3605C79.4458 88.4285 78.9445 88.993 78.3369 89.4737Z" fill="#F7D056"/>
<path d="M111.315 60.3528C110.723 60.9708 109.902 61.3064 108.763 61.1615C108.262 61.1005 107.692 60.9631 107.123 60.2537C106.576 59.5747 106.5 58.9797 106.583 58.522C106.963 56.5233 108.338 55.7299 110.586 56.1037C111.528 56.2563 112.318 57.2327 112.371 58.2397C112.424 59.3077 111.923 59.8722 111.315 60.3528Z" fill="#F7D056"/>
<path d="M79.8237 13.5666C79.0338 14.4134 77.7806 14.4897 75.9806 13.5895C75.0236 13.1089 74.5527 12.5368 74.378 11.6137C73.8616 8.82923 76.4515 7.57813 79.2768 9.24881C80.3477 9.88199 80.8414 10.6143 80.8262 11.5527C80.811 12.5062 80.4313 13.1242 79.8161 13.5742L79.8237 13.5666Z" fill="#F7D056"/>
<path d="M100.255 112.682C99.7465 113.185 99.1693 113.551 98.2579 113.452C97.225 113.338 96.4731 112.59 96.1161 111.339C95.4249 108.913 97.1794 106.808 99.3592 107.456C100.377 107.754 101.159 108.669 101.266 109.737C101.402 111.125 101.068 112.132 100.255 112.689V112.682Z" fill="#F7D056"/>
<path d="M129.384 81.8311C129.809 81.3429 130.387 81.0759 131.146 81.0683C132.255 81.053 133.068 81.793 133.508 83.2272C134.199 85.4624 133.197 86.2176 132.126 86.8889C131.875 87.0491 131.518 87.0797 131.177 87.1178C130.645 87.1788 130.014 87.0797 129.316 86.3244C128.655 85.615 128.397 84.8521 128.374 84.2189C128.328 83.0822 128.685 82.2965 129.384 81.8388V81.8311Z" fill="#F7D056"/>
<path d="M116.756 5.19621C116.164 5.81413 115.343 6.14979 114.204 6.00485C113.703 5.94382 113.133 5.80651 112.564 5.09705C112.017 4.4181 111.941 3.82306 112.024 3.36534C112.404 1.36663 113.779 0.573248 116.027 0.947052C116.969 1.09963 117.759 2.0761 117.812 3.08308C117.865 4.15109 117.364 4.71561 116.756 5.19621Z" fill="#F7D056"/>
<path d="M4.62827 53.6366C3.99028 54.0638 3.25356 54.4528 2.1295 54.224C0.83834 53.9646 -0.111041 52.8279 0.0104794 51.6531C0.200356 49.7993 1.28645 48.9449 3.18521 49.1051C3.73965 49.1509 4.4308 49.3111 5.09157 50.1503C5.69917 50.936 5.60044 51.4853 5.5093 51.9888C5.39537 52.6753 5.06878 53.1788 4.62827 53.6289V53.6366Z" fill="#F7D056"/>
<path d="M62.1663 114.612C62.8499 114.223 63.4727 113.789 64.5208 113.994C65.531 114.193 66.3284 115.078 66.3056 116.054C66.2525 118.206 65.2272 119.342 63.2145 119.365C62.7967 119.365 62.2955 119.243 61.7638 118.656C61.1866 118.015 61.1714 117.504 61.1714 117.008C61.1714 115.894 61.7182 115.284 62.1663 114.612Z" fill="#F7D056"/>
<path d="M131.328 43.7145C131.761 43.2797 132.399 43.0127 133.257 43.0966C134.374 43.1958 135.391 44.3096 135.384 45.4615C135.361 47.4831 134.351 48.4519 132.475 48.3985C131.321 48.368 130.379 47.2924 130.31 46.0108C130.257 44.9199 130.683 44.2562 131.336 43.7222L131.328 43.7145Z" fill="#F7D056"/>
<path d="M109.103 37.9033C108.374 38.2848 107.667 38.712 106.467 38.3611C105.115 37.9644 103.938 36.5836 104.006 35.363C104.143 33.1202 105.351 32.0598 107.698 32.4183C108.852 32.5938 109.482 33.3185 109.885 34.6535C110.409 36.3852 109.68 37.0642 109.103 37.9033Z" fill="#F7D056"/>
<path d="M7.27586 79.6551C7.95942 79.266 8.5822 78.8312 9.63032 79.0371C10.6405 79.2355 11.4379 80.1204 11.4152 81.0969C11.362 83.2482 10.3367 84.3848 8.32397 84.4077C7.90624 84.4077 7.40498 84.2857 6.87332 83.6982C6.2961 83.0574 6.28091 82.5463 6.28091 82.0505C6.28091 80.9367 6.82775 80.3264 7.27586 79.6551Z" fill="#F7D056"/>
<path d="M31.2961 102.326C31.729 101.891 32.367 101.624 33.2253 101.708C34.3417 101.807 35.3595 102.921 35.3519 104.073C35.3291 106.094 34.319 107.063 32.443 107.01C31.2885 106.979 30.3467 105.904 30.2784 104.622C30.2252 103.531 30.6506 102.867 31.3037 102.333L31.2961 102.326Z" fill="#F7D056"/>
<path d="M61.8787 76.0497C61.0888 76.8965 59.8356 76.9727 58.0356 76.0726C57.0786 75.592 56.6077 75.0198 56.4331 74.0967C55.9166 71.3123 58.5065 70.0612 61.3319 71.7318C62.4028 72.365 62.8964 73.0974 62.8813 74.0357C62.8661 74.9893 62.4863 75.6072 61.8711 76.0573L61.8787 76.0497Z" fill="#F7D056"/>
<path d="M28.672 30.4413C28.034 30.8685 27.2973 31.2576 26.1732 31.0287C24.882 30.7693 23.9326 29.6327 24.0542 28.4579C24.244 26.6041 25.3301 25.7497 27.2289 25.9099C27.7833 25.9557 28.4745 26.1159 29.1353 26.955C29.7429 27.7408 29.6441 28.29 29.553 28.7935C29.4391 29.4801 29.1125 29.9836 28.672 30.4337V30.4413Z" fill="#F7D056"/>
<path d="M34.7152 66.1969C33.9253 67.0437 32.6721 67.12 30.8721 66.2198C29.9151 65.7392 29.4442 65.1671 29.2695 64.244C28.7531 61.4595 31.343 60.2084 34.1683 61.8791C35.2392 62.5123 35.7329 63.2446 35.7177 64.183C35.7025 65.1365 35.3228 65.7545 34.7076 66.2046L34.7152 66.1969Z" fill="#F7D056"/>
<path d="M51.9827 50.4815C51.4131 51.0155 50.7827 51.3435 49.8105 51.1833C48.846 51.0231 48.1017 50.2221 47.8814 49.1236C47.4637 47.0715 49.0586 45.0346 50.8738 45.3017C52.0511 45.4771 52.7954 46.3086 52.9169 47.5826C53.0536 48.9558 52.7346 49.9399 51.9827 50.4739V50.4815Z" fill="#F7D056"/>
<path d="M75.9539 40.1603C75.3159 40.5875 74.5792 40.9766 73.4551 40.7477C72.1639 40.4884 71.2145 39.3517 71.3361 38.1769C71.5259 36.3231 72.612 35.4687 74.5108 35.6289C75.0652 35.6747 75.7564 35.8349 76.4172 36.674C77.0248 37.4598 76.926 38.009 76.8349 38.5125C76.721 39.1991 76.3944 39.7026 75.9539 40.1527V40.1603Z" fill="#F7D056"/>
<path d="M81.7543 58.2886C82.4379 57.8996 83.0607 57.4647 84.1088 57.6707C85.1189 57.8691 85.9164 58.754 85.8936 59.7305C85.8404 61.8817 84.8151 63.0184 82.8024 63.0413C82.3847 63.0413 81.8834 62.9192 81.3518 62.3318C80.7745 61.691 80.7594 61.1799 80.7594 60.684C80.7594 59.5703 81.3062 58.96 81.7543 58.2886Z" fill="#F7D056"/>
</svg>
