<svg width="106" height="120" viewBox="0 0 106 120" fill="none" xmlns="http://www.w3.org/2000/svg">
<path d="M78.331 30.749C77.7386 30.1311 76.9184 29.7954 75.7791 29.9404C75.2778 30.0014 74.7082 30.1387 74.1386 30.8482C73.5917 31.5271 73.5158 32.1222 73.5993 32.5799C73.9791 34.5786 75.3538 35.372 77.6019 34.9982C78.5437 34.8456 79.3336 33.8691 79.3867 32.8621C79.4399 31.7941 78.9386 31.2296 78.331 30.749Z" fill="#F7D056"/>
<path d="M111.309 59.8698C110.717 59.2519 109.897 58.9162 108.757 59.0611C108.256 59.1222 107.686 59.2595 107.117 59.969C106.57 60.6479 106.494 61.243 106.578 61.7007C106.957 63.6994 108.332 64.4928 110.58 64.119C111.522 63.9664 112.312 62.9899 112.365 61.9829C112.418 60.9149 111.917 60.3504 111.309 59.8698Z" fill="#F7D056"/>
<path d="M79.8178 106.656C79.0279 105.809 77.7747 105.733 75.9747 106.633C75.0177 107.114 74.5469 107.686 74.3722 108.609C73.8557 111.393 76.4456 112.645 79.271 110.974C80.3419 110.341 80.8356 109.608 80.8204 108.67C80.8052 107.716 80.4254 107.098 79.8102 106.648L79.8178 106.656Z" fill="#F7D056"/>
<path d="M100.25 7.541C99.7406 7.03751 99.1634 6.67133 98.252 6.77051C97.2191 6.88494 96.4672 7.63255 96.1102 8.88365C95.4191 11.3096 97.1735 13.4151 99.3533 12.7666C100.371 12.4691 101.153 11.5537 101.26 10.4857C101.396 9.09724 101.062 8.09026 100.25 7.53337L100.25 7.541Z" fill="#F7D056"/>
<path d="M129.378 38.3915C129.804 38.8797 130.381 39.1467 131.14 39.1544C132.249 39.1696 133.062 38.4297 133.502 36.9955C134.193 34.7603 133.191 34.005 132.12 33.3337C131.869 33.1735 131.512 33.143 131.171 33.1048C130.639 33.0438 130.009 33.143 129.31 33.8982C128.649 34.6077 128.391 35.3706 128.368 36.0037C128.322 37.1404 128.679 37.9262 129.378 38.3839L129.378 38.3915Z" fill="#F7D056"/>
<path d="M116.75 115.026C116.158 114.409 115.338 114.073 114.198 114.218C113.697 114.279 113.127 114.416 112.558 115.126C112.011 115.805 111.935 116.4 112.018 116.857C112.398 118.856 113.773 119.649 116.021 119.276C116.963 119.123 117.753 118.147 117.806 117.14C117.859 116.072 117.358 115.507 116.75 115.026Z" fill="#F7D056"/>
<path d="M4.6224 66.5861C3.98442 66.1589 3.2477 65.7698 2.12363 65.9987C0.832476 66.2581 -0.116905 67.3947 0.00461555 68.5696C0.194492 70.4233 1.28058 71.2777 3.17935 71.1175C3.73378 71.0718 4.42493 70.9116 5.0857 70.0724C5.69331 69.2866 5.59457 68.7374 5.50343 68.2339C5.38951 67.5473 5.06292 67.0438 4.6224 66.5937L4.6224 66.5861Z" fill="#F7D056"/>
<path d="M62.1605 5.61025C62.844 5.99931 63.4668 6.43414 64.5149 6.22817C65.5251 6.02982 66.3226 5.1449 66.2998 4.16843C66.2466 2.01715 65.2213 0.880478 63.2086 0.857592C62.7909 0.857592 62.2896 0.979642 61.7579 1.56705C61.1807 2.20786 61.1655 2.71898 61.1655 3.21485C61.1655 4.32863 61.7124 4.93892 62.1605 5.61025Z" fill="#F7D056"/>
<path d="M131.322 76.5081C131.755 76.9429 132.393 77.2099 133.251 77.126C134.368 77.0269 135.386 75.9131 135.378 74.7612C135.355 72.7396 134.345 71.7707 132.469 71.8241C131.315 71.8546 130.373 72.9303 130.305 74.2119C130.251 75.3028 130.677 75.9665 131.33 76.5005L131.322 76.5081Z" fill="#F7D056"/>
<path d="M109.097 82.3193C108.368 81.9379 107.661 81.5107 106.461 81.8616C105.109 82.2583 103.932 83.6391 104.001 84.8597C104.137 87.1025 105.345 88.1629 107.692 87.8043C108.846 87.6289 109.477 86.9041 109.879 85.5691C110.403 83.8374 109.674 83.1585 109.097 82.3193Z" fill="#F7D056"/>
<path d="M7.26999 40.5676C7.95355 40.9566 8.57634 41.3915 9.62445 41.1855C10.6346 40.9872 11.4321 40.1022 11.4093 39.1258C11.3561 36.9745 10.3308 35.8378 8.3181 35.8149C7.90037 35.8149 7.39911 35.937 6.86746 36.5244C6.29023 37.1652 6.27505 37.6763 6.27505 38.1722C6.27505 39.286 6.82189 39.8963 7.26999 40.5676Z" fill="#F7D056"/>
<path d="M31.2903 17.897C31.7232 18.3318 32.3612 18.5988 33.2194 18.5149C34.3359 18.4157 35.3536 17.3019 35.346 16.15C35.3232 14.1284 34.3131 13.1596 32.4371 13.213C31.2827 13.2435 30.3409 14.3191 30.2725 15.6007C30.2194 16.6916 30.6447 17.3553 31.2979 17.8893L31.2903 17.897Z" fill="#F7D056"/>
<path d="M61.8728 44.173C61.083 43.3262 59.8298 43.2499 58.0298 44.1501C57.0728 44.6307 56.6019 45.2028 56.4272 46.1259C55.9107 48.9104 58.5006 50.1615 61.326 48.4908C62.3969 47.8576 62.8906 47.1253 62.8754 46.1869C62.8602 45.2333 62.4804 44.6154 61.8652 44.1653L61.8728 44.173Z" fill="#F7D056"/>
<path d="M28.6661 89.7813C28.0281 89.3541 27.2914 88.9651 26.1673 89.1939C24.8762 89.4533 23.9268 90.59 24.0483 91.7648C24.2382 93.6186 25.3243 94.473 27.223 94.3128C27.7775 94.267 28.4686 94.1068 29.1294 93.2676C29.737 92.4819 29.6383 91.9326 29.5471 91.4291C29.4332 90.7426 29.1066 90.2391 28.6661 89.789L28.6661 89.7813Z" fill="#F7D056"/>
<path d="M34.7093 54.0257C33.9194 53.1789 32.6662 53.1027 30.8662 54.0028C29.9092 54.4834 29.4383 55.0556 29.2637 55.9787C28.7472 58.7631 31.3371 60.0142 34.1625 58.3435C35.2334 57.7104 35.727 56.978 35.7118 56.0397C35.6966 55.0861 35.3169 54.4682 34.7017 54.0181L34.7093 54.0257Z" fill="#F7D056"/>
<path d="M51.9769 69.7411C51.4072 69.2071 50.7768 68.8791 49.8047 69.0393C48.8401 69.1995 48.0958 70.0005 47.8755 71.099C47.4578 73.1511 49.0528 75.188 50.868 74.921C52.0452 74.7455 52.7895 73.914 52.9111 72.64C53.0478 71.2669 52.7288 70.2828 51.9769 69.7488L51.9769 69.7411Z" fill="#F7D056"/>
<path d="M75.948 80.0623C75.31 79.6351 74.5733 79.2461 73.4492 79.4749C72.1581 79.7343 71.2087 80.871 71.3302 82.0458C71.5201 83.8995 72.6062 84.754 74.5049 84.5938C75.0594 84.548 75.7505 84.3878 76.4113 83.5486C77.0189 82.7629 76.9202 82.2136 76.829 81.7101C76.7151 81.0235 76.3885 80.52 75.948 80.07L75.948 80.0623Z" fill="#F7D056"/>
<path d="M81.7484 61.934C82.432 62.3231 83.0548 62.7579 84.1029 62.5519C85.113 62.3536 85.9105 61.4687 85.8877 60.4922C85.8346 58.3409 84.8092 57.2042 82.7966 57.1813C82.3788 57.1813 81.8775 57.3034 81.3459 57.8908C80.7687 58.5316 80.7535 59.0427 80.7535 59.5386C80.7535 60.6524 81.3003 61.2627 81.7484 61.934Z" fill="#F7D056"/>
</svg>
