<svg width="95" height="102" viewBox="0 0 95 102" fill="none" xmlns="http://www.w3.org/2000/svg">
<path d="M9.4085 54.5104C10.167 53.9654 11.1753 53.917 11.9818 54.3865L18.1887 57.9991C18.7061 53.8428 19.425 48.7425 20.3873 42.583C21.5761 34.9857 23.7606 28.4252 26.8827 23.0825C27.0506 22.7956 27.221 22.513 27.3938 22.2345L22.6748 15.5388L30.0573 15.5735L26.0929 10.4844L37.7352 11.742C37.7742 11.7183 37.8131 11.6946 37.8521 11.6709C44.2757 7.91036 51.7349 7.29948 58.8553 9.94962C61.5737 10.9612 63.8905 12.9864 65.7594 15.9765L77.2221 13.488C78.1632 13.289 79.1384 13.672 79.6822 14.4699C80.2245 15.2681 80.2295 16.3167 79.6917 17.1186L70.5445 30.778C71.4375 36.614 71.5932 42.3687 71.5684 46.1492L75.1136 41.3537C75.6683 40.6032 76.6133 40.2483 77.5257 40.4485C78.438 40.6486 79.1471 41.367 79.336 42.282C81.6372 53.4293 80.4957 65.2544 76.2049 74.7249C71.4644 85.1891 63.2624 92.1052 53.1114 94.2008C42.9603 96.2963 32.5272 93.2241 24.0719 85.4809C16.4687 78.519 10.7831 68.1049 8.47223 56.911C8.28333 55.996 8.65002 55.0555 9.4085 54.5104ZM72.4938 19.3596L65.2548 20.9307C64.173 21.2606 62.9935 20.7756 62.4646 19.7537C61.0153 16.9527 59.2452 15.1469 57.2037 14.3871C51.4408 12.2416 45.4176 12.7284 40.2451 15.7575C32.5314 20.2731 27.1404 30.0601 25.0662 43.3168C24.4005 47.5743 23.8681 51.2106 23.4426 54.3172L25.4448 51.6088C26.1625 50.6382 27.4952 50.3631 28.5385 50.9702L36.5152 55.6132L42.0012 48.191C42.7188 47.2204 44.0516 46.9452 45.0949 47.5523L53.0716 52.1953L58.5576 44.7731C59.2752 43.8025 60.6079 43.5274 61.6513 44.1344L66.8166 47.1412C66.8731 43.4387 66.7755 36.9404 65.7239 30.6249C65.6246 30.0297 65.7571 29.4196 66.0925 28.9196L72.4914 19.3632L72.4938 19.3596ZM27.2689 81.9886C32.4364 86.7212 40.9498 91.877 52.1541 89.564C63.3585 87.251 68.9923 79.1715 71.8928 72.7702C75.0823 65.7281 76.3436 57.215 75.5307 48.7542L72.1755 53.2943C71.4579 54.2649 70.1237 54.5404 69.0818 53.933L61.1051 49.2899L55.6192 56.7122C54.9015 57.6828 53.5673 57.9582 52.5255 57.3508L44.5488 52.7078L39.0628 60.1301C38.3452 61.1006 37.0124 61.3758 35.9691 60.7687L27.9924 56.1257L22.5064 63.5479C21.7888 64.5185 20.456 64.7936 19.4127 64.1866L14.5237 61.3421C17.1189 69.4741 21.6123 76.807 27.2719 81.9879L27.2689 81.9886Z" fill="#F7D056"/>
<path d="M29.9359 75.5697C30.8193 74.6056 32.3158 74.5395 33.2799 75.423C36.2261 78.1218 39.3868 79.9022 42.6724 80.7168C43.942 81.0312 44.7145 82.3146 44.4001 83.5842C44.1738 84.4988 43.4446 85.1553 42.5791 85.334C42.2441 85.4031 41.8878 85.3999 41.5328 85.3118C37.4697 84.3052 33.6164 82.1524 30.0811 78.9141C29.117 78.0307 29.0509 76.5341 29.9343 75.57L29.9359 75.5697Z" fill="#F7D056"/>
<path d="M52.0387 26.3767C50.5882 25.4226 50.1857 23.4733 51.1398 22.0228C52.0939 20.5723 54.0433 20.1699 55.4938 21.124C56.9443 22.0781 57.3467 24.0274 56.3926 25.4779C55.4385 26.9284 53.4892 27.3308 52.0387 26.3767Z" fill="#F7D056"/>
</svg>
