<svg width="92" height="93" viewBox="0 0 92 93" fill="none" xmlns="http://www.w3.org/2000/svg">
<path d="M87.2205 38.0468C86.6614 34.234 84.5877 33.0677 83.401 32.7118C79.6945 31.5992 68.3893 32.0646 58.2256 32.7847C58.9035 31.1223 59.3675 29.3732 59.6128 27.5501C61.143 16.1704 53.4357 5.70826 42.4314 4.22722C35.3262 3.27096 28.3119 6.3171 23.9313 11.9855L10.1654 16.2109C9.36943 16.4545 8.7689 17.1361 8.60696 17.9762C8.44502 18.8164 8.74778 19.6745 9.39369 20.2043L19.8071 28.7242C20.4193 32.2811 21.934 35.6147 24.2512 38.4217C21.845 43.378 20.671 51.7695 22.696 58.9791C24.4675 65.2853 28.4153 69.945 34.1153 72.4568C34.7191 72.7224 35.3195 72.9711 35.9176 73.2047L33.2105 78.0045L26.4042 74.3362L24.3255 78.3974L34.8852 84.0896L40.2255 74.6226C41.699 75.0156 43.1627 75.3107 44.6196 75.5068C46.8416 75.8058 49.0498 75.8771 51.2595 75.7228L53.5871 80.631L46.8088 84.4758L48.9155 88.4835L59.433 82.5175L55.9008 75.0694C61.4623 73.8904 67.09 71.2684 73.0503 67.0832C77.5517 63.9233 81.5284 58.8425 84.2445 52.7792C86.6664 47.3748 87.7771 41.8667 87.2164 38.0448L87.2205 38.0468ZM15.5009 19.338L20.7887 17.715C20.2692 19.1505 19.9001 20.6434 19.6936 22.1775C19.6695 22.357 19.6483 22.5355 19.6284 22.7156L15.5009 19.338ZM70.5834 63.3065C61.6487 69.579 53.5357 72.085 45.2334 70.9676C42.16 70.554 39.0602 69.6434 35.8838 68.244C31.3695 66.2558 28.3646 62.6964 26.9528 57.6692C24.9707 50.6109 26.761 42.4985 28.8166 39.3571C29.4139 38.4433 29.3034 37.2247 28.5504 36.4546C26.078 33.9254 24.541 30.7151 24.0795 27.2662C24.0724 27.1909 24.0639 27.1155 24.0493 27.0422C23.8821 25.6465 23.8898 24.212 24.0839 22.7699C24.3332 20.9176 24.8783 19.1422 25.705 17.4954C28.7689 11.3897 35.2444 7.88321 41.8188 8.76803C50.4035 9.92342 56.4154 18.0843 55.2208 26.9605C54.8735 29.5411 53.9635 31.9346 52.5174 34.0717C52.0259 34.7977 51.98 35.747 52.3988 36.5123C52.8175 37.2775 53.6274 37.7209 54.4786 37.6541C69.0842 36.502 79.4185 36.2983 82.1261 37.1115C82.3596 37.1816 82.6822 37.7317 82.8337 38.7746C83.6864 44.5915 78.9165 57.4567 70.58 63.3105L70.5834 63.3065Z" fill="#F7D056"/>
<path d="M70.8522 47.8179L54.1618 42.9843C52.9858 42.6447 51.7577 43.3548 51.4171 44.5721C51.0765 45.7894 51.7546 47.0517 52.9304 47.3928L63.7815 50.5355C61.5812 51.3777 58.8427 52.2248 55.8429 52.7067C53.4646 53.0881 52.772 54.5285 52.5717 55.3546C52.1798 56.9633 53.0471 58.4755 54.0425 59.6661C51.416 60.2146 48.2095 60.6302 45.9641 60.163C44.7669 59.9172 43.5913 60.7175 43.3398 61.9557C43.0882 63.1955 43.8544 64.4013 45.0526 64.6502C45.335 64.709 45.6231 64.7582 45.9183 64.7964C51.4155 65.5363 58.9072 63.1295 59.2409 63.0214C60.0404 62.7619 60.6336 62.0601 60.7756 61.2083C60.9175 60.3565 60.5845 59.4988 59.9143 58.9896C59.1331 58.397 58.3155 57.6479 57.7232 57.0079C65.3553 55.534 71.0827 52.1497 71.3358 51.9995C72.1094 51.5374 72.5445 50.6434 72.4401 49.7317C72.3343 48.8199 71.7114 48.0658 70.8552 47.8168L70.8522 47.8179Z" fill="#F7D056"/>
<path d="M33.5514 24.3037C35.4124 24.1018 36.7758 22.3814 36.5967 20.4613C36.4175 18.5411 34.7637 17.1482 32.9028 17.3502C31.0418 17.5521 29.6784 19.2724 29.8575 21.1926C30.0366 23.1127 31.6905 24.5056 33.5514 24.3037Z" fill="#F7D056"/>
</svg>
