<svg width="200" height="177" viewBox="0 0 200 177" fill="none" xmlns="http://www.w3.org/2000/svg">
<path d="M19.4336 41.1953L1.10479 44.6419C-0.193077 44.887 -0.40939 46.6464 0.787534 47.1944L17.2993 54.8229L19.4336 41.1953Z" fill="#F7EB60"/>
<path d="M52.5909 25.3639L62.1086 29.4161C64.5601 30.4544 67.3577 30.0939 69.1171 28.4067C94.0938 4.32396 137.039 -8.66916 172.774 6.53034C180.244 9.70291 187.093 13.7119 193.265 18.3554C195.703 20.1868 195.083 23.4171 192.371 24.5275C180.864 29.1998 166.227 37.2754 156.666 44.8463C146.802 52.6624 144.148 68.7704 161.381 79.4418C172.355 86.2484 184.959 90.964 196.64 91.4254C198.702 91.4975 200 93.7472 200 95.6075C200 96.4439 199.827 97.2947 199.481 98.1167C198.789 99.7462 197.505 101.03 195.919 101.852C195.169 102.241 194.837 103.02 195.111 103.741C195.688 105.284 195.703 106.985 195.01 108.629C194.318 110.259 193.035 111.542 191.448 112.364C190.699 112.754 190.367 113.532 190.641 114.254C191.218 115.797 191.232 117.513 190.54 119.142C189.848 120.772 188.564 122.055 186.978 122.877C186.228 123.266 185.896 124.045 186.17 124.766C186.747 126.309 186.762 128.011 186.07 129.655C185.767 130.362 185.363 130.996 184.858 131.558C183.474 133.13 181.066 133.678 178.96 132.957C173.538 131.501 154.171 122.531 133.636 118.681C123.656 116.806 113.562 130.924 113.591 137.687C113.648 149.988 120.686 166.99 123.757 172.903C124.68 174.677 123.209 176.58 121.162 176.248C115.97 175.412 110.793 173.941 105.703 171.778C80.9854 161.251 43.2029 120.959 43.9961 85.6283C44.0538 83.1479 42.3521 80.8117 39.8718 79.7446C39.8718 79.7446 25.8548 75.3318 18.3127 63.8818C3.81983 41.9045 24.4704 15.6875 50.2259 24.4409C51.0478 24.7149 51.841 25.0178 52.6197 25.3494L52.5909 25.3639Z" fill="#FFC3B7"/>
<path d="M16.3655 50.6836C15.4706 52.7866 15.754 54.2781 17.857 55.173C19.96 56.0678 21.2277 55.2475 22.1226 53.1446C23.0175 51.0416 22.8236 49.3413 20.7504 48.3719C18.7966 47.4471 17.2455 48.5807 16.3506 50.6985L16.3655 50.6836Z" fill="#606060"/>
<path d="M106.93 37.1343C113.209 33.5696 122.158 30.7508 127.349 30.7657" stroke="#E8A69B" stroke-width="1.78" stroke-linecap="round" stroke-linejoin="round"/>
<path d="M101.295 30.2171C105.411 26.8911 111.392 23.6994 116.687 23.0879" stroke="#E8A69B" stroke-width="1.78" stroke-linecap="round" stroke-linejoin="round"/>
<path d="M68.7637 105.656C68.4952 113.501 69.942 121.093 74.1777 126.835" stroke="#E8A69B" stroke-width="1.78" stroke-linecap="round" stroke-linejoin="round"/>
<path d="M82.991 109.117C83.4086 115.814 84.5421 121.288 87.2715 126.478" stroke="#E8A69B" stroke-width="1.78" stroke-linecap="round" stroke-linejoin="round"/>
</svg>
