<svg width="123" height="120" viewBox="0 0 123 120" fill="none" xmlns="http://www.w3.org/2000/svg">
<path d="M18.0851 44.3878L9.60355 44.7607C9.00244 44.7867 8.81771 45.5731 9.33178 45.8949L16.4384 50.4181L18.0851 44.3878Z" fill="#F7EB60"/>
<path d="M34.0435 36.9416L38.1526 39.3869C39.2101 40.0165 40.502 40.0289 41.3801 39.3781C53.9146 30.0998 74.04 26.9922 89.4781 36.1891C92.7073 38.1098 95.6145 40.3663 98.1779 42.8676C99.1889 43.8558 98.7536 45.2805 97.4598 45.6009C92.0057 46.9705 84.9677 49.6765 80.2536 52.4889C75.3952 55.3861 73.3857 62.5065 80.6647 68.4503C85.3025 72.2419 90.7809 75.1875 96.0501 76.1543C96.9986 76.3283 97.473 77.4261 97.3793 78.2679C97.3397 78.646 97.2171 79.0209 97.0186 79.3706C96.6228 80.061 95.9756 80.5612 95.2161 80.8318C94.8628 80.9595 94.6715 81.2871 94.7557 81.6374C94.9433 82.3732 94.8621 83.1475 94.4611 83.8417C94.0652 84.5321 93.418 85.0322 92.6585 85.3029C92.3052 85.4306 92.114 85.7582 92.1982 86.1085C92.3857 86.8443 92.3045 87.6186 91.9036 88.3129C91.5077 89.0032 90.8605 89.5034 90.101 89.774C89.7477 89.9017 89.5564 90.2293 89.6406 90.5796C89.8282 91.3154 89.747 92.0897 89.346 92.7839C89.1721 93.0818 88.9558 93.3456 88.7023 93.5715C87.9998 94.1883 86.8805 94.285 85.9609 93.8239C83.5759 92.8111 75.2446 87.5013 66.1189 84.4277C61.6907 82.9295 56.4024 88.6725 56.0768 91.7372C55.4862 97.3069 57.8295 105.461 58.9306 108.336C59.2563 109.199 58.4993 109.965 57.5817 109.684C55.2731 108.97 52.9935 107.968 50.7955 106.664C40.1119 100.3 24.9863 79.6215 27.1186 63.6742C27.2675 62.5584 26.6162 61.3879 25.5415 60.7464C25.5415 60.7464 19.4053 57.8368 16.553 52.1744C11.0761 41.2813 21.7487 30.7582 32.9916 36.3822C33.3504 36.5652 33.6949 36.7508 34.0333 36.9494L34.0435 36.9416Z" fill="#B3E165"/>
<path d="M19.155 47.8132C18.6609 48.6819 18.7172 49.3547 19.5957 49.8819C20.4742 50.4091 21.0716 50.1274 21.5657 49.2587C22.0598 48.3901 22.0505 47.6314 21.1944 47.0704C20.3857 46.5398 19.6491 46.9446 19.155 47.8132Z" fill="#606060"/>
<path d="M59.3675 45.875C62.297 44.4077 66.3294 43.2737 68.5717 43.3337" stroke="#6FC989" stroke-width="1.81" stroke-linecap="round" stroke-linejoin="round"/>
<path d="M57.1797 42.5176C59.1519 41.1435 61.904 39.8475 64.2112 39.6395" stroke="#6FC989" stroke-width="1.81" stroke-linecap="round" stroke-linejoin="round"/>
<path d="M39.9707 74.0762C39.4722 77.4482 39.7363 80.8312 41.3298 83.5712" stroke="#6FC989" stroke-width="1.81" stroke-linecap="round" stroke-linejoin="round"/>
<path d="M46.0508 76.1621C45.9079 79.09 46.1395 81.5324 47.0964 83.948" stroke="#6FC989" stroke-width="1.81" stroke-linecap="round" stroke-linejoin="round"/>
</svg>
