<svg width="800" height="59" viewBox="0 0 800 59" fill="none" xmlns="http://www.w3.org/2000/svg">
<mask id="mask0_3241_501202" style="mask-type:alpha" maskUnits="userSpaceOnUse" x="0" y="0" width="800" height="59">
<rect width="800" height="59" fill="#D9D9D9"/>
</mask>
<g mask="url(#mask0_3241_501202)">
<path d="M0 14.638C0 14.638 114.688 47.5733 216.562 14.638C318.438 -18.2973 307.768 14.6377 380.625 14.638C453.482 14.6382 471.25 -0.657787 567.188 14.638C608.293 21.1916 616.25 50.427 699.062 21.0604C781.875 -8.30623 800 14.638 800 14.638V1008.94C800 1008.94 719.375 1028.48 636.562 995.338C553.75 962.195 480.312 995.338 361.875 979.191C314.14 972.684 243.438 1011.48 142.812 997.038C42.1875 982.591 0 1008.94 0 1008.94V14.638Z" fill="#F6F2EE"/>
<path d="M0 1066.7C0 1066.7 114.688 1099.64 216.562 1066.7C318.438 1033.77 307.768 1066.7 380.625 1066.7C453.482 1066.7 471.25 1051.41 567.188 1066.7C608.293 1073.26 616.25 1102.49 699.062 1073.12C781.875 1043.76 800 1066.7 800 1066.7V2061C800 2061 719.375 2080.55 636.562 2047.4C553.75 2014.26 480.312 2047.4 361.875 2031.26C314.14 2024.75 243.438 2063.55 142.812 2049.1C42.1875 2034.66 0 2061 0 2061V1066.7Z" fill="#F6F2EE"/>
</g>
</svg>
