<svg width="2000" height="142" viewBox="0 0 2000 142" fill="none" xmlns="http://www.w3.org/2000/svg">
<mask id="mask0_3241_501211" style="mask-type:alpha" maskUnits="userSpaceOnUse" x="0" y="0" width="2000" height="142">
<rect width="2000" height="142" fill="#D9D9D9"/>
</mask>
<g mask="url(#mask0_3241_501211)">
<path d="M0 30.2956C0 30.2956 286.719 98.4606 541.406 30.2956C796.094 -37.8693 769.42 30.2951 951.562 30.2956C1133.71 30.2962 1178.12 -1.36139 1417.97 30.2956C1520.73 43.8593 1540.62 104.367 1747.66 43.5878C1954.69 -17.1911 2000 30.2956 2000 30.2956V2088.15C2000 2088.15 1798.44 2128.61 1591.41 2060.01C1384.38 1991.42 1200.78 2060.01 904.688 2026.59C785.349 2013.12 608.594 2093.43 357.031 2063.53C105.469 2033.63 0 2088.15 0 2088.15V30.2956Z" fill="#F6F2EE"/>
</g>
</svg>
