<svg width="800" height="94" viewBox="0 0 800 94" fill="none" xmlns="http://www.w3.org/2000/svg">
<mask id="mask0_3241_501204" style="mask-type:alpha" maskUnits="userSpaceOnUse" x="0" y="0" width="800" height="94">
<rect width="800" height="94" fill="#D9D9D9"/>
</mask>
<g mask="url(#mask0_3241_501204)">
<path d="M0 -1958.36C0 -1958.36 114.688 -1925.43 216.562 -1958.36C318.438 -1991.3 307.768 -1958.36 380.625 -1958.36C453.482 -1958.36 471.25 -1973.66 567.188 -1958.36C608.293 -1951.81 616.25 -1922.57 699.062 -1951.94C781.875 -1981.31 800 -1958.36 800 -1958.36V-964.065C800 -964.065 719.375 -944.519 636.562 -977.662C553.75 -1010.81 480.312 -977.662 361.875 -993.809C314.14 -1000.32 243.438 -961.515 142.812 -975.962C42.1875 -990.409 0 -964.065 0 -964.065V-1958.36Z" fill="#F6F2EE"/>
<path d="M0 -906.297C0 -906.297 114.688 -873.362 216.562 -906.297C318.438 -939.233 307.768 -906.298 380.625 -906.297C453.482 -906.297 471.25 -921.593 567.188 -906.297C608.293 -899.744 616.25 -870.508 699.062 -899.875C781.875 -929.242 800 -906.297 800 -906.297V88C800 88 719.375 107.546 636.562 74.4027C553.75 41.2595 480.312 74.4027 361.875 58.256C314.14 51.7482 243.438 90.5493 142.812 76.1023C42.1875 61.6552 0 88 0 88V-906.297Z" fill="#F6F2EE"/>
</g>
</svg>
