<svg width="2000" height="190" viewBox="0 0 2000 190" fill="none" xmlns="http://www.w3.org/2000/svg">
<mask id="mask0_3241_501213" style="mask-type:alpha" maskUnits="userSpaceOnUse" x="0" y="0" width="2000" height="190">
<rect width="2000" height="190" fill="#D9D9D9"/>
</mask>
<g mask="url(#mask0_3241_501213)">
<path d="M0 -1879.7C0 -1879.7 286.719 -1811.54 541.406 -1879.7C796.094 -1947.87 769.42 -1879.7 951.562 -1879.7C1133.71 -1879.7 1178.12 -1911.36 1417.97 -1879.7C1520.73 -1866.14 1540.62 -1805.63 1747.66 -1866.41C1954.69 -1927.19 2000 -1879.7 2000 -1879.7V178.152C2000 178.152 1798.44 218.606 1591.41 150.011C1384.38 81.4155 1200.78 150.011 904.688 116.593C785.349 103.124 608.594 183.429 357.031 153.528C105.469 123.628 0 178.152 0 178.152V-1879.7Z" fill="#F6F2EE"/>
</g>
</svg>
