<svg width="28" height="30" viewBox="0 0 28 30" fill="none" xmlns="http://www.w3.org/2000/svg">
<path d="M4.62326 23.5741L4.62373 23.5739L4.62672 23.5822L4.62713 23.5826L5.11855 23.3693L5.26252 23.6476L5.35955 23.8351L5.36511 23.8472L5.36552 23.8468L5.36986 23.8552L5.83175 23.5835L6.12583 24.0447L6.57876 23.7565C6.59845 23.7611 6.61814 23.7643 6.63735 23.7664C6.65775 23.7684 6.67767 23.7689 6.69776 23.7677C6.71816 23.7666 6.73761 23.7646 6.75683 23.7611C6.81495 23.7501 6.87038 23.7267 6.91937 23.6924C6.93542 23.681 6.95136 23.6687 6.9656 23.6551C6.98048 23.6414 6.99425 23.626 7.00749 23.6102C7.11618 23.4742 7.27321 23.2774 7.46505 23.0383C7.68911 22.7592 7.95987 22.4217 8.25512 22.055C8.33985 21.9495 8.42586 21.8419 8.51352 21.7332C8.55746 21.6789 8.60205 21.6236 8.64676 21.5682C8.73553 21.4577 8.82617 21.3457 8.91729 21.2324C9.00817 21.1193 9.09975 21.0056 9.19215 20.8914C9.42148 20.6074 9.65269 20.322 9.87629 20.0456C10.0555 19.825 10.2297 19.6101 10.3954 19.4069C10.4782 19.3053 10.5586 19.2066 10.6369 19.1114C10.6758 19.0638 10.714 19.0169 10.752 18.9711C11.4892 18.0719 12.5742 16.6468 13.383 15.5727C13.4283 15.5132 13.4762 15.4505 13.5199 15.3933C13.5194 15.3931 13.5192 15.3926 13.5187 15.3924C13.5206 15.3901 13.5226 15.3874 13.5244 15.385C13.3956 15.3168 13.2878 15.2342 13.2127 15.169C13.0161 14.9971 12.2958 14.2393 11.5586 13.3407C10.8213 12.4422 10.2185 11.588 10.0889 11.3621C10.0422 11.2813 9.98826 11.1679 9.94748 11.0404C9.94584 11.0341 9.94291 11.0288 9.9415 11.0222C9.94103 11.0224 9.94103 11.0224 9.94056 11.0226C9.93968 11.0194 9.93828 11.0169 9.9374 11.0137C8.70875 11.6044 6.96448 12.4535 5.8791 13.0328C5.82671 13.061 5.77316 13.0896 5.71914 13.1185C5.61021 13.1766 5.49783 13.2361 5.38199 13.2974C5.15031 13.4204 4.90592 13.5497 4.65461 13.6824C4.3399 13.8479 4.01465 14.0181 3.69104 14.188C3.56125 14.2562 3.4317 14.3238 3.30303 14.3908C2.98212 14.5592 2.6663 14.7243 2.36735 14.8802C1.94987 15.0975 1.56603 15.2979 1.24857 15.4627C0.976402 15.6041 0.753044 15.7201 0.598533 15.8003C0.579958 15.8097 0.562791 15.8206 0.546326 15.8325C0.53033 15.8439 0.514744 15.8568 0.50033 15.8703C0.457557 15.912 0.423865 15.9616 0.401424 16.0161C0.3941 16.0342 0.388182 16.0532 0.383143 16.0729C0.373534 16.1111 0.369666 16.1503 0.371014 16.1916L0 16.5799L0.394803 16.9584L0.0638083 17.3297L0.0441208 17.3507L0.0445896 17.3512L0.0383787 17.358L0.221073 17.5039L0.46576 17.6993L0.160663 18.1399L0.160898 18.1404L0.627361 18.4233L0.385428 18.9028L0.386307 18.903L0.385838 18.9032L0.888219 19.1314L0.71197 19.647H0.712907L0.712673 19.648L1.23544 19.821L1.10748 20.3518H1.10841L1.10794 20.3522L1.64261 20.4809L1.55812 21.0114L1.55788 21.0123H1.55812L1.55654 21.0217L2.09624 21.1055L2.07292 21.6509L2.07339 21.6515L2.62018 21.6722L2.64192 22.2216H2.6428V22.2226L3.18848 22.2008L3.25551 22.7468H3.25645L3.25622 22.7476L3.79662 22.6753L3.91862 23.1963L3.9202 23.2043L3.92043 23.2041L3.92225 23.2127L3.92295 23.2123L3.92272 23.2132L4.44022 23.0694L4.61529 23.5508L4.62326 23.5741ZM6.76837 19.6715C6.77341 19.6243 7.01856 17.3182 6.61544 17.4725C6.21536 17.6256 5.2433 17.6585 5.20896 17.6597C5.20715 17.6597 5.20392 17.6597 5.20281 17.6594L5.33646 16.3013C5.33646 16.3013 5.31015 15.9069 4.98672 15.8749C4.66311 15.8431 3.69286 15.7474 3.69286 15.7474L3.73287 15.3398L3.78391 15.3132L4.17414 15.109L4.38174 15L5.13982 14.6022L5.86949 14.2164L5.93681 14.1806L6.20898 14.0359L6.25656 14.0103L6.36894 13.9503C7.05876 13.582 8.13541 13.0422 9.51283 12.3738C9.80855 12.795 10.2553 13.3919 10.7545 14.0005C11.2535 14.6086 11.7517 15.1632 12.1077 15.5358C11.183 16.7562 10.4438 17.7065 9.95 18.3085L9.86099 18.4169L9.83304 18.4513L9.63576 18.6925L9.58953 18.7493L9.18301 19.2494L9.06811 19.3908L8.40137 20.215L7.84157 20.2563L7.75526 20.2614L7.85071 19.2925L7.08806 19.5624L6.76837 19.6715Z" fill="#855E3B"/>
<path d="M12.0481 12.9383C12.8011 13.8557 13.4848 14.564 13.6297 14.6908C13.7073 14.7584 13.8128 14.832 13.9135 14.8642C13.9741 14.8831 14.0298 14.8776 14.0799 14.8564C14.0817 14.8554 14.0835 14.8541 14.0854 14.8534C14.106 14.8435 14.1286 14.8397 14.1456 14.8204C14.2676 14.7202 14.4516 14.5693 14.6684 14.3922L14.7414 14.3338C14.7411 14.3336 14.7409 14.3331 14.7404 14.3329C14.7432 14.3309 14.745 14.3293 14.7478 14.327C14.5699 14.161 14.3882 13.9834 14.2042 13.7962C13.7513 13.335 13.2882 12.8166 12.8488 12.2813C12.4095 11.7459 11.9913 11.1906 11.6277 10.6563C11.4869 10.4498 11.356 10.2477 11.2331 10.0502C11.2288 10.0426 11.2233 10.0344 11.2189 10.0269L11.2182 10.0273C11.2166 10.0248 11.2148 10.0221 11.2132 10.0195C10.9575 10.2301 10.7497 10.4006 10.6114 10.5139C10.5338 10.559 10.5135 10.641 10.5233 10.733C10.535 10.8381 10.5869 10.9559 10.638 11.0452C10.7338 11.2119 11.295 12.0205 12.0481 12.9383Z" fill="#855E3B"/>
<path d="M27.5854 0.271602C27.3252 -0.0453849 26.8555 -0.0916146 26.5385 0.168362L26.4651 0.228536C26.427 0.259883 26.3932 0.294043 26.3632 0.330605C26.03 0.102445 25.8059 0.190568 25.6521 0.302012C25.434 0.460388 22.8403 2.58871 21.5556 3.64291C20.2711 4.69717 19.7227 5.12654 17.7211 6.37984C15.7198 7.63343 14.3904 7.41072 12.9712 8.57525C12.4026 9.042 11.8533 9.49334 11.4117 9.85744C11.8405 10.5585 12.4044 11.3415 13.0446 12.1215C13.685 12.9022 14.3428 13.6078 14.9468 14.1654C15.3897 13.8028 15.9397 13.3524 16.5083 12.8857C17.9031 11.7411 17.9685 10.374 19.5885 8.65558C21.2086 6.93717 21.7368 6.48331 23.0213 5.42911C24.306 4.37515 26.8996 2.24653 27.0976 2.06366C27.222 1.949 27.3382 1.77574 27.2506 1.47727C27.306 1.45137 27.3595 1.41914 27.4087 1.37865L27.4822 1.31842C27.7992 1.05833 27.8457 0.588647 27.5854 0.271602ZM27.2081 1.13403C27.1806 1.15641 27.1513 1.17452 27.1206 1.18899C27.0609 1.08715 26.9824 0.975184 26.8803 0.850674L26.7997 0.752473C26.7313 0.669154 26.6665 0.597554 26.6043 0.535504C26.6223 0.513121 26.6429 0.492262 26.6658 0.473278L26.7393 0.413104C26.9214 0.263692 27.1913 0.290176 27.3408 0.472399C27.4902 0.654564 27.4635 0.924384 27.2815 1.07391L27.2081 1.13403ZM15.8241 12.3253C15.3813 12.6888 14.8086 12.7247 14.5461 12.4045C14.2838 12.085 14.4307 11.5304 14.8736 11.1669C15.3169 10.8032 15.8889 10.7677 16.1513 11.0873C16.4138 11.4073 16.2675 11.9616 15.8241 12.3253Z" fill="#855E3B"/>
<path d="M1.66154 25.6762C0.272053 25.9378 1.53568 27.3518 3.1596 27.046C5.12107 26.6769 3.05478 25.4139 1.66154 25.6762Z" fill="#855E3B"/>
<path d="M10.9201 26.5962C10.7036 26.6369 10.4735 26.6436 10.2639 26.5692C9.41816 26.2918 8.25426 26.2444 7.30715 26.7653C7.17854 26.8331 7.0838 26.9075 7.01624 26.9818C6.7794 27.239 6.49511 27.4488 6.15017 27.4961C5.75765 27.5435 5.36531 27.6584 4.99998 27.8614C3.38291 28.7479 6.32618 30.4866 8.755 29.1536C8.86328 29.0927 8.93769 29.0319 8.99851 28.9644C10.0676 29.9589 12.8414 30.5676 15.2907 29.2214C17.3207 28.1118 14.0258 26.0686 10.9201 26.5962ZM14.425 28.5211C14.4172 28.5261 14.4117 28.5318 14.4035 28.5366C14.1919 28.0905 13.0302 27.6385 12.1449 27.8074C11.9732 27.8392 11.8409 27.8958 11.7466 27.9585C11.7399 27.9621 11.7315 27.9648 11.7251 27.9685C11.6448 27.712 11.8073 27.4758 12.3005 27.3812C13.4783 27.1604 15.1352 28.0244 14.425 28.5211Z" fill="#855E3B"/>
</svg>
