<svg width="24" height="30" viewBox="0 0 24 30" fill="none" xmlns="http://www.w3.org/2000/svg">
<path d="M13.7178 12.5728L11.9732 13.4148C11.9131 13.4438 11.8432 13.4438 11.7831 13.4148L10.0386 12.5728C9.89337 12.5027 9.72485 12.6085 9.72485 12.7697V14.4238C9.72485 14.585 9.89337 14.6908 10.0386 14.6207L11.7831 13.7786C11.8432 13.7497 11.9131 13.7497 11.9732 13.7786L13.7178 14.6207C13.863 14.6908 14.0315 14.585 14.0315 14.4238V12.7697C14.0314 12.6085 13.8629 12.5027 13.7178 12.5728Z" fill="#855E3B"/>
<path d="M13.8127 14.6337C13.7814 14.6337 13.7507 14.6266 13.7218 14.6125L11.9772 13.7705C11.9465 13.7557 11.9122 13.7478 11.8781 13.7478C11.844 13.7478 11.8097 13.7557 11.7789 13.7705L10.0344 14.6125C10.0054 14.6266 9.97483 14.6337 9.94343 14.6337C9.828 14.6337 9.73413 14.5396 9.73413 14.4242V12.7701C9.73413 12.6545 9.828 12.5605 9.94349 12.5605C9.97483 12.5605 10.0055 12.5676 10.0344 12.5816L11.7789 13.4238C11.8097 13.4385 11.844 13.4464 11.8781 13.4464C11.9122 13.4464 11.9465 13.4385 11.9772 13.4238L13.7217 12.5816C13.7507 12.5676 13.7813 12.5605 13.8127 12.5605C13.9281 12.5605 14.022 12.6545 14.022 12.7701V14.4242C14.022 14.4815 13.9995 14.5349 13.9586 14.5743C13.9195 14.612 13.8664 14.6337 13.8127 14.6337Z" fill="#855E3B"/>
<path d="M11.962 18.0919C12.2689 18.0919 12.5177 17.8431 12.5177 17.5362C12.5177 17.2293 12.2689 16.9805 11.962 16.9805C11.655 16.9805 11.4062 17.2293 11.4062 17.5362C11.4062 17.8431 11.655 18.0919 11.962 18.0919Z" fill="#855E3B"/>
<path d="M11.962 18.0849C11.6608 18.0849 11.4158 17.8397 11.4158 17.5385C11.4158 17.2373 11.6608 16.9922 11.962 16.9922C12.2633 16.9922 12.5084 17.2373 12.5084 17.5385C12.5084 17.8397 12.2633 18.0849 11.962 18.0849Z" fill="#855E3B"/>
<path d="M10.2481 6.74664C10.6732 6.74664 11.0179 6.40199 11.0179 5.97684C11.0179 5.55168 10.6732 5.20703 10.2481 5.20703C9.82292 5.20703 9.47827 5.55168 9.47827 5.97684C9.47827 6.40199 9.82292 6.74664 10.2481 6.74664Z" fill="#855E3B"/>
<path d="M10.248 6.7376C9.82868 6.7376 9.48755 6.39646 9.48755 5.97717C9.48755 5.55787 9.82868 5.2168 10.248 5.2168C10.6672 5.2168 11.0083 5.55787 11.0083 5.97717C11.0083 6.39641 10.6672 6.7376 10.248 6.7376Z" fill="#855E3B"/>
<path d="M13.5083 6.74664C13.9335 6.74664 14.2781 6.40199 14.2781 5.97684C14.2781 5.55168 13.9335 5.20703 13.5083 5.20703C13.0832 5.20703 12.7385 5.55168 12.7385 5.97684C12.7385 6.40199 13.0832 6.74664 13.5083 6.74664Z" fill="#855E3B"/>
<path d="M13.5084 6.7376C13.0891 6.7376 12.7479 6.39646 12.7479 5.97717C12.7479 5.55787 13.0891 5.2168 13.5084 5.2168C13.9276 5.2168 14.2687 5.55787 14.2687 5.97717C14.2687 6.39641 13.9277 6.7376 13.5084 6.7376Z" fill="#855E3B"/>
<path d="M11.962 20.4454C12.2689 20.4454 12.5177 20.1966 12.5177 19.8897C12.5177 19.5828 12.2689 19.334 11.962 19.334C11.655 19.334 11.4062 19.5828 11.4062 19.8897C11.4062 20.1966 11.655 20.4454 11.962 20.4454Z" fill="#855E3B"/>
<path d="M11.962 20.4365C11.6608 20.4365 11.4158 20.1913 11.4158 19.8901C11.4158 19.5888 11.6608 19.3438 11.962 19.3438C12.2633 19.3438 12.5084 19.5888 12.5084 19.8901C12.5084 20.1913 12.2633 20.4365 11.962 20.4365Z" fill="#855E3B"/>
<path d="M10.2798 8.54199C10.2798 9.42523 10.9964 10.1391 11.8796 10.1391C12.7602 10.1391 13.4768 9.42529 13.4768 8.54199C13.4768 8.45305 13.4685 8.36141 13.4519 8.27539H10.3048C10.2881 8.36141 10.2798 8.45305 10.2798 8.54199Z" fill="#855E3B"/>
<path d="M11.8795 10.1299C11.0026 10.1299 10.2891 9.41764 10.2891 8.54213C10.2891 8.45377 10.2973 8.36277 10.314 8.27734L13.4518 8.2849C13.4591 8.36283 13.4674 8.45377 13.4674 8.54213C13.4673 9.41764 12.755 10.1299 11.8795 10.1299Z" fill="#855E3B"/>
<path d="M23.3412 10.7928C22.6404 9.31904 21.1315 8.36672 19.4971 8.36672C19.2758 8.36672 19.0571 8.38354 18.8417 8.41717C18.9257 7.98252 18.969 7.53879 18.969 7.09184C18.969 3.18141 15.7876 0 11.8773 0C7.9671 0 4.78587 3.18141 4.78587 7.09184C4.78587 7.53867 4.82917 7.98252 4.91314 8.41711C4.69745 8.38348 4.47866 8.3666 4.25712 8.3666C2.62236 8.36648 1.11357 9.3191 0.413195 10.7934C-0.0737774 11.8174 -0.132371 12.9715 0.248371 14.0424C0.629113 15.1134 1.40314 15.9715 2.42777 16.4586L6.53015 18.409V19.873L3.66046 22.7427C2.85726 23.5458 2.41499 24.6137 2.41499 25.7496C2.41499 26.8852 2.85726 27.9529 3.66046 28.7561C4.46308 29.5583 5.53077 30 6.66696 30C7.80327 30 8.87097 29.5583 9.67341 28.7562L11.8774 26.5522L14.0813 28.756C14.8839 29.5583 15.9516 30 17.0879 30C18.2241 30 19.2917 29.5583 20.0942 28.7562C20.8965 27.9538 21.3384 26.8861 21.3384 25.7494C21.3384 24.6128 20.8966 23.545 20.0944 22.7427L17.2246 19.8729V18.4089L21.327 16.4585C22.3527 15.9709 23.1271 15.1129 23.5075 14.0425C23.8881 12.9732 23.8291 11.8189 23.3412 10.7928ZM1.83046 11.4665C2.28913 10.501 3.25323 9.93545 4.25712 9.93557C4.6429 9.93557 5.0346 10.0191 5.40568 10.1955L5.47587 10.2289C5.43761 10.4738 5.48999 10.6903 5.53634 10.8771C5.6036 11.1475 5.63273 11.2985 5.50265 11.5088C5.37263 11.7191 5.22456 11.7604 4.95257 11.821C4.66013 11.8861 4.29638 11.9674 4.02972 12.3983C3.76329 12.8285 3.85353 13.1901 3.92589 13.4805C3.99333 13.7505 4.02228 13.9011 3.89255 14.111C3.76288 14.3206 3.61505 14.3616 3.34347 14.4221C3.12011 14.4716 2.85521 14.5317 2.6237 14.749C1.63892 13.9959 1.27734 12.6298 1.83046 11.4665ZM6.66696 28.431C5.98013 28.431 5.29306 28.1693 4.76999 27.6464C4.26316 27.1396 3.98413 26.4662 3.98413 25.7494C3.98413 25.0327 4.26316 24.3589 4.76999 23.8521L4.86011 23.7619C4.88062 23.8543 4.8822 23.9585 4.88062 24.0923C4.87698 24.3919 4.87253 24.7646 5.23089 25.1228C5.5889 25.481 5.96103 25.476 6.26114 25.4729C6.54005 25.4698 6.69345 25.4756 6.86829 25.6507C7.04261 25.825 7.04894 25.9782 7.0453 26.2567C7.04126 26.5559 7.03652 26.9282 7.39446 27.2864C7.75265 27.6446 8.1263 27.6381 8.42419 27.6357C8.47968 27.6349 8.52696 27.6356 8.57366 27.6368L8.56411 27.6463C8.04105 28.1693 7.35403 28.431 6.66696 28.431ZM18.9849 27.6464C18.4618 28.1693 17.7748 28.431 17.0879 28.431C16.4009 28.431 15.7138 28.1693 15.1908 27.6464L15.1807 27.6363C15.2279 27.6351 15.2758 27.6346 15.332 27.6357C15.6317 27.6377 16.0038 27.6445 16.3619 27.2864C16.72 26.9282 16.7149 26.5559 16.7111 26.2567C16.7075 25.9786 16.7138 25.825 16.8881 25.6507C17.063 25.4756 17.2144 25.4699 17.4952 25.4729C17.7951 25.4748 18.1671 25.4805 18.5255 25.1228C18.8838 24.7646 18.8795 24.3919 18.8756 24.0923C18.8741 23.9591 18.8758 23.8553 18.896 23.7633L18.9849 23.8521C20.0309 24.8982 20.0309 26.6006 18.9849 27.6464ZM15.6981 17.3973C15.6841 17.4039 15.6695 17.4083 15.6555 17.4148V20.5228L18.4473 23.3146C18.2831 23.5932 18.2844 23.8684 18.2873 24.0997C18.2906 24.3786 18.2843 24.5317 18.1094 24.7068C17.9345 24.8815 17.7788 24.8876 17.5024 24.8846C17.2017 24.8781 16.8303 24.8762 16.472 25.2347C16.114 25.5929 16.1188 25.9652 16.1226 26.2644C16.1263 26.543 16.1202 26.6962 15.9459 26.8704C15.7714 27.0451 15.6164 27.0497 15.3398 27.0474C15.1431 27.0445 14.9174 27.0437 14.6852 27.141L11.8773 24.3333L9.07013 27.1404C8.83763 27.0433 8.61181 27.0442 8.41651 27.0475C8.13884 27.0509 7.9848 27.0452 7.81054 26.8705C7.63628 26.6962 7.62995 26.543 7.63353 26.2645C7.63757 25.9653 7.64232 25.593 7.28437 25.2348C6.92601 24.8766 6.55464 24.8789 6.25394 24.8846C5.97562 24.8881 5.82187 24.8816 5.64696 24.7069C5.47212 24.5318 5.46562 24.3786 5.46901 24.0997C5.47183 23.8679 5.47312 23.5925 5.30853 23.3137L8.09935 20.5229V17.4148C8.08523 17.4084 8.07069 17.404 8.05681 17.3974L3.18386 15.0806C3.26325 15.0468 3.35407 15.0224 3.47091 14.9964C3.763 14.9316 4.12675 14.8512 4.39294 14.4206C4.65937 13.9901 4.56937 13.6284 4.49694 13.3381C4.42956 13.068 4.40044 12.9175 4.53011 12.7079C4.66036 12.4976 4.80843 12.4559 5.0806 12.3954C5.37286 12.3303 5.73638 12.2494 6.00298 11.8185C6.26958 11.3875 6.17982 11.0259 6.10757 10.7351C6.08601 10.6482 6.07142 10.5758 6.06175 10.5076L8.09929 11.4765V11.1087C7.02831 10.1008 6.35495 8.6751 6.35495 7.09195C6.35495 4.04654 8.83224 1.5692 11.8773 1.5692C14.9226 1.5692 17.3999 4.04654 17.3999 7.09195C17.3999 8.6751 16.7266 10.1008 15.6555 11.1087V11.4765L17.6947 10.5068C17.685 10.5752 17.6705 10.6478 17.6487 10.7351C17.5765 11.0258 17.4867 11.3875 17.7533 11.8185C18.0199 12.2494 18.3835 12.3302 18.6758 12.3954C18.9479 12.4559 19.096 12.4977 19.2262 12.7079C19.3559 12.9175 19.3268 13.068 19.2593 13.3381C19.187 13.6284 19.0969 13.9901 19.3634 14.4206C19.6296 14.8512 19.9933 14.9317 20.2854 14.9964C20.4018 15.0223 20.4924 15.0468 20.5716 15.0803L15.6981 17.3973ZM22.0292 13.5171C21.8528 14.0135 21.5412 14.4364 21.132 14.7483C20.9007 14.5314 20.636 14.4715 20.4129 14.422C20.1413 14.3615 19.9934 14.3205 19.8637 14.111C19.7341 13.9011 19.763 13.7505 19.8304 13.4804C19.9028 13.19 19.993 12.8285 19.7266 12.3982C19.46 11.9673 19.0962 11.886 18.8038 11.8209C18.5318 11.7604 18.3837 11.719 18.2536 11.5087C18.1236 11.2984 18.1527 11.1475 18.22 10.877C18.2664 10.6901 18.3187 10.4733 18.2803 10.2282L18.3492 10.1954C18.7201 10.0191 19.1114 9.93568 19.4971 9.93568C20.5008 9.93568 21.4652 10.5012 21.9242 11.4664C22.232 12.1139 22.2694 12.8422 22.0292 13.5171Z" fill="#855E3B"/>
<path d="M17.088 29.991C15.9542 29.991 14.8887 29.5502 14.088 28.7496L11.884 26.5459L9.66684 28.7499C8.86616 29.5503 7.80081 29.991 6.66702 29.991C5.53323 29.991 4.46788 29.5502 3.66719 28.7496C2.86575 27.9482 2.42442 26.8827 2.42442 25.7497C2.42442 24.6163 2.86575 23.5509 3.66719 22.7495L6.53688 19.8798L6.53957 18.4092L2.4318 16.4504C1.40946 15.9644 0.637134 15.1082 0.257153 14.0395C-0.122827 12.971 -0.0643506 11.8196 0.421626 10.7976C1.12036 9.32658 2.62581 8.37619 4.25682 8.37619C4.47672 8.37619 4.69704 8.39318 4.91172 8.4267C4.83801 7.97916 4.79524 7.53385 4.79524 7.09223C4.79524 3.18695 7.97225 0.00976562 11.8773 0.00976562C15.7825 0.00976562 18.9596 3.18689 18.9596 7.09223C18.9596 7.53385 18.9168 7.97922 18.8324 8.41574C19.057 8.39336 19.277 8.37648 19.4971 8.37648C21.1279 8.37648 22.6335 9.3267 23.3327 10.7972C23.8195 11.821 23.8785 12.9727 23.4987 14.0399C23.1192 15.1077 22.3465 15.9638 21.323 16.4505L17.2205 18.4009L17.2152 19.8733L20.0877 22.7498C20.8882 23.5503 21.3289 24.6158 21.3289 25.7498C21.3289 26.8839 20.888 27.9495 20.0874 28.75C19.2869 29.5503 18.2216 29.991 17.088 29.991ZM15.1804 27.6273C15.692 28.1611 16.3681 28.4407 17.0879 28.4407C17.8077 28.4407 18.4837 28.1611 18.9915 27.6533C19.4992 27.1458 19.7788 26.4698 19.7788 25.7497C19.7788 25.0296 19.4992 24.3535 18.9915 23.8458L18.9026 23.757C18.8673 23.8504 18.8645 23.9466 18.8662 24.0929C18.87 24.3904 18.8748 24.7607 18.5188 25.1165C18.1974 25.4373 17.8616 25.4642 17.5721 25.4642L17.4206 25.4634C17.1728 25.4634 17.0361 25.4895 16.8814 25.6445C16.7043 25.8215 16.698 25.9763 16.7017 26.2572C16.7055 26.555 16.7102 26.925 16.3553 27.2802C16.0351 27.6004 15.6998 27.6272 15.4106 27.6272L15.2693 27.6261L15.1804 27.6273ZM4.76336 23.8458C4.25483 24.3542 3.97481 25.0305 3.97481 25.7497C3.97481 26.4687 4.25483 27.1448 4.76336 27.6533C5.2712 28.1611 5.94725 28.4407 6.66702 28.4407C7.3869 28.4407 8.06301 28.1611 8.57079 27.6533L8.47504 27.6263L8.3411 27.6272C8.05428 27.6272 7.72147 27.6004 7.40125 27.2801C7.04583 26.9245 7.05081 26.5544 7.05479 26.2571C7.05842 25.9763 7.05215 25.8215 6.87508 25.6444C6.72034 25.4894 6.58358 25.4634 6.33543 25.4634L6.17149 25.4644C5.8879 25.4644 5.55842 25.4376 5.23762 25.1165C4.8819 24.7609 4.88641 24.3904 4.89004 24.0928C4.8918 23.9457 4.88905 23.849 4.86936 23.7601L4.86567 23.7434L4.76336 23.8458ZM8.51348 27.0561C8.67672 27.0561 8.87008 27.0672 9.06655 27.1495L11.8773 24.3468L14.6785 27.1479C14.8858 27.0674 15.0813 27.0562 15.2464 27.0562L15.4067 27.0575C15.6344 27.0575 15.7847 27.0453 15.9525 26.8775C16.1294 26.7004 16.1357 26.5456 16.132 26.2646C16.1281 25.9672 16.1235 25.597 16.4786 25.2416C16.785 24.9351 17.0969 24.8927 17.3883 24.8927L17.5764 24.8948C17.8243 24.8948 17.961 24.8687 18.1161 24.7138C18.2935 24.5362 18.3 24.3811 18.2968 24.0999C18.2938 23.8771 18.2903 23.5999 18.4553 23.3198L15.6622 20.5165L15.6649 17.415L20.5756 15.089C20.4956 15.0382 20.4046 15.0136 20.2875 14.9875C19.9967 14.9231 19.6353 14.8428 19.3714 14.416C19.1069 13.9885 19.1965 13.6293 19.2685 13.3405C19.3366 13.0681 19.3659 12.916 19.2343 12.7032C19.1017 12.4892 18.9523 12.4474 18.6779 12.3863C18.3871 12.3215 18.0257 12.2411 17.7613 11.8137C17.4968 11.3862 17.5861 11.0265 17.6579 10.7375C17.6797 10.65 17.6943 10.5769 17.704 10.5082L15.6515 11.4681L15.6649 11.1087C16.7887 10.0553 17.4092 8.62639 17.4092 7.09211C17.4092 4.04166 14.9276 1.55992 11.8772 1.55992C8.82702 1.55992 6.34551 4.04166 6.34551 7.09211C6.34551 8.62645 6.96602 10.0553 8.09272 11.1156L8.08979 11.4766L6.06567 10.4992C6.06209 10.5775 6.07674 10.6503 6.09836 10.7375C6.17014 11.0264 6.25944 11.3861 5.99489 11.8136C5.73045 12.241 5.36911 12.3215 5.07877 12.3861C4.80391 12.4473 4.65444 12.4891 4.52202 12.7031C4.39041 12.9158 4.41971 13.0679 4.48774 13.3404C4.55975 13.6292 4.64934 13.9884 4.38485 14.4159C4.12082 14.8427 3.75954 14.9229 3.4692 14.9873C3.35125 15.0135 3.25997 15.0382 3.1801 15.0722L8.05264 17.406L8.08979 20.523L5.30178 23.3071C5.46567 23.5986 5.46227 23.8765 5.45958 24.0997C5.45612 24.3808 5.46256 24.5358 5.64028 24.7137C5.79538 24.8686 5.9309 24.8947 6.176 24.8947L6.3625 24.8929C6.65664 24.8929 6.97106 24.9351 7.27768 25.2415C7.63311 25.5971 7.62813 25.9671 7.62409 26.2645C7.62045 26.5453 7.62678 26.7001 7.80379 26.8773C7.95778 27.0316 8.09266 27.0575 8.33664 27.0575L8.51348 27.0561ZM4.25688 9.92652C3.22106 9.92652 2.26534 10.5296 1.82208 11.4629C1.27956 12.6039 1.6143 13.9891 2.61813 14.7567C2.86176 14.5388 3.13006 14.4793 3.34563 14.4315C3.62002 14.3704 3.76932 14.3285 3.90075 14.1162C4.03252 13.9029 4.00317 13.7508 3.9352 13.4784C3.86313 13.1897 3.77354 12.8303 4.03786 12.4035C4.30252 11.9757 4.66416 11.8951 4.95473 11.8305C5.2293 11.7694 5.37872 11.7275 5.51079 11.514C5.64274 11.3006 5.61344 11.1481 5.54559 10.8751C5.50153 10.698 5.44674 10.4773 5.48524 10.2307L5.40977 10.1873C5.04561 10.0143 4.65778 9.92652 4.25717 9.92652H4.25688ZM19.4972 9.92676C19.0964 9.92676 18.7089 10.0144 18.3452 10.1873L18.2763 10.22C18.3098 10.4771 18.255 10.6977 18.2109 10.8751C18.143 11.1481 18.1138 11.3006 18.2457 11.514C18.3778 11.7274 18.5272 11.7694 18.8018 11.8305C19.0924 11.8951 19.454 11.9757 19.7187 12.4035C19.983 12.8303 19.8934 13.1897 19.8214 13.4784C19.7534 13.7508 19.724 13.9029 19.8558 14.1162C19.9872 14.3285 20.1365 14.3704 20.4109 14.4315C20.6263 14.4792 20.8943 14.5386 21.1257 14.7555C21.5516 14.4406 21.8629 14.0134 22.038 13.5205C22.279 12.8434 22.2416 12.1126 21.9327 11.4629C21.4889 10.5297 20.533 9.92676 19.4972 9.92676Z" fill="#855E3B"/>
</svg>
