<svg width="27" height="30" viewBox="0 0 27 30" fill="none" xmlns="http://www.w3.org/2000/svg">
<path d="M15.3187 26.4857C15.3161 26.4864 15.313 26.4866 15.3103 26.487C15.3124 26.4839 15.3144 26.4797 15.3167 26.4766C14.6926 26.6086 14.0228 26.6771 13.3305 26.6771C12.9085 26.6771 12.4919 26.6471 12.0875 26.5944C12.0502 26.5887 12.0102 26.5871 11.9735 26.5807C11.9735 26.5812 11.9735 26.5819 11.9735 26.5824C11.9706 26.5819 11.9671 26.5819 11.9641 26.5814C12.028 27.4651 12.5381 28.6857 14.5514 29.5557C14.4839 28.6425 14.7352 27.5151 15.1327 26.776C15.1915 26.6709 15.2535 26.5734 15.3187 26.4857Z" fill="#855E3B"/>
<path d="M10.4456 7.67993C10.4467 7.67852 10.4485 7.67811 10.4504 7.67741C10.4522 7.6767 10.4538 7.67606 10.4556 7.67536C10.4554 7.67536 10.4554 7.67512 10.4554 7.67512C10.4586 7.67377 10.4616 7.67266 10.4637 7.67079C10.1265 7.09225 9.9171 6.4182 9.9171 5.69377C9.9171 4.51477 10.4737 3.46222 11.2366 2.75249C11.2538 2.73667 11.2695 2.71909 11.2867 2.70374C11.8994 2.15262 12.638 1.8221 13.3287 1.8221C14.914 1.8221 16.7404 3.5531 16.7404 5.69377C16.7404 6.35474 16.56 6.9702 16.2733 7.51306C16.2465 7.56227 16.2257 7.61378 16.1966 7.66182C16.1971 7.66182 16.1975 7.66206 16.1979 7.66229C16.1964 7.66499 16.1952 7.66803 16.1938 7.67073C16.7905 7.86643 17.3419 8.11246 17.8518 8.41778C18.303 7.59292 18.5626 6.65931 18.5626 5.69371C18.5626 2.7147 16.071 0 13.3287 0C10.5912 0 8.09497 2.7147 8.09497 5.69377C8.09497 6.65937 8.35934 7.59778 8.80565 8.42217C9.31582 8.11251 9.86238 7.86648 10.4456 7.67993Z" fill="#855E3B"/>
<path d="M12.5496 3.61729C12.5496 3.31314 12.3226 3.06641 12.0429 3.06641C11.7629 3.06641 11.5361 3.31314 11.5361 3.61729C11.5361 3.92144 11.7629 4.16794 12.0429 4.16794C12.3226 4.168 12.5496 3.9215 12.5496 3.61729Z" fill="#855E3B"/>
<path d="M14.62 4.16818C14.8998 4.16818 15.1266 3.92154 15.1266 3.61729C15.1266 3.31305 14.8998 3.06641 14.62 3.06641C14.3402 3.06641 14.1134 3.31305 14.1134 3.61729C14.1134 3.92154 14.3402 4.16818 14.62 4.16818Z" fill="#855E3B"/>
<path d="M5.02506 13.5287C5.06121 13.4011 5.09783 13.2781 5.13902 13.1553L5.17523 13.0506C5.20271 12.9731 5.22996 12.8955 5.26177 12.8181C5.3165 12.6542 5.38494 12.4812 5.46228 12.3125C5.53072 12.153 5.61287 11.9708 5.70374 11.7978C5.47605 11.6568 5.2391 11.5016 5.00227 11.3377C5.00227 11.3377 4.10503 12.5494 2.76131 12.5494C2.63815 12.5494 2.51065 12.5357 2.37864 12.5129C0.825218 12.2486 2.88858 8.45911 4.14604 8.17646C4.21905 8.16275 4.29159 8.15378 4.36899 8.15378C5.22592 8.15378 6.20987 9.21143 6.81619 9.9862C6.83037 10.0048 6.84549 10.0242 6.85897 10.0421L6.85984 10.0409C6.86172 10.0434 6.86395 10.046 6.86582 10.0485L7.08396 9.81183C7.43939 9.43373 7.81749 9.09202 8.22717 8.79607C7.35285 7.67549 5.97251 6.33203 4.36899 6.33203C4.15958 6.33203 3.95011 6.35471 3.74527 6.40023C1.83208 6.83282 -0.0447151 9.92128 0.000811828 11.8299C0.0328623 13.1232 0.848186 14.098 2.06897 14.312C2.29673 14.3487 2.52881 14.3715 2.76137 14.3715C3.6405 14.3715 4.38299 14.0889 4.96594 13.7428C4.98861 13.6609 5.00672 13.5927 5.02506 13.5287Z" fill="#855E3B"/>
<path d="M10.4819 26.2555C10.0882 26.134 9.71373 25.9765 9.35256 25.8005C9.25734 25.752 9.15639 25.7103 9.0651 25.6572C9.06557 25.6592 9.0658 25.6615 9.06604 25.6636C9.06281 25.662 9.05912 25.6607 9.05596 25.6588C9.15621 26.2511 9.17912 27.2121 8.49569 27.9592C8.35448 28.1094 8.19974 28.1778 8.03585 28.1778C6.9336 28.1778 5.41656 25.185 5.79466 24.1331C5.90382 23.8278 6.159 23.5955 6.49157 23.4132C6.487 23.4087 6.48243 23.3995 6.47786 23.3952L6.35956 23.2308C6.3094 23.1534 6.26382 23.0852 6.21835 23.017C6.12724 22.8847 6.04527 22.7483 5.96312 22.6071C5.87663 22.4703 5.77662 22.2881 5.69007 22.1013C5.6507 22.0318 5.61138 21.945 5.56808 21.8539L5.56691 21.8501C5.56668 21.8501 5.5665 21.8503 5.5665 21.8503C5.56486 21.8473 5.56375 21.8448 5.5624 21.8418C4.89725 22.2199 4.35526 22.7527 4.08198 23.5089C3.50812 25.0941 4.54663 27.2165 5.24811 28.2187C6.27759 29.69 7.33432 29.9998 8.03585 29.9998C8.71905 29.9998 9.36111 29.7129 9.8397 29.1889C10.6232 28.3281 10.901 27.3032 10.9237 26.3829C10.901 26.3786 10.8735 26.3695 10.8509 26.3651C10.7231 26.3331 10.6002 26.2967 10.4819 26.2555Z" fill="#855E3B"/>
<path d="M21.1772 21.6602C21.1133 21.806 21.0451 21.9652 20.9538 22.1291C20.8765 22.2887 20.7852 22.4574 20.6851 22.6212C20.6169 22.7395 20.5347 22.881 20.4391 23.0176C20.3937 23.0879 20.3404 23.1659 20.2901 23.2413L20.2786 23.2547C20.2793 23.2552 20.2797 23.2554 20.2804 23.2556C20.2789 23.2584 20.277 23.2609 20.2752 23.2634C20.7581 23.4548 21.1497 23.7372 21.2955 24.1336C21.6779 25.1855 20.1566 28.1783 19.0543 28.1783C18.8904 28.1783 18.7355 28.1099 18.5945 27.9598C17.8891 27.1878 17.936 26.1894 18.0438 25.6055C18.0619 25.5172 18.0823 25.4353 18.1029 25.362C18.1004 25.3638 18.0976 25.3652 18.0949 25.3668C18.0957 25.3632 18.0969 25.3579 18.0978 25.3543C17.51 25.7416 16.868 26.042 16.1709 26.2609C16.1666 26.2609 16.1666 26.2609 16.162 26.2652C16.1666 27.2127 16.4353 28.2924 17.2505 29.1896C17.7289 29.7135 18.3712 30.0005 19.0544 30.0005C19.7559 30.0005 20.8126 29.6906 21.8421 28.2194C22.5437 27.2171 23.5821 25.0948 23.0082 23.5096C22.6846 22.6258 22.0014 22.0426 21.1772 21.6602Z" fill="#855E3B"/>
<path d="M22.8081 6.40023C22.6073 6.35471 22.3979 6.33203 22.1839 6.33203C20.6472 6.33203 19.311 7.57003 18.43 8.66225C18.4095 8.68744 18.3877 8.71328 18.3676 8.73848C18.3676 8.73848 18.3678 8.73871 18.368 8.73871C18.3662 8.74123 18.3642 8.74375 18.3621 8.74603C18.804 9.05593 19.2139 9.41117 19.5829 9.81189L19.7118 9.94097L19.7264 9.95725C19.7266 9.95702 19.7268 9.95679 19.727 9.95632L19.7337 9.96323C20.3396 9.19327 21.3363 8.15396 22.1839 8.15396C22.2613 8.15396 22.3342 8.16292 22.4116 8.17663C23.6642 8.45928 25.7276 12.2488 24.1744 12.5131C24.0468 12.5358 23.9146 12.5496 23.7918 12.5496C22.448 12.5496 21.5506 11.3379 21.5506 11.3379C21.3412 11.4835 21.127 11.6248 20.9266 11.7478C20.9403 11.7707 20.9539 11.7979 20.9676 11.8252C21.0495 11.9801 21.1407 12.1715 21.2182 12.3674C21.2773 12.4995 21.3412 12.6635 21.4002 12.8274C21.4414 12.9231 21.4867 13.0508 21.5279 13.1918C21.5733 13.3149 21.6098 13.4424 21.6419 13.5653L21.7145 13.8157C22.2795 14.13 22.9763 14.3717 23.7918 14.3717C24.0241 14.3717 24.2564 14.3488 24.4842 14.3121C25.7094 14.0981 26.5203 13.1233 26.5521 11.83C26.6021 9.92128 24.7256 6.83288 22.8081 6.40023Z" fill="#855E3B"/>
<path d="M6.79402 11.7476C6.79291 11.7499 6.7915 11.7521 6.79015 11.7545C6.67115 11.9676 6.56176 12.1879 6.46033 12.415C6.44639 12.4457 6.43174 12.4752 6.41826 12.5061C6.32557 12.7201 6.24178 12.9403 6.16438 13.1653C6.14973 13.2076 6.1335 13.2486 6.11932 13.2914C6.03963 13.534 5.96962 13.7825 5.90733 14.0361C5.90182 14.059 5.89497 14.0808 5.88946 14.1037C5.68098 14.9789 5.57153 15.9122 5.57153 16.8854C5.57153 17.8586 5.68093 18.7917 5.88946 19.667C5.89497 19.6903 5.90206 19.7125 5.90757 19.7359C5.96979 19.989 6.03963 20.2371 6.11932 20.4792C6.1335 20.5225 6.14996 20.5639 6.16461 20.6067C6.24201 20.831 6.32551 21.0507 6.41803 21.2642C6.43174 21.2958 6.44686 21.3261 6.4608 21.3572C6.56217 21.5835 6.67139 21.8032 6.78992 22.0159C6.7915 22.0188 6.79314 22.0214 6.79472 22.0243C8.0359 24.244 10.216 25.6948 13.3287 25.6948C16.7509 25.6948 19.0466 23.9457 20.2056 21.3471C20.2173 21.321 20.2301 21.2956 20.2416 21.2693C20.3364 21.051 20.422 20.8264 20.5007 20.5968C20.514 20.5586 20.5287 20.5215 20.5414 20.4829C20.6225 20.237 20.6934 19.9848 20.7564 19.7275C20.7614 19.7079 20.7671 19.6891 20.7719 19.6694C20.9807 18.7935 21.0906 17.8595 21.0906 16.8853C21.0906 15.9115 20.9807 14.9772 20.7717 14.1013C20.7671 14.0821 20.7615 14.0638 20.7568 14.0446C20.6937 13.7866 20.6225 13.5342 20.5412 13.2874C20.5287 13.2494 20.5142 13.2128 20.5012 13.175C20.4222 12.945 20.3364 12.7198 20.2414 12.5012C20.2302 12.4753 20.2176 12.4507 20.2061 12.4248C19.0473 9.82568 16.7516 8.07617 13.3287 8.07617C10.2155 8.07617 8.03526 9.52727 6.79402 11.7476ZM8.21789 14.7811L10.0356 15.8333V17.9378L8.21789 18.9853L7.55731 18.6026C7.43462 18.0607 7.37532 17.4823 7.37532 16.8853C7.37532 16.2841 7.43462 15.7057 7.55731 15.1636L8.21789 14.7811ZM15.9524 19.2812L17.7699 20.3334V21.6043C17.2188 22.3605 16.4626 22.93 15.5018 23.2302L14.1306 22.4379V20.3334L15.9524 19.2812ZM14.1305 13.4328V11.3283L15.5061 10.5359C16.4626 10.841 17.2188 11.4105 17.7699 12.1664V13.4328L15.9524 14.485L14.1305 13.4328ZM12.541 20.3334V22.4379L11.1651 23.2302C10.2087 22.93 9.45245 22.3648 8.8967 21.6135V20.3333L10.7188 19.2812L12.541 20.3334ZM10.7189 14.4849L8.89675 13.4327V12.1574C9.45251 11.4056 10.2039 10.8409 11.1606 10.5359L12.541 11.3282V13.4327L10.7189 14.4849ZM11.5112 17.9378V15.8333L13.3334 14.7811L15.1553 15.8333V17.9378L13.3334 18.9853L11.5112 17.9378ZM16.6312 17.9378V15.8333L18.4486 14.7811L19.1045 15.1544C19.2274 15.7012 19.2867 16.2841 19.2867 16.8853C19.2867 17.4866 19.2274 18.065 19.1045 18.6118L18.4486 18.9853L16.6312 17.9378Z" fill="#855E3B"/>
</svg>
