<svg width="30" height="28" viewBox="0 0 30 28" fill="none" xmlns="http://www.w3.org/2000/svg">
<path d="M5.8411 14.2679C5.93995 14.1288 6.04343 13.9942 6.15558 13.864C6.1421 13.8551 6.12851 13.8505 6.11503 13.8416C4.96583 13.195 3.66376 12.4543 2.80636 11.9379C2.72556 11.8885 2.64909 11.8393 2.57726 11.7988C1.7512 11.8302 0.619872 12.2881 0.0899505 12.5171C-0.017569 12.5667 -0.0313386 12.7103 0.0629388 12.7775L0.0764153 12.7867C1.53575 13.6846 2.54585 17.3751 2.99491 19.3819C3.25519 20.5311 4.1171 21.1015 4.84911 21.3798C4.90724 21.4022 4.97017 21.4245 5.02419 21.4425C4.7594 20.5311 4.64239 19.6019 4.64239 18.7083C4.64239 16.9619 5.08694 15.3546 5.8411 14.2679Z" fill="#855E3B"/>
<path d="M7.22854 12.8672C7.51577 12.6514 7.82549 12.4541 8.16241 12.2701V10.434C8.16241 7.80709 9.22647 5.4368 10.9461 3.71725C12.6654 1.99787 15.036 0.938145 17.6578 0.938145C20.2798 0.938145 22.6504 1.99787 24.3699 3.71725C26.0895 5.4368 27.1536 7.80709 27.1536 10.434V12.2701C27.4903 12.4541 27.7999 12.6514 28.0874 12.8672V10.434C28.0874 7.55145 26.9201 4.94291 25.0344 3.05736C23.1488 1.16701 20.5356 0 17.6578 0C14.78 0 12.1673 1.16707 10.2816 3.05736C8.3959 4.94291 7.22854 7.55145 7.22854 10.434V11.957L7.22327 12.8597C7.22485 12.8588 7.2269 12.8576 7.22854 12.8563V12.8672Z" fill="#855E3B"/>
<path d="M28.9178 14.6499C28.6933 14.3267 28.4152 14.0168 28.0875 13.7296C27.8135 13.4872 27.4993 13.2627 27.1536 13.0517C27.1491 13.0425 27.1399 13.0425 27.1355 13.0425C26.8483 12.8631 26.5384 12.697 26.2017 12.5488C26.1973 12.5577 26.1927 12.5623 26.1838 12.5712L26.1344 12.6252L26.0758 12.6699C24.6034 13.8552 22.2509 13.945 19.3327 13.945C19.3327 13.945 18.7894 13.945 18.5154 13.945C18.2282 13.9404 17.9453 13.9404 17.6534 13.9404C17.3662 13.9404 17.0789 13.9404 16.7958 13.945H15.9787C13.0604 13.945 10.708 13.8553 9.23537 12.6699L9.17701 12.6252L9.12755 12.5712C9.11859 12.5623 9.11408 12.5577 9.10968 12.5488C8.79081 12.6926 8.49468 12.845 8.2207 13.0203C8.20283 13.0246 8.18021 13.0335 8.16234 13.0516C7.81652 13.258 7.50246 13.4872 7.22847 13.7296C7.05339 13.8822 6.89613 14.0392 6.75703 14.2008C6.61787 14.3448 6.50115 14.4972 6.39333 14.6499C5.74259 15.5794 5.3114 17.0831 5.3114 18.7084C5.3114 19.6647 5.45947 20.6615 5.78724 21.6223V21.6266C5.91749 22.0173 6.07933 22.3989 6.27228 22.7672C6.89185 23.9569 7.93787 25.2545 9.72035 26.2691C11.5072 27.2791 14.0437 28.0066 17.6577 28.0066C21.272 28.0066 23.8087 27.2792 25.5912 26.2691C27.3781 25.2545 28.4195 23.9569 29.0437 22.7672C29.7125 21.4875 29.9999 20.0554 29.9999 18.7084C30.0044 17.0832 29.569 15.5794 28.9178 14.6499ZM13.1512 17.0907C13.1049 17.5602 12.8843 18.0429 12.4948 18.4301C12.1054 18.8195 11.6223 19.0403 11.1531 19.0865C11.1419 19.0875 11.1306 19.0891 11.1194 19.0899C10.6482 19.128 10.1934 18.9881 9.86402 18.6592C9.20414 17.9991 9.30281 16.8227 10.0931 16.0328C10.4819 15.6437 10.9646 15.4231 11.4339 15.3769C11.4455 15.3754 11.4572 15.3736 11.4689 15.373C11.9399 15.3352 12.395 15.4746 12.7239 15.8039C13.053 16.1308 13.1926 16.5856 13.1546 17.0568C13.1539 17.0681 13.1521 17.0795 13.1512 17.0907Z" fill="#855E3B"/>
<path d="M9.6124 11.9597C10.892 12.9741 13.321 13.0103 15.9787 13.0103C16.2437 13.0103 16.5221 13.0103 16.7958 13.0057H18.52C18.7939 13.0103 19.0633 13.0103 19.3327 13.0103C20.657 13.0103 21.9051 12.9879 22.9691 12.8441C24.0422 12.6914 25.0616 12.4626 25.7034 11.9554L25.7215 11.8698C25.7437 11.7844 25.7528 11.6949 25.7528 11.605C25.7528 11.5377 25.7482 11.4704 25.7347 11.3985C25.6763 11.0481 25.4832 10.7611 25.1692 10.4826C24.8547 10.2042 24.4329 9.95721 23.9838 9.72377C23.2115 9.32416 22.1117 8.91125 20.9624 8.60135C20.8275 8.56537 20.6929 8.52951 20.5584 8.4981C20.5403 8.51182 20.5179 8.52945 20.4955 8.5475V9.79104L20.4909 9.79537V9.87641C20.4909 10.0831 20.4909 10.0961 20.4685 10.1682L20.3696 10.4601L20.0646 10.4735C19.0408 10.5228 18.3406 10.5451 17.6579 10.5451C16.9713 10.5451 16.2754 10.5228 15.2517 10.4735L14.9556 10.4601L14.8519 10.1817C14.8253 10.1056 14.8253 10.0875 14.8207 9.86316V8.5475L14.7667 8.50238L14.7578 8.49805C14.6232 8.52939 14.4884 8.56531 14.3539 8.60129C13.2044 8.91119 12.1047 9.3241 11.3322 9.72371C10.8834 9.95715 10.4613 10.2041 10.1471 10.4825C9.83283 10.7611 9.63531 11.0526 9.57672 11.4028C9.56799 11.4703 9.55908 11.5376 9.55908 11.6049C9.55908 11.6949 9.57232 11.7798 9.59043 11.8697L9.6124 11.9581C9.60209 11.962 9.59271 11.9661 9.6124 11.9597Z" fill="#855E3B"/>
<path d="M15.2695 9.71107L15.274 10.0299C16.2257 10.0746 16.9396 10.0967 17.6578 10.0967C18.3719 10.0967 19.0856 10.0746 20.0418 10.0299L20.0464 9.71107V8.3776V8.319C20.0823 8.29217 20.1228 8.26521 20.1677 8.2293L20.226 8.18875C20.262 8.16197 20.2933 8.13039 20.3293 8.09447C20.3338 8.09447 20.3427 8.08574 20.3471 8.08117L20.4145 8.01824C20.4552 7.9777 20.4954 7.93305 20.5357 7.88799L20.5942 7.81152L20.6031 7.79828C20.6436 7.74906 20.6749 7.6907 20.7109 7.63211L20.7692 7.52453C20.8052 7.45703 20.8276 7.3808 20.8546 7.30434L20.8951 7.19652C20.9265 7.07547 20.9489 6.94521 20.9535 6.80148C20.9579 6.6758 20.949 6.56822 20.9265 6.46041L20.9175 6.41992C20.8951 6.32107 20.8546 6.23154 20.8097 6.14594L20.783 6.10568C20.7603 6.06883 20.7248 6.03771 20.6966 6.00314C20.69 5.99535 20.6836 5.98715 20.6765 5.97936C20.6484 5.94684 20.6273 5.91068 20.5941 5.88115L20.5628 5.85414C20.0375 5.40531 19.0139 5.24805 17.6578 5.24805C15.6061 5.24805 14.3042 5.5985 14.3626 6.80148C14.3805 7.24621 14.5377 7.56918 14.722 7.81152C14.7533 7.85664 14.7893 7.89719 14.8206 7.93305L14.8072 7.92391L14.8474 7.96416L14.9822 8.09898L15.0541 8.15758L15.1393 8.22924L15.2157 8.27863L15.2695 8.31895V8.37754V9.71107H15.2695ZM16.0865 6.24033C16.5354 6.04738 17.0023 6.14166 17.1374 6.44676C17.2673 6.75689 17.0161 7.16547 16.5715 7.35836C16.1225 7.55137 15.6555 7.45703 15.5209 7.14736C15.3864 6.83746 15.6421 6.43352 16.0865 6.24033Z" fill="#855E3B"/>
</svg>
