<svg width="30" height="30" viewBox="0 0 30 30" fill="none" xmlns="http://www.w3.org/2000/svg">
<path d="M27.5457 0.66256V0.667365C27.1287 0.240622 26.5496 0 25.9508 0C25.3474 0 24.778 0.240622 24.3558 0.66256L2.88078 22.1376L2.59134 22.4273L2.43417 22.5842L2.36561 22.653L2.29183 22.8297L2.25754 22.9181V22.9277L0.760602 26.7164L0.078586 28.4486C0.0294771 28.5814 0 28.7237 0 28.8658C0 29.1603 0.117908 29.4498 0.3338 29.6707C0.554497 29.8866 0.844228 30.0045 1.13865 29.9994C1.28105 30.0045 1.4183 29.9749 1.55086 29.9259H1.55566L3.28813 29.2436L7.21889 27.693L7.24837 27.6781L7.35643 27.6439L7.57232 27.428L7.71467 27.2806L29.3467 5.65338C29.7836 5.21181 30.0045 4.63265 30.0045 4.05852C30.0045 3.48433 29.7836 2.90041 29.3467 2.45855L27.5457 0.66256ZM28.6499 4.9566L27.4034 6.20313L23.8061 2.60588L25.0526 1.3594C25.0969 1.31527 25.1411 1.28076 25.1902 1.24173C25.2098 1.22684 25.2294 1.20721 25.2491 1.19262C25.2638 1.18758 25.2784 1.18283 25.2884 1.17299C25.4207 1.0944 25.563 1.03551 25.7104 1.00597C25.725 1.00117 25.7399 1.00117 25.7545 1.00117C25.8233 0.99132 25.887 0.981533 25.9508 0.981533C25.99 0.981533 26.0294 0.99132 26.0686 0.99132C26.1128 0.99636 26.1568 0.99636 26.1961 1.00597C26.2551 1.01576 26.3092 1.03545 26.3632 1.05508C26.3876 1.06487 26.4123 1.06996 26.432 1.07471C26.4612 1.08936 26.4907 1.10899 26.5153 1.11901C26.6381 1.18277 26.7506 1.25632 26.8489 1.35436V1.3594L28.6499 3.15059C28.9004 3.4058 29.023 3.72976 29.023 4.05858C29.023 4.38728 28.9003 4.71123 28.6499 4.9566ZM1.40851 27.8599C1.58514 27.8599 1.73727 27.9579 1.81586 28.1002L1.17797 28.7383C1.03562 28.6597 0.937347 28.5075 0.937347 28.331C0.937406 28.071 1.14826 27.8599 1.40851 27.8599ZM5.00073 25.0086L5.18738 25.0822L6.26689 25.5434L6.72341 26.6232L6.79478 26.7942L6.79672 26.7997L6.71837 26.8244L6.70852 26.8391L3.54334 28.0855L2.92485 28.3309L1.67357 27.0796L1.86983 26.5838L3.20474 23.2075V23.2027L3.3864 23.2811L4.46592 23.7424L4.92718 24.8221L5.00073 25.0086ZM7.17816 26.4281L7.06195 26.1521L6.64002 25.1658L5.3786 24.6308L4.84379 23.3696L3.84743 22.9426L3.64543 22.8583L3.57997 22.8274L23.4578 2.94941L27.06 6.5517L12.5515 21.06L7.17816 26.4281Z" fill="#855E3B"/>
</svg>
