<svg width="30" height="14" viewBox="0 0 30 14" fill="none" xmlns="http://www.w3.org/2000/svg">
<path d="M29.9106 4.56738C29.8685 4.16432 29.5076 3.86883 29.0948 3.92034C28.0825 4.04713 27.1075 4.10801 26.1982 4.10801C24.3218 4.10801 22.8723 3.84709 21.7044 3.48797C21.5292 3.43301 21.356 3.37512 21.1848 3.31289L21.5059 2.92196C21.7357 2.64545 21.8248 2.28452 21.7497 1.93296C21.6748 1.58139 21.4451 1.29071 21.1171 1.13602L19.0123 0.114267C18.6465 -0.0592287 18.2107 -0.0358499 17.8731 0.18915L15.7967 1.52989C15.7741 1.53745 15.7516 1.5436 15.7289 1.55227C15.7218 1.55204 15.7111 1.55046 15.701 1.54887L15.6889 1.53926C15.4685 1.37514 15.206 1.28614 14.9295 1.28614C14.517 1.28614 14.1185 1.49233 13.8654 1.82971C13.7155 2.02676 13.6262 2.26114 13.6029 2.49551L13.3545 2.62208C13.2794 2.6594 13.2092 2.69696 13.1341 2.72989C13.1108 2.74383 13.0827 2.75807 13.0591 2.77202L12.9842 2.71565C12.7592 2.55153 12.4967 2.46733 12.2247 2.46733C11.8075 2.46733 11.4139 2.66872 11.1561 3.00633C10.992 3.22676 10.8982 3.48903 10.8936 3.77028C10.8324 3.78909 10.7716 3.81721 10.7059 3.84539C10.6216 3.88295 10.5372 3.91565 10.453 3.95321C10.453 3.95321 10.4294 3.96258 10.3872 3.97653L10.2746 3.89227C10.0544 3.73272 9.79194 3.64371 9.52006 3.64371C9.10276 3.64371 8.70912 3.84539 8.45119 4.18272C8.32487 4.36102 8.24037 4.55303 8.20287 4.75928C8.15143 4.77803 8.09506 4.79221 8.04362 4.81096C8.04362 4.81096 7.75293 4.89522 7.43893 4.98902C7.25149 4.88121 7.03587 4.82033 6.81544 4.82033C6.39819 4.82033 6.0045 5.02658 5.742 5.36871C5.71868 5.40147 5.69507 5.43897 5.67175 5.47652C4.86538 5.68277 3.98905 5.87502 3.03732 6.05766C2.22638 6.21715 1.54687 6.4234 1.02181 6.67652C0.398377 6.98115 0.0374402 7.6234 0.107694 8.31709C0.107694 8.32646 0.107694 8.3359 0.112499 8.34527C0.0468152 8.49515 -0.145431 11.0124 0.201561 11.9217C0.623377 13.0185 3.47794 13.731 9.76844 13.731H28.1761C28.5277 13.731 28.8747 13.5857 29.1184 13.3325C29.3622 13.0748 29.4887 12.7513 29.4745 12.4232V10.5294L29.5308 10.3186C29.559 10.192 29.5917 10.0655 29.6198 9.9389C30.0887 7.81564 30.0417 5.86102 29.9106 4.56738ZM6.42186 5.86582C6.5155 5.73445 6.66081 5.66414 6.81549 5.66414C6.90936 5.66414 6.99356 5.69232 7.06862 5.74377L7.94524 6.39545L8.28262 6.64857C8.38106 6.71883 8.44217 6.82664 8.45618 6.94863C8.47493 7.07519 8.43737 7.20158 8.35774 7.30476C8.20786 7.51095 7.90293 7.56726 7.70612 7.42675L6.80155 6.74701L6.49212 6.52201C6.39825 6.45176 6.33737 6.34394 6.32343 6.22676C6.30925 6.10019 6.34194 5.96883 6.42186 5.86582ZM12.2249 3.30651C12.3185 3.30651 12.4078 3.3392 12.4826 3.39077L12.5014 3.40952L13.5185 4.15957L13.6967 4.29551C13.7904 4.36576 13.8515 4.46901 13.8654 4.59563C13.8794 4.71738 13.8466 4.84395 13.767 4.95176C13.6171 5.15344 13.3122 5.20945 13.1202 5.06895L12.5295 4.62838L11.9061 4.16444C11.8076 4.09401 11.7513 3.99094 11.7374 3.86901C11.728 3.83145 11.728 3.79412 11.7374 3.76119C11.7422 3.67219 11.7794 3.58313 11.8312 3.50807C11.9248 3.38139 12.075 3.30651 12.2249 3.30651ZM18.6152 0.712156C18.6465 0.719481 18.6779 0.727977 18.7077 0.742332L20.817 1.76432C20.9481 1.8252 21.0372 1.94239 21.0702 2.08296C21.0983 2.2237 21.0654 2.36901 20.9717 2.47682L20.4888 3.05338C19.856 2.79083 19.3217 2.50952 18.8388 2.2612C18.3025 1.98106 17.8272 1.74053 17.3683 1.59405C17.2838 1.56522 17.1989 1.53411 17.1156 1.51167L18.2529 0.770575C18.3512 0.709462 18.4691 0.686786 18.5817 0.704657C18.5932 0.706473 18.604 0.709402 18.6152 0.712156ZM16.5747 3.41432C16.5889 3.53608 16.5514 3.66745 16.4764 3.77526C16.3216 3.9767 16.017 4.03295 15.8249 3.89244L15.117 3.36739L14.6107 2.98764C14.517 2.91739 14.4559 2.81415 14.442 2.69239C14.4279 2.60338 14.442 2.51415 14.4747 2.43446C14.4935 2.3969 14.5123 2.3642 14.5359 2.33145C14.6295 2.20489 14.7794 2.12983 14.9295 2.12983C14.9716 2.12983 15.0091 2.13463 15.0512 2.14858C15.0982 2.15795 15.1451 2.18128 15.1872 2.20946L16.092 2.8844L16.4015 3.11877C16.495 3.18452 16.556 3.29233 16.5747 3.41432ZM0.85781 10.9282C1.66869 11.439 3.05618 11.7158 4.24224 11.8705C5.43263 12.0204 6.42643 12.0438 6.44999 12.0438C6.64206 12.0438 6.79674 11.8845 6.79674 11.6923C6.79674 11.5002 6.642 11.3455 6.44999 11.3455C4.82331 11.3455 1.39224 10.8862 0.89988 10.0423C0.885935 10.0141 0.867185 9.99556 0.843806 9.97201C0.856111 9.84175 0.870583 9.71408 0.889802 9.59408C0.8932 9.58013 0.894607 9.56548 0.898298 9.55177C1.02416 9.62595 1.16836 9.68636 1.31713 9.72826C2.99531 10.1594 5.69993 10.6706 9.07018 10.6706H28.5464V12.4377C28.5512 12.5643 28.4855 12.6486 28.4528 12.6861C28.3777 12.7611 28.2793 12.8033 28.1761 12.8033H9.7685C3.32331 12.8033 1.27506 11.8799 1.02644 11.4627C0.937497 11.3173 0.885935 11.1344 0.85781 10.9282ZM9.04686 4.83932C9.06543 4.78758 9.09356 4.73608 9.12649 4.6892C9.22012 4.55807 9.36543 4.48295 9.52018 4.48295C9.61404 4.48295 9.70305 4.51588 9.77787 4.56744L10.8374 5.35957L10.9921 5.47195C11.1889 5.62207 11.2217 5.91252 11.0624 6.12832C10.9076 6.33457 10.6076 6.39088 10.4155 6.24551L9.7733 5.76738L9.20131 5.34539C9.04686 5.2282 8.99061 5.02676 9.04686 4.83932Z" fill="#855E3B"/>
</svg>
