<svg width="2000" height="133" viewBox="0 0 2000 133" fill="none" xmlns="http://www.w3.org/2000/svg">
<mask id="mask0_3240_501191" style="mask-type:alpha" maskUnits="userSpaceOnUse" x="0" y="0" width="2000" height="133">
<rect width="2000" height="133" fill="#D9D9D9"/>
</mask>
<g mask="url(#mask0_3240_501191)">
<path d="M0 -852.574C0 -852.574 286.719 -820.114 541.406 -852.574C796.094 -885.033 769.42 -852.574 951.562 -852.574C1133.71 -852.573 1178.12 -867.648 1417.97 -852.574C1520.73 -846.115 1540.62 -817.302 1747.66 -846.244C1954.69 -875.186 2000 -852.574 2000 -852.574V127.358C2000 127.358 1798.44 146.622 1591.41 113.958C1384.38 81.2931 1200.78 113.958 904.688 98.0441C785.349 91.6303 608.594 129.871 357.031 115.633C105.469 101.394 0 127.358 0 127.358V-852.574Z" fill="#F6F2EE"/>
</g>
</svg>
