<svg width="2000" height="132" viewBox="0 0 2000 132" fill="none" xmlns="http://www.w3.org/2000/svg">
<mask id="mask0_3240_501189" style="mask-type:alpha" maskUnits="userSpaceOnUse" x="0" y="0" width="2000" height="132">
<rect width="2000" height="132" fill="#D9D9D9"/>
</mask>
<g mask="url(#mask0_3240_501189)">
<path d="M0 14.4265C0 14.4265 286.719 46.886 541.406 14.4265C796.094 -18.033 769.42 14.4262 951.562 14.4265C1133.71 14.4268 1178.12 -0.648282 1417.97 14.4265C1520.73 20.8854 1540.62 49.6984 1747.66 20.7561C1954.69 -8.18622 2000 14.4265 2000 14.4265V994.358C2000 994.358 1798.44 1013.62 1591.41 980.958C1384.38 948.293 1200.78 980.958 904.688 965.044C785.349 958.63 608.594 996.871 357.031 982.633C105.469 968.394 0 994.358 0 994.358V14.4265Z" fill="#F6F2EE"/>
</g>
</svg>
