<svg width="800" height="600" viewBox="0 0 800 600" fill="none" xmlns="http://www.w3.org/2000/svg">
<path d="M0 8.6559C0 8.6559 114.688 28.1316 216.563 8.6559C318.438 -10.8198 307.768 8.65574 380.625 8.6559C453.482 8.65605 471.25 -0.388969 567.188 8.6559C608.293 12.5312 616.25 29.8191 699.063 12.4537C781.875 -4.91173 800 8.6559 800 8.6559V596.615C800 596.615 719.375 608.173 636.563 588.575C553.75 568.976 480.313 588.575 361.875 579.026C314.14 575.178 243.438 598.123 142.813 589.58C42.1875 581.037 0 596.615 0 596.615V8.6559Z" fill="#F6F2EE"/>
</svg>
