<svg width="800" height="78" viewBox="0 0 800 78" fill="none" xmlns="http://www.w3.org/2000/svg">
<mask id="mask0_3238_501182" style="mask-type:alpha" maskUnits="userSpaceOnUse" x="0" y="0" width="800" height="78">
<rect width="800" height="78" fill="#D9D9D9"/>
</mask>
<g mask="url(#mask0_3238_501182)">
<path d="M0 -513.344C0 -513.344 114.688 -493.868 216.562 -513.344C318.438 -532.82 307.768 -513.344 380.625 -513.344C453.482 -513.344 471.25 -522.389 567.188 -513.344C608.293 -509.469 616.25 -492.181 699.062 -509.546C781.875 -526.912 800 -513.344 800 -513.344V74.6149C800 74.6149 719.375 86.1731 636.562 66.5745C553.75 46.9758 480.312 66.5745 361.875 57.0264C314.14 53.1782 243.438 76.1225 142.812 67.5795C42.1875 59.0365 0 74.6149 0 74.6149V-513.344Z" fill="#F6F2EE"/>
</g>
</svg>
