<svg width="40" height="41" viewBox="0 0 40 41" fill="none" xmlns="http://www.w3.org/2000/svg">
<path d="M20 0.890625L37.3205 10.8906V30.8906L20 40.8906L2.67949 30.8906V10.8906L20 0.890625Z" fill="#F7D056"/>
<path d="M24.7164 11.8906H15.2834C13.4734 11.8906 12 13.3639 12 15.1741V24.607C12 26.4191 13.4734 27.8905 15.2834 27.8905H19.3111V32.8063L19.311 32.8213H19.3111V32.828H20.6898V27.8905H24.7164C26.5266 27.8905 28 26.4191 28 24.607V15.1741C28 13.3639 26.5266 11.8906 24.7164 11.8906ZM26.4242 24.607C26.4242 25.5485 25.6581 26.3148 24.7164 26.3148H15.2834C14.342 26.3148 13.5758 25.5485 13.5758 24.607V15.1741C13.5758 14.2326 14.3419 13.4663 15.2834 13.4663H24.7164C25.658 13.4663 26.4242 14.2325 26.4242 15.1741V24.607Z" fill="#FFFEF6"/>
<path d="M20.5879 17.6953H19.3589V19.5389H20.5879C20.8913 19.5389 21.1277 19.4561 21.301 19.2888C21.4743 19.1213 21.5611 18.9007 21.5611 18.6229C21.5611 18.3452 21.4743 18.1206 21.301 17.9513C21.1277 17.7819 20.8913 17.6953 20.5879 17.6953Z" fill="#FFFEF6"/>
<path d="M24.7165 14.6484H15.2836C14.9942 14.6484 14.7578 14.8849 14.7578 15.1743V24.6072C14.7578 24.8988 14.9942 25.1331 15.2836 25.1331H24.7165C25.0081 25.1331 25.2426 24.8988 25.2426 24.6072V15.1743C25.2426 14.8848 25.0081 14.6484 24.7165 14.6484ZM15.7406 20.2305C15.5515 20.2305 15.3959 20.0769 15.3959 19.8858C15.3959 19.6967 15.5515 19.5411 15.7406 19.5411C15.9317 19.5411 16.0854 19.6967 16.0854 19.8858C16.0854 20.0769 15.9317 20.2305 15.7406 20.2305ZM22.7233 19.4328C22.6228 19.6889 22.4791 19.9115 22.2899 20.1045C22.1008 20.2956 21.8665 20.4472 21.5906 20.5575C21.3129 20.6679 20.9997 20.7229 20.6531 20.7229H19.359V23.256H18.0451V16.5255H20.6531C20.9997 16.5255 21.3129 16.5806 21.5906 16.691C21.8664 16.8012 22.1008 16.953 22.2899 17.146C22.4791 17.337 22.6228 17.5616 22.7233 17.8157C22.8257 18.0716 22.8749 18.3416 22.8749 18.6251C22.8749 18.9088 22.8257 19.1786 22.7233 19.4328ZM24.2597 20.2305C24.0705 20.2305 23.9149 20.0769 23.9149 19.8858C23.9149 19.6967 24.0705 19.5411 24.2597 19.5411C24.4507 19.5411 24.6042 19.6967 24.6042 19.8858C24.6042 20.0769 24.4507 20.2305 24.2597 20.2305Z" fill="#FFFEF6"/>
</svg>
