<svg width="40" height="41" viewBox="0 0 40 41" fill="none" xmlns="http://www.w3.org/2000/svg">
<path d="M20 0.890625L37.3205 10.8906V30.8906L20 40.8906L2.67949 30.8906V10.8906L20 0.890625Z" fill="#F7D056"/>
<path d="M27.8781 20.014L20.2941 12.9964C20.2809 12.9843 20.2637 12.979 20.2492 12.9688C20.2341 12.958 20.2184 12.9483 20.2019 12.9397C20.1699 12.9229 20.1378 12.9108 20.103 12.9025C20.0882 12.899 20.0736 12.8963 20.0585 12.8943C20.0204 12.8894 19.9836 12.8894 19.9456 12.8942C19.9303 12.8962 19.9153 12.8988 19.9006 12.9022C19.8659 12.9104 19.834 12.9224 19.8023 12.9388C19.7856 12.9475 19.7699 12.9572 19.7546 12.968C19.7401 12.9782 19.723 12.9831 19.7098 12.9952L12.1233 19.9536C12.0444 20.026 12 20.1246 12 20.2275V28.5055C12 28.7182 12.1857 28.8906 12.4147 28.8906H19.016C19.245 28.8906 19.4307 28.7182 19.4307 28.5055V24.9731C19.4307 24.7604 19.6163 24.588 19.8455 24.588H20.1544C20.3834 24.588 20.5691 24.7604 20.5691 24.9731V28.5055C20.5691 28.7182 20.7548 28.8906 20.9839 28.8906H27.5852C27.8143 28.8906 28 28.7182 28 28.5055V20.2868C28 20.1844 27.956 20.0863 27.8781 20.014ZM17.7481 23.4109V26.9434C17.7481 27.1561 17.5624 27.3285 17.3333 27.3285H14.0973C13.8682 27.3285 13.6825 27.1561 13.6825 26.9434V20.8802C13.6825 20.7773 13.7268 20.6786 13.8057 20.6063L19.7045 15.1959C19.8667 15.0473 20.1274 15.0478 20.2888 15.1971L26.1954 20.6627C26.2735 20.7348 26.3174 20.833 26.3174 20.9353V26.9434C26.3174 27.1561 26.1318 27.3285 25.9026 27.3285H22.6663C22.4374 27.3285 22.2517 27.1561 22.2517 26.9434V23.4109C22.2517 23.1983 22.066 23.0259 21.8369 23.0259H18.1628C17.9338 23.0259 17.7481 23.1983 17.7481 23.4109Z" fill="#FFFEF6"/>
</svg>
