<svg width="40" height="41" viewBox="0 0 40 41" fill="none" xmlns="http://www.w3.org/2000/svg">
<path d="M20 0.890625L37.3205 10.8906V30.8906L20 40.8906L2.67949 30.8906V10.8906L20 0.890625Z" fill="#F7D056"/>
<path d="M16.078 21.0341H16.3611H16.362H16.3679V16.268V13.4704H24.1687H24.1868V16.268V21.0341H24.4767H24.7666H27.0047V17.4479C27.0047 16.7963 26.4764 16.268 25.8248 16.268H24.7667V12.8906H15.7881V16.268H14.727C14.0752 16.268 13.5469 16.7963 13.5469 17.4479V21.0341H15.7881H16.078Z" fill="#FFFEF6"/>
<path d="M29.0732 21.8281H11.4813C11.171 22.7936 11 23.8633 11 24.9911V25.0316L11.0609 25.0432C11.1478 25.0577 11.2377 25.0722 11.3276 25.0838C12.496 25.2606 13.8469 25.3999 15.3458 25.4955C16.9172 25.5941 18.5782 25.6462 20.2744 25.6462C21.9761 25.6462 23.6373 25.5941 25.2058 25.4955C26.7046 25.3999 28.0584 25.2606 29.2239 25.0838C29.3166 25.0722 29.4066 25.0578 29.4936 25.0432L29.5545 25.0316V24.9911C29.5545 23.8633 29.3835 22.7936 29.0732 21.8281ZM18.3665 24.6171L16.894 24.5446V24.3532L18.3668 24.2807V24.6068L18.3665 24.6171ZM21.202 24.7446H19.3523V24.1532H21.202V24.7446ZM22.1906 24.6168V24.2807L23.6605 24.3532V24.5446L22.2497 24.6141L22.1906 24.6168ZM15.1978 22.8421C14.4365 23.256 13.8193 23.7871 13.4091 24.3243C12.9337 24.2779 12.4756 24.2257 12.0436 24.1678C12.0814 23.7125 12.1481 23.269 12.2494 22.837H13.8186L15.1978 22.8421Z" fill="#FFFEF6"/>
<path d="M29.5378 25.5528C29.5379 25.5509 29.5382 25.5488 29.5384 25.5469C29.46 25.5613 29.3759 25.5758 29.2977 25.5874C28.1177 25.7643 26.7522 25.9033 25.2358 26.002H25.2214V26.0164L25.2301 26.1323C25.2389 26.3005 25.1141 26.4426 24.9459 26.4543C23.4558 26.5412 21.8845 26.5846 20.2756 26.5846C18.6694 26.5846 17.1009 26.5412 15.605 26.4543C15.4396 26.4426 15.3122 26.3005 15.3238 26.1323L15.3295 26.0164L15.3326 26.002H15.3122C13.7989 25.9034 12.4334 25.7643 11.2534 25.5874C11.1877 25.5776 11.1205 25.5671 11.0544 25.5558C11.0439 25.5533 11.0316 25.5524 11.0216 25.5494C11.0216 25.5498 11.0216 25.5503 11.0216 25.5507C11.0196 25.5503 11.0176 25.55 11.0156 25.5497C11.0737 26.7616 11.3375 27.898 11.752 28.8865V28.8895H14.0917H15.5962H24.9547H26.4564H28.802V28.8865C29.1797 27.9829 29.428 26.9605 29.5156 25.867C29.5244 25.7625 29.5334 25.6582 29.5394 25.5527C29.539 25.5527 29.5384 25.5528 29.5378 25.5528Z" fill="#FFFEF6"/>
<path d="M20.5113 14.7461H17.6465V15.4233H20.5113V14.7461Z" fill="#FFFEF6"/>
<path d="M22.9077 16.4297H17.6468V17.1068H22.9077V16.4297Z" fill="#FFFEF6"/>
<path d="M22.9077 18.1211H17.6468V18.7982H22.9077V18.1211Z" fill="#FFFEF6"/>
</svg>
