<svg width="40" height="41" viewBox="0 0 40 41" fill="none" xmlns="http://www.w3.org/2000/svg">
<path d="M20 0.890625L37.3205 10.8906V30.8906L20 40.8906L2.67949 30.8906V10.8906L20 0.890625Z" fill="#F7D056"/>
<path fill-rule="evenodd" clip-rule="evenodd" d="M27.7119 26.7528C27.218 28.2535 25.2832 29.002 23.9008 28.8772C22.0128 28.7065 19.9585 27.7052 18.3991 26.6023C16.1069 24.981 13.9597 22.4731 12.7086 19.8118C11.8243 17.9313 11.6259 15.6193 12.9411 13.9052C13.4275 13.2716 13.9533 12.9332 14.7437 12.8938C15.8402 12.8404 15.9938 13.4677 16.3703 14.4448C16.6509 15.1754 17.0252 15.9207 17.2343 16.6781C17.6258 18.0913 16.2573 18.1504 16.0845 19.3056C15.9767 20.0341 16.8599 21.0111 17.2588 21.5305C18.0407 22.5481 18.9804 23.4258 20.0406 24.0935C20.6476 24.4764 21.6278 25.1664 22.3232 24.7856C23.3941 24.199 23.2928 22.3933 24.7904 23.0044C25.5658 23.3202 26.3167 23.7758 27.057 24.1747C28.2015 24.7902 28.1481 25.428 27.7119 26.7528C28.0383 25.7629 27.3855 27.7426 27.7119 26.7528Z" fill="#FFFEF6"/>
</svg>
