<svg width="226" height="202" viewBox="0 0 226 202" fill="none" xmlns="http://www.w3.org/2000/svg">
<path d="M117.599 156.676C117.232 156.754 116.824 156.804 116.348 156.787C114.862 156.741 113.898 156.327 113.292 155.667C112.295 154.558 112.337 152.737 112.845 150.763C112.737 150.435 112.672 150.113 112.651 149.798C112.585 148.874 112.917 148.044 113.637 147.295C113.637 147.295 113.637 147.295 113.65 147.286C113.65 147.286 113.641 147.273 113.631 147.261C113.571 146.449 113.893 145.607 114.013 144.778C114.134 143.949 114.051 143.134 113.19 142.391C112.972 142.514 112.773 142.662 112.592 142.835C112.211 143.157 111.865 143.55 111.509 143.931C111.337 144.116 111.153 144.311 110.972 144.484C110.791 144.658 110.61 144.831 110.398 144.988C109.999 145.284 109.572 145.543 109.042 145.663C108.777 145.723 108.506 145.749 108.186 145.734C106.767 146.533 106.019 148.393 104.12 148.439C104.03 148.448 103.961 148.46 103.861 148.456C99.2837 151.696 98.9276 156.535 98.7205 161.573C98.6384 163.522 98.3148 164.911 97.6995 165.776C96.6876 167.227 94.8599 167.24 92.0321 166.088C91.1658 164.998 90.757 163.978 90.6501 163.026C90.5038 161.577 91.0515 160.256 91.7517 158.958C91.9924 158.527 92.2331 158.095 92.4956 157.667C92.9987 156.807 93.4801 155.944 93.7997 155.045C93.9625 154.613 94.1222 154.202 94.285 153.77C93.3756 153.9 92.4786 154.02 91.5784 154.163C90.6059 154.651 89.6366 155.117 88.6487 155.558C86.6727 156.44 84.6597 157.194 82.5692 157.791C81.5349 158.091 80.4851 158.345 79.398 158.548C78.5657 158.99 77.9044 159.558 77.355 160.2C76.5247 161.166 75.9587 162.306 75.4113 163.471C75.0547 164.242 74.7074 165.025 74.3197 165.78C74.1196 166.162 73.9226 166.522 73.6821 166.876C73.8338 167.289 73.8922 167.654 73.8634 168.006C73.8276 168.714 73.4899 169.354 73.143 169.981C72.9741 170.301 72.7835 170.618 72.6333 170.963C71.5916 173.234 69.8926 174.203 67.926 173.637C67.6491 173.551 67.3535 173.439 67.0612 173.306C66.4173 172.986 65.8826 172.604 65.4974 172.189C64.7209 171.325 64.4834 170.275 64.8409 169.114C65.0259 168.529 65.3572 167.933 65.8598 167.307C66.4134 166.176 66.9638 165.067 67.6456 163.666C67.8801 163.2 68.1178 162.712 68.3743 162.172C65.4901 162.638 62.7897 163.065 60.1796 163.483C57.5695 163.901 55.0498 164.311 52.53 164.721C51.8376 165.273 51.3223 165.986 50.8474 166.728C50.0477 167.944 49.3568 169.255 48.2121 170.162C47.9377 170.366 47.6633 170.57 47.3423 170.71C47.22 171.093 47.0884 171.463 46.9382 171.808C46.1966 173.546 45.0792 174.803 43.3689 175.235C42.6866 175.41 41.9112 175.46 41.0148 175.346C40.3021 175.194 39.5957 174.998 38.983 174.693C38.05 174.218 37.3884 173.482 37.3659 172.331C37.3693 172.232 37.3384 172.138 37.3542 172.029C37.45 170.907 37.7015 169.786 38.3074 168.908C38.4512 168.685 38.626 168.477 38.8194 168.295C39.0128 168.112 39.2281 167.933 39.4712 167.791C39.5211 167.754 39.5896 167.743 39.6395 167.706C40.0978 167.463 40.615 167.274 41.2504 167.192C41.987 166.334 42.826 165.692 43.7735 165.222C44.2411 164.992 44.7458 164.812 45.2443 164.676C45.7553 164.531 46.291 164.445 46.8453 164.384C47.4814 163.99 47.8558 163.634 48.0214 163.336C48.2684 162.861 48.0825 162.454 47.7035 162.073C47.3244 161.693 46.7616 161.351 46.2798 160.988C43.9281 160.008 41.907 158.744 40.5068 156.883C39.6779 155.766 39.0798 154.438 38.7782 152.832C38.7792 152.364 38.7708 151.884 38.7719 151.416C38.6701 150.966 38.6151 150.501 38.6191 150.089C38.6343 148.832 39.1999 147.848 40.8127 147.858C42.1827 147.854 43.1 148.439 43.7551 149.296C44.4102 150.153 44.8032 151.282 45.137 152.436C46.0149 153.906 46.8929 155.376 47.7708 156.846C48.7924 159.553 51.2463 160.827 53.307 162.509C54.7114 162.421 56.0971 162.308 57.5017 162.141C60.6753 161.753 63.9242 161.075 67.3699 160.114C68.4728 159.802 69.585 159.502 70.7534 159.122C68.2186 157.869 66.3024 157.033 64.6043 156.152C64.0445 155.867 63.5096 155.563 62.9872 155.25C61.8616 154.567 61.216 153.644 60.8695 152.578C60.5231 151.511 60.4603 150.332 60.4909 149.122C60.5071 148.857 60.5232 148.592 60.5923 148.346C60.7086 147.851 60.9274 147.416 61.2955 147.104C61.4826 146.965 61.7133 146.833 61.9688 146.76C64.4362 146.097 65.4279 148.242 66.8043 149.576C68.4728 151.199 70.0226 152.949 71.6256 154.641C72.2903 155.354 73.002 155.975 73.7545 156.467C74.5194 156.951 75.3282 157.285 76.2464 157.402C76.8472 157.482 77.4948 157.468 78.1832 157.327C82.4391 156.077 86.7042 154.84 90.9601 153.59C91.3753 153.107 91.8029 152.614 92.2273 152.144C90.096 151.487 87.8176 151.153 85.8425 150.185C84.67 149.595 83.5976 148.776 82.7472 147.499C82.4181 147.081 82.0982 146.676 81.8594 146.25C81.1087 144.978 80.9185 143.679 82.4593 142.419C83.3826 141.656 84.2235 141.538 84.9639 141.806C85.3342 141.94 85.6886 142.183 86.0242 142.479C86.3598 142.775 86.6828 143.158 86.9808 143.56C87.3792 143.654 87.7494 143.788 88.0822 143.95C89.2704 144.508 90.243 145.402 91.2063 146.284C91.8962 146.901 92.5768 147.505 93.3634 147.992C93.7521 148.229 94.1533 148.457 94.5982 148.614C94.9745 148.782 95.3573 148.907 95.7214 149.006C96.6238 149.232 97.4986 149.264 98.3675 149.184C100.006 149.02 101.607 148.416 103.19 147.708C104.265 146.288 105.624 145.28 107.425 144.995C107.431 144.873 107.456 144.777 107.494 144.671C107.603 144.376 107.834 144.165 108.115 143.996C108.14 143.978 108.177 143.95 108.202 143.931C108.713 143.63 109.386 143.442 109.87 143.103C109.895 143.084 109.92 143.066 109.945 143.047C110.456 142.668 110.716 142.106 110.26 141.023C109.831 140.991 109.392 140.947 108.975 140.906C107.322 140.633 105.51 140.615 104.004 140.098C102.489 139.567 101.267 138.547 100.771 136.209C99.8186 134.717 99.9514 133.801 100.529 133.275C101.118 132.741 102.183 132.612 103.145 132.658C104.546 132.747 105.952 133.339 107.315 134.002C107.772 134.227 108.207 134.449 108.639 134.693C109.862 135.324 111.1 135.923 112.347 136.38C113.564 136.82 114.802 137.108 116.094 137.181C117.022 137.232 117.965 137.175 118.953 136.968C122.159 133.207 126.725 130.734 129.552 126.593C129.961 125.998 130.33 125.374 130.649 124.709C130.083 124.467 129.513 124.481 128.95 124.529C128.395 124.59 127.822 124.704 127.28 124.678C126.925 124.669 126.583 124.65 126.231 124.619C125.528 124.557 124.84 124.464 124.183 124.309C123.517 124.142 122.882 123.912 122.295 123.589C121.408 123.098 120.632 122.39 120.024 121.362C119.462 120.396 119.135 119.199 120.155 118.15C121.278 117.005 122.453 116.815 123.642 116.984C124.831 117.153 126.003 117.665 127.142 117.949C128.154 118.191 129.178 118.424 130.164 118.607C130.827 118.718 131.481 118.817 132.128 118.882C133.423 119.011 134.675 118.978 135.88 118.726C136.479 118.593 137.074 118.405 137.635 118.144C137.921 118.009 138.199 117.862 138.479 117.693C139.028 117.363 139.568 116.944 140.076 116.43C140.594 115.929 141.081 115.334 141.55 114.636C143.04 112.499 144.52 110.35 146.688 107.224C145.12 107.822 143.74 108.204 142.466 108.39C140.348 108.715 138.527 108.529 136.701 107.996C136.06 107.81 135.503 107.581 135.027 107.252C134.247 106.722 133.75 105.922 133.744 104.584C133.742 103.982 133.83 103.528 134.002 103.186C134.509 102.148 135.702 102.061 136.982 101.832C138.81 101.507 140.491 101.583 142.331 101.951C145.919 102.694 148.626 102.302 150.868 100.658C152.203 99.6676 153.38 98.23 154.473 96.2895C154.636 96.0133 154.789 95.7244 154.942 95.4356C155.305 94.7773 155.671 94.0972 156.04 93.3953C156.884 91.7959 157.753 90.1 158.754 88.1899C156.061 89.0973 154.098 89.9701 152.051 90.418C151.397 90.5529 150.768 90.5914 150.189 90.5149C149.61 90.4384 149.078 90.2687 148.606 89.9965C147.897 89.5883 147.331 88.9567 146.959 88.1426C146.832 87.8671 146.743 87.5638 146.666 87.2512C146.335 85.8418 146.696 84.8934 147.441 84.2819C148.196 83.683 149.323 83.4303 150.522 83.4558C153.813 83.486 156.666 83.0042 159.01 81.8881C159.786 81.5265 160.497 81.0769 161.161 80.5646C162.805 79.2868 164.07 77.5505 164.9 75.2803C165.398 73.9182 165.744 72.377 165.94 70.635C165.95 70.4916 166.003 70.3548 166.069 70.2088C166.21 69.9292 166.437 69.6628 166.656 69.3839C166.765 69.2444 166.862 69.1142 166.95 68.9714C166.894 68.8961 166.916 68.7435 167.038 68.5168L167.063 68.4983C167.506 66.593 167.961 64.6784 168.405 62.7731C168.464 62.5147 168.527 62.2345 168.587 61.9761C168.444 61.8096 168.298 61.6649 168.149 61.542C167.692 61.1609 167.157 60.935 166.462 61.1195C165.959 61.8235 165.317 62.3391 164.65 62.7952C163.552 63.5316 162.33 64.0487 161.096 64.4971C160.121 64.8509 159.212 64.9026 158.403 64.7244C158.123 64.6597 157.867 64.5765 157.619 64.4497C157.118 64.2179 156.676 63.8836 156.294 63.4469C155.912 63.0102 155.596 62.5054 155.361 61.9014C154.943 60.8686 154.982 60.0611 155.316 59.4431C155.651 58.8252 156.274 58.3624 157.013 58.0285C157.502 57.8017 158.063 57.6192 158.608 57.4678C158.923 57.3705 159.241 57.3295 159.562 57.2666C160.194 57.1283 160.836 57.0026 161.487 56.8894C161.807 56.8266 162.125 56.7855 162.446 56.7227C165.316 55.586 167.484 53.5296 169.647 51.4388C169.868 51.2161 170.099 51.0059 170.321 50.7831C171.282 42.3817 171.282 34.0128 170.683 25.6204C170.085 17.2279 168.876 8.8211 167.422 0.343609C168.641 0.918231 169.234 1.66549 169.566 2.45114C169.73 2.85487 169.829 3.24869 169.89 3.67029C169.955 4.07008 170.007 4.47913 170.062 4.86636C170.424 7.28361 170.764 9.69756 171.071 12.1175C171.683 16.9573 172.149 21.8084 172.39 26.6701C172.516 29.1072 172.588 31.5252 172.602 33.9676C172.601 35.9732 172.739 38.0112 172.766 40.0545C172.78 40.7253 172.769 41.4145 172.762 42.0819C172.721 43.4353 172.625 44.7914 172.364 46.1336C172.115 47.4666 171.723 48.789 171.135 50.0818C171.181 50.1445 171.169 50.2318 171.125 50.3811C171.104 51.2138 171.071 52.0557 171.051 52.8884C173.463 57.5215 177.285 61.0309 180.705 64.8583C182.065 66.3792 182.576 68.0054 181.856 69.5122C181.615 70.0218 181.234 70.4991 180.698 70.975C180.174 71.4417 179.694 71.681 179.227 71.7552C178.314 71.9067 177.518 71.4073 176.782 70.7275C176.409 70.3813 176.051 70.0041 175.682 69.6361C175.206 69.1518 174.765 68.6616 174.349 68.1528C173.933 67.6441 173.567 67.0983 173.235 66.5466C172.584 65.4339 172.138 64.2075 171.994 62.8152C171.808 62.5641 171.631 62.3256 171.457 62.0653C171.219 61.4052 170.981 60.745 170.733 60.0724C170.275 60.471 169.825 60.8821 169.376 61.2933C169.413 61.3435 169.413 61.4215 169.376 61.5272C169.524 63.3438 169.24 65.0726 168.539 66.6826C168.305 67.2265 168.026 67.7638 167.717 68.2853C167.974 68.9705 167.997 69.6538 167.871 70.2922C167.815 70.6068 167.724 70.9273 167.602 71.232C167.48 71.5367 167.326 71.8255 167.173 72.1143C165.57 74.8803 164.621 77.5893 164.369 80.2479C164.203 82.0058 164.34 83.7537 164.794 85.4605C165.025 86.3202 165.338 87.1587 165.728 87.9979C166.119 88.837 166.587 89.6768 167.146 90.508C167.704 91.3392 168.344 92.1492 169.071 92.9725C169.723 93.6953 170.166 94.6315 170.582 95.5302C170.969 96.3911 171.17 97.235 171.137 97.9989C171.104 98.7628 170.847 99.4594 170.329 100.038C169.983 100.432 169.534 100.765 168.938 101.031C167.445 101.73 166.257 101.405 165.275 100.577C164.678 100.085 164.166 99.395 163.685 98.6424C163.287 98.0029 163.006 97.3361 162.774 96.6324C162.347 95.3531 162.113 93.9694 161.799 92.4509C161.503 91.0354 161.133 89.5196 160.457 87.8796C160.285 88.3772 160.1 88.8841 159.875 89.3626C158.201 93.2322 155.479 96.4194 153.846 99.8496C152.42 102.854 151.868 106.047 153.603 110.054C154.852 111.502 155.67 113.152 156.295 114.907C156.499 115.496 156.682 116.08 156.852 116.674C157.016 117.234 157.123 117.796 157.156 118.336C157.189 118.876 157.157 119.406 157.032 119.889C156.944 120.187 156.816 120.458 156.653 120.734C156.291 121.314 155.729 121.809 154.881 122.126C154.293 122.349 153.763 122.391 153.299 122.288C152.823 122.193 152.41 121.975 152.03 121.672C151.651 121.37 151.316 120.996 151.008 120.581C150.701 120.167 150.416 119.756 150.152 119.348C149.143 117.859 148.683 116.195 148.824 114.456C148.875 113.873 148.982 113.288 149.167 112.703C148.509 111.4 149.606 109.749 148.27 108.444C146.21 110.751 144.181 112.995 142.149 115.262C141.884 115.712 141.584 116.168 141.296 116.615C140.4 117.961 139.432 119.263 138.738 120.674C138.278 121.618 137.936 122.592 137.828 123.645C137.72 124.698 137.824 125.828 138.266 127.077C138.318 127.408 138.417 127.724 138.525 128.052C138.705 128.581 138.944 129.085 139.179 129.611C139.433 130.162 139.678 130.7 139.898 131.257C140.093 131.755 140.263 132.271 140.33 132.805C140.422 133.476 140.399 134.175 140.145 134.927C140.437 135.529 140.6 136.088 140.658 136.61C140.744 137.403 140.577 138.091 140.171 138.665C139.756 139.226 139.101 139.673 138.191 139.958C137.575 140.143 137.02 140.204 136.528 140.141C136.037 140.078 135.607 139.89 135.225 139.609C135.035 139.458 134.858 139.298 134.684 139.115C134.187 138.55 133.806 137.801 133.512 136.91C132.816 134.798 132.727 132.723 133.003 130.67C133.17 129.436 133.438 128.206 133.879 127.003C133.786 127.033 133.711 127.089 133.627 127.132C128.014 129.525 124.901 134.948 120.17 138.4C119.344 140.18 120.327 142.469 118.636 143.996C120.281 146.161 119.687 148.802 119.934 151.168C119.998 151.802 120.034 152.476 119.995 153.127C119.956 153.779 119.818 154.427 119.58 154.992C119.202 155.838 118.549 156.497 117.444 156.753L117.599 156.676Z" fill="#FFFDEB" style="mix-blend-mode:multiply"/>
<path d="M158.889 41.1529C158.819 42.152 158.643 43.1391 158.523 44.1372C158.486 44.4517 158.465 44.7714 158.443 45.0912C158.428 45.346 158.388 45.6004 158.387 45.8605C158.386 46.1707 158.424 46.4867 158.463 46.8026C158.479 47.0181 158.469 47.233 158.51 47.4489C157.185 51.7797 156.651 56.3166 155.386 60.6686C154.971 62.1161 154.461 63.5466 153.832 64.9347C152.591 65.6601 151.346 66.3753 150.105 67.1006C148.205 67.2722 146.296 67.3987 144.399 67.6305C144.224 67.6519 144.043 67.6883 143.872 67.7199C143.525 67.7979 143.203 67.9014 142.914 68.0507C142.196 68.4164 141.743 69.0526 141.911 70.1116C141.974 70.4781 142.067 70.8302 142.2 71.1631C142.4 71.6624 142.701 72.0888 143.116 72.3873C143.249 72.4851 143.412 72.5684 143.581 72.6369C143.918 72.7738 144.307 72.8367 144.773 72.8011C145.59 72.7476 146.382 72.4335 147.192 72.2347C147.298 72.1968 147.394 72.1388 147.495 72.0908C147.606 72.038 147.712 72.0001 147.819 71.9372C148.403 72.2292 148.876 72.1037 149.327 71.8527C149.59 71.7029 149.844 71.5079 150.103 71.3231C150.103 71.3231 150.198 71.34 150.248 71.341C150.508 71.3663 150.731 71.4459 150.908 71.5845C151.125 71.754 151.285 71.9874 151.435 72.2506C151.029 73.0128 150.618 73.79 150.212 74.5522C149.041 76.7548 147.87 78.9574 146.688 81.1648C146.269 81.8718 145.8 82.5027 145.279 83.0475C144.501 83.8622 143.603 84.4994 142.598 84.9393C142.567 84.9537 142.537 84.9681 142.497 84.9873C141.517 85.4027 140.421 85.6507 139.219 85.7014L139.22 85.6514C138.563 85.493 137.896 85.3394 137.243 85.1911C136.047 84.9418 135.064 84.8018 134.299 84.7813C133.524 84.7656 132.961 84.8593 132.581 85.1018C131.816 85.5765 131.78 86.5964 132.301 88.268C132.641 88.9853 133.071 89.4993 133.565 89.8345C133.728 89.9428 133.906 90.0315 134.09 90.1052C134.631 90.3063 135.246 90.3238 135.93 90.1725C136.151 90.117 136.388 90.0417 136.64 89.9468C136.893 90.0369 137.118 90.0665 137.333 90.0509C137.404 90.0423 137.464 90.0385 137.534 90.0299C137.75 89.9892 137.952 89.9183 138.149 89.8122C138.149 89.8122 138.159 89.8074 138.169 89.8026C138.614 89.5665 139.037 89.2298 139.491 89.0389C139.733 89.4441 139.985 89.8444 140.222 90.2394C140.156 90.2831 140.095 90.3369 140.034 90.3907C139.642 90.688 139.32 91.0266 139.353 91.5927C136.846 92.8577 135.869 95.8097 133.351 97.0795C132.974 97.1719 132.597 97.2643 132.219 97.3567C131.842 97.4492 131.465 97.5416 131.088 97.634C130.881 97.7199 130.679 97.8158 130.481 97.9219C128.038 97.2621 125.59 96.5921 123.136 95.9371C121.787 95.5746 120.756 95.8539 120.275 97.345C120.173 97.6782 120.112 97.9921 120.09 98.2869C120.047 99.1615 120.439 99.8548 121.413 100.395C122.893 101.215 124.369 101.715 125.881 101.641C126.788 101.594 127.709 101.343 128.65 100.847C128.883 101.207 128.981 101.544 128.929 101.853C128.918 101.908 128.882 101.962 128.856 102.011C128.824 102.101 128.797 102.2 128.73 102.294C128.622 102.432 128.485 102.559 128.292 102.675C127.324 103.271 126.429 103.994 125.543 104.711C125.116 105.063 124.678 105.419 124.25 105.77C124.23 105.78 124.21 105.79 124.205 105.805C123.792 106.136 123.38 106.468 122.948 106.785C121.998 107.496 120.989 108.136 119.863 108.608C119.545 108.537 119.226 108.465 118.907 108.394C116.445 107.409 113.994 106.393 111.517 105.428C110.971 105.216 110.419 105.045 109.889 104.999C109.54 104.967 109.199 105.005 108.896 105.124C108.886 105.129 108.876 105.134 108.856 105.144C108.411 105.33 108.043 105.703 107.8 106.363C107.731 106.557 107.672 106.746 107.648 106.93C107.494 107.858 107.847 108.68 108.561 109.27C108.846 109.506 109.182 109.718 109.564 109.871C109.782 109.965 110.011 110.055 110.229 110.149C110.447 110.244 110.676 110.334 110.894 110.428C111.336 110.602 111.793 110.756 112.256 110.871C113.177 111.09 114.122 111.124 115.136 110.754C115.373 111.149 115.625 111.549 115.862 111.944C114.447 112.851 113.038 113.743 111.623 114.65C110.159 115.531 108.709 116.417 107.245 117.298C106.763 117.614 106.302 117.87 105.848 118.06C105.717 118.123 105.586 118.135 105.45 118.187C104.241 118.613 103.109 118.655 102.029 118.363C100.436 117.931 98.9675 116.845 97.5388 115.506C96.0185 114.73 94.5177 112.273 92.889 113.12C92.5097 113.313 92.1316 113.69 91.7389 114.298C91.5268 114.634 91.3802 114.951 91.299 115.249C91.2342 115.478 91.2248 115.693 91.2255 115.903C91.2336 115.998 91.2368 116.084 91.2449 116.179C91.2802 116.41 91.3607 116.631 91.4566 116.834C91.5717 117.076 91.7475 117.29 91.9333 117.499C92.7018 118.335 93.9443 118.995 94.9675 119.611C95.7606 119.977 96.5638 120.339 97.3618 120.715C97.3183 120.885 97.2652 121.034 97.2025 121.162C97.0819 121.43 96.9272 121.652 96.7533 121.834C96.6614 121.927 96.5699 121.995 96.4683 122.068C96.3667 122.141 96.2603 122.204 96.1492 122.257C95.7045 122.468 95.2065 122.593 94.6888 122.702C93.7993 122.89 92.8996 123.081 92.359 123.821C90.8613 124.136 89.3684 124.461 87.8606 124.78C86.4775 123.902 85.0992 123.034 83.7161 122.155C83.325 121.462 82.8574 120.842 82.3392 120.246C81.8359 119.656 81.282 119.089 80.7282 118.522C80.5077 118.293 80.2867 118.088 80.0599 117.924C79.6116 117.579 79.1454 117.38 78.6499 117.38C78.4046 117.385 78.1434 117.434 77.8758 117.549C76.9721 117.941 76.3728 118.609 76.4294 119.511C76.4482 119.812 76.5416 120.139 76.7095 120.492C77.7218 122.859 79.5799 124.243 81.9453 125.051C81.9396 125.326 81.8951 125.545 81.826 125.739C81.3886 127.061 79.8434 126.519 78.8449 126.894C76.7895 127.078 74.6992 127.005 72.6829 127.48C72.3812 127.549 72.0699 127.598 71.7726 127.702C70.7019 126.96 69.6265 126.207 68.5558 125.465C67.6703 123.991 66.7998 122.523 65.8989 121.069C65.5936 120.582 65.3085 120.086 64.998 119.615C64.697 119.163 64.3763 118.697 64.0035 118.329C63.881 118.201 63.7431 118.093 63.5999 118.001C63.0372 117.624 62.3741 117.505 61.5097 117.928C60.9033 118.216 60.6397 118.626 60.5453 119.079C60.3846 119.837 60.7067 120.724 60.7408 121.5C60.7489 121.595 60.7723 121.67 60.7804 121.766C60.8313 122.212 60.9332 122.609 61.1011 122.963C61.1395 123.044 61.1981 123.115 61.2465 123.191C61.3142 123.307 61.3866 123.434 61.4644 123.546C61.5033 123.601 61.5624 123.648 61.6013 123.703C61.7089 123.826 61.8016 123.943 61.9144 124.05C61.9735 124.096 62.0374 124.153 62.0965 124.199C62.2147 124.291 62.3276 124.399 62.4458 124.491C62.5049 124.537 62.5842 124.574 62.6481 124.63C62.7764 124.718 62.9047 124.806 63.0282 124.883C63.1369 124.955 63.2609 125.008 63.3796 125.075C63.4786 125.127 63.5675 125.184 63.6665 125.236C63.7655 125.288 63.8598 125.33 63.9487 125.387C64.0674 125.454 64.1914 125.507 64.3101 125.574C64.5285 125.904 64.997 126.239 65.3405 126.571C65.733 126.954 65.9605 127.329 65.3978 127.683C65.1595 127.833 64.7813 127.975 64.1982 128.104C61.4412 128.088 58.6891 128.082 55.9669 127.592C55.4284 127.501 54.8898 127.41 54.3672 127.274C54.1446 127.145 53.9072 127.01 53.6746 126.885C53.2886 126.672 52.9075 126.469 52.5471 126.232C52.3346 126.097 52.1323 125.958 51.9454 125.799C51.9454 125.799 51.9406 125.789 51.9257 125.784C51.8176 125.687 51.7197 125.585 51.6217 125.483C51.5924 125.447 51.553 125.416 51.5237 125.381C51.4406 125.284 51.3628 125.172 51.285 125.061C51.2611 125.01 51.2169 124.969 51.178 124.913C51.0858 124.771 51.0091 124.61 50.9477 124.428C50.9333 124.398 50.9238 124.378 50.9094 124.348C50.2089 121.907 49.5084 119.466 48.8026 117.041C48.6011 116.616 48.3645 116.196 48.086 115.87C47.6168 115.326 47.0073 115.033 46.1126 115.47C45.6578 115.686 45.2515 115.978 44.9644 116.312C44.8719 116.431 44.7794 116.549 44.7167 116.678C44.5812 116.94 44.5101 117.234 44.5135 117.554C44.517 117.874 44.6247 118.232 44.8219 118.621C44.9446 121.905 46.6714 124.082 49.1193 125.742C49.4994 125.995 49.8944 126.253 50.3001 126.481C50.2895 126.511 50.2639 126.536 50.2533 126.566C50.1959 126.679 50.1386 126.793 50.0716 126.887C50.0716 126.887 50.0514 126.897 50.0562 126.907C49.3444 127.938 48.1993 127.9 47.0824 127.947C46.4412 127.979 45.8043 128.046 45.282 128.381C45.2517 128.395 45.2315 128.405 45.2012 128.419C45.1453 128.458 45.0842 128.512 45.0331 128.561C44.9874 128.595 44.9518 128.625 44.9108 128.669C44.3164 128.617 43.7849 128.671 43.3364 128.822C43.1098 128.892 42.8975 128.993 42.7098 129.119C42.3247 129.352 42.003 129.665 41.7452 130.035C41.3487 130.583 41.0948 131.248 40.9405 131.94C40.8302 132.438 40.8821 132.835 41.0457 133.153C41.1224 133.315 41.2348 133.447 41.3674 133.57C42.0101 134.193 43.1607 134.452 43.9172 134.897C44.6689 135.333 45.2053 135.289 45.651 135.027C45.8637 134.902 46.0525 134.725 46.2317 134.529C46.6156 134.111 46.9611 133.613 47.3641 133.236C47.4407 133.163 47.5173 133.089 47.5986 133.026C47.9933 132.814 48.3688 132.561 48.7246 132.293C49.1617 131.962 49.5893 131.61 49.9971 131.243C50.2471 131.013 50.4917 130.798 50.7416 130.568C51.4861 129.892 52.2449 129.247 53.1401 128.785C53.4386 128.631 53.7466 128.497 54.079 128.389C54.7338 128.672 55.4006 128.851 56.0738 128.965C56.4081 129.017 56.7476 129.053 57.0823 129.08C58.7809 129.215 60.5059 129.04 62.1982 129.239C62.2631 129.245 62.3233 129.241 62.3882 129.248C63.0481 129.281 63.7807 129.181 64.0457 129.922C64.0601 129.952 64.0548 129.967 64.0591 130.002C64.0917 130.123 64.1045 130.228 64.0977 130.318C64.0454 130.912 63.2958 131.107 62.8634 131.449C62.6193 131.639 62.3901 131.834 62.2253 132.061C62.0504 132.293 61.94 132.556 61.9184 132.875C61.5707 133.239 61.3682 133.595 61.286 133.943C61.2695 134.013 61.2781 134.083 61.2617 134.153C61.2437 134.298 61.2406 134.448 61.2476 134.593C61.2992 135.249 61.6163 135.891 61.8679 136.552C61.9394 136.728 61.9959 136.899 62.0524 137.071C62.3687 137.267 62.6657 137.423 62.9484 137.549C62.9633 137.554 62.9782 137.56 62.9931 137.565C63.4146 137.749 63.7984 137.826 64.1634 137.839C64.4284 137.849 64.6742 137.819 64.9009 137.749C64.9615 137.72 65.0514 137.727 65.1121 137.698C65.1626 137.674 65.2035 137.63 65.2541 137.606C65.5881 137.422 65.8838 137.158 66.1219 136.773C66.184 136.669 66.2366 136.545 66.294 136.431C66.3668 136.297 66.4444 136.174 66.5028 136.01C66.5134 135.98 66.5241 135.95 66.5347 135.921C66.6351 135.662 66.7259 135.384 66.8124 135.071C67.7574 134.374 68.3665 133.466 68.5705 132.305C69.536 131.103 70.4961 129.917 71.4615 128.716C73.093 128.709 74.694 128.481 76.2768 128.163C77.2616 127.968 78.2517 127.758 79.2423 127.523C80.862 127.36 82.4667 127.193 84.0763 127.035C84.2354 127.084 84.3945 127.132 84.5537 127.18C84.6979 127.223 84.847 127.276 84.9912 127.319C84.9407 127.343 84.9098 127.382 84.8641 127.416C84.737 127.514 84.5998 127.616 84.4775 127.724C81.7615 129.855 80.4792 131.38 80.3448 133.053C80.291 133.723 80.4219 134.416 80.7263 135.187C80.8735 135.576 81.0707 135.965 81.3019 136.4C81.9698 136.528 82.5296 136.56 83.0458 136.525C83.241 136.519 83.4315 136.503 83.6124 136.466C84.577 136.281 85.2742 135.715 85.7901 134.715C85.9517 134.403 86.0993 134.035 86.2379 133.623C86.446 132.992 86.6158 132.28 86.7636 131.417C87.9068 128.869 88.7795 126.09 91.4477 124.823C91.8317 124.641 92.2451 124.494 92.7079 124.373C94.6042 124.142 96.3817 123.607 98.0455 122.755C98.6019 122.466 99.1487 122.157 99.6715 121.798C100.077 121.556 100.497 121.319 100.902 121.077C100.823 122.031 100.446 122.829 99.9702 123.575C99.164 124.824 98.0904 125.928 97.685 127.396C97.5173 128.008 97.415 128.601 97.3984 129.166C97.3789 130.116 97.6159 131.007 98.2843 131.841C98.5916 132.227 98.9781 132.415 99.3863 132.518C99.7695 132.621 100.164 132.644 100.556 132.582C100.817 132.532 101.079 132.458 101.331 132.363C102.869 131.793 103.079 130.357 103.285 128.835C103.461 127.588 103.437 126.312 103.558 125.053C103.664 123.79 103.894 122.554 104.584 121.397C104.663 121.198 104.737 121.015 104.821 120.826C104.905 120.638 104.988 120.449 105.077 120.271C105.255 119.915 105.457 119.583 105.708 119.303C106.209 118.743 106.882 118.387 107.932 118.458C109.579 117.441 111.231 116.433 112.888 115.411C113.764 115.169 114.474 113.953 115.446 114.643C115.969 115.013 115.868 115.532 115.697 116.059C115.601 116.377 115.479 116.695 115.448 116.994C115.396 117.588 115.293 118.182 115.211 118.765C115.119 119.354 115.052 119.943 115.05 120.538C115.036 122.414 116.094 123.286 117.648 123.427C117.867 123.447 118.107 123.457 118.338 123.446C118.583 123.441 118.794 123.416 118.99 123.36C120.142 123.073 120.487 122.104 120.53 120.969C120.539 120.779 120.538 120.594 120.532 120.399C120.459 118.131 120.32 115.857 120.212 113.593C120.229 113.239 120.256 112.879 120.299 112.525C120.44 111.467 120.731 110.462 121.251 109.497C122.411 108.81 123.381 107.879 124.381 106.984C125.38 106.089 126.408 105.229 127.695 104.705C127.808 104.577 127.935 104.479 128.057 104.372C128.128 104.313 128.215 104.26 128.291 104.211C128.341 104.187 128.392 104.138 128.443 104.114C128.767 103.911 129.106 103.738 129.421 103.514C129.33 103.817 129.253 104.126 129.207 104.445C129.206 104.495 129.19 104.54 129.189 104.59C129.147 104.919 129.13 105.249 129.148 105.599C129.331 105.958 129.509 106.307 129.691 106.666L129.768 106.828C129.381 107.395 129.259 107.998 129.256 108.593C129.269 109.194 129.422 109.778 129.621 110.327C130.137 111.753 130.715 113.621 132.712 113.316C134.816 112.999 135.167 111.235 134.965 109.399C134.774 107.72 134.503 106.053 133.643 104.555C133.578 102.592 133.513 100.63 133.438 98.6722C134.004 98.1683 134.57 97.6645 135.121 97.1553C136.233 96.1322 137.325 95.0937 138.314 93.943C138.812 93.3727 139.284 92.777 139.717 92.1504C139.919 92.0794 140.091 91.9728 140.234 91.8556C140.682 91.4945 140.918 90.9489 141.203 90.4544C141.363 90.4777 141.508 90.4956 141.627 90.538C142.457 90.8 142.307 91.5524 142.096 92.3086C141.885 93.0898 141.874 93.85 141.964 94.6123C142.048 95.3644 142.223 96.1234 142.342 96.8963C142.494 97.7899 142.744 98.5254 143.128 99.0735C143.386 99.4339 143.695 99.7204 144.067 99.903C144.627 100.169 145.321 100.224 146.167 99.9955C147.827 99.5539 148.188 98.5406 148.057 97.3772C147.976 96.6852 147.736 95.9449 147.495 95.2546C147.051 93.9548 146.582 92.6796 146.098 91.399C145.614 90.1185 145.13 88.8379 144.646 87.5573C144.636 87.277 144.652 86.9971 144.702 86.738C144.803 86.2197 144.998 85.7434 145.248 85.2782C145.487 84.8177 145.787 84.3785 146.071 83.934C146.355 83.4895 146.625 83.0397 146.82 82.5634C146.92 82.3302 147 82.0817 147.06 81.8178C148.474 79.525 149.946 77.2534 151.052 74.8094C151.094 74.7152 151.151 74.6263 151.193 74.5321C151.466 73.9072 151.685 73.2462 151.904 72.5853C151.979 72.3516 152.083 72.1286 152.153 71.8849C152.311 71.773 152.468 71.6861 152.635 71.5945C152.825 71.8135 152.975 72.0516 153.095 72.3042C153.925 74.0521 153.228 76.3393 154.879 77.7836C155.456 78.971 156.218 80.0821 157.228 80.4077C157.829 80.605 158.527 80.509 159.328 79.9799C160.033 79.5089 160.335 78.9447 160.393 78.3355C160.45 77.7263 160.249 77.0668 159.931 76.425C159.725 75.9906 159.464 75.57 159.197 75.1644C158.139 73.537 157.142 71.8809 156.115 70.2391C155.679 69.0846 155.252 67.9252 154.815 66.7707C154.75 66.5543 154.674 66.3426 154.588 66.1357C155.807 63.0686 156.782 59.9314 157.543 56.7599C158.299 53.5783 158.846 50.3475 159.208 47.0679C159.482 45.1923 159.76 43.3268 160.024 41.456C160.085 40.9069 160.136 40.3626 160.198 39.8136C160.622 35.9849 160.985 32.1599 160.508 28.338C160.193 28.3266 159.868 28.32 159.553 28.3086C159.429 30.4474 159.31 32.5963 159.186 34.7351C159.062 36.8738 158.943 39.0227 158.819 41.1615L158.889 41.1529Z" fill="#EAE7D0"/>
</svg>
