<svg width="227" height="239" viewBox="0 0 227 239" fill="none" xmlns="http://www.w3.org/2000/svg">
<path d="M142.66 153.358C142.792 153.202 142.92 153.019 143.035 152.787C143.393 152.064 143.443 151.496 143.282 151.036C143.007 150.274 142.124 149.827 141.048 149.564C140.918 149.428 140.781 149.314 140.635 149.223C140.21 148.954 139.727 148.9 139.183 149.053C139.183 149.053 139.183 149.053 139.176 149.057C139.176 149.057 139.172 149.049 139.168 149.042C138.795 148.804 138.309 148.743 137.881 148.588C137.453 148.433 137.084 148.184 136.949 147.581C137.064 147.508 137.186 147.45 137.315 147.408C137.567 147.308 137.844 147.243 138.118 147.171C138.251 147.136 138.392 147.098 138.521 147.056C138.65 147.013 138.78 146.971 138.91 146.91C139.154 146.795 139.387 146.656 139.581 146.434C139.678 146.322 139.759 146.199 139.834 146.042C140.581 145.567 141.664 145.686 142.173 144.788C142.201 144.747 142.224 144.717 142.248 144.669C144.975 143.307 147.383 144.378 149.85 145.572C150.805 146.033 151.553 146.234 152.125 146.161C153.08 146.049 153.555 145.177 153.729 143.526C153.429 142.832 153.045 142.374 152.617 142.079C151.96 141.637 151.187 141.56 150.385 141.563C150.117 141.567 149.848 141.572 149.576 141.588C149.035 141.608 148.498 141.617 147.986 141.54C147.737 141.507 147.499 141.478 147.25 141.445C147.546 141.043 147.834 140.644 148.133 140.249C148.616 139.909 149.088 139.564 149.553 139.204C150.482 138.484 151.36 137.713 152.182 136.865C152.592 136.446 152.982 136.009 153.358 135.54C153.784 135.255 154.226 135.084 154.674 134.985C155.35 134.836 156.041 134.857 156.74 134.894C157.2 134.921 157.665 134.955 158.126 134.963C158.36 134.965 158.583 134.963 158.814 134.939C158.973 135.118 159.133 135.239 159.309 135.316C159.657 135.48 160.05 135.483 160.44 135.477C160.636 135.479 160.837 135.469 161.041 135.485C162.396 135.569 163.296 135.004 163.53 133.917C163.56 133.762 163.582 133.592 163.593 133.417C163.605 133.027 163.559 132.673 163.459 132.382C163.244 131.788 162.802 131.405 162.155 131.278C161.827 131.217 161.457 131.223 161.028 131.303C160.344 131.278 159.672 131.257 158.826 131.224C158.542 131.217 158.248 131.205 157.923 131.19C158.886 129.928 159.783 128.744 160.654 127.601C161.524 126.458 162.366 125.356 163.209 124.254C163.651 124.064 164.125 124.001 164.602 123.963C165.39 123.892 166.195 123.898 166.924 123.582C167.092 123.503 167.259 123.424 167.409 123.306C167.624 123.346 167.835 123.378 168.039 123.394C169.061 123.485 169.95 123.272 170.596 122.564C170.855 122.282 171.078 121.923 171.253 121.465C171.363 121.084 171.451 120.696 171.462 120.324C171.473 119.755 171.291 119.25 170.745 118.943C170.697 118.919 170.66 118.881 170.603 118.86C170.041 118.618 169.44 118.451 168.864 118.516C168.72 118.528 168.576 118.558 168.439 118.604C168.302 118.65 168.161 118.707 168.031 118.787C168 118.801 167.977 118.831 167.946 118.846C167.713 119.003 167.489 119.202 167.287 119.485C166.687 119.618 166.164 119.855 165.696 120.189C165.466 120.354 165.25 120.549 165.057 120.753C164.856 120.96 164.678 121.195 164.506 121.445C164.154 121.648 163.888 121.736 163.703 121.739C163.412 121.736 163.264 121.542 163.179 121.263C163.094 120.984 163.075 120.627 163.025 120.303C163.159 118.925 163.072 117.632 162.54 116.484C162.217 115.8 161.735 115.173 161.043 114.617C160.819 114.497 160.591 114.37 160.366 114.25C160.177 114.086 159.968 113.941 159.77 113.837C159.164 113.522 158.547 113.54 158.139 114.315C157.785 114.97 157.83 115.56 158.072 116.093C158.314 116.627 158.755 117.105 159.222 117.561C159.7 118.359 160.179 119.156 160.658 119.954C161.693 121.138 161.673 122.64 161.951 124.059C161.548 124.709 161.138 125.344 160.698 125.974C159.698 127.394 158.539 128.777 157.195 130.181C156.762 130.629 156.334 131.085 155.852 131.547C155.902 130.011 155.993 128.879 156.007 127.839C156.014 127.498 156.005 127.164 155.989 126.833C155.951 126.119 155.675 125.573 155.253 125.133C154.831 124.694 154.282 124.361 153.695 124.065C153.564 124.005 153.432 123.945 153.297 123.915C153.03 123.843 152.766 123.837 152.522 123.933C152.407 123.987 152.285 124.063 152.184 124.167C151.234 125.179 152.007 126.204 152.292 127.206C152.642 128.421 153.082 129.613 153.481 130.815C153.653 131.316 153.767 131.816 153.81 132.303C153.845 132.794 153.798 133.267 153.618 133.736C153.502 134.045 153.33 134.352 153.086 134.645C151.395 136.363 149.708 138.088 148.017 139.806C147.679 139.881 147.334 139.96 146.999 140.042C147.231 138.853 147.656 137.676 147.699 136.481C147.718 135.768 147.6 135.044 147.207 134.309C147.091 134.045 146.979 133.788 146.837 133.564C146.42 132.878 145.846 132.453 144.847 132.868C144.245 133.115 143.973 133.487 143.911 133.911C143.88 134.122 143.906 134.354 143.962 134.591C144.017 134.828 144.118 135.081 144.234 135.327C144.177 135.542 144.146 135.753 144.138 135.954C144.101 136.667 144.279 137.362 144.454 138.049C144.573 138.538 144.688 139.019 144.719 139.521C144.733 139.768 144.739 140.019 144.7 140.272C144.684 140.495 144.646 140.711 144.6 140.911C144.477 141.401 144.268 141.828 144.006 142.224C143.507 142.966 142.807 143.579 142.062 144.155C141.106 144.306 140.274 144.698 139.676 145.487C139.616 145.459 139.563 145.447 139.503 145.437C139.333 145.414 139.173 145.471 139.02 145.562C139.005 145.569 138.982 145.58 138.967 145.587C138.691 145.754 138.429 146.029 138.142 146.173C138.127 146.18 138.112 146.188 138.096 146.195C137.783 146.342 137.447 146.322 137.045 145.826C137.14 145.613 137.232 145.391 137.319 145.181C137.613 144.319 138.069 143.447 138.208 142.592C138.342 141.731 138.167 140.884 137.175 140.046C136.704 139.207 136.231 139.036 135.831 139.177C135.424 139.322 135.089 139.8 134.864 140.272C134.548 140.966 134.47 141.791 134.438 142.614C134.429 142.891 134.423 143.156 134.429 143.426C134.418 144.173 134.387 144.92 134.286 145.635C134.185 146.33 134.005 146.998 133.708 147.635C133.495 148.093 133.225 148.53 132.873 148.95C130.249 149.52 127.892 151.073 125.184 151.365C124.793 151.408 124.4 151.425 124 151.407C124.029 151.074 124.182 150.804 124.35 150.547C124.521 150.297 124.723 150.051 124.849 149.785C124.936 149.613 125.015 149.444 125.09 149.268C125.241 148.915 125.373 148.561 125.467 148.207C125.558 147.845 125.611 147.482 125.607 147.118C125.599 146.567 125.459 146.013 125.123 145.458C124.804 144.942 124.315 144.478 123.551 144.697C122.714 144.942 122.322 145.455 122.098 146.068C121.873 146.681 121.818 147.374 121.661 147.993C121.518 148.539 121.367 149.089 121.201 149.609C121.085 149.955 120.964 150.293 120.829 150.62C120.559 151.274 120.222 151.865 119.792 152.377C119.575 152.63 119.332 152.867 119.063 153.069C118.925 153.171 118.783 153.266 118.63 153.357C118.331 153.536 117.992 153.686 117.615 153.798C117.243 153.918 116.833 153.998 116.378 154.044C114.972 154.209 113.563 154.367 111.509 154.603C112.198 154.006 112.735 153.442 113.151 152.88C113.85 151.949 114.228 151.029 114.442 150.017C114.517 149.663 114.55 149.337 114.515 149.025C114.461 148.515 114.205 148.072 113.566 147.726C113.278 147.57 113.038 147.496 112.83 147.491C112.203 147.467 111.855 148.016 111.417 148.57C110.792 149.363 110.397 150.188 110.101 151.163C109.537 153.073 108.654 154.268 107.292 154.921C106.475 155.306 105.484 155.501 104.274 155.527C104.1 155.534 103.922 155.533 103.745 155.532C103.336 155.537 102.917 155.538 102.486 155.534C101.503 155.528 100.468 155.51 99.2963 155.499C100.422 154.442 101.343 153.725 102.083 152.86C102.316 152.581 102.495 152.29 102.607 151.993C102.719 151.696 102.774 151.398 102.765 151.101C102.752 150.657 102.594 150.224 102.3 149.837C102.2 149.706 102.078 149.585 101.948 149.468C101.358 148.948 100.811 148.877 100.327 149.077C99.8464 149.285 99.436 149.76 99.1407 150.341C98.3107 151.925 97.3479 153.168 96.2119 154.005C95.8396 154.284 95.4418 154.509 95.026 154.695C93.9922 155.155 92.836 155.315 91.5356 155.13C90.7554 155.019 89.9285 154.79 89.0435 154.437C88.9724 154.405 88.8932 154.395 88.8064 154.389C88.6364 154.385 88.4503 154.426 88.2606 154.459C88.1658 154.475 88.0786 154.488 87.9877 154.494C87.966 154.447 87.8872 154.419 87.7473 154.419L87.7321 154.426C86.7057 154.15 85.6718 153.877 84.6454 153.6C84.5063 153.562 84.356 153.521 84.2169 153.483C84.1738 153.372 84.1419 153.265 84.1214 153.162C84.056 152.845 84.0851 152.531 84.3518 152.245C84.8179 152.185 85.2298 152.01 85.6195 151.807C86.2538 151.47 86.815 151.018 87.3463 150.542C87.766 150.165 88.0242 149.743 88.1464 149.31C88.1873 149.159 88.2129 149.016 88.216 148.864C88.2334 148.564 88.1866 148.267 88.0754 147.972C87.9642 147.677 87.8036 147.396 87.5747 147.128C87.1873 146.663 86.7905 146.475 86.4086 146.476C86.0268 146.478 85.6451 146.658 85.2957 146.926C85.0615 147.102 84.8302 147.324 84.6177 147.546C84.4904 147.672 84.3892 147.814 84.2768 147.951C84.0483 148.219 83.8234 148.494 83.6022 148.777C83.4898 148.914 83.3886 149.056 83.2762 149.193C81.9953 150.277 80.4539 150.788 78.8977 151.287C78.7341 151.336 78.5742 151.392 78.4107 151.441C74.1397 149.746 70.1312 147.599 66.2647 145.159C62.3983 142.719 58.6815 139.983 54.994 137.111C54.9564 137.843 55.1622 138.319 55.4535 138.679C55.6047 138.861 55.768 139.009 55.9542 139.147C56.1292 139.281 56.3117 139.41 56.4831 139.536C57.548 140.33 58.6169 141.112 59.6975 141.88C61.8587 143.415 64.0628 144.883 66.3295 146.246C67.4647 146.931 68.6043 147.587 69.7708 148.22C70.7318 148.734 71.6723 149.323 72.6442 149.86C72.9619 150.039 73.2948 150.211 73.6165 150.378C74.2751 150.706 74.9494 151.008 75.6593 151.227C76.3617 151.45 77.0957 151.601 77.8658 151.651C77.884 151.69 77.929 151.706 78.0118 151.723C78.4159 151.927 78.8276 152.128 79.2317 152.331C80.832 154.676 81.5323 157.407 82.4882 160.027C82.8676 161.069 83.5157 161.73 84.422 161.773C84.7279 161.788 85.0543 161.728 85.4199 161.593C85.7779 161.462 86.0157 161.293 86.1711 161.088C86.4778 160.69 86.4428 160.181 86.3062 159.654C86.236 159.386 86.147 159.118 86.0656 158.847C85.9556 158.495 85.8339 158.158 85.697 157.828C85.5601 157.498 85.3926 157.183 85.2135 156.882C84.8477 156.284 84.3746 155.756 83.7445 155.33C83.672 155.177 83.6032 155.031 83.5231 154.881C83.268 154.597 83.013 154.314 82.7543 154.023C83.0629 153.905 83.3751 153.795 83.6873 153.686C83.7018 153.716 83.7392 153.736 83.7995 153.746C84.6315 154.283 85.5325 154.59 86.4835 154.668C86.8042 154.695 87.133 154.699 87.4622 154.685C87.7245 154.984 88.0457 155.17 88.3838 155.274C88.5491 155.328 88.726 155.366 88.9032 155.386C89.0805 155.406 89.2581 155.406 89.4358 155.407C91.1721 155.349 92.7132 155.589 94.0513 156.151C94.9358 156.522 95.7381 157.036 96.4391 157.692C96.7915 158.023 97.1129 158.388 97.4147 158.79C97.7165 159.193 97.9985 159.633 98.2533 160.113C98.5081 160.594 98.732 161.108 98.9399 161.668C99.1187 162.166 99.4535 162.618 99.7774 163.048C100.09 163.454 100.443 163.767 100.817 163.947C101.192 164.127 101.591 164.183 102.002 164.083C102.279 164.018 102.554 163.889 102.834 163.672C103.552 163.136 103.701 162.483 103.556 161.801C103.474 161.389 103.275 160.966 103.038 160.543C102.833 160.188 102.586 159.882 102.309 159.59C101.806 159.058 101.203 158.591 100.556 158.051C99.9538 157.546 99.3228 156.979 98.7105 156.235C98.9931 156.28 99.2833 156.322 99.5703 156.337C101.853 156.528 104.078 156.042 106.14 156.14C107.945 156.227 109.616 156.782 111.09 158.641C111.464 159.611 112.044 160.427 112.725 161.176C112.954 161.425 113.187 161.662 113.428 161.896C113.654 162.118 113.896 162.314 114.146 162.469C114.396 162.623 114.658 162.744 114.922 162.807C115.087 162.842 115.25 162.85 115.424 162.843C115.795 162.818 116.176 162.676 116.545 162.351C116.803 162.126 116.959 161.884 117.028 161.635C117.105 161.383 117.107 161.128 117.059 160.869C117.012 160.61 116.918 160.353 116.799 160.1C116.679 159.846 116.556 159.604 116.428 159.373C115.973 158.508 115.295 157.86 114.425 157.482C114.133 157.357 113.825 157.258 113.498 157.196C113.042 156.547 111.97 156.649 111.688 155.674C113.321 155.279 114.917 154.883 116.524 154.491C116.808 154.48 117.103 154.453 117.391 154.43C118.266 154.346 119.138 154.216 119.992 154.246C120.562 154.268 121.116 154.354 121.648 154.573C122.18 154.791 122.695 155.131 123.18 155.663C123.325 155.773 123.451 155.901 123.58 156.037C123.787 156.259 123.968 156.503 124.159 156.75C124.358 157.013 124.553 157.269 124.763 157.517C124.952 157.738 125.155 157.952 125.394 158.121C125.692 158.338 126.032 158.506 126.458 158.577C126.671 158.871 126.897 159.093 127.132 159.255C127.49 159.499 127.862 159.596 128.241 159.549C128.617 159.494 128.999 159.295 129.369 158.932C129.616 158.684 129.787 158.434 129.883 158.183C129.979 157.931 129.999 157.677 129.963 157.422C129.939 157.292 129.908 157.166 129.865 157.036C129.722 156.653 129.461 156.278 129.109 155.909C128.277 155.034 127.306 154.459 126.251 154.064C125.617 153.827 124.96 153.64 124.27 153.543C124.308 153.506 124.354 153.484 124.396 153.455C126.983 151.38 130.379 151.281 133.246 149.9C134.311 149.962 135.155 151.019 136.32 150.601C136.936 151.945 138.353 152.338 139.423 153.063C139.71 153.256 140.024 153.447 140.346 153.595C140.668 153.744 141.013 153.844 141.346 153.875C141.848 153.91 142.331 153.767 142.737 153.303L142.66 153.358Z" fill="#EAE7D0"/>
<path d="M138.024 226.721C138.226 226.693 138.444 226.643 138.684 226.547C139.434 226.249 139.851 225.859 140.038 225.41C140.343 224.659 139.986 223.736 139.361 222.822C139.356 222.634 139.33 222.457 139.282 222.292C139.146 221.808 138.823 221.445 138.316 221.195C138.316 221.195 138.316 221.195 138.308 221.193C138.308 221.193 138.311 221.185 138.313 221.177C138.194 220.751 137.874 220.38 137.659 219.978C137.445 219.577 137.337 219.145 137.639 218.607C137.774 218.629 137.903 218.668 138.027 218.723C138.281 218.817 138.531 218.954 138.783 219.083C138.905 219.146 139.035 219.212 139.16 219.267C139.284 219.322 139.408 219.377 139.546 219.418C139.805 219.496 140.071 219.549 140.363 219.513C140.51 219.495 140.653 219.458 140.814 219.391C141.687 219.538 142.412 220.35 143.392 220.023C143.439 220.011 143.477 220.004 143.527 219.984C146.465 220.794 147.54 223.201 148.576 225.738C148.978 226.719 149.4 227.369 149.874 227.697C150.659 228.252 151.595 227.921 152.828 226.81C153.069 226.094 153.09 225.497 152.969 224.99C152.776 224.223 152.252 223.649 151.655 223.115C151.452 222.939 151.249 222.763 151.036 222.592C150.62 222.246 150.215 221.893 149.885 221.493C149.722 221.302 149.565 221.122 149.402 220.931C149.891 220.83 150.371 220.726 150.858 220.632C151.445 220.702 152.026 220.761 152.613 220.804C153.785 220.89 154.953 220.904 156.132 220.823C156.716 220.785 157.299 220.721 157.892 220.624C158.399 220.696 158.842 220.865 159.241 221.091C159.844 221.432 160.344 221.91 160.839 222.404C161.163 222.732 161.485 223.068 161.823 223.382C161.996 223.541 162.163 223.688 162.351 223.825C162.35 224.064 162.388 224.261 162.467 224.436C162.616 224.791 162.907 225.056 163.2 225.312C163.345 225.445 163.501 225.571 163.642 225.72C164.594 226.688 165.641 226.87 166.541 226.218C166.667 226.122 166.797 226.011 166.922 225.888C167.192 225.606 167.395 225.312 167.515 225.029C167.752 224.444 167.68 223.863 167.283 223.336C167.08 223.072 166.801 222.828 166.428 222.601C165.937 222.125 165.451 221.66 164.844 221.07C164.638 220.875 164.426 220.67 164.195 220.441C165.755 220.146 167.214 219.866 168.625 219.598C170.036 219.33 171.4 219.074 172.763 218.818C173.219 218.972 173.614 219.242 173.994 219.533C174.627 220.007 175.222 220.549 175.975 220.802C176.152 220.855 176.33 220.908 176.52 220.921C176.653 221.094 176.789 221.259 176.93 221.408C177.629 222.159 178.433 222.595 179.386 222.5C179.767 222.463 180.173 222.346 180.61 222.122C180.946 221.913 181.271 221.682 181.528 221.413C181.917 220.998 182.119 220.5 181.918 219.907C181.898 219.857 181.896 219.803 181.868 219.751C181.612 219.195 181.277 218.668 180.805 218.332C180.69 218.244 180.562 218.17 180.43 218.113C180.297 218.055 180.154 218.003 180.004 217.976C179.972 217.966 179.934 217.973 179.902 217.963C179.623 217.924 179.324 217.923 178.984 217.998C178.449 217.696 177.902 217.522 177.331 217.458C177.049 217.426 176.758 217.428 176.478 217.45C176.19 217.47 175.901 217.525 175.606 217.596C175.208 217.512 174.951 217.4 174.812 217.278C174.598 217.081 174.618 216.838 174.741 216.574C174.864 216.309 175.089 216.031 175.268 215.756C176.289 214.821 177.089 213.802 177.461 212.592C177.678 211.868 177.738 211.079 177.596 210.203C177.509 209.964 177.425 209.717 177.338 209.478C177.307 209.229 177.249 208.982 177.171 208.772C176.931 208.132 176.46 207.734 175.638 208.037C174.937 208.288 174.576 208.756 174.4 209.315C174.223 209.874 174.231 210.523 174.273 211.174C174.096 212.088 173.919 213.001 173.741 213.915C173.719 215.487 172.7 216.591 171.958 217.831C171.224 218.045 170.495 218.243 169.746 218.418C168.052 218.805 166.267 219.058 164.329 219.204C163.707 219.248 163.084 219.3 162.416 219.322C163.48 218.213 164.305 217.432 165.01 216.668C165.244 216.419 165.461 216.165 165.67 215.908C166.119 215.352 166.279 214.761 166.259 214.152C166.239 213.543 166.054 212.929 165.814 212.316C165.757 212.183 165.7 212.051 165.619 211.938C165.469 211.707 165.276 211.525 165.031 211.433C164.909 211.397 164.767 211.372 164.623 211.382C163.24 211.499 163.129 212.778 162.672 213.714C162.119 214.851 161.65 216.032 161.143 217.192C160.935 217.68 160.686 218.128 160.392 218.519C160.091 218.907 159.739 219.227 159.291 219.457C158.999 219.608 158.666 219.721 158.288 219.776C155.882 219.923 153.474 220.078 151.068 220.225C150.767 220.055 150.457 219.882 150.153 219.72C151.121 218.991 152.224 218.399 153.055 217.54C153.545 217.022 153.942 216.405 154.141 215.596C154.232 215.322 154.32 215.056 154.364 214.794C154.512 214.005 154.37 213.306 153.35 212.946C152.737 212.727 152.286 212.822 151.957 213.096C151.792 213.233 151.656 213.422 151.539 213.636C151.422 213.849 151.328 214.104 151.25 214.365C151.063 214.486 150.899 214.623 150.759 214.767C150.255 215.272 149.923 215.908 149.593 216.537C149.354 216.979 149.118 217.414 148.806 217.808C148.651 218.001 148.488 218.192 148.29 218.354C148.129 218.509 147.956 218.644 147.788 218.762C147.369 219.044 146.928 219.222 146.469 219.341C145.601 219.56 144.671 219.547 143.732 219.477C142.92 218.95 142.039 218.686 141.067 218.873C141.041 218.812 141.01 218.767 140.972 218.72C140.861 218.589 140.704 218.524 140.53 218.49C140.513 218.485 140.489 218.478 140.473 218.473C140.156 218.413 139.777 218.441 139.468 218.357C139.452 218.352 139.435 218.348 139.419 218.343C139.088 218.243 138.851 218.004 138.884 217.366C139.098 217.271 139.314 217.167 139.52 217.069C140.314 216.625 141.237 216.281 141.911 215.738C142.587 215.188 143.023 214.44 142.845 213.154C143.056 212.216 142.819 211.772 142.427 211.61C142.027 211.446 141.459 211.577 140.976 211.777C140.276 212.082 139.667 212.644 139.093 213.234C138.901 213.434 138.72 213.628 138.544 213.832C138.036 214.38 137.514 214.915 136.96 215.379C136.42 215.828 135.84 216.204 135.193 216.48C134.729 216.678 134.236 216.822 133.693 216.899C131.36 215.569 128.57 215.148 126.361 213.554C126.041 213.325 125.738 213.074 125.452 212.794C125.697 212.565 125.991 212.467 126.288 212.388C126.582 212.317 126.896 212.269 127.168 212.156C127.348 212.085 127.519 212.013 127.693 211.932C128.041 211.771 128.376 211.596 128.683 211.395C128.992 211.187 129.274 210.952 129.515 210.679C129.877 210.264 130.143 209.759 130.264 209.121C130.373 208.524 130.319 207.852 129.604 207.504C128.819 207.126 128.183 207.246 127.607 207.552C127.03 207.858 126.526 208.336 125.996 208.691C125.524 209.002 125.044 209.31 124.573 209.585C124.255 209.765 123.939 209.936 123.62 210.089C122.982 210.394 122.336 210.608 121.674 210.702C121.344 210.744 121.005 210.758 120.67 210.728C120.498 210.713 120.329 210.688 120.155 210.654C119.814 210.587 119.46 210.472 119.106 210.303C118.748 210.143 118.39 209.929 118.021 209.659C116.865 208.842 115.712 208.017 114.027 206.819C114.938 206.835 115.714 206.776 116.4 206.636C117.542 206.411 118.438 205.979 119.273 205.37C119.567 205.156 119.809 204.936 119.991 204.681C120.292 204.266 120.398 203.765 120.155 203.08C120.044 202.772 119.915 202.556 119.764 202.413C119.314 201.976 118.688 202.152 117.992 202.271C116.997 202.443 116.152 202.792 115.28 203.32C113.583 204.362 112.128 204.662 110.678 204.235C109.813 203.976 108.946 203.458 108.029 202.669C107.895 202.557 107.763 202.438 107.632 202.319C107.325 202.049 107.012 201.769 106.694 201.479C105.968 200.817 105.21 200.111 104.346 199.32C105.89 199.286 107.054 199.37 108.183 199.221C108.542 199.169 108.871 199.072 109.152 198.926C109.434 198.78 109.675 198.595 109.866 198.369C110.153 198.03 110.325 197.602 110.365 197.118C110.379 196.953 110.369 196.782 110.351 196.608C110.259 195.827 109.9 195.408 109.406 195.234C108.91 195.067 108.287 195.146 107.679 195.38C106.002 196.003 104.455 196.284 103.052 196.146C102.588 196.105 102.142 196.006 101.708 195.867C100.632 195.518 99.6649 194.864 98.8215 193.857C98.3155 193.253 97.8542 192.529 97.432 191.675C97.4006 191.603 97.3481 191.543 97.2876 191.481C97.164 191.364 96.9984 191.27 96.8352 191.168C96.7536 191.117 96.6801 191.068 96.609 191.011C96.6237 190.962 96.5842 190.888 96.48 190.795L96.4638 190.79C95.8856 189.898 95.2992 189.004 94.7209 188.112C94.6427 187.991 94.5588 187.859 94.4806 187.738C94.5229 187.627 94.5708 187.526 94.6243 187.436C94.7874 187.157 95.0192 186.942 95.4083 186.908C95.7953 187.175 96.2188 187.32 96.6441 187.43C97.341 187.604 98.0608 187.642 98.7742 187.644C99.3379 187.644 99.8122 187.503 100.193 187.263C100.324 187.178 100.439 187.088 100.543 186.977C100.756 186.766 100.92 186.514 101.034 186.22C101.149 185.927 101.217 185.61 101.226 185.258C101.249 184.653 101.08 184.248 100.795 183.994C100.51 183.74 100.106 183.618 99.6667 183.584C99.3747 183.558 99.0544 183.569 98.7478 183.592C98.5691 183.6 98.3991 183.638 98.2236 183.665C97.8749 183.711 97.5237 183.765 97.1701 183.828C96.9945 183.855 96.8246 183.893 96.649 183.92C94.9724 183.869 93.4845 183.218 91.9935 182.549C91.8391 182.476 91.6823 182.411 91.528 182.338C89.4853 178.222 87.9403 173.945 86.6965 169.546C85.4527 165.146 84.5181 160.627 83.6961 156.026C83.179 156.544 83.0139 157.036 82.9896 157.499C82.9803 157.735 83.0025 157.955 83.049 158.181C83.0898 158.398 83.1387 158.616 83.182 158.824C83.4433 160.127 83.715 161.423 84.0054 162.716C84.5861 165.303 85.2438 167.868 86.0179 170.397C86.4038 171.666 86.8131 172.915 87.2573 174.166C87.6282 175.191 87.9336 176.258 88.2972 177.307C88.4138 177.652 88.5466 178.003 88.6738 178.342C88.9443 179.026 89.2439 179.702 89.6253 180.339C89.9986 180.975 90.4431 181.578 90.9824 182.13C90.9702 182.171 90.9928 182.213 91.0428 182.281C91.207 182.703 91.3793 183.127 91.5435 183.549C91.1661 186.362 89.8608 188.861 88.8198 191.449C88.4053 192.477 88.4448 193.403 89.0907 194.04C89.3079 194.256 89.5907 194.429 89.9528 194.574C90.3068 194.715 90.5963 194.749 90.8487 194.701C91.3431 194.61 91.6577 194.207 91.9085 193.724C92.0352 193.478 92.1481 193.219 92.2691 192.963C92.4226 192.628 92.5575 192.296 92.6762 191.959C92.795 191.622 92.8813 191.276 92.9491 190.932C93.0766 190.244 93.0779 189.534 92.8941 188.796C92.9429 188.634 92.9893 188.479 93.0301 188.314C93.03 187.933 93.0299 187.551 93.0322 187.162C93.3402 187.281 93.6457 187.408 93.9512 187.535C93.9414 187.568 93.9559 187.608 93.9947 187.655C94.2541 188.61 94.7185 189.442 95.3739 190.135C95.5943 190.37 95.8357 190.593 96.0901 190.802C96.0853 191.2 96.1995 191.553 96.3817 191.856C96.4688 192.007 96.5745 192.154 96.6931 192.287C96.8118 192.42 96.9434 192.539 97.075 192.659C98.4051 193.776 99.3904 194.985 100.01 196.298C100.419 197.165 100.672 198.084 100.755 199.04C100.796 199.522 100.791 200.008 100.746 200.509C100.702 201.01 100.617 201.526 100.485 202.054C100.353 202.582 100.176 203.114 99.9565 203.669C99.7566 204.159 99.7029 204.719 99.6566 205.255C99.6176 205.766 99.671 206.235 99.8288 206.619C99.9866 207.003 100.246 207.312 100.618 207.512C100.868 207.649 101.159 207.737 101.512 207.763C102.404 207.844 102.952 207.459 103.301 206.854C103.515 206.493 103.649 206.045 103.756 205.572C103.841 205.172 103.862 204.779 103.851 204.376C103.833 203.644 103.696 202.893 103.577 202.059C103.467 201.281 103.376 200.438 103.418 199.476C103.598 199.698 103.786 199.923 103.99 200.126C105.56 201.794 107.539 202.921 109.007 204.372C110.291 205.644 111.162 207.174 111.015 209.542C110.645 210.513 110.531 211.507 110.536 212.52C110.54 212.858 110.555 213.191 110.578 213.526C110.597 213.842 110.646 214.149 110.729 214.431C110.811 214.713 110.926 214.978 111.079 215.201C111.179 215.338 111.295 215.452 111.429 215.564C111.721 215.793 112.099 215.942 112.591 215.948C112.933 215.953 113.212 215.877 113.429 215.738C113.655 215.602 113.826 215.414 113.964 215.19C114.102 214.965 114.205 214.712 114.285 214.443C114.366 214.175 114.436 213.912 114.495 213.655C114.736 212.707 114.664 211.772 114.271 210.909C114.137 210.621 113.974 210.342 113.772 210.077C113.867 209.29 113.002 208.649 113.444 207.735C114.922 208.533 116.374 209.306 117.83 210.089C118.049 210.27 118.287 210.448 118.516 210.623C119.223 211.146 119.958 211.632 120.573 212.225C120.983 212.623 121.337 213.057 121.587 213.575C121.836 214.094 121.992 214.69 121.997 215.41C122.031 215.589 122.039 215.769 122.044 215.956C122.05 216.26 122.021 216.561 121.998 216.874C121.97 217.202 121.944 217.523 121.935 217.848C121.927 218.138 121.935 218.433 121.999 218.719C122.076 219.079 122.217 219.431 122.486 219.769C122.448 220.13 122.468 220.447 122.534 220.724C122.637 221.145 122.849 221.466 123.162 221.684C123.478 221.894 123.895 222.001 124.413 221.98C124.763 221.96 125.057 221.889 125.297 221.766C125.536 221.643 125.721 221.468 125.865 221.253C125.934 221.141 125.995 221.026 126.05 220.901C126.199 220.52 126.256 220.067 126.242 219.558C126.208 218.35 125.87 217.273 125.35 216.275C125.036 215.675 124.673 215.096 124.225 214.562C124.278 214.561 124.327 214.575 124.378 214.582C127.688 214.768 130.28 216.965 133.335 217.856C134.086 218.613 134.007 219.964 135.153 220.432C134.712 221.843 135.503 223.082 135.813 224.337C135.898 224.673 136.004 225.024 136.144 225.35C136.284 225.676 136.474 225.981 136.7 226.226C137.05 226.588 137.505 226.805 138.117 226.731L138.024 226.721Z" fill="#EAE7D0"/>
<path d="M163.111 120.808C163.253 120.46 163.374 120.068 163.443 119.596C163.66 118.126 163.424 117.104 162.882 116.391C161.967 115.213 160.168 114.93 158.135 115.081C157.831 114.916 157.526 114.795 157.22 114.718C156.322 114.489 155.447 114.668 154.582 115.245C154.582 115.245 154.582 115.245 154.57 115.256C154.57 115.256 154.56 115.244 154.549 115.233C153.761 115.029 152.875 115.197 152.038 115.168C151.201 115.14 150.414 114.914 149.835 113.935C149.995 113.742 150.176 113.572 150.378 113.425C150.762 113.107 151.21 112.836 151.648 112.553C151.861 112.417 152.086 112.271 152.289 112.123C152.491 111.976 152.694 111.829 152.886 111.648C153.248 111.307 153.579 110.933 153.791 110.433C153.897 110.183 153.971 109.921 154.013 109.603C155.051 108.349 157.013 107.942 157.396 106.081C157.421 105.994 157.445 105.929 157.458 105.83C161.46 101.9 166.284 102.407 171.28 103.098C173.212 103.363 174.636 103.29 175.597 102.838C177.205 102.1 177.542 100.303 176.909 97.3161C175.991 96.2703 175.059 95.687 174.141 95.4129C172.741 95.0119 171.344 95.3166 169.942 95.7754C169.475 95.9357 169.008 96.096 168.539 96.2784C167.604 96.621 166.669 96.9416 165.728 97.0966C165.274 97.1802 164.841 97.2645 164.387 97.3481C164.676 96.4761 164.954 95.6147 165.254 94.7541C165.906 93.8836 166.537 93.0124 167.146 92.1183C168.365 90.3302 169.464 88.4829 170.423 86.5315C170.902 85.5668 171.337 84.5786 171.73 83.5448C172.313 82.8041 172.99 82.2542 173.718 81.8273C174.816 81.1815 176.039 80.8267 177.283 80.4947C178.104 80.2805 178.937 80.0776 179.748 79.8299C180.16 79.7008 180.549 79.5709 180.94 79.3969C181.319 79.6194 181.668 79.7417 182.02 79.7759C182.723 79.8662 183.413 79.6474 184.091 79.4172C184.436 79.3078 184.782 79.1764 185.148 79.0898C187.568 78.4675 188.823 76.9673 188.615 74.9317C188.579 74.6438 188.522 74.3331 188.443 74.0217C188.241 73.3313 187.961 72.7373 187.621 72.2846C186.908 71.3671 185.917 70.9471 184.711 71.093C184.103 71.1713 183.457 71.3916 182.752 71.7753C181.541 72.1194 180.352 72.4644 178.852 72.8868C178.352 73.0349 177.83 73.1823 177.252 73.3388C178.222 70.5831 179.122 68.0012 179.996 65.5067C180.871 63.0122 181.721 60.6051 182.571 58.198C183.238 57.6146 184.031 57.234 184.845 56.8982C186.184 56.327 187.596 55.8795 188.693 54.914C188.942 54.68 189.191 54.4461 189.386 54.1551C189.785 54.1027 190.172 54.0389 190.538 53.9523C192.38 53.5306 193.815 52.6539 194.544 51.0474C194.837 50.4071 195.024 49.6528 195.071 48.7504C195.048 48.022 194.98 47.2921 194.789 46.635C194.487 45.6324 193.88 44.8509 192.751 44.6246C192.652 44.6102 192.566 44.5631 192.456 44.5593C191.334 44.4546 190.186 44.5032 189.215 44.9439C188.97 45.0457 188.735 45.1809 188.521 45.3389C188.307 45.4969 188.092 45.6769 187.91 45.8911C187.865 45.9337 187.841 45.999 187.796 46.0415C187.475 46.4494 187.198 46.9249 187.004 47.5356C186.029 48.1084 185.249 48.8202 184.618 49.6694C184.309 50.0887 184.043 50.5536 183.82 51.02C183.586 51.497 183.406 52.009 183.248 52.5437C182.748 53.0998 182.331 53.4051 182.008 53.5153C181.497 53.6741 181.129 53.4189 180.822 52.9784C180.515 52.5379 180.279 51.9234 180.007 51.3849C179.46 48.8965 178.574 46.6832 176.991 44.9751C176.038 43.9611 174.838 43.137 173.311 42.5553C172.85 42.4733 172.379 42.3799 171.918 42.2979C171.494 42.1179 171.046 41.9812 170.64 41.9121C169.4 41.7041 168.331 42.0862 168.055 43.6753C167.808 45.0228 168.22 46.0292 168.948 46.8259C169.675 47.6226 170.716 48.2097 171.793 48.7429C173.084 49.8677 174.375 50.9925 175.666 52.1174C178.148 53.6029 178.967 56.2439 180.257 58.5703C179.921 59.9368 179.564 61.2805 179.151 62.6333C178.205 65.6876 176.962 68.7647 175.405 71.9854C174.902 73.0154 174.41 74.0568 173.829 75.1392C173.045 72.4223 172.562 70.3882 171.996 68.5607C171.815 67.9592 171.611 67.3789 171.395 66.8092C170.923 65.5803 170.13 64.7813 169.141 64.2511C168.153 63.721 167.004 63.4499 165.807 63.2654C165.544 63.2343 165.28 63.2032 165.026 63.2275C164.518 63.2541 164.051 63.3924 163.679 63.6993C163.509 63.8588 163.338 64.0624 163.221 64.3009C162.131 66.6116 164.066 67.968 165.135 69.5593C166.436 71.4893 167.884 73.325 169.264 75.2026C169.848 75.9834 170.332 76.7938 170.684 77.6217C171.024 78.4603 171.209 79.3155 171.161 80.2399C171.133 80.8453 171.005 81.4803 170.744 82.1328C168.759 86.0994 166.785 90.0774 164.8 94.044C164.25 94.3668 163.69 94.7003 163.151 95.0346C162.883 92.8204 162.959 90.519 162.357 88.4036C161.984 87.145 161.368 85.9442 160.262 84.8809C159.91 84.4829 159.568 84.0963 159.191 83.7856C158.072 82.821 156.827 82.4034 155.314 83.6962C154.399 84.4695 154.134 85.2762 154.266 86.0525C154.333 86.4406 154.509 86.8326 154.741 87.2154C154.972 87.5982 155.292 87.984 155.635 88.3486C155.656 88.7572 155.723 89.1454 155.823 89.5016C156.162 90.77 156.869 91.8858 157.566 92.9902C158.05 93.7786 158.525 94.5556 158.864 95.4161C159.029 95.8407 159.182 96.2759 159.257 96.7416C159.356 97.1418 159.411 97.5406 159.444 97.9166C159.506 98.8448 159.383 99.7115 159.15 100.552C158.697 102.135 157.818 103.604 156.841 105.037C155.254 105.842 154.02 107.001 153.42 108.723C153.299 108.707 153.2 108.715 153.089 108.733C152.779 108.789 152.531 108.979 152.315 109.225C152.292 109.246 152.258 109.278 152.236 109.299C151.848 109.749 151.544 110.378 151.124 110.793C151.102 110.815 151.079 110.836 151.057 110.857C150.592 111.293 149.993 111.449 149.008 110.809C149.053 110.38 149.087 109.941 149.121 109.523C149.146 107.848 149.45 106.061 149.207 104.488C148.954 102.902 148.166 101.519 145.954 100.616C144.654 99.4139 143.729 99.3821 143.11 99.8569C142.479 100.342 142.164 101.368 142.038 102.322C141.877 103.717 142.21 105.206 142.621 106.664C142.762 107.154 142.903 107.622 143.066 108.091C143.47 109.405 143.841 110.73 144.068 112.039C144.286 113.314 144.35 114.584 144.192 115.868C144.078 116.791 143.854 117.709 143.475 118.644C139.206 121.132 135.961 125.187 131.385 127.235C130.726 127.532 130.047 127.784 129.336 127.98C129.198 127.38 129.313 126.822 129.461 126.276C129.619 125.741 129.833 125.197 129.903 124.659C129.957 124.308 130 123.968 130.031 123.616C130.095 122.913 130.126 122.219 130.09 121.546C130.043 120.861 129.929 120.195 129.716 119.559C129.39 118.6 128.831 117.71 127.927 116.929C127.076 116.205 125.956 115.671 124.743 116.489C123.417 117.391 123.021 118.513 122.977 119.713C122.932 120.913 123.228 122.158 123.305 123.33C123.364 124.368 123.412 125.417 123.417 126.42C123.409 127.093 123.39 127.753 123.339 128.402C123.236 129.699 122.981 130.925 122.519 132.067C122.283 132.632 121.992 133.184 121.636 133.69C121.453 133.948 121.258 134.195 121.042 134.441C120.621 134.923 120.112 135.38 119.516 135.789C118.931 136.21 118.259 136.584 117.489 136.921C115.122 138.008 112.744 139.084 109.283 140.662C110.15 139.226 110.77 137.935 111.179 136.715C111.875 134.688 112.015 132.863 111.815 130.971C111.745 130.307 111.618 129.718 111.38 129.192C110.996 128.33 110.297 127.7 108.981 127.456C108.389 127.347 107.926 127.353 107.559 127.462C106.448 127.777 106.151 128.935 105.698 130.154C105.054 131.896 104.831 133.564 104.866 135.439C104.962 139.103 104.095 141.697 102.08 143.612C100.868 144.749 99.2447 145.653 97.1409 146.385C96.8402 146.496 96.5288 146.595 96.2173 146.695C95.5052 146.935 94.771 147.174 94.0148 147.413C92.291 147.96 90.4677 148.515 88.4105 149.16C89.781 146.672 90.9883 144.894 91.7921 142.96C92.041 142.34 92.1905 141.728 92.2179 141.144C92.2453 140.561 92.1727 140.007 91.9887 139.494C91.7127 138.724 91.1914 138.055 90.4562 137.545C90.2076 137.371 89.925 137.229 89.6311 137.098C88.3025 136.523 87.3053 136.709 86.5713 137.334C85.848 137.97 85.3992 139.035 85.2117 140.22C84.6576 143.464 83.6773 146.186 82.1631 148.295C81.6695 148.994 81.101 149.614 80.479 150.177C78.9299 151.568 76.9967 152.505 74.6153 152.919C73.1864 153.167 71.6084 153.234 69.8591 153.119C69.7162 153.103 69.5722 153.131 69.4168 153.17C69.1167 153.259 68.8141 153.436 68.5008 153.601C68.3442 153.684 68.1989 153.756 68.0429 153.817C67.9786 153.749 67.8245 153.743 67.5797 153.823L67.5571 153.844C65.6034 153.943 63.6384 154.051 61.6847 154.149C61.4198 154.162 61.1329 154.175 60.868 154.187C60.7295 154.017 60.613 153.848 60.5185 153.679C60.2244 153.162 60.0971 152.595 60.402 151.944C61.1839 151.574 61.8053 151.034 62.3726 150.458C63.2921 149.508 64.0176 148.398 64.6778 147.263C65.199 146.366 65.4112 145.48 65.3794 144.652C65.3654 144.365 65.3288 144.099 65.2481 143.832C65.1088 143.298 64.8581 142.804 64.4961 142.351C64.1341 141.897 63.6934 141.496 63.1408 141.158C62.1986 140.563 61.3969 140.458 60.7294 140.678C60.0619 140.897 59.4959 141.429 59.0362 142.097C58.7262 142.538 58.4471 143.058 58.2014 143.567C58.0499 143.86 57.9531 144.165 57.8343 144.47C57.586 145.068 57.3485 145.677 57.1216 146.297C57.0028 146.602 56.9061 146.907 56.7873 147.212C55.1595 149.835 52.7511 151.604 50.3099 153.361C50.0514 153.539 49.8036 153.729 49.545 153.908C41.1063 153.364 32.8702 151.879 24.717 149.801C16.5638 147.723 8.50473 145.043 0.419708 142.107C0.768917 143.409 1.39912 144.126 2.11351 144.591C2.48171 144.824 2.85176 144.991 3.25579 145.127C3.63779 145.261 4.03112 145.385 4.40242 145.508C6.71707 146.293 9.03236 147.056 11.3596 147.787C16.014 149.248 20.7055 150.567 25.4472 151.667C27.8234 152.223 30.1902 152.723 32.5915 153.17C34.5656 153.525 36.5466 154.023 38.5527 154.411C39.2103 154.544 39.8905 154.656 40.5488 154.767C41.8878 154.967 43.2395 155.113 44.6068 155.094C45.9628 155.085 47.3338 154.934 48.7104 154.585C48.7639 154.642 48.852 154.645 49.0067 154.628C49.8298 154.756 50.6642 154.872 51.4873 155C55.6191 158.196 58.3947 162.58 61.5547 166.625C62.8102 168.233 64.3201 169.024 65.9307 168.583C66.4749 168.437 67.0121 168.146 67.5757 167.703C68.128 167.27 68.4486 166.84 68.6045 166.393C68.9155 165.522 68.5652 164.65 68.0268 163.805C67.7523 163.376 67.4444 162.958 67.1479 162.529C66.7556 161.975 66.3514 161.454 65.9245 160.954C65.4977 160.454 65.0255 159.997 64.5415 159.573C63.562 158.734 62.4341 158.078 61.0893 157.69C60.8752 157.462 60.6719 157.245 60.4465 157.028C59.8392 156.677 59.2318 156.325 58.6137 155.962C59.0873 155.581 59.5717 155.212 60.056 154.843C60.0988 154.889 60.1756 154.902 60.2863 154.884C62.0477 155.353 63.7995 155.38 65.5083 154.976C66.0852 154.841 66.6634 154.663 67.2315 154.451C67.8602 154.825 68.5285 154.969 69.1791 154.959C69.4988 154.959 69.8304 154.926 70.1519 154.86C70.4734 154.794 70.7848 154.694 71.0962 154.595C74.1027 153.508 76.9372 153.054 79.5983 153.278C81.3577 153.427 83.0536 153.871 84.6528 154.62C85.4578 155.001 86.2276 155.457 86.9842 155.99C87.7407 156.524 88.4841 157.133 89.203 157.831C89.9219 158.528 90.6056 159.301 91.2869 160.162C91.8825 160.933 92.7253 161.535 93.536 162.103C94.3146 162.637 95.1095 162.984 95.8671 163.087C96.6247 163.191 97.3558 163.061 98.0176 162.654C98.4661 162.383 98.8737 162 99.2415 161.462C100.194 160.116 100.085 158.889 99.4442 157.775C99.0664 157.101 98.4778 156.474 97.8224 155.867C97.2635 155.363 96.6573 154.967 96.0059 154.614C94.8227 153.967 93.5023 153.492 92.0636 152.913C90.7231 152.371 89.297 151.737 87.8028 150.782C88.3231 150.701 88.8548 150.609 89.3656 150.472C93.4709 149.511 97.0904 147.398 100.756 146.399C103.966 145.529 107.206 145.552 110.841 147.97C112.045 149.456 113.524 150.554 115.14 151.481C115.683 151.786 116.226 152.069 116.781 152.342C117.302 152.602 117.837 152.808 118.362 152.936C118.887 153.065 119.415 153.127 119.912 153.089C120.221 153.056 120.51 152.977 120.811 152.866C121.446 152.613 122.033 152.148 122.495 151.37C122.819 150.83 122.955 150.316 122.935 149.842C122.927 149.356 122.785 148.91 122.554 148.484C122.324 148.057 122.015 147.66 121.662 147.284C121.309 146.908 120.955 146.554 120.601 146.222C119.313 144.965 117.758 144.217 116.021 144.047C115.439 143.994 114.844 143.996 114.235 144.074C113.069 143.196 111.251 143.982 110.203 142.436C112.839 140.818 115.408 139.22 117.999 137.622C118.489 137.44 118.991 137.226 119.481 137.023C120.965 136.379 122.419 135.657 123.93 135.224C124.941 134.94 125.959 134.776 127.015 134.857C128.071 134.937 129.165 135.239 130.315 135.896C130.631 136.006 130.925 136.16 131.229 136.325C131.717 136.595 132.171 136.919 132.647 137.244C133.144 137.592 133.631 137.929 134.14 138.244C134.595 138.524 135.072 138.783 135.586 138.944C136.23 139.154 136.922 139.255 137.708 139.138C138.248 139.532 138.77 139.792 139.272 139.942C140.038 140.167 140.744 140.125 141.381 139.827C142.007 139.518 142.563 138.953 143.005 138.108C143.297 137.534 143.455 136.999 143.48 136.504C143.505 136.009 143.397 135.553 143.188 135.127C143.073 134.913 142.947 134.71 142.798 134.507C142.33 133.918 141.66 133.409 140.835 132.962C138.881 131.903 136.855 131.447 134.785 131.354C133.541 131.3 132.283 131.345 131.021 131.566C131.067 131.479 131.135 131.415 131.192 131.34C134.543 126.241 140.433 124.14 144.669 120.096C146.567 119.599 148.645 120.972 150.448 119.579C152.287 121.582 154.991 121.466 157.276 122.129C157.888 122.304 158.545 122.459 159.194 122.537C159.842 122.614 160.504 122.593 161.103 122.459C162.002 122.236 162.766 121.711 163.214 120.668L163.111 120.808Z" fill="#FFFDEB" style="mix-blend-mode:multiply"/>
<path d="M153.966 216.788C154.264 216.707 154.58 216.59 154.921 216.399C155.987 215.808 156.535 215.144 156.729 214.436C157.039 213.252 156.325 211.94 155.214 210.692C155.169 210.412 155.096 210.153 154.993 209.915C154.694 209.216 154.141 208.735 153.334 208.46C153.334 208.46 153.334 208.46 153.321 208.458C153.321 208.458 153.323 208.445 153.325 208.433C153.065 207.818 152.513 207.325 152.115 206.766C151.716 206.206 151.47 205.581 151.819 204.716C152.024 204.724 152.225 204.757 152.422 204.815C152.82 204.907 153.221 205.063 153.623 205.207C153.818 205.278 154.025 205.351 154.222 205.41C154.419 205.468 154.616 205.527 154.83 205.562C155.232 205.628 155.641 205.656 156.072 205.545C156.288 205.489 156.495 205.407 156.723 205.275C158.058 205.325 159.301 206.4 160.704 205.721C160.773 205.694 160.827 205.677 160.898 205.636C165.453 206.281 167.529 209.675 169.572 213.272C170.363 214.662 171.121 215.553 171.894 215.953C173.177 216.632 174.515 215.955 176.144 214.053C176.367 212.933 176.282 212.036 176.002 211.301C175.565 210.19 174.67 209.432 173.672 208.749C173.334 208.524 172.997 208.3 172.645 208.086C171.955 207.648 171.28 207.199 170.709 206.664C170.428 206.41 170.158 206.17 169.877 205.916C170.589 205.67 171.288 205.421 171.998 205.186C172.89 205.177 173.772 205.153 174.658 205.104C176.43 205.005 178.181 204.799 179.93 204.45C180.797 204.281 181.657 204.071 182.526 203.811C183.299 203.821 183.995 203.988 184.636 204.249C185.604 204.642 186.445 205.261 187.282 205.905C187.831 206.333 188.378 206.774 188.945 207.179C189.234 207.382 189.513 207.571 189.821 207.738C189.865 208.096 189.96 208.385 190.113 208.631C190.405 209.133 190.891 209.473 191.38 209.8C191.623 209.97 191.881 210.13 192.12 210.325C193.732 211.59 195.335 211.659 196.557 210.508C196.726 210.341 196.9 210.149 197.063 209.942C197.412 209.466 197.659 208.987 197.784 208.54C198.026 207.618 197.805 206.763 197.108 206.051C196.754 205.694 196.288 205.384 195.687 205.116C194.859 204.499 194.041 203.897 193.018 203.132C192.672 202.88 192.315 202.613 191.925 202.315C194.204 201.572 196.333 200.87 198.393 200.195C200.454 199.52 202.445 198.873 204.436 198.226C205.149 198.369 205.792 198.695 206.417 199.058C207.457 199.645 208.452 200.341 209.628 200.573C209.904 200.618 210.181 200.664 210.468 200.646C210.701 200.879 210.936 201.1 211.175 201.295C212.368 202.283 213.655 202.781 215.064 202.454C215.627 202.325 216.211 202.071 216.823 201.651C217.285 201.272 217.726 200.864 218.059 200.412C218.561 199.715 218.767 198.931 218.351 198.083C218.311 198.011 218.299 197.931 218.246 197.858C217.755 197.075 217.151 196.352 216.38 195.94C216.191 195.831 215.986 195.745 215.776 195.685C215.566 195.624 215.342 195.574 215.112 195.563C215.061 195.554 215.007 195.571 214.957 195.563C214.532 195.558 214.083 195.614 213.589 195.793C212.73 195.444 211.877 195.291 211.01 195.304C210.583 195.312 210.147 195.37 209.732 195.458C209.305 195.544 208.882 195.682 208.455 195.846C207.843 195.797 207.437 195.679 207.204 195.524C206.846 195.27 206.828 194.903 206.962 194.483C207.095 194.064 207.378 193.603 207.593 193.158C208.94 191.56 209.939 189.879 210.261 187.997C210.446 186.871 210.384 185.678 210.001 184.394C209.825 184.053 209.65 183.7 209.474 183.359C209.379 182.993 209.245 182.633 209.087 182.334C208.604 181.423 207.822 180.918 206.65 181.531C205.65 182.042 205.2 182.813 205.044 183.683C204.888 184.554 205.026 185.525 205.215 186.492C205.127 187.894 205.039 189.295 204.95 190.697C205.222 193.054 203.91 194.904 203.04 196.905C201.982 197.368 200.929 197.805 199.843 198.212C197.382 199.12 194.759 199.845 191.885 200.438C190.964 200.624 190.04 200.823 189.046 200.985C190.424 199.119 191.507 197.79 192.415 196.51C192.716 196.092 192.992 195.67 193.255 195.245C193.819 194.325 193.944 193.41 193.796 192.502C193.648 191.594 193.251 190.71 192.775 189.84C192.664 189.652 192.552 189.465 192.41 189.312C192.139 188.995 191.816 188.76 191.431 188.67C191.242 188.639 191.024 188.629 190.811 188.672C188.762 189.115 188.845 191.052 188.342 192.541C187.734 194.351 187.261 196.209 186.727 198.044C186.51 198.814 186.224 199.534 185.861 200.176C185.484 200.815 185.02 201.363 184.394 201.793C183.986 202.076 183.509 202.31 182.954 202.465C179.381 203.152 175.806 203.85 172.234 204.537C171.75 204.34 171.253 204.142 170.767 203.958C172.074 202.679 173.61 201.58 174.687 200.133C175.321 199.262 175.795 198.262 175.936 197.012C176.019 196.584 176.1 196.168 176.115 195.768C176.184 194.558 175.835 193.539 174.239 193.199C173.279 192.989 172.622 193.219 172.182 193.693C171.963 193.929 171.795 194.24 171.662 194.582C171.528 194.923 171.437 195.324 171.37 195.729C171.115 195.947 170.895 196.183 170.713 196.426C170.056 197.28 169.683 198.297 169.311 199.301C169.04 200.01 168.77 200.707 168.38 201.357C168.185 201.676 167.978 201.992 167.713 202.274C167.501 202.538 167.269 202.772 167.041 202.982C166.468 203.485 165.842 203.837 165.178 204.105C163.922 204.6 162.527 204.761 161.107 204.839C159.791 204.207 158.42 203.982 157.001 204.45C156.95 204.364 156.896 204.303 156.829 204.24C156.638 204.066 156.391 203.999 156.123 203.981C156.097 203.977 156.06 203.971 156.035 203.967C155.548 203.939 154.987 204.054 154.507 203.989C154.482 203.984 154.457 203.98 154.432 203.976C153.917 203.891 153.516 203.579 153.442 202.618C153.743 202.434 154.047 202.237 154.335 202.05C155.438 201.231 156.753 200.538 157.657 199.595C158.562 198.639 159.07 197.437 158.554 195.546C158.689 194.1 158.248 193.482 157.63 193.315C156.999 193.147 156.174 193.453 155.49 193.847C154.502 194.438 153.698 195.398 152.954 196.393C152.705 196.729 152.471 197.054 152.247 197.394C151.593 198.313 150.915 199.215 150.177 200.016C149.455 200.794 148.66 201.469 147.745 202.007C147.088 202.393 146.378 202.705 145.581 202.925C141.831 201.386 137.572 201.297 133.957 199.339C133.435 199.058 132.931 198.741 132.449 198.376C132.771 197.987 133.192 197.784 133.621 197.607C134.048 197.444 134.509 197.312 134.894 197.089C135.15 196.949 135.392 196.807 135.637 196.652C136.127 196.343 136.594 196.017 137.014 195.657C137.437 195.285 137.814 194.879 138.121 194.423C138.583 193.732 138.884 192.924 138.941 191.946C138.988 191.032 138.777 190.036 137.639 189.654C136.39 189.241 135.463 189.543 134.659 190.112C133.855 190.682 133.192 191.496 132.469 192.13C131.822 192.687 131.163 193.241 130.512 193.745C130.07 194.075 129.631 194.392 129.183 194.682C128.287 195.263 127.362 195.708 126.388 195.977C125.902 196.105 125.398 196.191 124.891 196.212C124.631 196.221 124.373 196.218 124.105 196.2C123.582 196.166 123.031 196.062 122.467 195.879C121.901 195.708 121.323 195.457 120.719 195.124C118.83 194.125 116.944 193.113 114.189 191.647C115.557 191.495 116.707 191.255 117.705 190.913C119.372 190.355 120.63 189.535 121.762 188.461C122.159 188.085 122.479 187.708 122.703 187.29C123.073 186.611 123.135 185.841 122.637 184.863C122.413 184.423 122.177 184.125 121.924 183.94C121.165 183.374 120.262 183.758 119.243 184.071C117.787 184.521 116.59 185.208 115.387 186.166C113.049 188.056 110.928 188.786 108.676 188.429C107.331 188.208 105.933 187.601 104.407 186.597C104.185 186.456 103.965 186.303 103.744 186.15C103.233 185.806 102.711 185.448 102.178 185.074C100.962 184.225 99.6917 183.314 98.2451 182.297C100.549 181.948 102.308 181.848 103.969 181.406C104.497 181.259 104.97 181.051 105.363 180.777C105.757 180.504 106.081 180.181 106.323 179.805C106.687 179.241 106.862 178.568 106.828 177.835C106.817 177.586 106.768 177.332 106.707 177.075C106.419 175.923 105.8 175.366 105.027 175.2C104.252 175.047 103.335 175.286 102.47 175.755C100.082 177.012 97.8203 177.732 95.6922 177.798C94.9905 177.826 94.3034 177.765 93.6266 177.641C91.9483 177.326 90.3742 176.535 88.9167 175.191C88.0421 174.384 87.2114 173.39 86.4139 172.194C86.353 172.093 86.2628 172.013 86.1601 171.931C85.9525 171.78 85.6863 171.672 85.4222 171.55C85.2902 171.49 85.1707 171.431 85.0533 171.36C85.0658 171.284 84.9923 171.181 84.8183 171.061L84.7932 171.057C83.7548 169.834 82.7037 168.609 81.6653 167.386C81.5248 167.22 81.3737 167.039 81.2332 166.873C81.2748 166.698 81.327 166.538 81.3896 166.392C81.5797 165.943 81.8851 165.577 82.461 165.451C83.0919 165.776 83.754 165.91 84.4118 165.993C85.4887 166.118 86.5736 166.036 87.6418 165.9C88.4858 165.791 89.1683 165.488 89.6914 165.054C89.8714 164.902 90.0262 164.745 90.16 164.559C90.4382 164.202 90.6346 163.793 90.7492 163.331C90.8638 162.869 90.9051 162.382 90.8499 161.853C90.7671 160.943 90.4354 160.369 89.9595 160.044C89.4836 159.719 88.855 159.616 88.191 159.65C87.7491 159.668 87.2716 159.745 86.8172 159.84C86.5512 159.887 86.3041 159.976 86.0466 160.051C85.5335 160.187 85.0184 160.337 84.5012 160.498C84.2437 160.573 83.9966 160.662 83.739 160.737C81.2194 160.986 78.8662 160.3 76.5045 159.587C76.2593 159.508 76.0121 159.441 75.7669 159.362C71.9116 153.597 68.7701 147.494 66.0557 141.149C63.3413 134.805 61.0665 128.221 58.9444 121.493C58.271 122.369 58.1191 123.137 58.1723 123.834C58.2042 124.19 58.28 124.515 58.3935 124.845C58.4966 125.161 58.6122 125.479 58.7173 125.782C59.3607 127.681 60.0187 129.569 60.704 131.448C62.0745 135.207 63.556 138.92 65.205 142.556C66.0284 144.38 66.8832 146.17 67.7904 147.956C68.5443 149.419 69.2082 150.957 69.9558 152.457C70.1973 152.951 70.4639 153.45 70.7201 153.934C71.2576 154.905 71.8369 155.858 72.5314 156.739C73.2133 157.617 73.9957 158.434 74.9099 159.156C74.8995 159.22 74.9415 159.278 75.0296 159.371C75.3571 159.97 75.6972 160.572 76.0248 161.171C76.005 165.456 74.5354 169.45 73.4785 173.525C73.0574 175.144 73.2959 176.522 74.3862 177.35C74.7531 177.632 75.2101 177.837 75.78 177.982C76.3374 178.126 76.7773 178.12 77.1458 177.999C77.8682 177.767 78.2611 177.104 78.5429 176.331C78.6849 175.939 78.8038 175.53 78.9352 175.123C79.1001 174.591 79.2376 174.068 79.3501 173.541C79.4625 173.014 79.5247 172.478 79.5596 171.951C79.6169 170.895 79.4815 169.834 79.0633 168.765C79.1049 168.512 79.1444 168.271 79.1734 168.016C79.0994 167.445 79.0253 166.874 78.9534 166.291C79.4374 166.409 79.9194 166.541 80.4013 166.672C80.393 166.722 80.4224 166.779 80.4895 166.842C81.0631 168.223 81.9192 169.377 83.0348 170.288C83.4101 170.596 83.8147 170.883 84.2361 171.148C84.306 171.744 84.5454 172.251 84.8769 172.669C85.0364 172.877 85.2231 173.077 85.4265 173.253C85.6299 173.429 85.85 173.582 86.0702 173.736C88.2777 175.151 89.987 176.77 91.1686 178.614C91.9494 179.834 92.5062 181.159 92.8159 182.574C92.9697 183.288 93.0566 184.017 93.0868 184.776C93.1171 185.534 93.0909 186.322 92.9956 187.138C92.9002 187.954 92.7379 188.785 92.517 189.658C92.3127 190.43 92.341 191.279 92.3755 192.09C92.4163 192.864 92.5868 193.554 92.8975 194.099C93.2082 194.644 93.6571 195.055 94.2522 195.283C94.6525 195.44 95.1051 195.514 95.6392 195.485C96.9902 195.434 97.7351 194.751 98.1402 193.778C98.3909 193.196 98.5052 192.5 98.5734 191.771C98.6229 191.155 98.5782 190.563 98.4831 189.963C98.3142 188.87 97.9651 187.773 97.6242 186.548C97.3085 185.404 97.0095 184.16 96.8861 182.711C97.1986 183.009 97.5237 183.309 97.8676 183.573C100.541 185.767 103.723 187.069 106.201 188.957C108.369 190.613 109.97 192.734 110.209 196.307C109.842 197.832 109.865 199.343 110.068 200.857C110.14 201.363 110.227 201.858 110.326 202.355C110.416 202.824 110.549 203.275 110.727 203.681C110.906 204.087 111.128 204.461 111.401 204.766C111.577 204.951 111.772 205.1 111.995 205.24C112.477 205.527 113.072 205.677 113.809 205.59C114.322 205.532 114.724 205.364 115.023 205.114C115.335 204.867 115.555 204.552 115.718 204.189C115.881 203.826 115.985 203.427 116.053 203.01C116.122 202.592 116.176 202.185 116.215 201.789C116.391 200.324 116.103 198.938 115.347 197.723C115.091 197.317 114.793 196.93 114.439 196.573C114.429 195.376 113.01 194.584 113.494 193.131C115.862 194.04 118.184 194.915 120.517 195.805C120.879 196.033 121.269 196.253 121.646 196.471C122.806 197.116 124 197.703 125.036 198.47C125.726 198.987 126.34 199.568 126.815 200.296C127.289 201.023 127.638 201.886 127.784 202.963C127.87 203.224 127.916 203.491 127.961 203.771C128.028 204.224 128.044 204.681 128.069 205.153C128.091 205.65 128.115 206.135 128.163 206.624C128.208 207.06 128.278 207.5 128.429 207.915C128.614 208.439 128.893 208.939 129.361 209.393C129.374 209.941 129.465 210.41 129.618 210.812C129.854 211.423 130.233 211.862 130.745 212.128C131.258 212.381 131.904 212.461 132.674 212.328C133.194 212.231 133.621 212.068 133.956 211.837C134.29 211.606 134.533 211.308 134.707 210.96C134.788 210.778 134.857 210.595 134.915 210.397C135.065 209.798 135.062 209.109 134.942 208.348C134.657 206.547 133.943 205.001 132.971 203.607C132.386 202.77 131.729 201.974 130.955 201.262C131.035 201.249 131.11 201.261 131.188 201.261C136.179 200.899 140.485 203.685 145.231 204.426C146.501 205.414 146.644 207.452 148.45 207.93C148.064 210.127 149.488 211.83 150.196 213.648C150.387 214.134 150.614 214.639 150.887 215.1C151.16 215.56 151.504 215.981 151.89 216.304C152.483 216.778 153.206 217.014 154.109 216.785L153.966 216.788Z" fill="#FFFDEB" style="mix-blend-mode:multiply"/>
</svg>
