<svg width="24" height="23" viewBox="0 0 24 23" fill="none" xmlns="http://www.w3.org/2000/svg">
<path d="M9.06002 16.5935C9.36653 16.8417 9.7811 17.0915 10.2878 17.2741C10.7941 17.4523 11.3879 17.5698 12.017 17.5683C12.646 17.5598 13.2378 17.4324 13.741 17.2464C14.2445 17.0559 14.6543 16.7993 14.9566 16.5462C15.5618 16.03 15.7421 15.5687 15.6156 15.4566C15.4729 15.3239 15.061 15.5307 14.4431 15.7715C14.1326 15.8908 13.7673 16.0164 13.3555 16.1095C13.2614 16.1297 13.1643 16.1482 13.0661 16.1656C13.0444 16.1694 13.023 16.1728 13.0016 16.1764C12.8075 16.2088 12.6061 16.2348 12.3983 16.2512C12.37 16.2535 12.3419 16.2553 12.3137 16.2572C12.2122 16.2639 12.1099 16.2695 12.0057 16.2712C11.9013 16.2712 11.799 16.2672 11.6973 16.2621C11.6693 16.2607 11.6411 16.2595 11.6129 16.2575C11.4051 16.2444 11.2035 16.2218 11.009 16.1926C10.9872 16.1893 10.9653 16.1861 10.9431 16.1826C10.8446 16.1668 10.7476 16.1498 10.6533 16.1313C10.24 16.0446 9.8725 15.9246 9.55999 15.8106C8.93796 15.5797 8.5225 15.3794 8.38202 15.5145C8.25747 15.6284 8.44605 16.087 9.06002 16.5935Z" fill="#855E3B"/>
<path d="M16.8283 12.6452C17.5674 12.6452 18.1667 12.0719 18.1667 11.3651C18.1667 10.658 17.5673 10.085 16.8283 10.085C16.0891 10.085 15.4902 10.658 15.4902 11.3651C15.4902 12.0719 16.0891 12.6452 16.8283 12.6452Z" fill="#855E3B"/>
<path d="M7.17231 12.6452C7.91145 12.6452 8.51064 12.0721 8.51064 11.3651C8.51064 10.6581 7.91145 10.085 7.17231 10.085C6.43317 10.085 5.83398 10.6581 5.83398 11.3651C5.83398 12.0721 6.43317 12.6452 7.17231 12.6452Z" fill="#855E3B"/>
<path d="M12 0C5.38312 0 0 5.14908 0 11.4783C0 17.8073 5.38312 22.9565 12 22.9565C18.6167 22.9565 24 17.8073 24 11.4783C24 5.14908 18.6167 0 12 0ZM2.53659 12.3044C2.17256 8.38415 4.42931 4.91579 7.81659 3.32022C7.06219 5.13316 7.44127 7.28269 8.96489 8.75652C9.81666 9.5804 10.9411 9.99322 12.0661 9.99286C13.1078 9.99286 14.1501 9.63909 14.976 8.93044C15.614 8.3833 16.0535 7.63493 16.1707 6.82311C16.329 5.72635 15.9561 4.66515 15.1616 3.89642C14.5009 3.25714 13.5458 2.96744 12.6158 3.09635C9.93844 3.46715 9.42103 6.22355 11.0862 7.50754C11.4544 7.79127 11.9215 7.93278 12.3945 7.93278H12.4069C12.4137 7.93278 12.4205 7.93278 12.4271 7.9326C13.2044 7.92578 13.5705 7.00367 13.0346 6.47033C13.0334 6.46894 13.0326 6.46701 13.0312 6.46558C13.0312 6.46576 13.031 6.46576 13.031 6.46576C13.029 6.46419 13.0279 6.46226 13.026 6.46047C12.8554 6.62161 12.63 6.70357 12.3879 6.70393C12.1509 6.70411 11.9341 6.60641 11.7696 6.44334C11.1063 5.78634 11.3781 4.58382 12.5752 4.37313C13.4895 4.21216 14.3793 4.64336 14.7402 5.46289C14.912 5.85311 14.9658 6.29027 14.8845 6.73388C14.7986 7.2031 14.5406 7.63502 14.1788 7.96233C12.9692 9.05612 11.0547 9.03039 9.87844 7.89247C8.38505 6.44773 8.34492 4.14719 9.73997 2.6513C11.0169 2.35215 12.3921 2.29453 13.8143 2.55584C14.8675 2.74936 15.8562 3.11191 16.7516 3.61018C18.5433 4.61534 19.9682 6.17064 20.7756 8.00281C21.1751 8.91811 21.4215 9.90453 21.4849 10.9295C21.8152 16.2776 17.2799 20.7143 11.7238 20.5628C11.7087 20.5625 11.6937 20.5614 11.6785 20.5611C11.5099 20.5556 11.3407 20.5468 11.1704 20.533C10.0339 20.4402 8.95134 20.1516 7.96055 19.7025C5.98448 18.8003 4.36622 17.2578 3.41587 15.3711C2.94305 14.425 2.63747 13.391 2.53659 12.3044Z" fill="#855E3B"/>
</svg>
