<svg width="16" height="16" viewBox="0 0 16 16" fill="none" xmlns="http://www.w3.org/2000/svg">
<path fill-rule="evenodd" clip-rule="evenodd" d="M15.7119 13.8622C15.218 15.3629 13.2832 16.1114 11.9008 15.9866C10.0128 15.8159 7.9585 14.8145 6.39908 13.7116C4.10687 12.0904 1.95973 9.58246 0.708563 6.9212C-0.17568 5.04071 -0.374072 2.72867 0.941092 1.01459C1.42748 0.381003 1.95333 0.04262 2.74371 0.0031544C3.84021 -0.0501775 3.99381 0.577114 4.37033 1.55415C4.65086 2.2848 5.02525 3.03011 5.23431 3.78743C5.62576 5.20072 4.25727 5.25979 4.08447 6.41496C3.97674 7.14347 4.85992 8.12045 5.25884 8.6399C6.04069 9.65747 6.98039 10.5351 8.04063 11.2029C8.64755 11.5858 9.62779 12.2758 10.3232 11.895C11.3941 11.3084 11.2928 9.50264 12.7904 10.1138C13.5658 10.4295 14.3167 10.8852 15.057 11.2841C16.2015 11.8996 16.1481 12.5374 15.7119 13.8622C16.0383 12.8723 15.3855 14.852 15.7119 13.8622Z" fill="#855E3B"/>
</svg>
