<svg width="41" height="41" viewBox="0 0 41 41" fill="none" xmlns="http://www.w3.org/2000/svg">
<g clip-path="url(#clip0_275_55234)">
<path d="M20.1162 0.835938C31.201 0.836064 40.2305 8.21237 40.2305 17.2568C40.2304 20.8783 38.8171 24.14 35.9141 27.3633C31.6914 32.255 22.2659 38.189 20.1162 39.0996C17.9678 40.0094 18.2868 38.532 18.3623 38.0195C18.4 37.8173 18.4947 37.2418 18.6455 36.2939C18.7209 35.763 18.7962 34.9661 18.5889 34.4541C18.3625 33.8854 17.4761 33.6009 16.8164 33.4492C7.14579 32.1787 0.00121502 25.372 0.000976562 17.2568C0.000976562 8.2123 9.01246 0.835938 20.1162 0.835938ZM6.66211 12.5752C6.45474 12.5752 6.28517 12.7455 6.28516 12.9541V21.79C6.28516 21.9986 6.45474 22.1689 6.66211 22.1689H12.3174C12.5248 22.1689 12.6943 21.9986 12.6943 21.79V20.3486C12.6941 20.1402 12.5246 19.9697 12.3174 19.9697H8.47168V12.9541C8.47167 12.7455 8.30209 12.5752 8.09473 12.5752H6.66211ZM14.2783 12.5752C14.0701 12.5752 13.9014 12.7447 13.9014 12.9541V21.79C13.9014 21.9994 14.0702 22.1689 14.2783 22.1689H15.71C15.9181 22.1689 16.0869 21.9994 16.0869 21.79V12.9541C16.0869 12.7447 15.9181 12.5752 15.71 12.5752H14.2783ZM17.8604 12.5752C17.653 12.5752 17.4639 12.7455 17.4639 12.9541V21.79C17.4639 21.9986 17.653 22.1689 17.8604 22.1689H19.2744C19.5004 22.1687 19.6699 21.9985 19.6699 21.79V16.5381L23.6855 21.999C23.7106 22.0367 23.7417 22.0686 23.7793 22.0938H23.7988C23.799 22.1061 23.805 22.1123 23.8174 22.1123C23.8179 22.1128 23.8241 22.119 23.8359 22.1309H23.874V22.1504H23.9111C23.9363 22.163 23.9682 22.1689 24.0059 22.1689H25.4199C25.646 22.1688 25.8154 21.9985 25.8154 21.79V12.9541C25.8154 12.7456 25.646 12.5753 25.4199 12.5752H24.0059C23.7985 12.5752 23.6104 12.7455 23.6104 12.9541V18.1875L19.5947 12.7451C19.5946 12.7326 19.5877 12.7196 19.5752 12.707C19.5629 12.6946 19.5504 12.6823 19.5381 12.6699C19.5265 12.6583 19.5204 12.6513 19.5195 12.6504C19.5195 12.6504 19.5126 12.6504 19.5 12.6504C19.4999 12.6379 19.4939 12.6319 19.4814 12.6318C19.4814 12.6318 19.4814 12.6249 19.4814 12.6123H19.4434C19.4312 12.6 19.4249 12.5939 19.4248 12.5938H19.4062C19.3938 12.5938 19.3869 12.5876 19.3867 12.5752H17.8604ZM27.5684 12.5752C27.3611 12.5754 27.1914 12.7456 27.1914 12.9541V21.79C27.1914 21.9985 27.3612 22.1688 27.5684 22.1689H33.2246C33.4318 22.1688 33.6015 21.9985 33.6016 21.79V20.3486C33.6014 20.1403 33.4317 19.9699 33.2246 19.9697H29.3789V18.4717H33.2246C33.4317 18.4715 33.6014 18.3011 33.6016 18.0928V16.6514C33.6015 16.443 33.4318 16.2727 33.2246 16.2725H29.3789V14.7744H33.2246C33.4317 14.7742 33.6013 14.6038 33.6016 14.3955V12.9541C33.6016 12.7456 33.4318 12.5754 33.2246 12.5752H27.5684Z" fill="black"/>
</g>
<defs>
<clipPath id="clip0_275_55234">
<rect width="40.2299" height="40.2299" fill="white"/>
</clipPath>
</defs>
</svg>
