<svg width="19" height="24" viewBox="0 0 19 24" fill="none" xmlns="http://www.w3.org/2000/svg">
<path d="M18.7652 22.5479V11.4011C18.7652 10.6 18.0855 9.95215 17.2477 9.95215H14.9579H12.5101H6.25514H3.8075H1.51746C0.677111 9.95215 0 10.6 0 11.4011V22.5479C0 23.3492 0.677111 23.9996 1.51746 23.9996H17.2477C18.0854 23.9996 18.7652 23.3492 18.7652 22.5479ZM10.7994 16.5909C10.3915 16.9967 10.1985 17.5559 10.1985 18.1179V19.7723C10.1985 20.4512 9.28462 20.9301 8.56678 20.1469V17.8057C8.56678 17.3686 8.36806 16.9577 8.03365 16.6585C7.63396 16.3021 7.39177 15.7897 7.41093 15.2198C7.42456 14.7985 7.58765 14.3433 7.93583 13.9037C8.23251 13.6872 8.53458 13.5472 8.83058 13.4704C8.8371 13.4688 8.84381 13.467 8.85048 13.4653C9.24482 13.3667 9.62712 13.3817 9.96937 13.4839C9.97168 13.4846 9.97398 13.4854 9.97648 13.4861C10.5804 13.6689 11.0588 14.1222 11.2554 14.6981C11.2556 14.6983 11.2556 14.6987 11.2556 14.6987C11.3119 14.8636 11.345 15.0385 11.3515 15.2198C11.3544 15.2407 11.3544 15.2641 11.3544 15.2849C11.3544 15.7922 11.1421 16.2527 10.7994 16.5909Z" fill="#855E3B"/>
<path d="M3.80762 5.33284V9.21015V9.22206V9.22956H6.23992H6.24722H6.25526V5.33284C6.25526 3.68343 7.65574 2.34125 9.3828 2.34125C11.107 2.34125 12.5102 3.68343 12.5102 5.33284V9.22956H14.958V5.33284C14.958 2.393 12.4558 0 9.3828 0C6.30691 0 3.80762 2.393 3.80762 5.33284Z" fill="#855E3B"/>
</svg>
