<svg width="152" height="33" viewBox="0 0 152 33" fill="none" xmlns="http://www.w3.org/2000/svg">
<path d="M18.9835 24.3406C19.2049 24.4726 19.2943 24.7622 19.1836 25.0049L18.2085 27.381C18.0083 27.8239 17.6762 27.892 17.2972 27.5812L16.8543 27.2022C16.5222 26.9339 16.19 27.0489 16.0112 27.4023C15.0999 29.2249 13.6564 30.711 11.4591 31.9076C11.2802 32.0183 11.0375 31.997 10.8587 31.865L9.17237 30.4896C8.7508 30.1362 8.79338 29.7785 9.28309 29.5145C11.5272 28.3817 12.7706 26.9169 13.4562 25.4733C13.5882 25.2051 13.4775 24.941 13.2135 24.809C12.1489 24.2555 10.9949 23.8339 9.79408 23.5869C9.55136 23.5188 9.30438 23.655 9.19366 23.8978C8.48253 25.4946 7.7501 27.1852 7.08581 28.2497C6.20008 29.6039 5.10996 30.2937 3.48755 30.2937C1.4904 30.2937 0 28.9609 0 26.606C0 23.4081 2.84028 20.8999 6.9027 20.5465C7.10284 20.5252 7.28169 20.3889 7.36685 20.2143L8.23129 18.1491C8.45272 17.6381 8.25258 17.3059 7.699 17.3272C6.96657 17.3485 6.10214 17.3953 5.45488 17.4379L4.27959 17.5486C3.9006 17.5912 3.65788 17.3953 3.63659 17.0164L3.54716 15.0405C3.52587 14.6615 3.78988 14.4188 4.16887 14.4614C4.61174 14.4827 5.05886 14.504 5.36971 14.504C6.61314 14.504 8.56769 14.4358 9.56414 14.3507C10.0283 14.3294 10.518 14.2399 10.897 14.1079C11.0971 14.0398 11.3186 14.0866 11.4761 14.1974L12.7408 15.1981C13.0304 15.4195 13.0517 15.7516 12.809 16.0199C12.6514 16.1988 12.5194 16.3733 12.43 16.5309C11.9871 17.3102 11.3867 18.6643 10.7863 20.1036C10.6287 20.4826 10.8076 20.7679 11.1865 20.8573C12.2511 21.1256 13.2518 21.4109 14.1844 21.8112C14.227 21.8112 14.2738 21.8112 14.3164 21.7899L14.3845 21.7473V21.6366C14.4271 20.9936 14.4527 20.3932 14.4271 19.8609C14.4058 19.4393 14.6485 19.1711 15.0701 19.2392L17.1567 19.4606C17.4675 19.5032 17.6677 19.7289 17.6464 20.0397C17.5783 21.0617 17.4675 22.0369 17.3355 22.9269C17.3142 23.1483 17.425 23.3697 17.6251 23.506C18.1148 23.7956 18.5577 24.0851 18.9366 24.3491H18.9792L18.9835 24.3406ZM4.53083 26.1376C4.86298 25.6266 5.26326 24.8942 5.64224 24.0724C5.82109 23.7189 5.66354 23.5188 5.28881 23.6508C3.80266 24.1405 2.98081 25.1625 2.98081 26.095C2.98081 26.5379 3.22353 26.8743 3.53439 26.8743C3.93467 26.8743 4.19868 26.6529 4.53509 26.1419L4.53083 26.1376Z" fill="#855E3B"/>
<path d="M40.2062 21.6985L42.4035 21.2343C42.6249 21.1917 42.8463 21.2769 42.957 21.4557C44.1579 23.1889 44.7115 24.5856 44.7115 26.2719C44.7115 29.4699 41.8456 31.9354 37.0295 31.9354C33.4781 31.9354 31.1232 30.4024 31.1232 26.8723C31.1232 26.5189 31.1445 26.0504 31.1914 25.4713C31.2339 25.1392 31.0338 24.8922 30.7017 24.8496C29.6584 24.7389 28.7258 24.56 27.9252 24.3855C27.6612 24.3173 27.4824 24.0959 27.5037 23.8319L27.5931 21.9454C27.6144 21.5026 27.9039 21.3024 28.3255 21.4345C29.2581 21.7027 30.1694 21.8773 31.0551 21.988C31.3659 22.0093 31.6087 21.8092 31.6555 21.4983L31.8131 20.2549C31.8557 19.9228 31.6555 19.6758 31.3234 19.6332C30.3014 19.5012 29.2794 19.301 28.3724 19.0796C28.1083 19.0115 27.9295 18.7901 27.9508 18.526L28.0189 16.7716C28.0402 16.3288 28.3511 16.1286 28.7726 16.2606C29.6626 16.4821 30.6378 16.6609 31.6811 16.7716C32.0345 16.8142 32.2602 16.6183 32.3028 16.2606C32.3241 16.0179 32.3241 15.7965 32.3454 15.5708C32.3666 15.1279 32.4135 14.6382 32.4135 14.1272C32.4135 13.7269 32.6349 13.5055 33.0352 13.5268L35.2793 13.6375C35.6796 13.6588 35.8797 13.9484 35.7903 14.3274C35.6796 14.8809 35.6115 15.3281 35.522 15.7709C35.5008 15.9029 35.4539 16.1031 35.4326 16.3245V16.3671C35.3645 16.6992 35.5646 16.9207 35.901 16.8994C36.7868 16.8781 37.5873 16.8312 38.2303 16.7674C38.6519 16.6992 38.9202 16.9249 38.8946 17.3465L38.8265 19.1903C38.8052 19.4586 38.6051 19.68 38.3368 19.7013C37.4468 19.7908 36.5824 19.8333 35.4071 19.8589C35.1175 19.8589 34.8961 20.059 34.8535 20.323L34.7215 21.5665C34.6789 21.9454 34.9003 22.1882 35.2751 22.1882C36.1395 22.1669 37.1615 22.0775 38.0941 21.988C38.473 21.9455 38.7371 22.1882 38.7158 22.5672L38.6732 24.4323C38.6519 24.7219 38.4518 24.9433 38.1622 24.9646C37.2722 25.054 36.2545 25.1221 35.2112 25.1221H34.7896C34.5213 25.1221 34.3255 25.301 34.2999 25.5437C34.2786 25.8546 34.2786 26.1228 34.2786 26.3187C34.2786 27.873 35.2538 28.648 37.1445 28.648C39.8953 28.648 41.275 27.3365 41.275 25.8503C41.275 24.7176 40.764 23.6956 39.8996 22.6736C39.4993 22.2052 39.61 21.8305 40.2104 21.6985H40.2062Z" fill="#855E3B"/>
<path d="M72.2716 24.3406C72.493 24.4726 72.5824 24.7622 72.4717 25.0049L71.4966 27.381C71.2964 27.8239 70.9643 27.892 70.5853 27.5812L70.1424 27.2022C69.8103 26.9339 69.4781 27.0489 69.2993 27.4023C68.388 29.2249 66.9444 30.711 64.7472 31.9076C64.5683 32.0183 64.3256 31.997 64.1467 31.865L62.4605 30.4896C62.0389 30.1362 62.0815 29.7785 62.5712 29.5145C64.8153 28.3817 66.0587 26.9169 66.7443 25.4733C66.8763 25.2051 66.7656 24.941 66.5016 24.809C65.437 24.2555 64.283 23.8339 63.0822 23.5869C62.8394 23.5188 62.5925 23.655 62.4817 23.8978C61.7706 25.4946 61.0382 27.1852 60.3739 28.2497C59.4882 29.6039 58.398 30.2937 56.7756 30.2937C54.7785 30.2937 53.2881 28.9609 53.2881 26.606C53.2881 23.4081 56.1284 20.8999 60.1908 20.5465C60.3909 20.5252 60.5698 20.3889 60.6549 20.2143L61.5194 18.1491C61.7408 17.6381 61.5407 17.3059 60.9871 17.3272C60.2547 17.3485 59.3902 17.3953 58.743 17.4379L57.5677 17.5486C57.1887 17.5912 56.946 17.3953 56.9247 17.0164L56.8352 15.0405C56.814 14.6615 57.078 14.4188 57.457 14.4614C57.8998 14.4827 58.3469 14.504 58.6578 14.504C59.9012 14.504 61.8558 14.4358 62.8522 14.3507C63.3164 14.3294 63.8061 14.2399 64.1851 14.1079C64.3852 14.0398 64.6066 14.0866 64.7642 14.1974L66.0289 15.1981C66.3185 15.4195 66.3398 15.7516 66.097 16.0199C65.9395 16.1988 65.8075 16.3733 65.7181 16.5309C65.2752 17.3102 64.6748 18.6643 64.0744 20.1036C63.9168 20.4826 64.0956 20.7679 64.4746 20.8573C65.5392 21.1256 66.5399 21.4109 67.4725 21.8112C67.5151 21.8112 67.5619 21.8112 67.6045 21.7899L67.6726 21.7473V21.6366C67.7152 20.9936 67.7407 20.3932 67.7152 19.8609C67.6939 19.4393 67.9366 19.1711 68.3582 19.2392L70.4448 19.4606C70.7556 19.5032 70.9558 19.7289 70.9345 20.0397C70.8663 21.0617 70.7556 22.0369 70.6236 22.9269C70.6023 23.1483 70.713 23.3697 70.9132 23.506C71.4029 23.7956 71.8457 24.0851 72.2247 24.3491H72.2673L72.2716 24.3406ZM57.8147 26.1376C58.1468 25.6266 58.5471 24.8942 58.9261 24.0724C59.1049 23.7189 58.9474 23.5188 58.5726 23.6508C57.0865 24.1405 56.2646 25.1625 56.2646 26.095C56.2646 26.5379 56.5074 26.8743 56.8182 26.8743C57.2185 26.8743 57.4825 26.6529 57.8189 26.1419L57.8147 26.1376Z" fill="#855E3B"/>
<path d="M94.985 16.5699H98.7579C99.09 16.5699 99.3114 16.7913 99.3114 17.1234C99.3114 17.413 99.2901 17.7664 99.2901 17.9453C99.0687 26.7387 98.8004 30.0005 98.068 31.0651C97.4889 31.9082 96.9566 32.1765 96.1347 32.3511C95.5343 32.4618 94.7338 32.4831 93.848 32.4831C93.5159 32.4831 93.3157 32.283 93.2476 31.9721C93.1795 31.4824 93.0475 30.9501 92.8473 30.4391C92.6259 29.8387 92.826 29.5278 93.469 29.5278C93.9119 29.5491 94.2909 29.5491 94.5549 29.5491C94.8658 29.5491 95.1085 29.4384 95.3086 29.1489C95.7515 28.5484 96.0198 26.0403 96.1518 20.134C96.1731 19.7806 95.9516 19.5549 95.5982 19.5549H94.9765C94.6443 19.5549 94.4229 19.7763 94.4229 20.1085C94.3548 24.3029 93.4222 28.7912 89.4066 32.2106C89.1639 32.432 88.8531 32.3894 88.6274 32.1424C88.1377 31.6527 87.5159 31.1417 86.9411 30.7202C86.7196 30.5669 86.7196 30.3412 86.9198 30.1879L86.9624 30.1453L87.0731 30.0346L87.1157 29.992C87.2051 29.9239 87.2732 29.7706 87.2732 29.613V29.5704C87.2306 29.4597 87.1157 29.3703 87.005 29.4129H86.9624C84.697 29.9239 82.389 30.4349 80.4131 30.8777C80.081 30.9672 79.8127 30.7883 79.7488 30.4562L79.3698 28.4803C79.3017 28.1482 79.4805 27.8799 79.8127 27.8373L80.2343 27.7692C80.3663 27.7479 80.5025 27.6585 80.5877 27.5477C81.3201 26.5045 82.0994 25.261 82.8744 23.9495C82.9851 23.7706 82.9638 23.5279 82.8318 23.3491C81.9205 22.1951 80.6771 20.9048 79.5913 19.8615C79.3911 19.6827 79.3485 19.3974 79.5018 19.1717L80.6771 17.2384C80.8091 16.9957 81.0774 16.9701 81.2988 17.149C81.499 17.3278 81.7417 17.281 81.878 17.0383C82.4784 15.7523 83.0532 14.33 83.4748 13.044C83.5855 12.7118 83.8751 12.5756 84.2072 12.6905L86.2512 13.423C86.6047 13.5337 86.7154 13.8445 86.5834 14.1767C85.7615 15.8885 84.8503 17.6387 84.0071 19.061C83.8751 19.2824 83.9177 19.5507 84.0965 19.7508L84.2541 19.9509L84.2967 19.9935C84.5862 20.2831 84.8971 20.2362 85.0717 19.8615C85.472 19.0397 85.8509 18.2178 86.1618 17.4428C86.2938 17.1532 86.5621 17.0212 86.8517 17.1107L88.1164 17.5109C88.4272 17.6216 88.6486 17.4684 88.6486 17.1107C88.6486 16.7785 88.8701 16.5571 89.2022 16.5571H90.7565C91.0887 16.5571 91.3101 16.3356 91.3101 16.0035V13.2271C91.3101 12.8949 91.5315 12.6735 91.8637 12.6735H93.8608C94.193 12.6735 94.4144 12.8949 94.4144 13.2271V16.0035C94.4144 16.3356 94.6358 16.5571 94.968 16.5571L94.985 16.5699ZM85.127 26.8281L86.0809 26.6067C86.3023 26.5641 86.3918 26.4065 86.3236 26.2064C86.2342 25.8955 86.1235 25.606 86.0128 25.3419C85.8808 24.9885 85.6338 24.963 85.4336 25.2994L84.7693 26.3214C84.5266 26.7216 84.6586 26.9218 85.1228 26.8323L85.127 26.8281ZM87.1668 23.562L87.8311 23.2724C88.0099 23.183 88.1845 23.2511 88.2526 23.4257C88.6955 24.2689 89.0958 25.2483 89.4279 26.1553C89.5855 26.5981 89.8282 26.645 90.0283 26.2234C91.029 24.09 91.2718 21.914 91.3143 19.8956C91.3143 19.6954 91.1823 19.5634 90.9822 19.5634H88.8743C88.7636 19.5634 88.6316 19.6316 88.5848 19.7423C87.9844 20.875 87.3839 22.0077 86.7409 23.0936C86.4301 23.6471 86.5834 23.826 87.1625 23.5577L87.1668 23.562Z" fill="#855E3B"/>
<path d="M126.292 29.6264V31.1381C126.292 31.4702 126.071 31.6916 125.739 31.6916H118.789C118.521 31.6916 118.346 31.8705 118.346 32.1345C118.346 32.3985 118.167 32.5774 117.903 32.5774H115.996C115.664 32.5774 115.442 32.3559 115.442 32.0238V21.6122C115.442 21.4334 115.374 21.4121 115.263 21.5228H115.221C115.131 21.6335 114.978 21.6335 114.867 21.5015C114.714 21.2801 114.488 21.0118 114.246 20.7265C114.067 20.5051 113.935 20.5732 113.935 20.8372C113.935 21.1268 113.735 21.3269 113.471 21.3269H112.449C112.406 21.3269 112.338 21.3482 112.291 21.3695C112.248 21.4121 112.223 21.4802 112.248 21.5228C112.248 21.5441 112.27 21.5909 112.291 21.6122C112.312 21.6335 112.334 21.6804 112.359 21.6804C112.87 22.1445 113.982 23.3241 114.535 23.9245C114.714 24.1246 114.714 24.3886 114.578 24.6143L113.666 25.8791C113.313 26.3475 112.934 26.3006 112.666 25.7896C112.423 25.2573 112.223 25.2999 112.223 25.9003V32.028C112.223 32.3602 112.001 32.5816 111.669 32.5816H109.804C109.472 32.5816 109.251 32.3602 109.251 32.028V27.9869C109.251 26.8329 108.961 26.7861 108.407 27.7868L108.007 28.4979C107.654 29.0515 107.253 28.9876 106.985 28.3872C106.742 27.8336 106.453 27.2758 106.185 26.8116C106.074 26.5902 106.095 26.3475 106.227 26.1473C107.092 25.0572 107.892 23.5498 108.535 22.0849C108.735 21.642 108.514 21.3312 108.024 21.3312H106.981C106.649 21.3312 106.427 21.1098 106.427 20.7776V19.0445C106.427 18.7123 106.649 18.4909 106.981 18.4909H108.688C109.021 18.4909 109.242 18.2695 109.242 17.9373V17.1368C109.242 16.7365 108.974 16.5151 108.599 16.5832C108.22 16.6513 107.845 16.7152 107.466 16.762C107.155 16.8046 106.913 16.63 106.845 16.3405V16.2979C106.734 15.9444 106.581 15.5442 106.423 15.1652C106.244 14.7436 106.423 14.4327 106.866 14.3433C108.774 13.9899 110.775 13.5002 112.24 12.8785C112.461 12.789 112.73 12.8572 112.883 13.0318L114.126 14.4966C114.437 14.8501 114.348 15.2078 113.905 15.3611C113.483 15.4931 113.062 15.6038 112.619 15.74C112.376 15.8082 112.219 16.0296 112.219 16.2723V17.9373C112.219 18.2695 112.44 18.4909 112.772 18.4909H113.594C113.752 18.4909 113.905 18.4228 113.994 18.3121C115.216 16.8685 116.281 15.0247 116.945 13.0956C117.035 12.7848 117.299 12.6315 117.61 12.7167L119.432 13.1808C119.786 13.2702 119.943 13.5598 119.811 13.8919C119.611 14.4711 119.39 15.0247 119.121 15.5995C118.921 16.0424 119.1 16.3532 119.611 16.3532H120.075C120.297 16.3532 120.497 16.2212 120.586 15.9998C120.897 15.1098 121.165 14.2241 121.365 13.4022C121.455 13.0914 121.719 12.9125 122.03 12.9807L124.027 13.4022C124.448 13.4704 124.606 13.7812 124.427 14.156L123.763 15.5527C123.495 16.0168 123.695 16.3532 124.253 16.3532H125.296C125.628 16.3532 125.849 16.5747 125.849 16.9068V18.4185C125.849 18.7507 125.628 18.9721 125.296 18.9721H123.673C123.341 18.9721 123.12 19.1935 123.12 19.5257V20.0367C123.12 20.3688 123.341 20.5902 123.673 20.5902H124.896C125.228 20.5902 125.449 20.8117 125.449 21.1438V22.5874C125.449 22.9195 125.228 23.141 124.896 23.141H123.673C123.341 23.141 123.12 23.3624 123.12 23.6945V24.2481C123.12 24.5803 123.341 24.8017 123.673 24.8017H124.896C125.228 24.8017 125.449 25.0231 125.449 25.3553V26.7988C125.449 27.131 125.228 27.3524 124.896 27.3524H123.673C123.341 27.3524 123.12 27.5739 123.12 27.906V28.5064C123.12 28.8386 123.341 29.06 123.673 29.06H125.739C126.071 29.06 126.292 29.2814 126.292 29.6136V29.6264ZM120.228 20.2538V19.3C120.228 19.0998 120.096 18.9678 119.896 18.9678H118.674C118.474 18.9678 118.342 19.0998 118.342 19.3V20.2538C118.342 20.454 118.474 20.586 118.674 20.586H119.896C120.096 20.586 120.228 20.454 120.228 20.2538ZM120.228 24.4738V23.4731C120.228 23.273 120.096 23.141 119.896 23.141H118.674C118.474 23.141 118.342 23.273 118.342 23.4731V24.4738C118.342 24.674 118.474 24.806 118.674 24.806H119.896C120.096 24.806 120.228 24.674 120.228 24.4738ZM118.342 27.6931V28.7364C118.342 28.9365 118.474 29.0685 118.674 29.0685H119.896C120.096 29.0685 120.228 28.9365 120.228 28.7364V27.6931C120.228 27.4929 120.096 27.3609 119.896 27.3609H118.674C118.474 27.3609 118.342 27.4929 118.342 27.6931Z" fill="#855E3B"/>
<path d="M134.238 13.2832H151.446C151.778 13.2832 152 13.5046 152 13.8368V32.041C152 32.3731 151.778 32.5946 151.446 32.5946H149.36C149.138 32.5946 149.006 32.4626 149.006 32.2624C149.006 32.041 148.874 31.909 148.674 31.909H136.908C136.687 31.909 136.555 32.041 136.555 32.2624C136.555 32.4626 136.423 32.5946 136.223 32.5946H134.247C133.915 32.5946 133.693 32.3731 133.693 32.041V13.841C133.693 13.5089 133.915 13.2875 134.247 13.2875L134.238 13.2832ZM136.883 29.1581H148.674C148.874 29.1581 149.006 29.0261 149.006 28.826V16.3492C149.006 16.149 148.874 16.017 148.674 16.017H136.883C136.683 16.017 136.551 16.149 136.551 16.3492V26.1646C136.551 26.4328 136.73 26.5648 136.972 26.4754C137.994 26.1646 139.016 25.7643 139.949 25.3214C140.571 24.9893 140.502 24.7423 139.791 24.7423H138.348C138.148 24.7423 138.016 24.6103 138.016 24.4101V21.4336C138.016 21.2334 138.148 21.1014 138.348 21.1014H147.384C147.584 21.1014 147.716 21.2334 147.716 21.4336V24.2739C147.716 24.3846 147.784 24.4953 147.873 24.5421L148.406 24.8956C148.649 25.0489 148.649 25.2746 148.427 25.4492C148.138 25.6493 147.848 25.8281 147.563 26.0027C147.184 26.2455 147.184 26.4924 147.605 26.6244C147.848 26.7139 148.069 26.7777 148.295 26.8459C148.695 26.9566 148.759 27.178 148.474 27.4889C148.142 27.8679 147.784 28.3107 147.541 28.6897C147.452 28.8217 147.299 28.8899 147.162 28.8217C146.162 28.4896 145.229 27.9999 144.386 27.3995C144.054 27.178 143.832 27.2675 143.832 27.689V28.4427C143.832 28.6429 143.7 28.7749 143.5 28.7749H141.478C141.277 28.7749 141.145 28.6429 141.145 28.4427V27.689C141.145 27.3569 140.945 27.2462 140.656 27.3995C139.902 27.7997 139.144 28.1319 138.39 28.4214C138.233 28.464 138.079 28.4215 137.99 28.3107C137.747 27.9786 137.411 27.5357 137.057 27.1567C136.768 26.8246 136.546 26.9353 136.546 27.3782V28.8217C136.546 29.0219 136.678 29.1539 136.879 29.1539L136.883 29.1581ZM144.143 18.7253C144.143 18.8786 144.254 18.9936 144.411 18.9936H147.942C148.274 18.9936 148.495 19.215 148.495 19.5472V20.1007C148.495 20.4329 148.274 20.6543 147.942 20.6543H137.641C137.309 20.6543 137.087 20.4329 137.087 20.1007V19.5472C137.087 19.215 137.309 18.9936 137.641 18.9936H141.15C141.282 18.9936 141.392 18.8829 141.392 18.7253C141.392 18.5933 141.282 18.4826 141.15 18.4826H138.531C138.199 18.4826 137.977 18.2612 137.977 17.929V17.4393C137.977 17.1072 138.199 16.8857 138.531 16.8857H141.039C141.26 16.8857 141.392 16.7537 141.392 16.5323C141.392 16.3109 141.524 16.1788 141.746 16.1788H143.79C144.011 16.1788 144.143 16.3109 144.143 16.5323C144.143 16.7537 144.275 16.8857 144.497 16.8857H147.184C147.516 16.8857 147.737 17.1072 147.737 17.4393V17.929C147.737 18.2612 147.516 18.4826 147.184 18.4826H144.407C144.25 18.4826 144.139 18.5933 144.139 18.7253H144.143ZM145.05 22.941V22.8984C145.05 22.6983 144.918 22.5663 144.718 22.5663H140.877C140.677 22.5663 140.545 22.6983 140.545 22.8984V22.941C140.545 23.1412 140.677 23.2732 140.877 23.2732H144.718C144.918 23.2732 145.05 23.1412 145.05 22.941ZM144.386 24.7849C144.343 24.8274 144.343 24.8743 144.386 24.8956C144.565 25.0489 144.765 25.2064 144.986 25.3597C145.097 25.4279 145.229 25.4279 145.34 25.3384C145.451 25.2703 145.54 25.1809 145.651 25.117C145.94 24.8956 145.893 24.738 145.519 24.738H144.518C144.45 24.738 144.407 24.7593 144.386 24.7806V24.7849Z" fill="#855E3B"/>
<path d="M4.75718 4.91859H2.51306C2.44493 4.91859 2.40234 4.86749 2.40234 4.80787V4.45869C2.40234 4.39482 2.44493 4.34798 2.51306 4.34798H4.75718C4.80828 4.34798 4.83809 4.31817 4.83809 4.26707V4.02435C4.83809 3.93918 4.90196 3.91363 4.95732 3.90511H4.9701C5.03397 3.90511 5.10636 3.90937 5.14895 3.90937C5.18727 3.90937 5.40444 3.76885 5.58329 3.63684C5.70678 3.55168 5.68975 3.49632 5.54071 3.49632H3.57763C3.5095 3.49632 3.46692 3.44522 3.46692 3.3856V3.05771C3.46692 2.99384 3.5095 2.947 3.57763 2.947H6.43069L6.47328 2.93422C6.47328 2.93422 6.47753 2.93422 6.48605 2.92996H6.52438C6.57548 2.92996 6.64361 2.97255 6.69897 3.01513L6.84801 3.14714C6.84801 3.14714 6.88633 3.18546 6.89059 3.21101C6.89059 3.22379 6.89059 3.23656 6.88633 3.24934L6.86078 3.30044C6.86078 3.30044 6.84801 3.31747 6.84801 3.32599C6.50734 3.67942 5.94525 4.06267 5.49813 4.30114C5.48535 4.30539 5.48109 4.31817 5.48109 4.33094C5.48109 4.34798 5.48535 4.35649 5.50664 4.35649H7.83167C7.89981 4.35649 7.94239 4.40759 7.94239 4.46721V4.81639C7.94239 4.88026 7.89981 4.92711 7.83167 4.92711H5.562C5.5109 4.92711 5.48109 4.95691 5.48109 5.00801V5.9491C5.48109 6.22589 5.42999 6.43454 5.12765 6.53674C4.97861 6.57933 4.77847 6.60488 4.58259 6.60913C4.38245 6.62191 4.17805 6.62191 4.02476 6.62191C3.9694 6.62191 3.93959 6.5921 3.91404 6.55378V6.541L3.87146 6.41751L3.77777 6.20034L3.77352 6.18756C3.76926 6.16201 3.75648 6.13646 3.75648 6.11517C3.75648 6.04704 3.81184 6.03 3.8672 6.03C4.06734 6.03 4.27174 6.04278 4.47614 6.04278C4.55704 6.04278 4.63795 6.04278 4.71886 6.03852C4.8168 6.03426 4.85512 6.02575 4.85512 5.93206V5.00801C4.85512 4.95691 4.82532 4.92711 4.77422 4.92711L4.75718 4.91859ZM3.09219 2.49988V3.22379C3.09219 3.28766 3.04961 3.3345 2.98573 3.3345H2.61526C2.54713 3.3345 2.50454 3.2834 2.50454 3.22379V1.97185C2.50454 1.90797 2.54713 1.86539 2.61526 1.86539H3.254C3.33491 1.86539 3.36472 1.81429 3.32214 1.74616C3.28381 1.68228 3.254 1.62692 3.21142 1.57157C3.14329 1.46511 3.0709 1.36717 3.00276 1.26923C2.98999 1.25219 2.97721 1.22664 2.97721 1.19684C2.97721 1.14574 3.00702 1.11593 3.04535 1.0989L3.2242 1.01373C3.29659 0.983922 3.37749 0.949855 3.41156 0.949855C3.44563 0.949855 3.47543 0.96263 3.49247 0.979663C3.58615 1.0776 4.01198 1.61841 4.01198 1.7419C4.01198 1.793 3.9694 1.82281 3.92681 1.84836H3.90978C3.90978 1.84836 3.89701 1.86539 3.90978 1.86539H4.81254C4.88067 1.86539 4.91048 1.82281 4.88493 1.75893C4.84661 1.67377 4.81254 1.58434 4.7657 1.50343C4.70182 1.3842 4.63369 1.26923 4.56556 1.14574C4.5613 1.14148 4.5613 1.13296 4.5613 1.13296C4.54853 1.11593 4.54427 1.09464 4.54427 1.06909C4.54427 1.01799 4.58259 0.98818 4.62518 0.971147C4.65498 0.958372 4.73589 0.932822 4.81254 0.903014C4.88493 0.877464 4.96584 0.847656 4.99139 0.847656C5.02971 0.847656 5.06378 0.864689 5.08507 0.890239C5.17024 0.98818 5.52368 1.60137 5.52368 1.72061C5.52368 1.77597 5.4598 1.81429 5.40444 1.83984L5.37889 1.85261C5.37889 1.85261 5.36186 1.86539 5.37889 1.86539H6.2263C6.2263 1.86539 6.2774 1.85261 6.29017 1.83558C6.43921 1.63118 6.57973 1.42678 6.70748 1.20961C6.74581 1.13722 6.77987 1.06057 6.81394 0.98818L6.82672 0.975405C6.85227 0.945597 6.88207 0.920047 6.92466 0.920047C6.95446 0.920047 7.05666 0.958372 7.1546 0.983922C7.25254 1.01373 7.359 1.0478 7.38881 1.05631C7.42714 1.06909 7.46972 1.10741 7.46972 1.15425C7.46972 1.19684 7.34623 1.36717 7.227 1.52047C7.17164 1.59286 7.10776 1.66951 7.06092 1.73764C6.99705 1.81855 7.0226 1.86965 7.1248 1.86965H7.73373C7.80187 1.86965 7.84445 1.91223 7.84445 1.97611V3.22804C7.84445 3.29192 7.80187 3.33876 7.73373 3.33876H7.34197C7.27384 3.33876 7.23125 3.28766 7.23125 3.22804V2.50413C7.23125 2.45303 7.20145 2.42323 7.15035 2.42323H3.1731C3.122 2.42323 3.09219 2.45303 3.09219 2.50413V2.49988Z" fill="#855E3B"/>
<path d="M16.2333 4.05044C16.2035 4.05044 16.1822 4.10154 16.1822 4.19948V6.49896C16.1822 6.55432 16.1396 6.60542 16.0715 6.60542H15.7138C15.6457 6.60542 15.6031 6.55432 15.6031 6.49896V4.42091C15.6031 4.3102 15.5903 4.24632 15.5648 4.24632C15.5392 4.24632 15.5094 4.29742 15.4711 4.39536C15.3987 4.61254 15.1049 5.33645 14.9558 5.3918C14.943 5.39606 14.9303 5.3918 14.9175 5.38755L14.8664 5.362L14.8281 5.30664C14.8153 5.28109 14.7642 5.20018 14.7216 5.12779C14.6833 5.05966 14.6407 4.99152 14.6279 4.96172V4.93617L14.6407 4.88507C14.6407 4.88507 14.6407 4.88081 14.645 4.88081V4.86803C15.0793 4.27187 15.3391 3.55222 15.5137 2.84108C15.5307 2.77721 15.4966 2.74314 15.4413 2.74314H14.8579C14.7897 2.74314 14.7472 2.69204 14.7472 2.63243V2.27473C14.7472 2.21086 14.7897 2.16402 14.8579 2.16402H15.5137C15.5648 2.16402 15.5946 2.13421 15.5946 2.08311V0.971692C15.5946 0.916334 15.6371 0.865234 15.7053 0.865234H16.063C16.1311 0.865234 16.1737 0.916334 16.1737 0.971692V2.08311C16.1737 2.13421 16.2035 2.16402 16.2546 2.16402H16.7869C16.855 2.16402 16.8976 2.21511 16.8976 2.27473V2.63243C16.8976 2.6963 16.855 2.74314 16.7869 2.74314H16.2546C16.2035 2.74314 16.1737 2.77295 16.1737 2.82405V3.08381C16.1737 3.08381 16.178 3.11362 16.1907 3.13491C16.3525 3.34356 16.5016 3.56925 16.6549 3.77791C16.7486 3.91418 16.855 4.04618 16.9359 4.18671C16.9402 4.19096 16.9402 4.20374 16.9402 4.21226L16.953 4.25058V4.26336C16.9359 4.33575 16.7102 4.6466 16.6378 4.6466C16.6208 4.6466 16.5995 4.64234 16.5867 4.62957C16.5825 4.62531 16.5697 4.61254 16.5612 4.60402C16.5484 4.59976 16.5484 4.57847 16.5356 4.5657C16.4633 4.43369 16.3951 4.29742 16.3185 4.16116C16.2801 4.08877 16.2461 4.05044 16.2205 4.05044H16.2333ZM19.6229 3.61609C19.674 3.62887 19.7038 3.65868 19.7081 3.70978V3.7481C19.7081 3.7481 19.7038 3.75236 19.7038 3.76088C19.5548 4.22503 19.3376 4.67215 19.0608 5.07669C19.0353 5.11502 19.0438 5.14908 19.0651 5.18315C19.3248 5.4429 19.6229 5.66859 19.9593 5.84744C20.0828 5.91558 20.2191 5.96667 20.3426 6.02629C20.3809 6.04332 20.4277 6.07739 20.4277 6.13275C20.4277 6.17107 20.4022 6.20088 20.3851 6.22643C20.334 6.29031 20.2744 6.34992 20.2233 6.41805C20.1935 6.46915 20.1595 6.51174 20.1297 6.55432L20.1169 6.56709C20.0998 6.60542 20.0615 6.60968 20.0232 6.60968H19.9976C19.9976 6.60968 19.9806 6.60542 19.9721 6.5969C19.4781 6.38399 19.0353 6.05184 18.6648 5.66859C18.635 5.63027 18.5839 5.63027 18.5456 5.66434C18.1283 6.07313 17.63 6.39676 17.0765 6.60116C17.0765 6.60542 17.0637 6.60542 17.0637 6.60542H17.0339C16.9828 6.60968 16.9657 6.60542 16.9402 6.56284C16.9359 6.56284 16.9359 6.55858 16.9274 6.55006C16.8848 6.49896 16.7188 6.24772 16.7188 6.19662C16.7188 6.14126 16.7613 6.11572 16.7997 6.09868C16.9104 6.04758 17.0211 6.01352 17.1361 5.95816C17.5278 5.77079 17.8855 5.51104 18.1879 5.20018C18.2134 5.17037 18.2177 5.13205 18.1921 5.09372C17.9239 4.6977 17.7024 4.26761 17.5363 3.82475V3.78217C17.5321 3.72681 17.5534 3.697 17.6087 3.68423C17.6471 3.67997 17.7195 3.65442 17.7961 3.62887C17.8642 3.61184 17.9451 3.58629 17.975 3.58629C18.0303 3.58629 18.0559 3.61609 18.0814 3.65868C18.1325 3.75662 18.1623 3.86308 18.2134 3.96953C18.3071 4.17393 18.4263 4.37833 18.5541 4.5657C18.5924 4.62957 18.6478 4.62957 18.6861 4.5657C18.7968 4.36556 18.899 4.16116 18.9757 3.94398C19.0182 3.83753 19.0395 3.72681 19.0821 3.62887C19.0991 3.58629 19.1247 3.54796 19.1801 3.54796H19.2099L19.6187 3.62887L19.6229 3.61609ZM16.8721 3.76513H16.8593C16.8337 3.7481 16.8167 3.71404 16.8167 3.68423C16.8167 3.6459 16.8337 3.62035 16.855 3.60332C17.2127 3.24562 17.4171 2.94754 17.6684 2.50468C17.6854 2.46635 17.7195 2.43655 17.7663 2.43655C17.7918 2.43655 17.8855 2.47487 17.9664 2.50468L18.1708 2.58984C18.2092 2.60688 18.2347 2.63243 18.239 2.67501V2.68779L18.2262 2.72611C18.2262 2.72611 18.2262 2.74314 18.2219 2.75166C17.9877 3.17749 17.6471 3.66294 17.2723 3.98657C17.2723 3.99082 17.2681 3.99934 17.2596 3.99934C17.2468 4.01212 17.2298 4.02489 17.2085 4.02489H17.1829L17.1446 4.01212L16.8721 3.76939V3.76513ZM18.3326 1.67005V0.971692C18.3326 0.916334 18.3752 0.865234 18.4434 0.865234H18.8351C18.9033 0.865234 18.9458 0.916334 18.9458 0.971692V1.67431C18.9458 1.72541 18.9757 1.75522 19.0268 1.75522H20.2659C20.334 1.75522 20.3766 1.80632 20.3766 1.86593V2.21511C20.3766 2.27899 20.334 2.32583 20.2659 2.32583H17.0424C16.9743 2.32583 16.9317 2.27473 16.9317 2.21511V1.86593C16.9317 1.80206 16.9743 1.75522 17.0424 1.75522H18.2517C18.3028 1.75522 18.3326 1.72541 18.3326 1.67431V1.67005ZM20.4022 3.77791C20.3639 3.79494 20.2829 3.84604 20.2106 3.88863C20.1297 3.93973 20.0445 3.98231 20.0104 3.98231C19.9593 3.98231 19.9295 3.9525 19.9125 3.91418C19.6783 3.49686 19.3844 3.13491 19.0779 2.76869C19.0608 2.75166 19.0395 2.72611 19.0395 2.68779C19.0395 2.6452 19.0693 2.61539 19.1034 2.5941C19.129 2.58133 19.1971 2.53875 19.2695 2.49616C19.3248 2.46635 19.3887 2.42803 19.4228 2.41525C19.4355 2.41525 19.4483 2.41525 19.4611 2.41951L19.5122 2.44506C19.5122 2.44506 19.5292 2.45784 19.5377 2.45784C19.7038 2.63243 20.4618 3.52241 20.4618 3.69274C20.4618 3.73107 20.4448 3.75662 20.4192 3.77365C20.4192 3.77365 20.415 3.77507 20.4064 3.77791H20.4022Z" fill="#855E3B"/>
<path d="M27.3305 2.62391C27.3561 2.60688 27.3731 2.58559 27.4029 2.58559H27.4455C27.4455 2.58559 27.4498 2.58984 27.4583 2.58984C27.7691 2.70908 28.2759 2.9007 28.5356 3.09658C28.5612 3.11362 28.5867 3.14768 28.5867 3.18175C28.5867 3.21156 28.5314 3.30098 28.4803 3.38189L28.3568 3.56925L28.344 3.58203C28.327 3.60758 28.3014 3.63313 28.2588 3.63313C28.229 3.63313 28.2077 3.62035 28.1865 3.60332C27.8628 3.39892 27.5349 3.24562 27.1815 3.09658C27.1432 3.07955 27.1006 3.054 27.1006 2.99864C27.1006 2.96883 27.1517 2.88793 27.1985 2.82405V2.81128C27.2496 2.74314 27.2965 2.67501 27.3178 2.63669C27.322 2.63669 27.322 2.63243 27.3305 2.62391ZM27.3135 6.04758C27.5562 5.66859 27.7777 5.28961 27.9821 4.89358C28.1013 4.68919 28.1992 4.47627 28.3099 4.27187C28.327 4.24206 28.361 4.20374 28.4079 4.20374C28.4462 4.20374 28.5271 4.26761 28.5995 4.32723C28.6719 4.3911 28.74 4.4635 28.7741 4.48905C28.7996 4.50608 28.8124 4.54014 28.8124 4.56995C28.8124 4.66789 27.965 6.24772 27.8458 6.4436C27.8288 6.46915 27.7947 6.4947 27.7606 6.4947C27.7266 6.4947 27.6286 6.43083 27.5434 6.3627C27.4583 6.29882 27.3646 6.22643 27.3305 6.20088C27.305 6.18385 27.288 6.14978 27.288 6.11572C27.288 6.09868 27.2922 6.07739 27.3007 6.06462C27.305 6.06036 27.305 6.04758 27.3135 6.04758ZM27.816 0.920592C27.9821 0.97595 28.9317 1.38475 28.9317 1.55934C28.9317 1.63173 28.7358 1.88297 28.6762 1.9511C28.6591 1.96813 28.6336 1.99368 28.6038 2.0022C28.5995 2.0022 28.5867 2.0022 28.5782 1.99794L28.5143 1.98091L28.5016 1.97665C28.4207 1.91278 28.3483 1.86593 28.2674 1.81483C28.0246 1.66154 27.7777 1.5423 27.5222 1.41881C27.4838 1.40178 27.4498 1.36771 27.4498 1.32087C27.4498 1.27829 27.5009 1.20164 27.5477 1.13351C27.6031 1.06963 27.6542 0.997242 27.6797 0.971692C27.6797 0.971692 27.684 0.967434 27.6925 0.958917C27.6925 0.958917 27.7436 0.920592 27.7734 0.920592H27.8032C27.8032 0.920592 27.8075 0.924851 27.816 0.924851V0.920592ZM30.0729 5.65582L31.6229 5.57065C31.7038 5.56639 31.7294 5.5153 31.6868 5.44716C31.5505 5.25554 31.4057 5.06817 31.2695 4.87229C31.2524 4.84674 31.2397 4.82971 31.2397 4.7999C31.2397 4.75732 31.2695 4.72751 31.3078 4.70622L31.5079 4.60828C31.5803 4.56569 31.6697 4.52311 31.6995 4.52311C31.7294 4.52311 31.7634 4.53589 31.7805 4.56144L31.8869 4.68493C31.9252 4.72751 31.955 4.77009 31.9934 4.81693C32.3213 5.25128 32.6577 5.71544 32.8748 6.21791C32.8791 6.22217 32.8791 6.23495 32.8791 6.24346V6.26901C32.8834 6.32011 32.8663 6.33715 32.828 6.3627L32.8152 6.37547C32.7769 6.38825 32.6917 6.44786 32.6023 6.4947C32.5086 6.55006 32.4107 6.59264 32.3809 6.59264C32.3255 6.59264 32.3 6.55432 32.2829 6.52451C32.2702 6.4947 32.2531 6.46064 32.2404 6.43935L32.1552 6.25198C32.1424 6.22643 32.1296 6.19662 32.1126 6.16681C32.0998 6.14126 32.07 6.12423 32.0402 6.12849C31.3461 6.18385 30.6563 6.23495 29.9622 6.28179L29.2979 6.33289C29.1872 6.33715 29.0637 6.35844 28.9487 6.35844C28.8848 6.35844 28.838 6.32863 28.8295 6.2605C28.8252 6.20514 28.8039 6.12423 28.7996 6.05184C28.7869 5.97093 28.7741 5.89854 28.7741 5.83893C28.7741 5.77505 28.8167 5.73247 28.8806 5.72821L29.2212 5.71118C29.251 5.71118 29.2766 5.69414 29.2894 5.66859C29.5321 5.16612 29.7365 4.6466 29.8983 4.11432C29.9153 4.05044 29.8855 4.00786 29.8259 4.00786H28.872C28.8039 4.00786 28.7613 3.95676 28.7613 3.89714V3.53093C28.7613 3.46705 28.8039 3.42021 28.872 3.42021H30.3539C30.405 3.42021 30.4348 3.3904 30.4348 3.33931V2.50894C30.4348 2.45784 30.405 2.42803 30.3539 2.42803H29.1872C29.119 2.42803 29.0764 2.37693 29.0764 2.31731V1.94684C29.0764 1.89148 29.119 1.84038 29.1872 1.84038H30.3539C30.405 1.84038 30.4348 1.81058 30.4348 1.75948V0.971692C30.4348 0.916334 30.4774 0.865234 30.5456 0.865234H30.9629C31.031 0.865234 31.0736 0.916334 31.0736 0.971692V1.74244C31.0736 1.79354 31.1034 1.82335 31.1545 1.82335H32.3809C32.449 1.82335 32.4916 1.87445 32.4916 1.92981V2.30028C32.4916 2.36416 32.449 2.411 32.3809 2.411H31.1545C31.1034 2.411 31.0736 2.4408 31.0736 2.4919V3.32227C31.0736 3.37337 31.1034 3.40318 31.1545 3.40318H32.679C32.7471 3.40318 32.7897 3.45428 32.7897 3.5139V3.88011C32.7897 3.94398 32.7471 3.99082 32.679 3.99082H30.7201C30.6903 3.99082 30.6563 4.00786 30.6477 4.04192C30.4476 4.55718 30.239 5.05114 30.0047 5.54084C29.9749 5.61324 30.0047 5.66434 30.0857 5.66008L30.0729 5.65582Z" fill="#855E3B"/>
<path d="M39.5475 6.18875C39.522 6.17172 39.4964 6.13765 39.4922 6.10359C39.4922 6.09933 39.4922 6.08655 39.4964 6.07804L39.5092 6.05249C39.5092 6.05249 39.522 6.02268 39.5348 6.01416L39.5603 5.99713C39.7775 5.86086 39.9776 5.73737 40.1693 5.57982C41.3786 4.58763 41.83 3.06742 41.9066 1.56424C41.9109 1.42372 41.9066 1.26616 41.9237 1.12989C41.9279 1.07454 41.9748 1.02344 42.0344 1.02344H42.5071C42.6135 1.02344 42.6178 1.09583 42.6178 1.18525L42.605 1.29171C42.605 1.67496 42.6774 2.06246 42.754 2.43719C43.0138 3.64655 43.5674 4.83036 44.5809 5.59685C44.7725 5.73311 44.9641 5.84383 45.1685 5.95455L45.2111 5.98435C45.2111 5.98435 45.2281 5.99713 45.2281 6.00139C45.2409 6.01416 45.2409 6.02694 45.2451 6.03971C45.2451 6.04397 45.2451 6.05675 45.2409 6.06526V6.09507C45.2409 6.09507 45.2239 6.12062 45.2153 6.12488L45.2026 6.14191C45.0961 6.24837 44.9982 6.35908 44.9045 6.47832C44.8875 6.50387 44.8619 6.5209 44.8321 6.52942H44.8065L44.781 6.51664C44.781 6.51664 44.764 6.51664 44.764 6.51238C43.5248 5.85661 42.8179 4.78777 42.4091 3.53583C42.3836 3.45067 42.3538 3.40383 42.324 3.40383C42.2984 3.40383 42.2686 3.44641 42.243 3.53583C41.8641 4.76222 41.17 5.80976 40.016 6.50387C40.016 6.50812 40.0032 6.50812 39.9989 6.50812L39.9606 6.5209C39.9606 6.5209 39.9436 6.52516 39.9351 6.52516C39.9052 6.5209 39.8797 6.50812 39.8627 6.48683C39.8627 6.46128 39.5816 6.20579 39.5475 6.17598V6.18875Z" fill="#855E3B"/>
<path d="M52.2846 5.66273V2.68618C52.2846 2.68618 52.2804 2.66063 52.2676 2.67341L52.2506 2.69044C52.2506 2.69044 52.2378 2.6947 52.2378 2.70322C52.208 2.72025 52.1739 2.74154 52.1441 2.74154C52.1015 2.74154 52.076 2.71599 52.0504 2.69044C51.9823 2.62231 51.9184 2.54992 51.846 2.47753L51.829 2.46049C51.829 2.46049 51.8162 2.44772 51.8162 2.43495L51.7992 2.39662C51.7992 2.39662 51.7949 2.37959 51.7949 2.36681C51.7992 2.337 51.8247 2.30294 51.8503 2.2859C51.9142 2.23055 51.9865 2.17945 52.0504 2.11983C52.3315 1.87711 52.5699 1.5918 52.7616 1.27669C52.8339 1.15746 52.8936 1.04248 52.9617 0.927508C52.9872 0.889183 53.0171 0.859375 53.0682 0.859375H53.528C53.5536 0.859375 53.5706 0.863633 53.5919 0.876408C53.5919 0.876408 53.5962 0.880666 53.6047 0.889183C53.758 1.00842 54.6224 1.78768 54.6224 1.93247C54.6224 2.0006 54.3499 2.32423 54.269 2.32423C54.2264 2.32423 54.2009 2.29442 54.1838 2.26887C54.0518 2.10706 53.9241 1.95376 53.7921 1.80472C53.6813 1.68548 53.5749 1.56199 53.4514 1.45128C53.4131 1.41295 53.3662 1.42147 53.3322 1.46831C53.1193 1.7962 52.8723 2.09428 52.5997 2.36681C52.5188 2.45198 52.5359 2.50734 52.6636 2.50734H53.0426C53.0937 2.50734 53.1235 2.47753 53.1235 2.42643V2.06873C53.1235 2.00486 53.1661 1.95802 53.2342 1.95802H53.5493C53.6175 1.95802 53.6601 2.00912 53.6601 2.06873V2.42643C53.6601 2.47753 53.6899 2.50734 53.741 2.50734H54.269C54.3371 2.50734 54.3797 2.55844 54.3797 2.61805V4.48319C54.3797 4.54706 54.3371 4.5939 54.269 4.5939H52.9361C52.885 4.5939 52.8552 4.62371 52.8552 4.67481V5.46259C52.8552 5.52647 52.8978 5.55628 52.9617 5.53499L53.5834 5.3604C53.6345 5.34762 53.6558 5.30504 53.6345 5.25394C53.6175 5.21561 53.5919 5.17303 53.5706 5.13045C53.5195 5.04528 53.477 4.94308 53.477 4.92605C53.477 4.88347 53.5068 4.85366 53.5451 4.83237C53.5451 4.82811 53.5579 4.82811 53.5579 4.82811C53.5877 4.81533 53.6558 4.78978 53.7239 4.75998C53.7921 4.73443 53.8645 4.70888 53.89 4.70888C53.9411 4.70888 53.9581 4.72591 53.9837 4.75146V4.76423C54.12 4.97715 54.2434 5.2369 54.3499 5.47537C54.3669 5.52647 54.401 5.54776 54.4223 5.54776C54.4436 5.54776 54.4734 5.52221 54.4904 5.46685C54.7374 4.78978 54.78 4.02329 54.78 3.3079V1.26817C54.78 1.2043 54.8226 1.15746 54.8907 1.15746H57.4372C57.5053 1.15746 57.5479 1.20856 57.5479 1.26817V1.62587C57.5479 1.68974 57.5053 1.73658 57.4372 1.73658H55.4485C55.3974 1.73658 55.3676 1.76639 55.3676 1.81749V2.67767C55.3676 2.72877 55.3974 2.75858 55.4485 2.75858H57.1519C57.1519 2.75858 57.1561 2.75432 57.1646 2.7458H57.203C57.2328 2.7458 57.2881 2.76283 57.3435 2.78413L57.4797 2.83522C57.5351 2.86077 57.5521 2.8991 57.5521 2.95446C57.4159 3.73373 57.1561 4.5428 56.7345 5.21561C56.7175 5.24542 56.7218 5.28375 56.7388 5.3093C56.9943 5.59886 57.2668 5.81603 57.599 6.02043C57.6288 6.03746 57.6714 6.06301 57.6714 6.11837C57.6714 6.1567 57.6458 6.1865 57.6203 6.21205C57.5394 6.30574 57.467 6.39942 57.3861 6.49736C57.3605 6.53569 57.335 6.54846 57.2924 6.54846L57.2413 6.53569C57.2413 6.53569 57.2243 6.53569 57.2157 6.53143C56.9049 6.34406 56.6323 6.09282 56.3896 5.82455C56.3513 5.78197 56.3045 5.78197 56.2661 5.82455C56.0319 6.09708 55.7381 6.35258 55.4187 6.53569C55.4145 6.53994 55.4017 6.53994 55.3889 6.53994H55.3634C55.3208 6.5442 55.291 6.53994 55.2654 6.50162C55.1845 6.40794 55.1164 6.31425 55.044 6.22909L55.027 6.21205C55.027 6.21205 55.027 6.2078 55.0227 6.2078V6.19502L55.0185 6.19076L55.0057 6.15244C55.0057 6.15244 55.0014 6.13541 55.0014 6.12689C55.0057 6.08431 55.0397 6.05876 55.0653 6.04172H55.0781C55.1462 5.98636 55.2271 5.94378 55.2995 5.89268C55.5422 5.71809 55.7594 5.52647 55.951 5.30504C55.9766 5.27949 55.9766 5.24116 55.9553 5.21135C55.7764 4.91327 55.6274 4.60242 55.4954 4.28305C55.4528 4.16381 55.4145 4.10846 55.3847 4.10846C55.3549 4.10846 55.3336 4.17659 55.3208 4.3086C55.2484 5.07083 55.061 5.93952 54.6182 6.52291L54.6054 6.53569C54.6054 6.53569 54.5628 6.57401 54.5202 6.57401C54.4904 6.57401 54.4777 6.56123 54.4521 6.54846L54.4393 6.53569C54.384 6.4931 54.3414 6.45478 54.286 6.41645L54.1668 6.34406L54.154 6.33129C54.1285 6.31851 54.1114 6.29296 54.1029 6.2589C54.1029 6.24612 54.1029 6.23335 54.1072 6.22909L54.1242 6.1865C54.137 6.16095 54.1242 6.14818 54.0944 6.1567C54.0774 6.16095 54.0561 6.16095 54.0433 6.16095C53.9794 6.16095 53.9624 6.11837 53.9454 6.08856V6.07579C53.9198 6.02043 53.9028 5.96507 53.8815 5.9012C53.8687 5.85862 53.8261 5.83732 53.7878 5.85862C53.626 5.90972 53.2853 6.02043 52.9617 6.12689C52.5572 6.26315 52.1569 6.39516 52.1313 6.39516C52.0802 6.39516 52.0504 6.36535 52.0334 6.32277C52.0206 6.29296 51.9908 6.19928 51.9525 6.10986C51.9227 6.02895 51.8886 5.93527 51.8886 5.90972C51.8886 5.84584 51.9312 5.82455 51.9738 5.81177L52.2165 5.7479C52.2548 5.74364 52.2804 5.70958 52.2804 5.67551L52.2846 5.66273ZM52.9234 3.32493H53.7239C53.775 3.32493 53.8048 3.29512 53.8048 3.24402V3.04388C53.8048 2.99278 53.775 2.96297 53.7239 2.96297H52.9234C52.8723 2.96297 52.8425 2.99278 52.8425 3.04388V3.24402C52.8425 3.29512 52.8723 3.32493 52.9234 3.32493ZM52.9234 4.14252H53.7239C53.775 4.14252 53.8048 4.11271 53.8048 4.06161V3.84018C53.8048 3.78908 53.775 3.75928 53.7239 3.75928H52.9234C52.8723 3.75928 52.8425 3.78908 52.8425 3.84018V4.06161C52.8425 4.11271 52.8723 4.14252 52.9234 4.14252ZM56.7857 3.32493H55.8318C55.7679 3.32493 55.7381 3.36751 55.7594 3.42287C55.8829 3.84444 56.049 4.25324 56.2661 4.63223C56.3045 4.70462 56.3598 4.70462 56.4024 4.63223C56.6068 4.25324 56.7601 3.84018 56.8623 3.42287C56.8793 3.359 56.8495 3.32493 56.7899 3.32493H56.7857Z" fill="#855E3B"/>
<path d="M66.856 5.73673V4.51034C66.856 4.45924 66.8262 4.42943 66.7751 4.42943H65.1825C65.1143 4.42943 65.0718 4.37833 65.0718 4.31871V3.93972C65.0718 3.87585 65.1143 3.82901 65.1825 3.82901H66.7751C66.8262 3.82901 66.856 3.7992 66.856 3.7481V2.71334C66.856 2.66224 66.8262 2.63243 66.7751 2.63243H65.5402C65.5104 2.63243 65.4848 2.64946 65.4678 2.67501C65.3954 2.82405 65.0164 3.53093 64.8674 3.55648C64.8631 3.55648 64.8503 3.55648 64.8418 3.55222L64.7907 3.53944L64.7779 3.53519C64.7652 3.51815 64.7524 3.50964 64.7354 3.49686L64.663 3.4415C64.663 3.4415 64.6332 3.42447 64.6204 3.41595C64.5565 3.37763 64.4969 3.34782 64.433 3.30524C64.4032 3.28821 64.3691 3.25414 64.3691 3.2073C64.3691 3.17749 64.3862 3.15194 64.4075 3.12639C64.9099 2.5132 65.1995 1.80632 65.4167 1.04834C65.4295 1.00576 65.472 0.967434 65.5231 0.967434C65.5487 0.967434 65.6466 0.984467 65.7446 1.01002L65.9745 1.06537C66.0256 1.07815 66.0682 1.10796 66.0682 1.17183C66.0682 1.23571 65.9021 1.67431 65.8084 1.91703C65.7829 1.98517 65.8127 2.02775 65.8893 2.02775H66.7751C66.8262 2.02775 66.856 1.99794 66.856 1.94684V0.971692C66.856 0.916334 66.8943 0.865234 66.9624 0.865234H67.384C67.4521 0.865234 67.4947 0.916334 67.4947 0.971692V1.94684C67.4947 1.99794 67.5245 2.02775 67.5756 2.02775H69.5515C69.6196 2.02775 69.6622 2.07885 69.6622 2.13847V2.52171C69.6622 2.58559 69.6196 2.63243 69.5515 2.63243H67.5756C67.5245 2.63243 67.4947 2.66224 67.4947 2.71334V3.7481C67.4947 3.7992 67.5245 3.82901 67.5756 3.82901H69.3215C69.3897 3.82901 69.4323 3.88011 69.4323 3.93972V4.31871C69.4323 4.38259 69.3897 4.42943 69.3215 4.42943H67.5756C67.5245 4.42943 67.4947 4.45924 67.4947 4.51034V5.73673C67.4947 5.78783 67.5245 5.81763 67.5756 5.81763H69.8581C69.9262 5.81763 69.9688 5.86873 69.9688 5.92835V6.3116C69.9688 6.37547 69.9262 6.42231 69.8581 6.42231H64.4969C64.4288 6.42231 64.3862 6.37121 64.3862 6.3116V5.92835C64.3862 5.86448 64.4288 5.81763 64.4969 5.81763H66.7793C66.8304 5.81763 66.8602 5.78783 66.8602 5.73673H66.856Z" fill="#855E3B"/>
<path d="M79.1752 4.91859H76.931C76.8629 4.91859 76.8203 4.86749 76.8203 4.80787V4.45869C76.8203 4.39482 76.8629 4.34798 76.931 4.34798H79.1752C79.2262 4.34798 79.2561 4.31817 79.2561 4.26707V4.02435C79.2561 3.93918 79.3199 3.91363 79.3753 3.90511H79.3881C79.4519 3.90511 79.5243 3.90937 79.5669 3.90937C79.6052 3.90937 79.8224 3.76885 80.0013 3.63684C80.1248 3.55168 80.1077 3.49632 79.9587 3.49632H77.9956C77.9275 3.49632 77.8849 3.44522 77.8849 3.3856V3.05771C77.8849 2.99384 77.9275 2.947 77.9956 2.947H80.8487L80.8913 2.93422C80.8913 2.93422 80.8955 2.93422 80.904 2.92996H80.9423C80.9934 2.92996 81.0616 2.97255 81.1169 3.01513L81.266 3.14714C81.266 3.14714 81.3043 3.18546 81.3086 3.21101C81.3086 3.22379 81.3086 3.23656 81.3043 3.24934L81.2788 3.30044C81.2788 3.30044 81.266 3.31747 81.266 3.32599C80.9253 3.67942 80.3632 4.06267 79.9161 4.30114C79.9033 4.30539 79.8991 4.31817 79.8991 4.33094C79.8991 4.34798 79.9033 4.35649 79.9246 4.35649H82.2496C82.3178 4.35649 82.3604 4.40759 82.3604 4.46721V4.81639C82.3604 4.88026 82.3178 4.92711 82.2496 4.92711H79.98C79.9289 4.92711 79.8991 4.95691 79.8991 5.00801V5.9491C79.8991 6.22589 79.848 6.43454 79.5456 6.53674C79.3966 6.57933 79.2007 6.60488 79.0006 6.60913C78.8004 6.62191 78.596 6.62191 78.4427 6.62191C78.3874 6.62191 78.3576 6.5921 78.332 6.55378V6.541L78.2894 6.41751L78.1957 6.20034L78.1915 6.18756C78.1872 6.16201 78.1745 6.13646 78.1745 6.11517C78.1745 6.04704 78.2298 6.03 78.2852 6.03C78.4853 6.03 78.6897 6.04278 78.8941 6.04278C78.975 6.04278 79.0559 6.04278 79.1368 6.03852C79.2348 6.03426 79.2731 6.02575 79.2731 5.93206V5.00801C79.2731 4.95691 79.2433 4.92711 79.1922 4.92711L79.1752 4.91859ZM77.5059 2.49988V3.22379C77.5059 3.28766 77.4633 3.3345 77.3994 3.3345H77.029C76.9608 3.3345 76.9183 3.2834 76.9183 3.22379V1.97185C76.9183 1.90797 76.9608 1.86539 77.029 1.86539H77.6677C77.7486 1.86539 77.7784 1.81429 77.7359 1.74616C77.6975 1.68228 77.6677 1.62692 77.6251 1.57157C77.557 1.46511 77.4846 1.36717 77.4165 1.26923C77.4037 1.25219 77.3909 1.22664 77.3909 1.19684C77.3909 1.14574 77.4207 1.11593 77.4591 1.0989L77.6379 1.01373C77.7103 0.983922 77.7912 0.949855 77.8253 0.949855C77.8593 0.949855 77.8891 0.96263 77.9062 0.979663C77.9999 1.0776 78.4257 1.61841 78.4257 1.7419C78.4257 1.793 78.3831 1.82281 78.3405 1.84836H78.3235C78.3235 1.84836 78.3107 1.86539 78.3235 1.86539H79.2263C79.2944 1.86539 79.3242 1.82281 79.2986 1.75893C79.2603 1.67377 79.2263 1.58434 79.1794 1.50343C79.1155 1.3842 79.0474 1.26923 78.9793 1.14574C78.975 1.14148 78.975 1.13296 78.975 1.13296C78.9622 1.11593 78.958 1.09464 78.958 1.06909C78.958 1.01799 78.9963 0.98818 79.0389 0.971147C79.0687 0.958372 79.1496 0.932822 79.2263 0.903014C79.2986 0.877464 79.3796 0.847656 79.4051 0.847656C79.4434 0.847656 79.4775 0.864689 79.4988 0.890239C79.584 0.98818 79.9374 1.60137 79.9374 1.72061C79.9374 1.77597 79.8735 1.81429 79.8182 1.83984L79.7926 1.85261C79.7926 1.85261 79.7756 1.86539 79.7926 1.86539H80.64C80.64 1.86539 80.6911 1.85261 80.7039 1.83558C80.8529 1.63118 80.9934 1.42678 81.1169 1.20961C81.1553 1.13722 81.1893 1.06057 81.2234 0.98818L81.2362 0.975405C81.2617 0.945597 81.2915 0.920047 81.3341 0.920047C81.3639 0.920047 81.4661 0.958372 81.5641 0.983922C81.662 1.01373 81.7685 1.0478 81.7983 1.05631C81.8366 1.06909 81.8792 1.10741 81.8792 1.15425C81.8792 1.19684 81.7557 1.36717 81.6365 1.52047C81.5811 1.59286 81.5172 1.66951 81.4704 1.73764C81.4065 1.81855 81.4321 1.86965 81.5343 1.86965H82.1432C82.2113 1.86965 82.2539 1.91223 82.2539 1.97611V3.22804C82.2539 3.29192 82.2113 3.33876 82.1432 3.33876H81.7514C81.6833 3.33876 81.6407 3.28766 81.6407 3.22804V2.50413C81.6407 2.45303 81.6109 2.42323 81.5598 2.42323H77.5868C77.5357 2.42323 77.5059 2.45303 77.5059 2.50413V2.49988Z" fill="#855E3B"/>
<path d="M93.9644 6.37458H89.953C89.953 6.37458 89.9275 6.38736 89.936 6.40013V6.51085C89.9232 6.56195 89.8977 6.61731 89.8168 6.61731H89.4506C89.3824 6.61731 89.3398 6.56621 89.3398 6.51085V1.22204C89.3398 1.15817 89.3824 1.11133 89.4506 1.11133H94.4881C94.5563 1.11133 94.5988 1.16243 94.5988 1.22204V6.51085C94.5988 6.56621 94.5563 6.61731 94.4881 6.61731H94.0964C94.0155 6.61731 93.9899 6.56195 93.9856 6.51085V6.42994L93.9814 6.41717V6.40013C93.9814 6.40013 93.9771 6.37458 93.9644 6.37458ZM90.0084 5.80397H93.909C93.9601 5.80397 93.9899 5.77416 93.9899 5.72306V1.76285C93.9899 1.71175 93.9601 1.68194 93.909 1.68194H90.0084C89.9573 1.68194 89.9275 1.71175 89.9275 1.76285V5.72306C89.9275 5.77416 89.9573 5.80397 90.0084 5.80397ZM91.2859 4.39022H90.6301C90.562 4.39022 90.5194 4.33912 90.5194 4.2795V3.41081C90.5194 3.34693 90.562 3.30009 90.6301 3.30009H93.3256C93.3937 3.30009 93.4363 3.35119 93.4363 3.41081V4.20285C93.4363 4.2284 93.4534 4.25395 93.4746 4.27098C93.5045 4.28376 93.5385 4.30931 93.5683 4.32634L93.6365 4.37744L93.6492 4.39022C93.6492 4.39022 93.6748 4.42854 93.6748 4.45409C93.6748 4.49667 93.6492 4.52222 93.6237 4.53926C93.5045 4.64571 93.3214 4.75643 93.1638 4.85437C93.0914 4.89695 93.0914 4.95231 93.168 4.99064C93.3426 5.07154 93.5172 5.13116 93.7003 5.19504C93.7429 5.20781 93.8068 5.23762 93.8068 5.30149C93.8068 5.33982 93.7642 5.39943 93.7259 5.45053C93.6876 5.50589 93.645 5.56125 93.6067 5.59957H93.5939L93.5896 5.61235L93.547 5.62512C93.547 5.62512 93.5087 5.62938 93.4917 5.62512C93.0573 5.4846 92.6358 5.25465 92.2781 4.96083C92.2483 4.93102 92.2227 4.91825 92.1972 4.91825C92.1588 4.91825 92.1418 4.95657 92.1418 5.0247V5.57828C92.1418 5.63364 92.0992 5.68474 92.0311 5.68474H91.6947C91.6308 5.68474 91.5882 5.63364 91.5882 5.57828V5.06303C91.5882 4.99915 91.5627 4.96935 91.5243 4.96935C91.5073 4.96935 91.486 4.9736 91.4605 4.98638C91.1454 5.18652 90.7962 5.36537 90.4513 5.49312H90.4129C90.3704 5.49737 90.3448 5.48886 90.315 5.45479L90.1276 5.22059C90.1276 5.22059 90.1149 5.20781 90.1106 5.19504L90.0978 5.15671C90.0978 5.15671 90.0936 5.13968 90.0936 5.13116C90.1063 5.08006 90.1574 5.05877 90.1872 5.046C90.5833 4.89695 90.9665 4.74366 91.3285 4.52648C91.4605 4.45409 91.4392 4.39022 91.2859 4.39022ZM91.6606 2.63154V2.50805C91.6606 2.45695 91.6308 2.42714 91.5797 2.42714H90.596C90.5279 2.42714 90.4853 2.37604 90.4853 2.31643V2.16313C90.4853 2.09925 90.5279 2.05241 90.596 2.05241H91.5797C91.6308 2.05241 91.6606 2.0226 91.6606 1.9715C91.6606 1.9204 91.6606 1.88634 91.6649 1.86079C91.6691 1.80969 91.6776 1.77988 91.7075 1.76285C91.7373 1.74581 91.7884 1.74581 91.848 1.74581C91.9076 1.74581 91.997 1.75007 92.1077 1.75007C92.1759 1.75007 92.2185 1.80117 92.2185 1.86079V1.9715C92.2185 2.0226 92.2483 2.05241 92.2994 2.05241H93.3469C93.415 2.05241 93.4576 2.10351 93.4576 2.16313V2.31643C93.4576 2.3803 93.415 2.42714 93.3469 2.42714H92.2994C92.2483 2.42714 92.2185 2.45695 92.2185 2.50805V2.63154C92.2185 2.68264 92.2483 2.71245 92.2994 2.71245H93.6322C93.7003 2.71245 93.7429 2.76355 93.7429 2.82316V2.97646C93.7429 3.04034 93.7003 3.08718 93.6322 3.08718H90.2554C90.1872 3.08718 90.1447 3.03608 90.1447 2.97646V2.82316C90.1447 2.75929 90.1872 2.71245 90.2554 2.71245H91.5754C91.6265 2.71245 91.6564 2.68264 91.6564 2.63154H91.6606ZM91.1241 4.03252H92.7976C92.8487 4.03252 92.8785 4.00271 92.8785 3.95161V3.73444C92.8785 3.68334 92.8487 3.65353 92.7976 3.65353H91.1241C91.073 3.65353 91.0432 3.68334 91.0432 3.73444V3.95161C91.0432 4.00271 91.073 4.03252 91.1241 4.03252ZM92.8827 4.39022H92.474C92.3675 4.39022 92.3419 4.44557 92.4228 4.52222C92.4867 4.57758 92.5591 4.63294 92.6273 4.68404C92.6528 4.69681 92.6911 4.69681 92.7124 4.68404C92.7848 4.63294 92.8615 4.5861 92.9296 4.535C93.0403 4.44983 93.0233 4.39448 92.8785 4.39448L92.8827 4.39022Z" fill="#855E3B"/>
</svg>
